<svg xmlns="http://www.w3.org/2000/svg" width="271" height="314"><path fill="#24b97e" fill-rule="evenodd" d="M131.441 2.555c-1.864 1.494-1.852 1.512.309.465 1.238-.6 2.25-1.3 2.25-1.555 0-.765-.519-.544-2.559 1.09M136 1.43c0 .275.9.981 2 1.57s2 .845 2 .57-.9-.981-2-1.57-2-.845-2-.57m-11.559 5.125c-1.864 1.494-1.852 1.512.309.465 1.237-.6 2.25-1.3 2.25-1.555 0-.765-.519-.544-2.559 1.09m-5.691 3.017c-3.738 2.028-3.511 2.873.25.928 1.65-.853 3-1.765 3-2.026 0-.643-.107-.607-3.25 1.098m-6.527 3.985c-2.149 1.505-2.216 2.06-2.002 16.75l.221 15.193.301-15c.284-14.146.428-15.098 2.529-16.728 2.78-2.156 1.961-2.324-1.049-.215m46.773 19.146c-.273 7.812-.145 13.851.284 13.42s.653-6.822.496-14.203l-.284-13.42zm-36.816-1.075c-.135 3.845.258 5.47 1.57 6.5 1.53 1.2 1.601 1.181.564-.153-.652-.839-1.359-3.764-1.57-6.5l-.384-4.975zm-44.118 3.199c-6.566 3.521-8.978 12.519-5.073 18.923 1.09 1.788 2.268 3.25 2.619 3.25.35 0 .019-.761-.736-1.692-1.183-1.458-1.165-1.575.128-.848.825.464 2.299 1.531 3.275 2.37 1.033.887 3.82 1.555 6.668 1.597 5.482.082 9.216-2.46 11.645-7.927 1.057-2.377 1.358-2.585 1.452-1 .067 1.145.338 1.451.633.716.284-.706.002-1.903-.627-2.661-.785-.945-.814-1.58-.095-2.025.577-.356 1.017-1.409.979-2.339-.058-1.396-.235-1.342-1.014.309-.813 1.723-.892 1.623-.574-.72.203-1.496-.046-2.463-.553-2.149-.508.313-.78-.232-.606-1.212.199-1.118-.947-2.644-3.081-4.1-4.174-2.849-10.273-3.048-15.04-.492m99.128.139c-5.148 3.231-8.035 12.855-5.109 17.034.807 1.153.901.921.407-1-.584-2.273-.467-2.223 1.294.543 2.676 4.205 6.846 6.704 11.385 6.823 3.166.083 4.487-.553 7.583-3.652 3.441-3.442 3.746-4.203 3.697-9.222-.033-3.406.279-5.003.826-4.232.645.909.77.84.47-.26-.225-.825-.833-1.5-1.35-1.5s-2.054-1.079-3.416-2.397-1.802-2.04-.977-1.603c1.199.634 1.257.531.285-.518-.668-.721-3.593-1.488-6.5-1.702-4.095-.303-6.03.076-8.595 1.686M152.872 49.75c-1.243 1.586-1.208 1.621.378.378 1.666-1.307 2.195-2.128 1.372-2.128-.207 0-.995.788-1.75 1.75m41.052 7L191.5 59.5l2.75-2.424c1.512-1.334 2.75-2.571 2.75-2.75 0-.785-.81-.146-3.076 2.424m15.485-1.799c-1.15.477-2.693 2.32-3.428 4.095-1.135 2.74-1.117 3.621.121 5.827C210.18 72.138 220 69.88 220 61.677c0-4.981-5.847-8.694-10.591-6.726M52.073 57.635c-3.408 4.331-2.228 9.595 2.557 11.415 5.164 1.963 10.37-2.053 10.37-8 0-5.838-9.125-8.249-12.927-3.415m26.918 9.07c-.27 4.512-.132 7.844.306 7.403s.659-4.133.491-8.205l-.306-7.403zm89.088-3.122c.048 1.165.285 1.402.604.605.289-.722.253-1.585-.079-1.917s-.568.258-.525 1.312M29 65.43c0 .275.9.981 2 1.57s2 .845 2 .57-.9-.981-2-1.57-2-.845-2-.57m85.872 3.32c-1.243 1.586-1.208 1.621.378.378 1.666-1.307 2.195-2.128 1.372-2.128-.207 0-.995.787-1.75 1.75m51 0c-1.243 1.586-1.208 1.621.378.378.963-.755 1.75-1.543 1.75-1.75 0-.823-.821-.294-2.128 1.372M7.441 77.555c-1.864 1.494-1.852 1.512.309.465 1.238-.6 2.25-1.3 2.25-1.555 0-.765-.519-.544-2.559 1.09m58 4c-1.864 1.494-1.852 1.512.309.465 1.237-.6 2.25-1.3 2.25-1.555 0-.765-.519-.544-2.559 1.09m151.638.028c.048 1.165.285 1.402.604.605.289-.722.253-1.585-.079-1.917s-.568.258-.525 1.312m50.918 15.214.497 16.703.279-15.924c.154-8.758-.07-16.274-.497-16.702s-.552 6.737-.279 15.923M52.195 84.5c.02 1.65.244 2.204.498 1.231s.237-2.323-.037-3-.481.119-.461 1.769m81.312 1.489c-.35.566.051.734.941.393 1.732-.665 2.049-1.382.611-1.382-.518 0-1.216.445-1.552.989M54 88c-.901.582-1.025.975-.309.985.655.008 1.469-.435 1.809-.985.767-1.242.421-1.242-1.5 0m200.989 7.295.488 7.205.313-6.398c.172-3.52-.048-6.762-.488-7.205-.441-.444-.582 2.436-.313 6.398M41.272 93c0 2.475.195 3.487.434 2.25.238-1.237.238-3.263 0-4.5-.239-1.237-.434-.225-.434 2.25M149 93.43c0 .275.9.981 2 1.57s2 .845 2 .57-.9-.981-2-1.57-2-.845-2-.57m-24.25 6.327c-5.362 3.14-9.75 6.047-9.75 6.459 0 .413 2.218 1.874 4.929 3.248 4.673 2.368 7.216 4.536 5.321 4.536-.477 0-1.741.715-2.809 1.589-2.361 1.934 2.36-.79 8.668-5l4.361-2.911 4.809 2.685 4.809 2.685 5.133-2.805c2.823-1.543 5.27-3.241 5.436-3.774.301-.958-18.449-12.491-20.233-12.445-.508.012-5.311 2.592-10.674 5.733M87 99.393c0 .216.698.661 1.552.989.89.341 1.291.173.941-.393-.587-.951-2.493-1.406-2.493-.596m95 0c0 .216.698.661 1.552.989.89.341 1.291.173.941-.393-.587-.951-2.493-1.406-2.493-.596m53.998 22.905.498 21.202.273-20.429c.151-11.236-.074-20.776-.498-21.202-.424-.425-.547 8.768-.273 20.429m17.874-16.548c-1.243 1.586-1.208 1.621.378.378.963-.755 1.75-1.543 1.75-1.75 0-.823-.821-.294-2.128 1.372M94.677 117.757l-10.823 6.586 5.61 3.432c4.346 2.658 5.365 3.726 4.525 4.738-.631.761-.937 4.166-.733 8.147l.352 6.84.205-7 .204-7 5.742-3.588c3.157-1.974 8.55-5.349 11.982-7.5 3.433-2.152 6.245-4.216 6.25-4.589.011-.826-10.384-6.857-11.613-6.737-.483.047-5.748 3.049-11.701 6.671m63.197-2.912-5.625 3.655 10.125 5.976c5.569 3.287 10.722 6.662 11.45 7.5s1.061.997.74.353c-.345-.69 1.676-2.464 4.926-4.323 3.03-1.734 5.51-3.466 5.51-3.849 0-.382-2.588-2.145-5.75-3.916-3.162-1.772-8-4.533-10.75-6.136l-5-2.915zm56.626-1.749c-1.65 1.073-3.813 1.751-4.807 1.506-1.543-.38-1.616-.214-.5 1.131 1.009 1.217 1.346 9.006 1.476 34.172.229 44.025.033 40.147 1.995 39.394 1.216-.467 1.441-.278.836.701-.61.987-.377 1.167.888.681.949-.364 1.462-.247 1.148.261-.313.506-.111 1.202.448 1.548.559.345 1.072.151 1.141-.431s.238-1.509.375-2.059.382-2.687.543-4.75c.243-3.113.406-2.73.957 2.25l.664 6 .168-6.143c.13-4.756-.185-6.278-1.395-6.743-.86-.33-1.345-.954-1.077-1.387.267-.433.588-3.924.713-7.757.124-3.834.564-7.894.977-9.023s.34-2.786-.162-3.683c-.584-1.044-.524-1.871.168-2.299 1.066-.659 1.211-35.286.177-42.331-.53-3.614-.71-3.653-4.733-1.038m-186.508 7.699.491 8.705.303-7.905c.167-4.348-.054-8.265-.491-8.705s-.574 3.118-.303 7.905M60.426 136.5c.001 12.1.145 16.913.321 10.695s.175-16.118-.001-22c-.177-5.882-.321-.795-.32 11.305m11.069 38.488c.021 50.672.053 51.491 2.013 51.693 1.559.16 1.612.092.242-.312-1.522-.448-1.75-1.876-1.75-10.955v-10.439l3.75 2.333a381 381 0 0 0 4.89 3.003c.836.492 1.176-4.855 1.278-20.07.076-11.408.402-26.229.725-32.936l.585-12.196-3.364-2.051c-1.85-1.128-3.683-2.052-4.074-2.054-.39-.002-.84 3.672-1 8.166-.189 5.342-.715 8.31-1.517 8.575-.93.308-1.296-3.782-1.513-16.919-.157-9.53-.277 5.844-.265 34.162m115.755-46.242-9.25 5.623v40.256c0 29.351.313 40.45 1.155 40.97.715.443.883.275.44-.44-.392-.635-.236-1.155.346-1.155s1.059.482 1.059 1.071c0 .59.675.397 1.5-.428s1.5-1.982 1.5-2.572c0-.589.45-1.071 1-1.071 1.291 0 1.295 1.7.005 2.497-.547.338-1.471 1.602-2.055 2.809-.984 2.037-.955 2.064.404.377.805-.999 1.741-1.752 2.08-1.675.339.078 1.167-.081 1.841-.354s.775-.531.225-.574c-1.632-.127.034-73.173 1.692-74.203q2.316-1.44 2.765 47.967c.144 15.88.443 19.999 1.364 18.769.884-1.181 1.554-1.307 2.679-.5 1.265.907 1.226.988-.25.513-.963-.31-1.75-.094-1.75.479 0 2.232 3.348.265 3.583-2.105.187-1.896.564-70.567.439-80.25-.012-.963-.36-1.722-.772-1.688s-4.912 2.592-10 5.684m-61.5 8.081c-4.263 2.549-7.747 4.868-7.743 5.154s3.803 2.672 8.443 5.302l8.436 4.784 8.531-4.784c4.691-2.63 8.395-5.233 8.229-5.783-.416-1.383-14.799-9.5-16.646-9.394-.825.048-4.988 2.172-9.25 4.721m24.842 12.905-14.909 8.763.666 41.668c.744 46.521 1.064 50.871 3.805 51.588 1.046.273 1.846 1.381 1.846 2.557 0 2.031.03 2.034 1.411.144.777-1.061 1.188-2.292.914-2.735-.273-.442-.023-1.376.556-2.074.689-.83 1.111-14.044 1.22-38.206.21-46.797-.01-44.82 5.344-47.958 2.327-1.363 4.759-2.479 5.405-2.479 1.621 0 .408 111.785-1.236 114-.968 1.303-.885 1.32.636.128 1.61-1.263 1.75-4.309 1.75-38.059 0-31.89.206-36.941 1.574-38.628.866-1.067 1.293-1.384.948-.702-.411.814-.096 1.035.92.645.851-.327 1.357-.9 1.126-1.274-.232-.375.446-.681 1.505-.681 1.86 0 1.935 1.172 2.157 33.535.18 26.115.288 28.557.489 11.036.142-12.375-.074-39.945-.48-61.266l-.739-38.766zM8.121 145.71c-4.045 1.993-7.233 6.831-6.587 9.999l.938 4.603c.721 3.532 4.719 7.596 8.557 8.696C18.625 171.187 26 165.415 26 157.291c0-10.413-8.748-16.079-17.879-11.581m242.251-.121c-7.535 3.716-8.469 14.011-1.84 20.265 2.833 2.673 4.456 3.433 7.116 3.333 10.697-.402 15.852-12.77 8.295-19.903-1.554-1.466-2.626-2.988-2.383-3.382.244-.393-.57-.493-1.809-.222-1.808.396-1.956.283-.751-.578 2.444-1.746-4.948-1.329-8.628.487m-206.5 3.161c-1.243 1.586-1.208 1.621.378.378 1.666-1.307 2.195-2.128 1.372-2.128-.207 0-.995.787-1.75 1.75m59.917 27.084c-.159 11.538.021 20.785.401 20.55.379-.235 2.179.48 4 1.59 3.498 2.133 4.887 2.511 4.692 1.276-.066-.412-.066-9.214 0-19.559.092-14.731.389-18.656 1.368-18.103q1.257.71.25-.308c-.55-.558-3.12-2.231-5.711-3.719l-4.711-2.705zm-75.33-17.767c-.363.586-.445 1.281-.183 1.543s.743-.218 1.069-1.067c.676-1.762.1-2.072-.886-.476M240 157.378c0 .207.787.995 1.75 1.75 1.586 1.243 1.621 1.208.378-.378-1.307-1.666-2.128-2.195-2.128-1.372M51.829 165c.209 2.2.559 4 .776 4s.395-1.8.395-4-.349-4-.776-4-.605 1.8-.395 4m-27.905 2.75L21.5 170.5l2.75-2.424c2.57-2.266 3.209-3.076 2.424-3.076-.179 0-1.416 1.238-2.75 2.75M4.5 168c.995 1.1 2.035 2 2.31 2s-.315-.9-1.31-2-2.035-2-2.31-2 .315.9 1.31 2m55.495 10.204c-.272 6.987-.143 12.349.288 11.916s.654-6.149.496-12.703l-.288-11.917zm205.41-9.954-1.905 2.25 2.25-1.905c2.114-1.79 2.705-2.595 1.905-2.595-.19 0-1.202 1.012-2.25 2.25M123.439 194c0 15.125.139 21.313.309 13.75s.169-19.937 0-27.5c-.17-7.562-.309-1.375-.309 13.75m95.068-15.011c-.35.566.051.734.941.393 1.732-.665 2.049-1.382.611-1.382-.518 0-1.216.445-1.552.989m49.282 32.205c.22 15.988-.019 21.401-1 22.656-1.151 1.474-1.102 1.503.461.278 1.567-1.229 1.75-3.554 1.75-22.191 0-11.451-.337-21.028-.75-21.284s-.62 8.988-.461 20.541m-12.4 1.306c.001 7.15.161 9.944.353 6.208.193-3.735.192-9.585-.003-13-.194-3.414-.352-.358-.35 6.792m-45.93-8.433c-.363.586-.445 1.281-.183 1.543s.743-.218 1.069-1.067c.676-1.762.1-2.072-.886-.476M30.405 206.25 28.5 208.5l2.25-1.905c1.238-1.048 2.25-2.06 2.25-2.25 0-.8-.805-.209-2.595 1.905m178.99 14.25c.001 7.7.158 10.718.348 6.706.191-4.011.189-10.311-.002-14-.192-3.688-.348-.406-.346 7.294m-149.316-8.917c.048 1.165.285 1.402.604.605.289-.722.253-1.585-.079-1.917s-.568.258-.525 1.312M217.232 215c0 1.925.206 2.713.457 1.75.252-.963.252-2.537 0-3.5-.251-.963-.457-.175-.457 1.75m-39.812 25.5c-.001 11 .145 15.636.325 10.303.179-5.333.18-14.333.001-20-.178-5.667-.325-1.303-.326 9.697M220 223.378c0 .207.787.995 1.75 1.75 1.586 1.243 1.621 1.208.378-.378-1.307-1.666-2.128-2.195-2.128-1.372m-31.595 6.872-1.905 2.25 2.25-1.905c1.238-1.048 2.25-2.06 2.25-2.25 0-.8-.805-.209-2.595 1.905M123.36 242c0 5.225.169 7.363.375 4.75s.206-6.887 0-9.5-.375-.475-.375 4.75m86.835-2.5c.02 1.65.244 2.204.498 1.231s.237-2.323-.037-3-.481.119-.461 1.769M63.5 248c.995 1.1 2.035 2 2.31 2s-.315-.9-1.31-2-2.035-2-2.31-2 .315.9 1.31 2m142.372.75c-1.243 1.586-1.208 1.621.378.378 1.666-1.307 2.195-2.128 1.372-2.128-.207 0-.995.787-1.75 1.75m-87.139 29.374c.679.684 1.486.991 1.793.683.308-.308-.247-.867-1.233-1.243-1.425-.542-1.54-.428-.56.56"/><path fill="#125148" fill-rule="evenodd" d="m123 7.979-11.5 6.822-.274 15.403-.275 15.402 3.525 1.681c1.938.924 3.524 2.101 3.524 2.615 0 1.244-5.605 4.569-10.147 6.02C99.494 58.592 101.095 71 109.799 71c1.315 0 3.757-1.406 5.528-3.181 2.812-2.819 18.226-12.812 19.769-12.817 1.676-.005 17.119 10.016 19.711 12.792 3.508 3.755 6.779 4.106 10.558 1.133 1.878-1.477 2.626-2.984 2.603-5.25-.042-4.246-1.833-6.365-6.888-8.149-2.316-.817-5.352-2.383-6.747-3.48l-2.536-1.996 3.601-2.125L159 45.802l.077-13.151c.042-7.233.226-13.936.41-14.896.195-1.015-.779-2.53-2.326-3.62-2.82-1.985-22.082-13.19-22.446-13.057-.118.044-5.39 3.149-11.715 6.901m5.25 11.753L122 23.436v13.468l4.25 2.9c8.449 5.766 8.151 5.735 15.303 1.552L148 37.584l-.045-7.042-.045-7.042-6.005-3.75c-3.302-2.062-6.319-3.744-6.705-3.736-.385.007-3.512 1.68-6.95 3.718m64.937 17.694c5.169 5.234 4.866 12.192-.77 17.655-2.837 2.749-4.231 3.364-7.441 3.28-4.418-.116-10.405-3.987-11.5-7.436-.362-1.142-.881-1.853-1.153-1.582-1.005 1.005 2.849 7.411 5.222 8.681 2.317 1.24 2.455 1.801 2.455 10v8.686l-8.98 5.116-8.981 5.117-13.419-7.944-13.42-7.944-13.63 7.976-13.63 7.976-8.97-5.243L90 76.521v-8.693c0-7.679.223-8.764 1.911-9.3 2.262-.718 4.954-4.572 6.181-8.85 1.058-3.688-.391-9.859-2.774-11.812-1.551-1.271-1.555-1.192-.052 1.134 3.562 5.516 2.665 11.777-2.382 16.61-2.523 2.416-3.823 2.878-7.926 2.817-2.862-.042-5.648-.708-6.683-1.597-3.416-2.936-4.573-3.281-3.101-.923.726 1.163 2.11 2.366 3.074 2.672 1.458.463 1.752 1.777 1.752 7.843v7.287l-13.177 7.668c-14.084 8.195-15.102 8.32-14.586 1.785.257-3.267.006-3.493-11.702-10.567L28.57 65.367l-9.535 5.797c-5.244 3.188-11.234 6.72-13.31 7.849l-3.774 2.053.274 16.128.275 16.128 12.75 7.833L28 128.988v-15.769l-6.483-3.86-6.482-3.859-.018-8.542L15 88.416l6.338-3.708C24.824 82.668 28.13 81 28.683 81c.554 0 3.777 1.79 7.162 3.978C41.699 88.762 42 89.152 42 92.964c0 3.568-.439 4.298-4 6.655l-4 2.647v41.335l-4.75 2.383c-2.613 1.31-5.121 2.289-5.574 2.174-.453-.114-.116.804.75 2.04.89 1.271 1.574 4.29 1.574 6.948 0 8.272-7.305 14.061-14.971 11.862-3.725-1.068-7.822-5.131-8.518-8.446-1.124-5.353-1.41-5.681-1.09-1.25.676 9.367 10.487 15.389 18.379 11.283 3.898-2.029 6.914-5.612 7.869-9.353.685-2.682 2.248-4.107 8.832-8.057l7.999-4.799.307-19.943.307-19.943 17.024-10c9.364-5.5 17.831-10.381 18.817-10.847 1.347-.636 4.732.921 13.594 6.25 6.491 3.903 12.098 7.097 12.46 7.097.787 0 24.968-13.74 26.686-15.163 1.196-.992 7.3 2.138 22.03 11.293 3.425 2.129 6.627 3.87 7.117 3.87.489 0 6.376-3.185 13.081-7.077l12.19-7.076 18.378 10.826 18.377 10.827.316 19.89.316 19.889 8.423 5.111c6.21 3.768 8.511 5.73 8.76 7.471.83 5.797 7.319 11.142 13.517 11.135 9.507-.011 16.674-11.537 12.361-19.877-1.712-3.313-6.925-7.157-9.561-7.052-.976.039-.801.345.5.876 1.1.448 3.19 2.009 4.644 3.467 7.271 7.29 2.077 19.379-8.496 19.777-5.229.196-10.683-5.318-11.38-11.505-.362-3.211-.055-5.358.995-6.961 1.481-2.26 1.383-2.392-3.872-5.235L236 142.57v-40.552l-3.488-2.259c-3.061-1.983-3.489-2.77-3.5-6.436-.013-4.623 1.284-6.08 9.114-10.234l4.382-2.325 6.784 4.254 6.785 4.253-.289 8.058-.288 8.059-6.75 4.047-6.75 4.048v15.63l4.25-2.565a3582 3582 0 0 1 13.023-7.789l8.773-5.224-.273-16.381-.273-16.381-12-7.365c-6.6-4.051-12.652-7.375-13.448-7.387s-6.534 3.005-12.75 6.704L218 79.451v4.774c0 2.626-.268 4.775-.595 4.775s-6.402-3.452-13.5-7.67L191 73.659v-7.155c0-6.444.261-7.396 2.629-9.58 3.408-3.143 5.417-7.94 4.785-11.426-.763-4.208-3.181-8.305-5.674-9.616-1.973-1.036-1.919-.852.447 1.544M73.75 107.785 61 115.493v74.312l-9.25 5.929c-5.374 3.444-10.905 6.196-13.2 6.567-10.608 1.714-14.327 16.532-5.668 22.579 4.326 3.021 7.756 3.374 12.48 1.284 5.447-2.409 8.121-7.415 7.224-13.521-.589-4.01-.481-4.215 3.351-6.393 2.178-1.238 4.239-2.25 4.581-2.25.341 0 .509 8.785.372 19.521-.28 22.01.032 23.136 7.44 26.819 10.024 4.983 20.506-7.021 15.16-17.36-1.653-3.196-4.371-4.994-8.982-5.943l-2.991-.616-.239-51.743-.239-51.744 6.84-4.424c3.762-2.434 10.083-6.185 14.046-8.335l7.206-3.91-5.55-3.133c-3.053-1.722-5.895-3.115-6.316-3.093-.421.021-6.502 3.507-13.515 7.746m102.763-4.617c-3.892 2.444-4.66 3.325-3.5 4.014A3230 3230 0 0 0 186 114.71c6.325 3.654 11.631 6.732 11.791 6.841.348.237.151 79.861-.207 83.449-.236 2.37-3.584 4.336-3.584 2.105 0-.573.787-.789 1.75-.479 1.476.475 1.515.394.25-.513-1.125-.807-1.795-.681-2.679.5-.921 1.23-1.22-2.889-1.364-18.769-.301-33.105-1.219-48.927-2.782-47.956-1.043.647-1.449 8.536-1.907 37.005-.32 19.9-.956 36.414-1.413 36.697s-.564-.184-.237-1.038c.328-.854.098-1.552-.511-1.552s-1.107.482-1.107 1.071c0 .59-.675 1.747-1.5 2.572s-1.5 1.018-1.5.428c0-.589-.477-1.071-1.059-1.071s-.738.52-.346 1.155c.443.715.275.883-.44.44-.842-.52-1.155-11.664-1.155-41.154 0-26.294-.35-40.441-1-40.441-.55 0-1.797-.787-2.772-1.75-1.517-1.498-7.011-4.908-25.088-15.567-1.847-1.09-4.447-2.99-5.777-4.222s-3.709-2.776-5.286-3.429c-2.553-1.058-3.334-.877-7.094 1.64-2.324 1.555-7.264 4.628-10.977 6.828-11.136 6.598-22.379 13.526-24.495 15.095-1.941 1.44-1.998 2.976-2.36 64.329l-.372 62.854 3.769 2.561c2.929 1.99 4.19 2.336 5.656 1.552 1.793-.96 1.881-2.646 1.788-34.2-.054-18.255-.073-46.016-.042-61.691l.057-28.5 14.615-8.5c8.038-4.675 15.231-8.644 15.983-8.821s6.662 2.796 13.132 6.605 13.153 7.72 14.852 8.692l3.089 1.765.66 42.63c.363 23.446.66 51.484.661 62.306.001 17.931.156 19.709 1.751 20.048.963.204 3.207-.551 4.988-1.677l3.237-2.048.013-19.711c.01-16.696.252-19.907 1.584-21 .864-.709 2.439-2.076 3.5-3.039s1.928-1.535 1.928-1.272 3.392-1.34 7.538-3.563l7.539-4.041-.289 9.274-.288 9.275-3.486.71c-7.504 1.53-11.798 10.549-8.367 17.574 3.839 7.859 13.552 9.294 19.904 2.942l3.193-3.193-.43-20.134c-.236-11.073-.061-20.36.389-20.638s2.588.696 4.751 2.165c3.855 2.618 3.928 2.78 3.677 8.196-.287 6.187 1.705 9.785 6.908 12.475 3.795 1.963 5.524 1.87 10.552-.564 4.571-2.213 7.412-6.666 7.405-11.607-.007-5.867-6.363-12.349-12.109-12.349-1.216 0-4.389-1.397-7.049-3.104L219 195.792v-7.063c0-8.05-.526-8.537-1.327-1.229-.301 2.75-.576 5.139-.611 5.309-.034.17-.519.026-1.078-.319s-.761-1.042-.448-1.548c.314-.508-.199-.625-1.148-.261-1.265.486-1.498.306-.888-.681.605-.979.38-1.168-.836-.701-2.014.773-1.91 2.9-1.796-36.799.047-16.5-.249-31.575-.659-33.5-.681-3.195-1.873-4.175-13.702-11.25-7.126-4.263-13.418-7.741-13.982-7.731s-3.269 1.428-6.012 3.149m41.888 60.132c-.055 1.76-.242 6.237-.417 9.95s.055 7.087.51 7.5c.454.412.522.219.15-.431-.372-.649-.186-1.484.414-1.855.968-.598 21.325 11.086 32.721 18.783l4.28 2.889-.28 12.603-.279 12.603-18.5 11.17C194.235 262.334 135.829 297 135.09 297c-1.064 0-41.053-23.537-93.09-54.791l-26.5-15.916-.277-13.403-.276-13.404 18.276-11.073L51.5 177.34l.294-7.794c.24-6.356.036-7.695-1.107-7.256-.771.296-6.304 3.556-12.294 7.245a2346 2346 0 0 1-23.643 14.304L2 191.436l.033 21.032.032 21.032 11.218 6.661c19.779 11.744 106.96 63.841 114.477 68.407l7.26 4.411 66.24-39.774 66.24-39.773.27-21.126.269-21.125-17.269-10.722c-15.731-9.766-22.75-14.184-29.77-18.738-2.48-1.609-2.501-1.596-2.599 1.579m-105.609 16.91c-.161 10.61-.067 36.06.208 56.557l.5 37.266 3 1.977c1.65 1.087 3.787 1.98 4.75 1.983 1.646.007 1.75-3.316 1.75-55.834v-55.841l-4.958-2.699-4.958-2.698zm38.564-16.707c-5.252 3.148-5.045 1.265-5.255 47.934-.109 24.162-.531 37.376-1.22 38.206-.579.698-.829 1.632-.556 2.074.274.443-.137 1.674-.914 2.735-1.373 1.878-1.411 1.871-1.411-.261 0-1.241-.625-2.191-1.441-2.191-.793 0-1.794-.562-2.225-1.25-.43-.687-1.054-9.575-1.384-19.75-.5-15.389-.63-12.315-.776 18.281l-.174 36.78 5.519-3.53c3.036-1.942 6.299-3.543 7.25-3.558.952-.015 3.144-1.252 4.871-2.75l3.14-2.723.623-56.25c.497-44.959.368-56.248-.641-56.241-.694.006-3.127 1.128-5.406 2.494"/></svg>