<svg xmlns="http://www.w3.org/2000/svg" width="271" height="314" viewBox="0 0 271 314" version="1.1"><path d="M 131.441 2.555 C 129.577 4.049, 129.589 4.067, 131.750 3.020 C 132.988 2.420, 134 1.720, 134 1.465 C 134 0.700, 133.481 0.921, 131.441 2.555 M 136 1.430 C 136 1.705, 136.900 2.411, 138 3 C 139.100 3.589, 140 3.845, 140 3.570 C 140 3.295, 139.100 2.589, 138 2 C 136.900 1.411, 136 1.155, 136 1.430 M 124.441 6.555 C 122.577 8.049, 122.589 8.067, 124.750 7.020 C 125.987 6.420, 127 5.720, 127 5.465 C 127 4.700, 126.481 4.921, 124.441 6.555 M 118.750 9.572 C 115.012 11.600, 115.239 12.445, 119 10.500 C 120.650 9.647, 122 8.735, 122 8.474 C 122 7.831, 121.893 7.867, 118.750 9.572 M 112.223 13.557 C 110.074 15.062, 110.007 15.617, 110.221 30.307 L 110.442 45.500 110.743 30.500 C 111.027 16.354, 111.171 15.402, 113.272 13.772 C 116.052 11.616, 115.233 11.448, 112.223 13.557 M 158.996 32.703 C 158.723 40.515, 158.851 46.554, 159.280 46.123 C 159.709 45.692, 159.933 39.301, 159.776 31.920 L 159.492 18.500 158.996 32.703 M 122.180 31.628 C 122.045 35.473, 122.438 37.098, 123.750 38.128 C 125.280 39.328, 125.351 39.309, 124.314 37.975 C 123.662 37.136, 122.955 34.211, 122.744 31.475 L 122.360 26.500 122.180 31.628 M 78.062 34.827 C 71.496 38.348, 69.084 47.346, 72.989 53.750 C 74.079 55.538, 75.257 57, 75.608 57 C 75.958 57, 75.627 56.239, 74.872 55.308 C 73.689 53.850, 73.707 53.733, 75 54.460 C 75.825 54.924, 77.299 55.991, 78.275 56.830 C 79.308 57.717, 82.095 58.385, 84.943 58.427 C 90.425 58.509, 94.159 55.967, 96.588 50.500 C 97.645 48.123, 97.946 47.915, 98.040 49.500 C 98.107 50.645, 98.378 50.951, 98.673 50.216 C 98.957 49.510, 98.675 48.313, 98.046 47.555 C 97.261 46.610, 97.232 45.975, 97.951 45.530 C 98.528 45.174, 98.968 44.121, 98.930 43.191 C 98.872 41.795, 98.695 41.849, 97.916 43.500 C 97.103 45.223, 97.024 45.123, 97.342 42.780 C 97.545 41.284, 97.296 40.317, 96.789 40.631 C 96.281 40.944, 96.009 40.399, 96.183 39.419 C 96.382 38.301, 95.236 36.775, 93.102 35.319 C 88.928 32.470, 82.829 32.271, 78.062 34.827 M 177.190 34.966 C 172.042 38.197, 169.155 47.821, 172.081 52 C 172.888 53.153, 172.982 52.921, 172.488 51 C 171.904 48.727, 172.021 48.777, 173.782 51.543 C 176.458 55.748, 180.628 58.247, 185.167 58.366 C 188.333 58.449, 189.654 57.813, 192.750 54.714 C 196.191 51.272, 196.496 50.511, 196.447 45.492 C 196.414 42.086, 196.726 40.489, 197.273 41.260 C 197.918 42.169, 198.043 42.100, 197.743 41 C 197.518 40.175, 196.910 39.500, 196.393 39.500 C 195.876 39.500, 194.339 38.421, 192.977 37.103 C 191.614 35.785, 191.175 35.063, 192 35.500 C 193.199 36.134, 193.257 36.031, 192.285 34.982 C 191.617 34.261, 188.692 33.494, 185.785 33.280 C 181.690 32.977, 179.755 33.356, 177.190 34.966 M 152.872 49.750 C 151.629 51.336, 151.664 51.371, 153.250 50.128 C 154.916 48.821, 155.445 48, 154.622 48 C 154.415 48, 153.627 48.788, 152.872 49.750 M 193.924 56.750 L 191.500 59.500 194.250 57.076 C 195.762 55.742, 197 54.505, 197 54.326 C 197 53.541, 196.190 54.180, 193.924 56.750 M 209.409 54.951 C 208.259 55.428, 206.716 57.271, 205.981 59.046 C 204.846 61.786, 204.864 62.667, 206.102 64.873 C 210.180 72.138, 220 69.880, 220 61.677 C 220 56.696, 214.153 52.983, 209.409 54.951 M 52.073 57.635 C 48.665 61.966, 49.845 67.230, 54.630 69.050 C 59.794 71.013, 65 66.997, 65 61.050 C 65 55.212, 55.875 52.801, 52.073 57.635 M 78.991 66.705 C 78.721 71.217, 78.859 74.549, 79.297 74.108 C 79.735 73.667, 79.956 69.975, 79.788 65.903 L 79.482 58.500 78.991 66.705 M 168.079 63.583 C 168.127 64.748, 168.364 64.985, 168.683 64.188 C 168.972 63.466, 168.936 62.603, 168.604 62.271 C 168.272 61.939, 168.036 62.529, 168.079 63.583 M 29 65.430 C 29 65.705, 29.900 66.411, 31 67 C 32.100 67.589, 33 67.845, 33 67.570 C 33 67.295, 32.100 66.589, 31 66 C 29.900 65.411, 29 65.155, 29 65.430 M 114.872 68.750 C 113.629 70.336, 113.664 70.371, 115.250 69.128 C 116.916 67.821, 117.445 67, 116.622 67 C 116.415 67, 115.627 67.787, 114.872 68.750 M 165.872 68.750 C 164.629 70.336, 164.664 70.371, 166.250 69.128 C 167.213 68.373, 168 67.585, 168 67.378 C 168 66.555, 167.179 67.084, 165.872 68.750 M 7.441 77.555 C 5.577 79.049, 5.589 79.067, 7.750 78.020 C 8.988 77.420, 10 76.720, 10 76.465 C 10 75.700, 9.481 75.921, 7.441 77.555 M 65.441 81.555 C 63.577 83.049, 63.589 83.067, 65.750 82.020 C 66.987 81.420, 68 80.720, 68 80.465 C 68 79.700, 67.481 79.921, 65.441 81.555 M 217.079 81.583 C 217.127 82.748, 217.364 82.985, 217.683 82.188 C 217.972 81.466, 217.936 80.603, 217.604 80.271 C 217.272 79.939, 217.036 80.529, 217.079 81.583 M 267.997 96.797 L 268.494 113.500 268.773 97.576 C 268.927 88.818, 268.703 81.302, 268.276 80.874 C 267.849 80.445, 267.724 87.611, 267.997 96.797 M 52.195 84.500 C 52.215 86.150, 52.439 86.704, 52.693 85.731 C 52.947 84.758, 52.930 83.408, 52.656 82.731 C 52.382 82.054, 52.175 82.850, 52.195 84.500 M 133.507 85.989 C 133.157 86.555, 133.558 86.723, 134.448 86.382 C 136.180 85.717, 136.497 85, 135.059 85 C 134.541 85, 133.843 85.445, 133.507 85.989 M 54 88 C 53.099 88.582, 52.975 88.975, 53.691 88.985 C 54.346 88.993, 55.160 88.550, 55.500 88 C 56.267 86.758, 55.921 86.758, 54 88 M 254.989 95.295 L 255.477 102.500 255.790 96.102 C 255.962 92.582, 255.742 89.340, 255.302 88.897 C 254.861 88.453, 254.720 91.333, 254.989 95.295 M 41.272 93 C 41.272 95.475, 41.467 96.487, 41.706 95.250 C 41.944 94.013, 41.944 91.987, 41.706 90.750 C 41.467 89.513, 41.272 90.525, 41.272 93 M 149 93.430 C 149 93.705, 149.900 94.411, 151 95 C 152.100 95.589, 153 95.845, 153 95.570 C 153 95.295, 152.100 94.589, 151 94 C 149.900 93.411, 149 93.155, 149 93.430 M 124.750 99.757 C 119.388 102.897, 115 105.804, 115 106.216 C 115 106.629, 117.218 108.090, 119.929 109.464 C 124.602 111.832, 127.145 114, 125.250 114 C 124.773 114, 123.509 114.715, 122.441 115.589 C 120.080 117.523, 124.801 114.799, 131.109 110.589 L 135.470 107.678 140.279 110.363 L 145.088 113.048 150.221 110.243 C 153.044 108.700, 155.491 107.002, 155.657 106.469 C 155.958 105.511, 137.208 93.978, 135.424 94.024 C 134.916 94.036, 130.113 96.616, 124.750 99.757 M 87 99.393 C 87 99.609, 87.698 100.054, 88.552 100.382 C 89.442 100.723, 89.843 100.555, 89.493 99.989 C 88.906 99.038, 87 98.583, 87 99.393 M 182 99.393 C 182 99.609, 182.698 100.054, 183.552 100.382 C 184.442 100.723, 184.843 100.555, 184.493 99.989 C 183.906 99.038, 182 98.583, 182 99.393 M 235.998 122.298 L 236.496 143.500 236.769 123.071 C 236.920 111.835, 236.695 102.295, 236.271 101.869 C 235.847 101.444, 235.724 110.637, 235.998 122.298 M 253.872 105.750 C 252.629 107.336, 252.664 107.371, 254.250 106.128 C 255.213 105.373, 256 104.585, 256 104.378 C 256 103.555, 255.179 104.084, 253.872 105.750 M 94.677 117.757 L 83.854 124.343 89.464 127.775 C 93.810 130.433, 94.829 131.501, 93.989 132.513 C 93.358 133.274, 93.052 136.679, 93.256 140.660 L 93.608 147.500 93.813 140.500 L 94.017 133.500 99.759 129.912 C 102.916 127.938, 108.309 124.563, 111.741 122.412 C 115.174 120.260, 117.986 118.196, 117.991 117.823 C 118.002 116.997, 107.607 110.966, 106.378 111.086 C 105.895 111.133, 100.630 114.135, 94.677 117.757 M 157.874 114.845 L 152.249 118.500 162.374 124.476 C 167.943 127.763, 173.096 131.138, 173.824 131.976 C 174.552 132.814, 174.885 132.973, 174.564 132.329 C 174.219 131.639, 176.240 129.865, 179.490 128.006 C 182.520 126.272, 185 124.540, 185 124.157 C 185 123.775, 182.412 122.012, 179.250 120.241 C 176.088 118.469, 171.250 115.708, 168.500 114.105 L 163.500 111.190 157.874 114.845 M 214.500 113.096 C 212.850 114.169, 210.687 114.847, 209.693 114.602 C 208.150 114.222, 208.077 114.388, 209.193 115.733 C 210.202 116.950, 210.539 124.739, 210.669 149.905 C 210.898 193.930, 210.702 190.052, 212.664 189.299 C 213.880 188.832, 214.105 189.021, 213.500 190 C 212.890 190.987, 213.123 191.167, 214.388 190.681 C 215.337 190.317, 215.850 190.434, 215.536 190.942 C 215.223 191.448, 215.425 192.144, 215.984 192.490 C 216.543 192.835, 217.056 192.641, 217.125 192.059 C 217.194 191.477, 217.363 190.550, 217.500 190 C 217.637 189.450, 217.882 187.313, 218.043 185.250 C 218.286 182.137, 218.449 182.520, 219 187.500 L 219.664 193.500 219.832 187.357 C 219.962 182.601, 219.647 181.079, 218.437 180.614 C 217.577 180.284, 217.092 179.660, 217.360 179.227 C 217.627 178.794, 217.948 175.303, 218.073 171.470 C 218.197 167.636, 218.637 163.576, 219.050 162.447 C 219.463 161.318, 219.390 159.661, 218.888 158.764 C 218.304 157.720, 218.364 156.893, 219.056 156.465 C 220.122 155.806, 220.267 121.179, 219.233 114.134 C 218.703 110.520, 218.523 110.481, 214.500 113.096 M 27.992 120.795 L 28.483 129.500 28.786 121.595 C 28.953 117.247, 28.732 113.330, 28.295 112.890 C 27.858 112.450, 27.721 116.008, 27.992 120.795 M 60.426 136.500 C 60.427 148.600, 60.571 153.413, 60.747 147.195 C 60.923 140.977, 60.922 131.077, 60.746 125.195 C 60.569 119.313, 60.425 124.400, 60.426 136.500 M 71.495 174.988 C 71.516 225.660, 71.548 226.479, 73.508 226.681 C 75.067 226.841, 75.120 226.773, 73.750 226.369 C 72.228 225.921, 72 224.493, 72 215.414 L 72 204.975 75.750 207.308 C 77.813 208.591, 80.013 209.942, 80.640 210.311 C 81.476 210.803, 81.816 205.456, 81.918 190.241 C 81.994 178.833, 82.320 164.012, 82.643 157.305 L 83.228 145.109 79.864 143.058 C 78.014 141.930, 76.181 141.006, 75.790 141.004 C 75.400 141.002, 74.950 144.676, 74.790 149.170 C 74.601 154.512, 74.075 157.480, 73.273 157.745 C 72.343 158.053, 71.977 153.963, 71.760 140.826 C 71.603 131.296, 71.483 146.670, 71.495 174.988 M 187.250 128.746 L 178 134.369 178 174.625 C 178 203.976, 178.313 215.075, 179.155 215.595 C 179.870 216.038, 180.038 215.870, 179.595 215.155 C 179.203 214.520, 179.359 214, 179.941 214 C 180.523 214, 181 214.482, 181 215.071 C 181 215.661, 181.675 215.468, 182.500 214.643 C 183.325 213.818, 184 212.661, 184 212.071 C 184 211.482, 184.450 211, 185 211 C 186.291 211, 186.295 212.700, 185.005 213.497 C 184.458 213.835, 183.534 215.099, 182.950 216.306 C 181.966 218.343, 181.995 218.370, 183.354 216.683 C 184.159 215.684, 185.095 214.931, 185.434 215.008 C 185.773 215.086, 186.601 214.927, 187.275 214.654 C 187.949 214.381, 188.050 214.123, 187.500 214.080 C 185.868 213.953, 187.534 140.907, 189.192 139.877 C 190.736 138.918, 191.657 154.905, 191.957 187.844 C 192.101 203.724, 192.400 207.843, 193.321 206.613 C 194.205 205.432, 194.875 205.306, 196 206.113 C 197.265 207.020, 197.226 207.101, 195.750 206.626 C 194.787 206.316, 194 206.532, 194 207.105 C 194 209.337, 197.348 207.370, 197.583 205 C 197.770 203.104, 198.147 134.433, 198.022 124.750 C 198.010 123.787, 197.662 123.028, 197.250 123.062 C 196.838 123.096, 192.338 125.654, 187.250 128.746 M 125.750 136.827 C 121.487 139.376, 118.003 141.695, 118.007 141.981 C 118.010 142.266, 121.810 144.653, 126.450 147.283 L 134.886 152.067 143.417 147.283 C 148.108 144.653, 151.812 142.050, 151.646 141.500 C 151.230 140.117, 136.847 132, 135 132.106 C 134.175 132.154, 130.012 134.278, 125.750 136.827 M 150.592 149.732 L 135.683 158.495 136.349 200.163 C 137.093 246.684, 137.413 251.034, 140.154 251.751 C 141.200 252.024, 142 253.132, 142 254.308 C 142 256.339, 142.030 256.342, 143.411 254.452 C 144.188 253.391, 144.599 252.160, 144.325 251.717 C 144.052 251.275, 144.302 250.341, 144.881 249.643 C 145.570 248.813, 145.992 235.599, 146.101 211.437 C 146.311 164.640, 146.091 166.617, 151.445 163.479 C 153.772 162.116, 156.204 161, 156.850 161 C 158.471 161, 157.258 272.785, 155.614 275 C 154.646 276.303, 154.729 276.320, 156.250 275.128 C 157.860 273.865, 158 270.819, 158 237.069 C 158 205.179, 158.206 200.128, 159.574 198.441 C 160.440 197.374, 160.867 197.057, 160.522 197.739 C 160.111 198.553, 160.426 198.774, 161.442 198.384 C 162.293 198.057, 162.799 197.484, 162.568 197.110 C 162.336 196.735, 163.014 196.429, 164.073 196.429 C 165.933 196.429, 166.008 197.601, 166.230 229.964 C 166.410 256.079, 166.518 258.521, 166.719 241 C 166.861 228.625, 166.645 201.055, 166.239 179.734 L 165.500 140.968 150.592 149.732 M 8.121 145.710 C 4.076 147.703, 0.888 152.541, 1.534 155.709 C 1.790 156.969, 2.212 159.040, 2.472 160.312 C 3.193 163.844, 7.191 167.908, 11.029 169.008 C 18.625 171.187, 26 165.415, 26 157.291 C 26 146.878, 17.252 141.212, 8.121 145.710 M 250.372 145.589 C 242.837 149.305, 241.903 159.600, 248.532 165.854 C 251.365 168.527, 252.988 169.287, 255.648 169.187 C 266.345 168.785, 271.500 156.417, 263.943 149.284 C 262.389 147.818, 261.317 146.296, 261.560 145.902 C 261.804 145.509, 260.990 145.409, 259.751 145.680 C 257.943 146.076, 257.795 145.963, 259 145.102 C 261.444 143.356, 254.052 143.773, 250.372 145.589 M 43.872 148.750 C 42.629 150.336, 42.664 150.371, 44.250 149.128 C 45.916 147.821, 46.445 147, 45.622 147 C 45.415 147, 44.627 147.787, 43.872 148.750 M 103.789 175.834 C 103.630 187.372, 103.810 196.619, 104.190 196.384 C 104.569 196.149, 106.369 196.864, 108.190 197.974 C 111.688 200.107, 113.077 200.485, 112.882 199.250 C 112.816 198.838, 112.816 190.036, 112.882 179.691 C 112.974 164.960, 113.271 161.035, 114.250 161.588 C 115.088 162.061, 115.171 161.960, 114.500 161.280 C 113.950 160.722, 111.380 159.049, 108.789 157.561 L 104.078 154.856 103.789 175.834 M 28.459 158.067 C 28.096 158.653, 28.014 159.348, 28.276 159.610 C 28.538 159.872, 29.019 159.392, 29.345 158.543 C 30.021 156.781, 29.445 156.471, 28.459 158.067 M 240 157.378 C 240 157.585, 240.787 158.373, 241.750 159.128 C 243.336 160.371, 243.371 160.336, 242.128 158.750 C 240.821 157.084, 240 156.555, 240 157.378 M 51.829 165 C 52.038 167.200, 52.388 169, 52.605 169 C 52.822 169, 53 167.200, 53 165 C 53 162.800, 52.651 161, 52.224 161 C 51.797 161, 51.619 162.800, 51.829 165 M 23.924 167.750 L 21.500 170.500 24.250 168.076 C 26.820 165.810, 27.459 165, 26.674 165 C 26.495 165, 25.258 166.238, 23.924 167.750 M 4.500 168 C 5.495 169.100, 6.535 170, 6.810 170 C 7.085 170, 6.495 169.100, 5.500 168 C 4.505 166.900, 3.465 166, 3.190 166 C 2.915 166, 3.505 166.900, 4.500 168 M 59.995 178.204 C 59.723 185.191, 59.852 190.553, 60.283 190.120 C 60.714 189.688, 60.937 183.971, 60.779 177.417 L 60.491 165.500 59.995 178.204 M 265.405 168.250 L 263.500 170.500 265.750 168.595 C 267.864 166.805, 268.455 166, 267.655 166 C 267.465 166, 266.453 167.012, 265.405 168.250 M 123.439 194 C 123.439 209.125, 123.578 215.313, 123.748 207.750 C 123.917 200.188, 123.917 187.813, 123.748 180.250 C 123.578 172.688, 123.439 178.875, 123.439 194 M 218.507 178.989 C 218.157 179.555, 218.558 179.723, 219.448 179.382 C 221.180 178.717, 221.497 178, 220.059 178 C 219.541 178, 218.843 178.445, 218.507 178.989 M 267.789 211.194 C 268.009 227.182, 267.770 232.595, 266.789 233.850 C 265.638 235.324, 265.687 235.353, 267.250 234.128 C 268.817 232.899, 269 230.574, 269 211.937 C 269 200.486, 268.663 190.909, 268.250 190.653 C 267.837 190.397, 267.630 199.641, 267.789 211.194 M 255.389 212.500 C 255.390 219.650, 255.550 222.444, 255.742 218.708 C 255.935 214.973, 255.934 209.123, 255.739 205.708 C 255.545 202.294, 255.387 205.350, 255.389 212.500 M 209.459 204.067 C 209.096 204.653, 209.014 205.348, 209.276 205.610 C 209.538 205.872, 210.019 205.392, 210.345 204.543 C 211.021 202.781, 210.445 202.471, 209.459 204.067 M 30.405 206.250 L 28.500 208.500 30.750 206.595 C 31.988 205.547, 33 204.535, 33 204.345 C 33 203.545, 32.195 204.136, 30.405 206.250 M 209.395 220.500 C 209.396 228.200, 209.553 231.218, 209.743 227.206 C 209.934 223.195, 209.932 216.895, 209.741 213.206 C 209.549 209.518, 209.393 212.800, 209.395 220.500 M 60.079 211.583 C 60.127 212.748, 60.364 212.985, 60.683 212.188 C 60.972 211.466, 60.936 210.603, 60.604 210.271 C 60.272 209.939, 60.036 210.529, 60.079 211.583 M 217.232 215 C 217.232 216.925, 217.438 217.713, 217.689 216.750 C 217.941 215.787, 217.941 214.213, 217.689 213.250 C 217.438 212.287, 217.232 213.075, 217.232 215 M 177.420 240.500 C 177.419 251.500, 177.565 256.136, 177.745 250.803 C 177.924 245.470, 177.925 236.470, 177.746 230.803 C 177.568 225.136, 177.421 229.500, 177.420 240.500 M 220 223.378 C 220 223.585, 220.787 224.373, 221.750 225.128 C 223.336 226.371, 223.371 226.336, 222.128 224.750 C 220.821 223.084, 220 222.555, 220 223.378 M 188.405 230.250 L 186.500 232.500 188.750 230.595 C 189.988 229.547, 191 228.535, 191 228.345 C 191 227.545, 190.195 228.136, 188.405 230.250 M 123.360 242 C 123.360 247.225, 123.529 249.363, 123.735 246.750 C 123.941 244.137, 123.941 239.863, 123.735 237.250 C 123.529 234.637, 123.360 236.775, 123.360 242 M 210.195 239.500 C 210.215 241.150, 210.439 241.704, 210.693 240.731 C 210.947 239.758, 210.930 238.408, 210.656 237.731 C 210.382 237.054, 210.175 237.850, 210.195 239.500 M 63.500 248 C 64.495 249.100, 65.535 250, 65.810 250 C 66.085 250, 65.495 249.100, 64.500 248 C 63.505 246.900, 62.465 246, 62.190 246 C 61.915 246, 62.505 246.900, 63.500 248 M 205.872 248.750 C 204.629 250.336, 204.664 250.371, 206.250 249.128 C 207.916 247.821, 208.445 247, 207.622 247 C 207.415 247, 206.627 247.787, 205.872 248.750 M 118.733 278.124 C 119.412 278.808, 120.219 279.115, 120.526 278.807 C 120.834 278.499, 120.279 277.940, 119.293 277.564 C 117.868 277.022, 117.753 277.136, 118.733 278.124" stroke="none" fill="#24b97e" fill-rule="evenodd"/><path d="M 123 7.979 L 111.500 14.801 111.226 30.204 L 110.951 45.606 114.476 47.287 C 116.414 48.211, 118 49.388, 118 49.902 C 118 51.146, 112.395 54.471, 107.853 55.922 C 99.494 58.592, 101.095 71, 109.799 71 C 111.114 71, 113.556 69.594, 115.327 67.819 C 118.139 65, 133.553 55.007, 135.096 55.002 C 136.772 54.997, 152.215 65.018, 154.807 67.794 C 158.315 71.549, 161.586 71.900, 165.365 68.927 C 167.243 67.450, 167.991 65.943, 167.968 63.677 C 167.926 59.431, 166.135 57.312, 161.080 55.528 C 158.764 54.711, 155.728 53.145, 154.333 52.048 L 151.797 50.052 155.398 47.927 L 159 45.802 159.077 32.651 C 159.119 25.418, 159.303 18.715, 159.487 17.755 C 159.682 16.740, 158.708 15.225, 157.161 14.135 C 154.341 12.150, 135.079 0.945, 134.715 1.078 C 134.597 1.122, 129.325 4.227, 123 7.979 M 128.250 19.732 L 122 23.436 122 30.170 L 122 36.904 126.250 39.804 C 134.699 45.570, 134.401 45.539, 141.553 41.356 L 148 37.584 147.955 30.542 L 147.910 23.500 141.905 19.750 C 138.603 17.688, 135.586 16.006, 135.200 16.014 C 134.815 16.021, 131.688 17.694, 128.250 19.732 M 193.187 37.426 C 198.356 42.660, 198.053 49.618, 192.417 55.081 C 189.580 57.830, 188.186 58.445, 184.976 58.361 C 180.558 58.245, 174.571 54.374, 173.476 50.925 C 173.114 49.783, 172.595 49.072, 172.323 49.343 C 171.318 50.348, 175.172 56.754, 177.545 58.024 C 179.862 59.264, 180 59.825, 180 68.024 L 180 76.710 171.020 81.826 L 162.039 86.943 148.620 78.999 L 135.200 71.055 121.570 79.031 L 107.940 87.007 98.970 81.764 L 90 76.521 90 67.828 C 90 60.149, 90.223 59.064, 91.911 58.528 C 94.173 57.810, 96.865 53.956, 98.092 49.678 C 99.150 45.990, 97.701 39.819, 95.318 37.866 C 93.767 36.595, 93.763 36.674, 95.266 39 C 98.828 44.516, 97.931 50.777, 92.884 55.610 C 90.361 58.026, 89.061 58.488, 84.958 58.427 C 82.096 58.385, 79.310 57.719, 78.275 56.830 C 74.859 53.894, 73.702 53.549, 75.174 55.907 C 75.900 57.070, 77.284 58.273, 78.248 58.579 C 79.706 59.042, 80 60.356, 80 66.422 L 80 73.709 66.823 81.377 C 52.739 89.572, 51.721 89.697, 52.237 83.162 C 52.494 79.895, 52.243 79.669, 40.535 72.595 L 28.570 65.367 19.035 71.164 C 13.791 74.352, 7.801 77.884, 5.725 79.013 L 1.951 81.066 2.225 97.194 L 2.500 113.322 15.250 121.155 L 28 128.988 28 121.103 L 28 113.219 21.517 109.359 L 15.035 105.500 15.017 96.958 L 15 88.416 21.338 84.708 C 24.824 82.668, 28.130 81, 28.683 81 C 29.237 81, 32.460 82.790, 35.845 84.978 C 41.699 88.762, 42 89.152, 42 92.964 C 42 96.532, 41.561 97.262, 38 99.619 L 34 102.266 34 122.934 L 34 143.601 29.250 145.984 C 26.637 147.294, 24.129 148.273, 23.676 148.158 C 23.223 148.044, 23.560 148.962, 24.426 150.198 C 25.316 151.469, 26 154.488, 26 157.146 C 26 165.418, 18.695 171.207, 11.029 169.008 C 7.304 167.940, 3.207 163.877, 2.511 160.562 C 1.387 155.209, 1.101 154.881, 1.421 159.312 C 2.097 168.679, 11.908 174.701, 19.800 170.595 C 23.698 168.566, 26.714 164.983, 27.669 161.242 C 28.354 158.560, 29.917 157.135, 36.501 153.185 L 44.500 148.386 44.807 128.443 L 45.114 108.500 62.138 98.500 C 71.502 93, 79.969 88.119, 80.955 87.653 C 82.302 87.017, 85.687 88.574, 94.549 93.903 C 101.040 97.806, 106.647 101, 107.009 101 C 107.796 101, 131.977 87.260, 133.695 85.837 C 134.891 84.845, 140.995 87.975, 155.725 97.130 C 159.150 99.259, 162.352 101, 162.842 101 C 163.331 101, 169.218 97.815, 175.923 93.923 L 188.113 86.847 206.491 97.673 L 224.868 108.500 225.184 128.390 L 225.500 148.279 233.923 153.390 C 240.133 157.158, 242.434 159.120, 242.683 160.861 C 243.513 166.658, 250.002 172.003, 256.200 171.996 C 265.707 171.985, 272.874 160.459, 268.561 152.119 C 266.849 148.806, 261.636 144.962, 259 145.067 C 258.024 145.106, 258.199 145.412, 259.500 145.943 C 260.600 146.391, 262.690 147.952, 264.144 149.410 C 271.415 156.700, 266.221 168.789, 255.648 169.187 C 250.419 169.383, 244.965 163.869, 244.268 157.682 C 243.906 154.471, 244.213 152.324, 245.263 150.721 C 246.744 148.461, 246.646 148.329, 241.391 145.486 L 236 142.570 236 122.294 L 236 102.018 232.512 99.759 C 229.451 97.776, 229.023 96.989, 229.012 93.323 C 228.999 88.700, 230.296 87.243, 238.126 83.089 L 242.508 80.764 249.292 85.018 L 256.077 89.271 255.788 97.329 L 255.500 105.388 248.750 109.435 L 242 113.483 242 121.298 L 242 129.113 246.250 126.548 C 248.588 125.138, 254.448 121.632, 259.273 118.759 L 268.046 113.535 267.773 97.154 L 267.500 80.773 255.500 73.408 C 248.900 69.357, 242.848 66.033, 242.052 66.021 C 241.256 66.009, 235.518 69.026, 229.302 72.725 L 218 79.451 218 84.225 C 218 86.851, 217.732 89, 217.405 89 C 217.078 89, 211.003 85.548, 203.905 81.330 L 191 73.659 191 66.504 C 191 60.060, 191.261 59.108, 193.629 56.924 C 197.037 53.781, 199.046 48.984, 198.414 45.498 C 197.651 41.290, 195.233 37.193, 192.740 35.882 C 190.767 34.846, 190.821 35.030, 193.187 37.426 M 73.750 107.785 L 61 115.493 61 152.649 L 61 189.805 51.750 195.734 C 46.376 199.178, 40.845 201.930, 38.550 202.301 C 27.942 204.015, 24.223 218.833, 32.882 224.880 C 37.208 227.901, 40.638 228.254, 45.362 226.164 C 50.809 223.755, 53.483 218.749, 52.586 212.643 C 51.997 208.633, 52.105 208.428, 55.937 206.250 C 58.115 205.012, 60.176 204, 60.518 204 C 60.859 204, 61.027 212.785, 60.890 223.521 C 60.610 245.531, 60.922 246.657, 68.330 250.340 C 78.354 255.323, 88.836 243.319, 83.490 232.980 C 81.837 229.784, 79.119 227.986, 74.508 227.037 L 71.517 226.421 71.278 174.678 L 71.039 122.934 77.879 118.510 C 81.641 116.076, 87.962 112.325, 91.925 110.175 L 99.131 106.265 93.581 103.132 C 90.528 101.410, 87.686 100.017, 87.265 100.039 C 86.844 100.060, 80.763 103.546, 73.750 107.785 M 176.513 103.168 C 172.621 105.612, 171.853 106.493, 173.013 107.182 C 173.831 107.668, 179.675 111.056, 186 114.710 C 192.325 118.364, 197.631 121.442, 197.791 121.551 C 198.139 121.788, 197.942 201.412, 197.584 205 C 197.348 207.370, 194 209.336, 194 207.105 C 194 206.532, 194.787 206.316, 195.750 206.626 C 197.226 207.101, 197.265 207.020, 196 206.113 C 194.875 205.306, 194.205 205.432, 193.321 206.613 C 192.400 207.843, 192.101 203.724, 191.957 187.844 C 191.656 154.739, 190.738 138.917, 189.175 139.888 C 188.132 140.535, 187.726 148.424, 187.268 176.893 C 186.948 196.793, 186.312 213.307, 185.855 213.590 C 185.397 213.873, 185.291 213.406, 185.618 212.552 C 185.946 211.698, 185.716 211, 185.107 211 C 184.498 211, 184 211.482, 184 212.071 C 184 212.661, 183.325 213.818, 182.500 214.643 C 181.675 215.468, 181 215.661, 181 215.071 C 181 214.482, 180.523 214, 179.941 214 C 179.359 214, 179.203 214.520, 179.595 215.155 C 180.038 215.870, 179.870 216.038, 179.155 215.595 C 178.313 215.075, 178 203.931, 178 174.441 C 178 148.147, 177.650 134, 177 134 C 176.450 134, 175.203 133.213, 174.228 132.250 C 172.711 130.752, 167.217 127.342, 149.140 116.683 C 147.293 115.593, 144.693 113.693, 143.363 112.461 C 142.033 111.228, 139.654 109.685, 138.077 109.032 C 135.524 107.974, 134.743 108.155, 130.983 110.672 C 128.659 112.227, 123.719 115.300, 120.006 117.500 C 108.870 124.098, 97.627 131.026, 95.511 132.595 C 93.570 134.035, 93.513 135.571, 93.151 196.924 L 92.779 259.778 96.548 262.339 C 99.477 264.329, 100.738 264.675, 102.204 263.891 C 103.997 262.931, 104.085 261.245, 103.992 229.691 C 103.938 211.436, 103.919 183.675, 103.950 168 L 104.007 139.500 118.622 131 C 126.660 126.325, 133.853 122.356, 134.605 122.179 C 135.358 122.003, 141.267 124.975, 147.737 128.784 C 154.206 132.593, 160.890 136.504, 162.589 137.476 L 165.678 139.241 166.338 181.871 C 166.701 205.317, 166.998 233.355, 166.999 244.177 C 167 262.108, 167.155 263.886, 168.750 264.225 C 169.713 264.429, 171.957 263.674, 173.738 262.548 L 176.975 260.500 176.988 240.789 C 176.998 224.093, 177.240 220.882, 178.572 219.789 C 179.436 219.080, 181.011 217.713, 182.072 216.750 C 183.132 215.787, 184 215.215, 184 215.478 C 184 215.741, 187.392 214.138, 191.538 211.915 L 199.077 207.874 198.788 217.148 L 198.500 226.423 195.014 227.133 C 187.510 228.663, 183.216 237.682, 186.647 244.707 C 190.486 252.566, 200.199 254.001, 206.551 247.649 L 209.744 244.456 209.314 224.322 C 209.078 213.249, 209.253 203.962, 209.703 203.684 C 210.153 203.405, 212.291 204.380, 214.454 205.849 C 218.309 208.467, 218.382 208.629, 218.131 214.045 C 217.844 220.232, 219.836 223.830, 225.039 226.520 C 228.834 228.483, 230.563 228.390, 235.591 225.956 C 240.162 223.743, 243.003 219.290, 242.996 214.349 C 242.989 208.482, 236.633 202, 230.887 202 C 229.671 202, 226.498 200.603, 223.838 198.896 L 219 195.792 219 188.729 C 219 180.679, 218.474 180.192, 217.673 187.500 C 217.372 190.250, 217.097 192.639, 217.062 192.809 C 217.028 192.979, 216.543 192.835, 215.984 192.490 C 215.425 192.144, 215.223 191.448, 215.536 190.942 C 215.850 190.434, 215.337 190.317, 214.388 190.681 C 213.123 191.167, 212.890 190.987, 213.500 190 C 214.105 189.021, 213.880 188.832, 212.664 189.299 C 210.650 190.072, 210.754 192.199, 210.868 152.500 C 210.915 136, 210.619 120.925, 210.209 119 C 209.528 115.805, 208.336 114.825, 196.507 107.750 C 189.381 103.487, 183.089 100.009, 182.525 100.019 C 181.961 100.029, 179.256 101.447, 176.513 103.168 M 218.401 163.300 C 218.346 165.060, 218.159 169.537, 217.984 173.250 C 217.809 176.962, 218.039 180.337, 218.494 180.750 C 218.948 181.162, 219.016 180.969, 218.644 180.319 C 218.272 179.670, 218.458 178.835, 219.058 178.464 C 220.026 177.866, 240.383 189.550, 251.779 197.247 L 256.059 200.136 255.779 212.739 L 255.500 225.342 237 236.512 C 194.235 262.334, 135.829 297, 135.090 297 C 134.026 297, 94.037 273.463, 42 242.209 L 15.500 226.293 15.223 212.890 L 14.947 199.486 33.223 188.413 L 51.500 177.340 51.794 169.546 C 52.034 163.190, 51.830 161.851, 50.687 162.290 C 49.916 162.586, 44.383 165.846, 38.393 169.535 C 32.402 173.223, 21.762 179.660, 14.750 183.839 L 2 191.436 2.033 212.468 L 2.065 233.500 13.283 240.161 C 33.062 251.905, 120.243 304.002, 127.760 308.568 L 135.020 312.979 201.260 273.205 L 267.500 233.432 267.770 212.306 L 268.039 191.181 250.770 180.459 C 235.039 170.693, 228.020 166.275, 221 161.721 C 218.520 160.112, 218.499 160.125, 218.401 163.300 M 112.792 180.210 C 112.631 190.820, 112.725 216.270, 113 236.767 L 113.500 274.033 116.500 276.010 C 118.150 277.097, 120.287 277.990, 121.250 277.993 C 122.896 278, 123 274.677, 123 222.159 L 123 166.318 118.042 163.619 L 113.084 160.921 112.792 180.210 M 151.356 163.503 C 146.104 166.651, 146.311 164.768, 146.101 211.437 C 145.992 235.599, 145.570 248.813, 144.881 249.643 C 144.302 250.341, 144.052 251.275, 144.325 251.717 C 144.599 252.160, 144.188 253.391, 143.411 254.452 C 142.038 256.330, 142 256.323, 142 254.191 C 142 252.950, 141.375 252, 140.559 252 C 139.766 252, 138.765 251.438, 138.334 250.750 C 137.904 250.063, 137.280 241.175, 136.950 231 C 136.450 215.611, 136.320 218.685, 136.174 249.281 L 136 286.061 141.519 282.531 C 144.555 280.589, 147.818 278.988, 148.769 278.973 C 149.721 278.958, 151.913 277.721, 153.640 276.223 L 156.780 273.500 157.403 217.250 C 157.900 172.291, 157.771 161.002, 156.762 161.009 C 156.068 161.015, 153.635 162.137, 151.356 163.503" stroke="none" fill="#125148" fill-rule="evenodd"/></svg>