<?xml version="1.0" encoding="UTF-8"?>
<svg version="1.1" xmlns="http://www.w3.org/2000/svg" width="1200" height="1200">
<path d="M0 0 C349.8 0 699.6 0 1060 0 C1010.91077303 550.89021382 1010.91077303 550.89021382 995.7043457 721.31225586 C992.96004122 752.06900922 990.21761573 782.82592968 987.47622556 813.58294292 C984.6562486 845.221555 981.83450273 876.86000881 979.01043664 908.49825617 C978.61494455 912.92899202 978.21947194 917.3597296 977.82401085 921.79046822 C977.74636326 922.66042207 977.66871566 923.53037593 977.58871511 924.42669203 C976.35459695 938.2541639 975.12232001 952.08179923 973.89078803 965.90950165 C972.67614248 979.54715512 971.45953325 993.18463224 970.2408388 1006.8219245 C969.52147725 1014.87231412 968.80364891 1022.92283704 968.08800689 1030.97355818 C967.55582026 1036.95857804 967.02079303 1042.94334028 966.48462483 1048.92800493 C966.2680333 1051.35064047 966.05238048 1053.77336014 965.83773658 1056.19616901 C965.54752252 1059.47047264 965.25396595 1062.74445954 964.95953083 1066.01838589 C964.87618763 1066.96788857 964.79284442 1067.91739126 964.70697567 1068.89566675 C964.33555993 1072.98907654 963.94079286 1076.98874984 963 1081 C962.19760895 1081.22010239 961.3952179 1081.44020477 960.56851196 1081.66697693 C919.9042309 1092.82298459 879.25142504 1104.01934137 838.625 1115.3125 C837.69373039 1115.57135986 836.76246078 1115.83021973 835.80297089 1116.09692383 C825.33289455 1119.00732671 814.8631442 1121.91890108 804.39355469 1124.83105469 C785.67990304 1130.03632095 766.96517786 1135.23772404 748.25 1140.4375 C747.32802826 1140.69366718 746.40605652 1140.94983437 745.45614624 1141.21376419 C723.34591382 1147.35688701 701.23359947 1153.4924403 679.1171875 1159.61328125 C678.12407185 1159.88813921 677.13095619 1160.16299717 676.10774612 1160.44618416 C665.19855352 1163.46522119 654.2886194 1166.48155429 643.37744141 1169.4934082 C639.5120077 1170.56057722 635.64661541 1171.62789612 631.78125 1172.6953125 C630.35911257 1173.0879897 630.35911257 1173.0879897 628.90824509 1173.48859978 C615.67107758 1177.14455074 602.44221103 1180.82923525 589.21881485 1184.53466797 C583.88252044 1186.02883307 578.54474805 1187.51770998 573.20690727 1189.00634003 C568.23468569 1190.3937043 563.26505526 1191.78988358 558.29725266 1193.19298363 C555.27210097 1194.04511402 552.24461999 1194.88871354 549.21641541 1195.72992325 C547.83015902 1196.11691511 546.44488949 1196.5074636 545.06074524 1196.90194321 C543.17421539 1197.43914433 541.28370857 1197.96231937 539.39306641 1198.48486328 C538.34422272 1198.7795047 537.29537903 1199.07414612 536.2147522 1199.37771606 C529.52566509 1200.67253171 524.13073897 1200.03690334 517.62548828 1198.19360352 C516.92802868 1197.99910583 516.23056908 1197.80460814 515.51197433 1197.60421658 C513.19521607 1196.95553871 510.88291903 1196.29221945 508.5703125 1195.62890625 C506.90261979 1195.1589676 505.23465344 1194.68999908 503.56643677 1194.22192383 C499.97459491 1193.21206594 496.38464095 1192.19583692 492.79602051 1191.17459106 C487.03330412 1189.53483194 481.26655744 1187.90958603 475.49902344 1186.28686523 C469.44749954 1184.58363734 463.3961903 1182.87967394 457.34619141 1181.17103577 C438.18390499 1175.75988686 419.00097642 1170.42437599 399.81304932 1165.10498047 C394.19645215 1163.54786674 388.58034282 1161.98899899 382.96435547 1160.4296875 C382.02959948 1160.17014786 381.09484348 1159.91060822 380.13176155 1159.64320374 C378.24155545 1159.1183724 376.3513507 1158.59353617 374.46114731 1158.06869507 C371.62688854 1157.28177435 368.79259175 1156.49499073 365.95828247 1155.70825195 C353.77744176 1152.32706792 341.59733429 1148.94325371 329.41774368 1145.5575695 C321.02858122 1143.22557231 312.63931553 1140.89394647 304.25 1138.5625 C303.32880623 1138.30649395 302.40761246 1138.0504879 301.45850372 1137.78672409 C274.19486685 1130.21031976 246.92495586 1122.65686128 219.65036297 1115.11999702 C212.7097809 1113.20184038 205.76986505 1111.28128791 198.83032227 1109.359375 C195.93406219 1108.55733813 193.03779813 1107.75531563 190.14153099 1106.95330429 C188.23762077 1106.42607526 186.33372183 1105.8988055 184.42983437 1105.37149429 C173.5132895 1102.34838863 162.59388149 1099.33618724 151.66838074 1096.34560013 C145.10572135 1094.5490832 138.54518152 1092.74499041 131.98632812 1090.93462753 C127.52378385 1089.70348189 123.05853951 1088.4828949 118.5908556 1087.27054119 C115.2804397 1086.36877756 111.97456949 1085.45080796 108.66796875 1084.53515625 C106.89275597 1084.05894081 106.89275597 1084.05894081 105.0816803 1083.57310486 C104.01985031 1083.27577957 102.95802032 1082.97845428 101.86401367 1082.67211914 C100.48061043 1082.29344444 100.48061043 1082.29344444 99.06925964 1081.90711975 C98.04497612 1081.45809547 98.04497612 1081.45809547 97 1081 C96.14264703 1078.42794108 95.77671094 1076.52051621 95.54006648 1073.86131889 C95.42405862 1072.58770729 95.42405862 1072.58770729 95.30570716 1071.28836617 C95.22425415 1070.35308308 95.14280114 1069.41779999 95.05887985 1068.454175 C94.92435562 1066.95937584 94.92435562 1066.95937584 94.78711373 1065.43437871 C94.48422942 1062.05871022 94.18657855 1058.68260007 93.88885498 1055.30647278 C93.67130861 1052.86971823 93.45344316 1050.43299215 93.23528504 1047.99629229 C92.7592156 1042.67055035 92.28542616 1037.34461273 91.81360054 1032.01849365 C91.11002383 1024.07644331 90.40228381 1016.13476784 89.6936902 1008.19316373 C88.49241699 994.72845411 87.29458324 981.2634405 86.09862518 967.79825783 C84.88980953 954.18845617 83.67942956 940.57879501 82.46710968 926.96930504 C82.39075357 926.11212158 82.31439747 925.25493812 82.23572754 924.3717794 C81.84699309 920.00787919 81.45823278 915.64398128 81.06946304 911.28008422 C78.29321433 880.11642677 75.52038842 848.95246559 72.74951172 817.78833008 C68.89506275 774.43735407 65.03572702 731.08681532 61.17578125 687.73632812 C40.76927481 458.49218428 20.38963656 229.24564352 0 0 Z " fill="#264DE4" transform="translate(70,0)"/>
<path d="M0 0 C218.79 0 437.58 0 663 0 C663 5.41939184 662.9747086 10.38891072 662.46850586 15.71289062 C662.35067245 16.97560791 662.23283905 18.2383252 662.11143494 19.53930664 C661.97925044 20.9116223 661.84705295 22.28393672 661.71484375 23.65625 C661.57680124 25.1235758 661.43920493 26.59094364 661.30201721 28.05834961 C661.00649287 31.21317292 660.70872379 34.36777263 660.40917969 37.5222168 C659.59351513 46.11791959 658.7946857 54.71519705 657.99609375 63.3125 C657.87164698 64.65055443 657.87164698 64.65055443 657.74468613 66.01564026 C655.98119071 84.99550646 654.33694455 103.98492959 652.71542358 122.97737122 C650.31911356 151.03836872 647.82391531 179.08805653 645.21615601 207.13018799 C643.06661773 230.24714706 640.98904283 253.36867855 639 276.5 C636.94268778 300.42525169 634.78598225 324.33963119 632.5625 348.25 C630.04983154 375.27083407 627.65794478 402.29996768 625.34654617 429.33872986 C623.00377287 456.73602326 620.5407495 484.12038166 618 511.5 C614.8499389 545.44904204 611.8457803 579.40869558 608.93997192 613.37948608 C608.42420198 619.40903754 607.90706284 625.43847109 607.38909912 631.46783447 C607.12115391 634.58687204 606.85408382 637.7059832 606.58746338 640.82513428 C606.24744749 644.79953666 605.9043744 648.77366528 605.5592289 652.74762535 C605.43011046 654.23953513 605.30196258 655.73152928 605.17485619 657.22361183 C604.99981536 659.27650929 604.82125878 661.32907247 604.6418457 663.3815918 C604.49160698 665.12390327 604.49160698 665.12390327 604.33833313 666.90141296 C604.03781826 669.65364557 603.59553197 672.298262 603 675 C601.9790625 675.27972656 600.958125 675.55945313 599.90625 675.84765625 C590.87008956 678.33561383 581.86483885 680.91190531 572.875 683.5625 C564.94674279 685.89653125 557.01765985 688.0310013 548.984375 689.97265625 C544.27380046 691.15029989 539.64218898 692.58026314 535 694 C528.34781962 696.03362692 521.69262971 697.89413091 514.93310547 699.53344727 C507.66778336 701.3019916 500.47926673 703.33308732 493.28222656 705.35888672 C489.52390951 706.414657 485.76179211 707.45669367 482 708.5 C480.49998134 708.91659949 478.99998135 709.33326619 477.5 709.75 C450.5 717.25 450.5 717.25 448.25146484 717.87451172 C446.74652608 718.29260466 445.24164354 718.7109 443.73681641 719.12939453 C440.06280567 720.15087905 436.38799244 721.16921195 432.7109375 722.1796875 C424.0736261 724.55851687 415.46875023 727.0305447 406.875 729.5625 C398.94669302 731.8963605 391.01766679 734.03099962 382.984375 735.97265625 C378.27380398 737.150299 373.64216954 738.58020733 369 740 C361.56295808 742.27445926 354.11595575 744.31132511 346.55078125 746.11328125 C343.35355048 746.91170962 340.26142321 747.87046725 337.125 748.875 C331.55739709 750.38892471 327.45828471 749.61141835 322 748 C320.46279297 747.57460937 320.46279297 747.57460937 318.89453125 747.140625 C315.91904721 746.30516113 312.95229251 745.44369053 309.98632812 744.57519531 C306.41585142 743.54126671 302.83256175 742.55357753 299.25 741.5625 C298.49267578 741.35262451 297.73535156 741.14274902 296.95507812 740.92651367 C295.40825131 740.49787295 293.86137605 740.06940701 292.31445312 739.64111328 C288.5423701 738.59623037 284.77122533 737.5479734 281 736.5 C279.50000467 736.08331654 278.00000466 735.66664988 276.5 735.25 C273.5 734.41666667 270.5 733.58333333 267.5 732.75 C266.75741943 732.54375 266.01483887 732.3375 265.24975586 732.125 C263.75052301 731.70850124 262.25133675 731.2918347 260.75219727 730.875 C256.99082511 729.8293802 253.22867541 728.78673435 249.46484375 727.75 C242.22640992 725.75289464 235.0061263 723.7157001 227.8125 721.5625 C220.00158998 719.2282157 212.12241122 717.19033827 204.2277832 715.16040039 C198.27961435 713.62195272 192.41613183 711.93068037 186.5625 710.0625 C181.57556956 708.57516987 176.53973594 707.29519931 171.5 706 C165.45967372 704.44765152 159.44345522 702.89684741 153.5 701 C147.6994692 699.1505554 141.83306777 697.63539887 135.9375 696.125 C127.58033381 693.98283436 119.31543298 691.63967573 111.06811523 689.10986328 C106.07499923 687.58958915 101.07471474 686.21890461 96 685 C88.91775888 683.28701892 81.96337932 681.24888395 75 679.10546875 C73.80890625 678.74001953 73.80890625 678.74001953 72.59375 678.3671875 C71.89958984 678.15175293 71.20542969 677.93631836 70.49023438 677.71435547 C67.01508972 676.71746593 63.51037051 675.86466649 60 675 C57.78257726 654.53116844 55.916559 634.04527867 54.18121338 613.53091431 C53.43235674 604.67887679 52.67502902 595.82756661 51.9140625 586.9765625 C51.83630962 586.07177217 51.75855675 585.16698185 51.67844772 584.23477364 C50.51160815 570.68024736 49.28884862 557.13160173 48.0234375 543.5859375 C47.94309769 542.72426783 47.86275787 541.86259815 47.77998352 540.97481728 C47.00878381 532.70491712 46.23344602 524.43544827 45.44277763 516.1673851 C45.15352869 513.13230611 44.8685073 510.09683872 44.58430862 507.06128311 C44.39399562 505.04430252 44.19807288 503.02785351 44.00180054 501.01144409 C42.94183112 489.65442167 42.52010113 478.44222479 42 467 C85.89 467 129.78 467 175 467 C180.78500258 528.32102736 180.78500258 528.32102736 182.08618164 544.71362305 C182.327307 547.7488893 182.57457527 550.78362224 182.82226562 553.81835938 C182.98209548 555.7968488 183.14161639 557.77536322 183.30078125 559.75390625 C183.37259109 560.63881241 183.44440094 561.52371857 183.51838684 562.43544006 C183.61430367 563.64991066 183.61430367 563.64991066 183.7121582 564.88891602 C183.76813675 565.59065445 183.8241153 566.29239288 183.88179016 567.01539612 C184.00042428 569.00712319 184 571.00474292 184 573 C185.01707031 573.08894531 186.03414062 573.17789063 187.08203125 573.26953125 C193.74959322 574.10791462 200.20118624 575.97967049 206.6875 577.6875 C208.08687551 578.05214992 209.48628999 578.41665036 210.88574219 578.78100586 C219.36094209 580.99675523 227.79866773 583.3250444 236.20776367 585.7800293 C243.26967434 587.82861213 250.37722699 589.67560875 257.5 591.5 C266.27552005 593.74771756 274.99867527 596.11125627 283.69360352 598.65136719 C293.24458341 601.41137404 302.88247682 603.84265473 312.51855469 606.28491211 C313.78989258 606.60854736 315.06123047 606.93218262 316.37109375 607.265625 C318.0715686 607.69536621 318.0715686 607.69536621 319.80639648 608.13378906 C323 609 323 609 326.14794922 610.12109375 C333.28633298 612.32090385 340.91255094 609.35095232 347.8125 607.25 C354.779697 605.19032046 361.75048847 603.26874349 368.8125 601.5625 C376.19161136 599.76837173 383.47174011 597.7285788 390.75 595.5625 C399.93827065 592.82911161 409.16893864 590.40705792 418.48022461 588.13134766 C424.98957672 586.53094211 431.41951512 584.76589536 437.83496094 582.82592773 C443.88248788 581.00508034 449.9773251 579.39773623 456.09106445 577.81542969 C462.20265192 576.22853028 468.26135977 574.50457073 474.3125 572.69921875 C477 572 477 572 480 572 C479.98083023 570.72191719 479.98083023 570.72191719 479.96127319 569.41801453 C479.89000335 560.98567957 480.30416113 552.72312293 481.1015625 544.33203125 C481.21846939 543.04594971 481.33537628 541.75986816 481.45582581 540.43481445 C481.77252471 536.95103295 482.09677183 533.46799351 482.42254257 529.9850502 C482.76565182 526.30317955 483.10199081 522.62069107 483.4387207 518.93823242 C483.86033359 514.33067612 484.28243313 509.72316818 484.70741272 505.11592102 C485.63830353 495.01576906 486.54396795 484.9136497 487.42920685 474.80939674 C487.62813787 472.54001562 487.82771393 470.27069219 488.02752686 468.00138855 C488.09274033 467.26068021 488.1579538 466.51997187 488.22514343 465.75681782 C488.35547147 464.27667793 488.48581194 462.79653915 488.61616516 461.31640148 C488.92982349 457.75208521 489.24213356 454.18766156 489.55133057 450.62295532 C489.89783949 446.62970943 490.25152204 442.63712471 490.60546875 438.64453125 C490.70219376 437.51547363 490.79891876 436.38641602 490.89857483 435.22314453 C491.9542618 423.42638221 493.52747106 411.7802315 495 400 C343.2 400 191.4 400 35 400 C32.69 373.27 30.38 346.54 28 319 C26.14362001 298.26181984 26.14362001 298.26181984 24.25610352 277.52661133 C24.0260177 274.35827042 24 271.17668437 24 268 C183.06 268 342.12 268 506 268 C506.33 262.06 506.66 256.12 507 250 C507.39844029 244.97893997 507.81518911 239.96493803 508.26953125 234.94921875 C508.39206666 233.57179042 508.51433253 232.19433809 508.63635254 230.81686401 C508.95870958 227.18595212 509.28462815 223.55536906 509.61142349 219.92485428 C509.95080816 216.14856167 510.28716093 212.37199901 510.6237793 208.59545898 C511.02952783 204.04548839 511.43562747 199.49555026 511.84333801 194.945755 C512.65661542 185.86843054 513.45897941 176.7902342 514.25 167.7109375 C514.5202943 164.62039793 514.79079706 161.52987668 515.06137085 158.43936157 C515.22761163 156.53495611 515.39300882 154.6304768 515.55752563 152.72592163 C515.78192422 150.1308554 516.00969046 147.53610603 516.23828125 144.94140625 C516.30156616 144.19881561 516.36485107 143.45622498 516.43005371 142.69113159 C516.75537319 139.03710055 517.27742672 135.61286638 518 132 C351.02 132 184.04 132 12 132 C10.8111663 123.08374725 9.65611696 114.25456139 8.85498047 105.31054688 C8.75715271 104.24670776 8.65932495 103.18286865 8.55853271 102.08679199 C8.24161332 98.63105623 7.92922043 95.17493013 7.6171875 91.71875 C7.39602747 89.29071403 7.17468021 86.86269511 6.95315552 84.43469238 C6.49227471 79.375265 6.03365102 74.31563956 5.57666016 69.25585938 C4.99143226 62.77830205 4.40049588 56.30128023 3.80788994 49.82439423 C3.35093275 44.82316593 2.89698358 39.82166809 2.44394302 34.82008362 C2.22717996 32.43103111 2.00948453 30.042063 1.7908287 27.65318298 C1.48623786 24.32048933 1.18570427 20.98745372 0.88623047 17.65429688 C0.79586517 16.67444824 0.70549988 15.69459961 0.61239624 14.68505859 C0.53114502 13.7715564 0.4498938 12.8580542 0.36618042 11.91687012 C0.29503462 11.13162712 0.22388882 10.34638412 0.15058708 9.53734589 C-0.03777998 6.36341906 0 3.17951155 0 0 Z " fill="#FEFEFE" transform="translate(268,221)"/>
<path d="M0 0 C142.56 0 285.12 0 432 0 C432 10.12473822 432 10.12473822 431.66505432 13.76428223 C431.59077209 14.59350189 431.51648987 15.42272156 431.43995667 16.27706909 C431.35737106 17.1530777 431.27478546 18.0290863 431.18969727 18.93164062 C431.10352142 19.88100494 431.01734558 20.83036926 430.92855835 21.8085022 C430.64484819 24.92476617 430.35554902 28.04048584 430.06640625 31.15625 C429.86658847 33.34464654 429.66720934 35.53308318 429.46824646 37.72155762 C428.94428563 43.47577686 428.4159626 49.22958585 427.88623047 54.98327637 C427.04132684 64.16156774 426.20045131 73.34022048 425.3645153 82.51933289 C425.07390574 85.69919035 424.77984121 88.87871468 424.48548889 92.05822754 C423.55680509 102.17824948 422.73424567 112.2836586 422.21286011 122.43339539 C421.87559708 128.08444896 421.22046462 133.69141141 420.5625 139.3125 C419.48825003 148.86657826 418.63003779 158.4065796 418 168 C417.30625765 178.53855689 416.28838523 189.00600827 415.10546875 199.5 C414.20407032 207.65811107 413.53926689 215.81045542 413 224 C412.30605557 234.53854591 411.28838622 245.00599947 410.10546875 255.5 C409.07642399 264.81337478 408.38569466 274.12712848 407.77172852 283.47583008 C407.11773952 293.09938951 406.11409988 302.6649767 405.03735352 312.24926758 C404.20113512 319.79344676 403.62135661 327.29402037 403.26342773 334.8737793 C403.03868143 338.86197557 402.57399753 342.80879552 402.06640625 346.76953125 C400.89438285 356.32464524 400.18372257 365.89963097 399.5 375.5 C398.78238128 385.5763158 397.98071216 395.60602267 396.73692322 405.63212585 C395.81881833 413.18557274 395.27817686 420.7601691 394.73849487 428.34848022 C393.76672564 441.95375498 392.59431047 455.50210497 391.05493164 469.0559082 C390.03639949 478.19189385 389.37339117 487.33117128 388.76928711 496.50268555 C388.13186166 505.86793632 387.15679366 515.17339482 386.10546875 524.5 C385.20407032 532.65811107 384.53926689 540.81045542 384 549 C383.30605557 559.53854591 382.28838622 570.00599947 381.10546875 580.5 C380.20407032 588.65811107 379.53926689 596.81045542 379 605 C378.30712396 615.52232082 377.29412795 625.97410451 376.10986328 636.45166016 C375.02339848 646.26582818 374.27782365 656.08819666 373.64648438 665.94140625 C373.57494141 667.04097656 373.50339844 668.14054688 373.4296875 669.2734375 C373.34050049 670.71855713 373.34050049 670.71855713 373.24951172 672.19287109 C372.98533631 675.16497373 372.50295916 678.05991339 372 681 C371.82762694 683.39407023 371.68422206 685.79032073 371.5625 688.1875 C371.24274228 693.87592465 370.76465945 699.5253293 370.125 705.1875 C369.03334995 714.94090463 368.27338244 724.71744763 367.5 734.5 C366.7066061 744.52301321 365.90747963 754.53263643 364.76953125 764.5234375 C363.81807625 773.16452065 363.18623962 781.83474217 362.5 790.5 C361.70623535 800.52299366 360.90748155 810.53261965 359.76953125 820.5234375 C358.81807625 829.16452065 358.18623962 837.83474217 357.5 846.5 C355.96232887 865.91642019 355.96232887 865.91642019 355 874.5 C354.30540782 880.74388173 353.7516056 886.98300015 353.31640625 893.25 C353.19136477 894.94731064 353.0656993 896.64457541 352.93945312 898.34179688 C352.74921482 900.91110737 352.56380331 903.48029188 352.39379883 906.05102539 C352.23425247 908.46213148 352.05804593 910.87153186 351.87890625 913.28125 C351.83512344 914.01472656 351.79134064 914.74820313 351.74623108 915.50390625 C351.52438394 918.32562967 351.33426973 920.50246426 349.734375 922.88378906 C347.64768013 924.2267464 345.76189747 924.90231576 343.37109375 925.578125 C341.9629541 925.98309204 341.9629541 925.98309204 340.52636719 926.39624023 C339.50704102 926.67798096 338.48771484 926.95972168 337.4375 927.25 C335.83696777 927.70451538 335.83696777 927.70451538 334.20410156 928.16821289 C325.49077384 930.62733301 316.74636818 932.97356228 307.99780273 935.30371094 C299.97210808 937.447068 291.98208273 939.69993759 284 942 C275.18665242 944.53737753 266.36107932 947.00959528 257.5 949.375 C247.19116317 952.12725145 236.90403523 954.95141548 226.625 957.8125 C225.86184479 958.02488312 225.09868958 958.23726624 224.31240845 958.45608521 C220.41235212 959.54167633 216.51251118 960.6280387 212.61279297 961.71484375 C205.30540226 963.75113801 197.99649512 965.78197356 190.6875 967.8125 C189.96363098 968.0136441 189.23976196 968.21478821 188.49395752 968.42202759 C174.15019958 972.40750118 159.80164594 976.37558775 145.45272827 980.34243774 C132.63284564 983.88669237 119.81467234 987.43695311 107 991 C91.17100887 995.40116112 75.33674494 999.78316504 59.50024414 1004.15722656 C50.06796265 1006.76319097 40.63801621 1009.37689434 31.21484375 1012.015625 C29.54037691 1012.48376804 27.86589807 1012.95186817 26.19140625 1013.41992188 C23.10581543 1014.28244924 20.0213586 1015.14888077 16.9375 1016.01757812 C15.56124272 1016.40250396 14.18494322 1016.7872789 12.80859375 1017.171875 C11.63095459 1017.5028418 10.45331543 1017.83380859 9.23999023 1018.17480469 C6.19760476 1018.94967191 3.09679446 1019.48386759 0 1020 C0 974.46 0 928.92 0 882 C4.95 880.68 9.9 879.36 15 878 C19.0022142 876.88203455 23.00217225 875.75829439 27 874.625 C35.16474406 872.32169574 43.34529745 870.10817464 51.5625 868 C60.43173679 865.72173385 69.21649385 863.2143123 77.99560547 860.61206055 C85.99813573 858.25465014 94.0482366 856.12973484 102.12890625 854.05859375 C107.95893784 852.55667425 113.70141673 850.89316487 119.4375 849.0625 C124.4244352 847.57516845 129.46028552 846.2952968 134.5 845 C141.57805672 843.1796547 148.58392154 841.26378375 155.55078125 839.05078125 C161.02752071 837.38232948 166.55773714 835.91471243 172.08447266 834.421875 C179.21544574 832.49374237 186.32837323 830.50703595 193.4375 828.5 C201.6849125 826.17449589 209.9516026 823.94874809 218.25 821.8125 C225.05322691 820.06034281 231.78267655 818.19922109 238.48046875 816.07421875 C243.42155486 814.56611811 248.39466009 813.18458874 253.375 811.8125 C254.31545166 811.55017578 255.25590332 811.28785156 256.22485352 811.01757812 C257.12776123 810.77072266 258.03066895 810.52386719 258.9609375 810.26953125 C260.16435791 809.93852417 260.16435791 809.93852417 261.39208984 809.60083008 C264.57383743 808.86779499 267.76447187 808.42731987 271 808 C271.04389359 807.27351761 271.08778717 806.54703522 271.13301086 805.79853821 C272.31923423 786.45955122 273.91108019 767.18408896 275.74142456 747.89657593 C276.53159903 739.56752325 277.30492226 731.23689248 278.078125 722.90625 C278.15822248 722.0442568 278.23831997 721.1822636 278.32084465 720.2941494 C280.04048949 701.76781195 281.6412176 683.23188098 283.22357559 664.69339371 C285.78362512 634.70517463 288.47232619 604.73105656 291.25409317 574.76261139 C293.81174483 547.20410791 296.26841783 519.63891688 298.625 492.0625 C300.75975562 467.08186851 302.98798369 442.11468883 305.36630249 417.15591431 C307.518852 394.53113445 309.50104925 371.89416572 311.4375 349.25 C313.76355733 322.04991359 316.18273269 294.86078924 318.71631622 267.67925262 C320.51185707 248.41350225 322.26509777 229.1450849 323.92578125 209.8671875 C324.00534435 208.94380836 324.08490746 208.02042923 324.16688156 207.06906891 C324.94219258 198.06374653 325.71293206 189.05804409 326.47622395 180.05169487 C326.75665079 176.74667375 327.03875158 173.44179655 327.3210659 170.13693619 C327.56303569 167.29344872 327.80137725 164.44966169 328.03857136 161.60577202 C328.87065564 152.03819716 329.93791061 142.55880449 331 133 C112.21 133 -106.58 133 -332 133 C-332 132.67 -332 132.34 -332 132 C-222.44 132 -112.88 132 0 132 C0 88.44 0 44.88 0 0 Z " fill="#2965F0" transform="translate(600,88)"/>
<path d="M0 0 C43.89 0 87.78 0 133 0 C138.78500258 61.32102736 138.78500258 61.32102736 140.08618164 77.71362305 C140.327307 80.7488893 140.57457527 83.78362224 140.82226562 86.81835938 C140.98209548 88.7968488 141.14161639 90.77536322 141.30078125 92.75390625 C141.37259109 93.63881241 141.44440094 94.52371857 141.51838684 95.43544006 C141.58233139 96.24508713 141.64627594 97.05473419 141.7121582 97.88891602 C141.76813675 98.59065445 141.8241153 99.29239288 141.88179016 100.01539612 C142.00042428 102.00712319 142 104.00474292 142 106 C143.01707031 106.08894531 144.03414062 106.17789063 145.08203125 106.26953125 C151.74959322 107.10791462 158.20118624 108.97967049 164.6875 110.6875 C166.08687551 111.05214992 167.48628999 111.41665036 168.88574219 111.78100586 C177.36094209 113.99675523 185.79866773 116.3250444 194.20776367 118.7800293 C201.26967434 120.82861213 208.37722699 122.67560875 215.5 124.5 C224.27775532 126.74829009 233.00329863 129.11191459 241.70019531 131.65356445 C251.15991042 134.38804166 260.70723368 136.79156608 270.25488281 139.19702148 C271.51655273 139.51743408 272.77822266 139.83784668 274.078125 140.16796875 C275.75503418 140.58985474 275.75503418 140.58985474 277.46582031 141.02026367 C281.69011237 142.1913112 285.84134683 143.61378228 290 145 C290 190.54 290 236.08 290 283 C278.79895561 280.75979112 278.79895561 280.75979112 273.5 279.1875 C272.30890625 278.83945312 271.1178125 278.49140625 269.890625 278.1328125 C269.26220703 277.94879883 268.63378906 277.76478516 267.98632812 277.57519531 C264.41585142 276.54126671 260.83256175 275.55357753 257.25 274.5625 C256.49267578 274.35262451 255.73535156 274.14274902 254.95507812 273.92651367 C253.40825131 273.49787295 251.86137605 273.06940701 250.31445312 272.64111328 C246.5423701 271.59623037 242.77122533 270.5479734 239 269.5 C237.50000467 269.08331654 236.00000466 268.66664988 234.5 268.25 C231.5 267.41666667 228.5 266.58333333 225.5 265.75 C224.38612915 265.440625 224.38612915 265.440625 223.24975586 265.125 C221.75052301 264.70850124 220.25133675 264.2918347 218.75219727 263.875 C214.99082511 262.8293802 211.22867541 261.78673435 207.46484375 260.75 C200.22640992 258.75289464 193.0061263 256.7157001 185.8125 254.5625 C178.00158998 252.2282157 170.12241122 250.19033827 162.2277832 248.16040039 C156.27961435 246.62195272 150.41613183 244.93068037 144.5625 243.0625 C139.57556956 241.57516987 134.53973594 240.29519931 129.5 239 C123.45967372 237.44765152 117.44345522 235.89684741 111.5 234 C105.6994692 232.1505554 99.83306777 230.63539887 93.9375 229.125 C85.58033381 226.98283436 77.31543298 224.63967573 69.06811523 222.10986328 C64.07499923 220.58958915 59.07471474 219.21890461 54 218 C46.91775888 216.28701892 39.96337932 214.24888395 33 212.10546875 C32.2059375 211.86183594 31.411875 211.61820313 30.59375 211.3671875 C29.89958984 211.15175293 29.20542969 210.93631836 28.49023438 210.71435547 C25.01508972 209.71746593 21.51037051 208.86466649 18 208 C15.78257726 187.53116844 13.916559 167.04527867 12.18121338 146.53091431 C11.43235674 137.67887679 10.67502902 128.82756661 9.9140625 119.9765625 C9.83630962 119.07177217 9.75855675 118.16698185 9.67844772 117.23477364 C8.51160815 103.68024736 7.28884862 90.13160173 6.0234375 76.5859375 C5.94309769 75.72426783 5.86275787 74.86259815 5.77998352 73.97481728 C5.00878381 65.70491712 4.23344602 57.43544827 3.44277763 49.1673851 C3.15352869 46.13230611 2.8685073 43.09683872 2.58430862 40.06128311 C2.39399562 38.04430252 2.19807288 36.02785351 2.00180054 34.01144409 C0.94183112 22.65442167 0.52010113 11.44222479 0 0 Z " fill="#EAEAEB" transform="translate(310,688)"/>
<path d="M0 0 C109.56 0 219.12 0 332 0 C332 43.56 332 87.12 332 132 C226.4 132 120.8 132 12 132 C10.8111663 123.08374725 9.65611696 114.25456139 8.85498047 105.31054688 C8.75715271 104.24670776 8.65932495 103.18286865 8.55853271 102.08679199 C8.24161332 98.63105623 7.92922043 95.17493013 7.6171875 91.71875 C7.39602747 89.29071403 7.17468021 86.86269511 6.95315552 84.43469238 C6.49227471 79.375265 6.03365102 74.31563956 5.57666016 69.25585938 C4.99143226 62.77830205 4.40049588 56.30128023 3.80788994 49.82439423 C3.35093275 44.82316593 2.89698358 39.82166809 2.44394302 34.82008362 C2.22717996 32.43103111 2.00948453 30.042063 1.7908287 27.65318298 C1.48623786 24.32048933 1.18570427 20.98745372 0.88623047 17.65429688 C0.79586517 16.67444824 0.70549988 15.69459961 0.61239624 14.68505859 C0.53114502 13.7715564 0.4498938 12.8580542 0.36618042 11.91687012 C0.29503462 11.13162712 0.22388882 10.34638412 0.15058708 9.53734589 C-0.03777998 6.36341906 0 3.17951155 0 0 Z " fill="#EAEAEB" transform="translate(268,221)"/>
<path d="M0 0 C101.31 0 202.62 0 307 0 C307 43.56 307 87.12 307 132 C209.32 132 111.64 132 11 132 C8.69 105.27 6.38 78.54 4 51 C2.14362001 30.26181984 2.14362001 30.26181984 0.25610352 9.52661133 C0.0260177 6.35827042 0 3.17668437 0 0 Z " fill="#EAEAEA" transform="translate(292,489)"/>
<path d="M0 0 C151.47 0 302.94 0 459 0 C457.87504268 14.6244452 457.87504268 14.6244452 457.4309082 19.56298828 C457.33000381 20.68962891 457.22909943 21.81626953 457.12513733 22.97705078 C457.01809982 24.16282715 456.91106232 25.34860352 456.80078125 26.5703125 C456.62342716 28.54659899 456.44607314 30.52288549 456.26872158 32.49917221 C456.08037786 34.59617623 455.89162732 36.69314328 455.70275879 38.7901001 C455.30575049 43.19835859 454.91011306 47.60673952 454.51464844 52.01513672 C453.33095552 65.20699457 452.14441897 78.39859613 450.95633602 91.59005928 C450.41470688 97.6044378 449.87391541 103.61889135 449.33362675 109.63339043 C449.01412403 113.1894359 448.69414726 116.74543724 448.37295532 120.30133057 C446.81718778 137.52687743 445.33707196 154.75597012 444 172 C442.43478729 172.4703953 440.86950694 172.9405655 439.30419922 173.41064453 C438.4325412 173.67249542 437.56088318 173.93434631 436.66281128 174.20413208 C424.59096854 177.81219565 412.48076385 181.18614105 400.24072266 184.17529297 C394.24654806 185.6522557 388.34070699 187.33844466 382.43261719 189.12524414 C376.15197697 191.00371052 369.80847991 192.5696843 363.44140625 194.125 C358.08105344 195.44650454 352.78407002 196.90179357 347.5 198.5 C340.54215964 200.60445077 333.53365717 202.39482802 326.47216797 204.11621094 C320.10534244 205.68346762 313.82001118 207.45587863 307.5546875 209.38867188 C303.661002 210.57624595 300.05802357 211.32366274 296 212 C296 142.37 296 72.74 296 1 C198.32 1 100.64 1 0 1 C0 0.67 0 0.34 0 0 Z " fill="#2A65F0" transform="translate(304,621)"/>
<path d="M0 0 C166.98 0 333.96 0 506 0 C503.69470572 34.57941414 503.69470572 34.57941414 502.6328125 46.46875 C502.5105493 47.85939964 502.38847563 49.25006595 502.26657104 50.64074707 C502.01490497 53.50352396 501.76103676 56.36609324 501.50537109 59.22851562 C501.25246322 62.06160128 501.00242659 64.89491363 500.75537109 67.72851562 C498.76655504 90.51955732 496.39548341 113.24290762 494 136 C334.94 136 175.88 136 12 136 C12 135.67 12 135.34 12 135 C113.64 135 215.28 135 320 135 C320 90.78 320 46.56 320 1 C214.4 1 108.8 1 0 1 C0 0.67 0 0.34 0 0 Z " fill="#2A65F0" transform="translate(280,353)"/>
</svg>
