<?xml version="1.0" encoding="UTF-8"?>
<!DOCTYPE svg PUBLIC "-//W3C//DTD SVG 1.1//EN" "http://www.w3.org/Graphics/SVG/1.1/DTD/svg11.dtd">
<svg xmlns="http://www.w3.org/2000/svg" version="1.1" width="100px" height="100px" style="shape-rendering:geometricPrecision; text-rendering:geometricPrecision; image-rendering:optimizeQuality; fill-rule:evenodd; clip-rule:evenodd" xmlns:xlink="http://www.w3.org/1999/xlink">
<g><path style="opacity:0.928" fill="#fefffe" d="M 99.5,40.5 C 99.5,47.1667 99.5,53.8333 99.5,60.5C 95.1915,76.6481 85.5249,88.4814 70.5,96C 67.6074,97.1488 64.6074,97.6488 61.5,97.5C 61.6662,91.1579 61.4995,84.8246 61,78.5C 60.4837,75.9664 59.317,73.7998 57.5,72C 74.6691,70.1706 82.1691,60.6706 80,43.5C 79.0272,40.2211 77.5272,37.2211 75.5,34.5C 76.671,30.5177 76.671,26.5177 75.5,22.5C 70.4159,23.0441 65.7492,24.7108 61.5,27.5C 53.4926,24.9265 45.4926,24.9265 37.5,27.5C 34.3208,25.7454 30.9875,24.2454 27.5,23C 26.0563,22.2195 24.723,22.3861 23.5,23.5C 22.1667,27.1667 22.1667,30.8333 23.5,34.5C 17.0389,44.3675 16.8723,54.3675 23,64.5C 28.0015,68.9163 33.8348,71.583 40.5,72.5C 38.2947,80.5789 33.2947,82.7455 25.5,79C 23.1255,76.961 21.1255,74.6277 19.5,72C 12.3917,69.7165 11.8917,70.5498 18,74.5C 20.9156,84.212 27.4156,88.212 37.5,86.5C 37.7892,90.1064 37.4558,93.6064 36.5,97C 23.1923,95.0551 13.0256,88.2218 6,76.5C 3.31502,71.2559 1.14836,65.9225 -0.5,60.5C -0.5,53.8333 -0.5,47.1667 -0.5,40.5C 9.8816,9.79557 31.2149,-2.70443 63.5,3C 82.2191,9.21599 94.2191,21.716 99.5,40.5 Z"/></g>
</svg>
