<?xml version="1.0" encoding="UTF-8"?>
<svg version="1.1" xmlns="http://www.w3.org/2000/svg" width="225" height="225">
<path d="M0 0 C4.27517557 4.23800013 6.45318661 11.06422509 6.6640625 16.96875 C6.63054687 17.6803125 6.59703125 18.391875 6.5625 19.125 C1.03282059 19.83533431 -3.93733036 20.42767176 -9.4375 19.125 C-10.0975 17.145 -10.7575 15.165 -11.4375 13.125 C-15.20296851 13.6338471 -16.9894833 14.22002018 -19.4375 17.125 C-23.54726931 24.72098741 -25.65342647 33.34235588 -23.5 41.8125 C-22.9740625 42.9571875 -22.9740625 42.9571875 -22.4375 44.125 C-18.9725 43.63 -18.9725 43.63 -15.4375 43.125 C-15.1075 41.475 -14.7775 39.825 -14.4375 38.125 C-15.0975 37.795 -15.7575 37.465 -16.4375 37.125 C-16.29581863 35.68708484 -16.14898957 34.2496763 -16 32.8125 C-15.91878906 32.01199219 -15.83757813 31.21148437 -15.75390625 30.38671875 C-15.4375 28.125 -15.4375 28.125 -14.4375 25.125 C-6.5175 25.125 1.4025 25.125 9.5625 25.125 C8.29296875 34.3046875 8.29296875 34.3046875 7.5625 37.125 C6.5725 37.785 5.5825 38.445 4.5625 39.125 C8.8525 39.455 13.1425 39.785 17.5625 40.125 C18.0575 42.6 18.0575 42.6 18.5625 45.125 C19.8825 45.125 21.2025 45.125 22.5625 45.125 C22.19939574 39.24997305 20.87115983 36.76808416 16.6875 32.6875 C11.91801597 27.6860239 8.65516559 24.04470054 8.51953125 16.84375 C8.97793467 10.44742322 10.72104672 5.9255321 15.375 1.375 C21.16195545 -2.70990973 26.61360153 -3.66189617 33.5625 -2.875 C38.04467348 -1.67096516 41.89440574 0.27108607 44.5625 4.125 C45.9299859 8.64364905 47.07881464 12.57605607 45.5625 17.125 C35.06617518 18.61140765 35.06617518 18.61140765 31.5625 17.125 C30.86038106 15.47295544 30.19278587 13.80576231 29.5625 12.125 C27.52144361 11.23806697 27.52144361 11.23806697 25.5625 11.125 C25.96789372 16.75857485 27.19698555 19.549487 30.9375 23.75 C37.322513 31.0085327 39.07367567 35.50021758 39.5625 45.125 C45.97137832 32.01185069 52.25621812 18.88430919 57.88256836 5.41333008 C58.22425049 4.59630615 58.56593262 3.77928223 58.91796875 2.9375 C59.21340576 2.22207031 59.50884277 1.50664063 59.81323242 0.76953125 C60.5625 -0.875 60.5625 -0.875 61.5625 -1.875 C63.03902664 -1.97380797 64.52017236 -2.00579245 66 -2.0078125 C66.89460938 -2.00910156 67.78921875 -2.01039062 68.7109375 -2.01171875 C69.65195313 -2.00785156 70.59296875 -2.00398438 71.5625 -2 C72.97402344 -2.00580078 72.97402344 -2.00580078 74.4140625 -2.01171875 C75.75597656 -2.00978516 75.75597656 -2.00978516 77.125 -2.0078125 C77.95128906 -2.00668457 78.77757812 -2.00555664 79.62890625 -2.00439453 C81.5625 -1.875 81.5625 -1.875 82.5625 -0.875 C82.68522849 0.72013893 82.74031043 2.32054932 82.76782227 3.92016602 C82.7977401 5.45164024 82.7977401 5.45164024 82.82826233 7.01405334 C82.84497482 8.1244548 82.86168732 9.23485626 82.87890625 10.37890625 C82.89968735 11.50948959 82.92046844 12.64007294 82.94187927 13.80491638 C83.00749797 17.43237985 83.06631677 21.05991833 83.125 24.6875 C83.16817351 27.13998186 83.2117874 29.592456 83.25585938 32.04492188 C83.36319184 38.07153427 83.4649349 44.09822201 83.5625 50.125 C83.69586761 49.5177861 83.82923523 48.9105722 83.96664429 48.28495789 C85.35425698 41.97318334 86.75070938 35.66341161 88.15234375 29.35473633 C88.67447903 26.99912042 89.19434768 24.64300093 89.71191406 22.28637695 C90.45564943 18.90181112 91.20748046 15.51913183 91.9609375 12.13671875 C92.1912265 11.08038742 92.4215155 10.02405609 92.65878296 8.93571472 C92.87886017 7.95492447 93.09893738 6.97413422 93.32568359 5.96362305 C93.61214249 4.66789619 93.61214249 4.66789619 93.90438843 3.34599304 C94.5625 1.125 94.5625 1.125 96.5625 -1.875 C105.99656747 -3.06446215 115.69222481 -2.58064417 123.4375 3.3125 C128.19697495 9.61180508 129.19166135 15.11263334 128.2578125 22.9609375 C126.40720775 31.3822288 122.74042087 38.23601629 115.4921875 43.0390625 C114.85539063 43.39742187 114.21859375 43.75578125 113.5625 44.125 C112.66144531 44.67414063 112.66144531 44.67414063 111.7421875 45.234375 C108.7655957 46.45061681 106.01354254 46.55793745 102.8125 46.75 C101.64203125 46.82476562 100.4715625 46.89953125 99.265625 46.9765625 C98.37359375 47.02554688 97.4815625 47.07453125 96.5625 47.125 C96.5625 47.785 96.5625 48.445 96.5625 49.125 C97.2225 49.125 97.8825 49.125 98.5625 49.125 C98.42200482 50.60468324 98.27495174 52.08374516 98.125 53.5625 C98.00318359 54.79806641 98.00318359 54.79806641 97.87890625 56.05859375 C97.5625 58.125 97.5625 58.125 96.5625 59.125 C94.34394736 59.21283542 92.12261504 59.23194609 89.90234375 59.22265625 C88.90564415 59.22053383 88.90564415 59.22053383 87.8888092 59.21836853 C85.75916101 59.21275518 83.62961661 59.20020054 81.5 59.1875 C80.05924631 59.18248671 78.61849097 59.17792351 77.17773438 59.17382812 C73.63928898 59.16278145 70.10090461 59.14550792 66.5625 59.125 C66.0675 55.66 66.0675 55.66 65.5625 52.125 C61.6025 51.795 57.6425 51.465 53.5625 51.125 C53.0984375 52.8265625 53.0984375 52.8265625 52.625 54.5625 C51.5625 58.125 51.5625 58.125 50.5625 59.125 C48.03200598 59.19813567 45.52945163 59.21747527 43 59.1875 C42.28908203 59.18298828 41.57816406 59.17847656 40.84570312 59.17382812 C39.08459987 59.16200864 37.32353964 59.14407263 35.5625 59.125 C34.5625 56.125 34.5625 56.125 34.5625 55.125 C33.2321875 56.0840625 33.2321875 56.0840625 31.875 57.0625 C26.70750028 60.27999983 21.60152828 60.76793837 15.5625 60.125 C10.96148877 58.59132959 7.46625915 57.06581599 4.5625 53.125 C3.37770199 50.17321875 2.42558267 47.18502038 1.5625 44.125 C1.2221875 44.78886719 0.881875 45.45273438 0.53125 46.13671875 C-2.78918067 52.1859076 -5.76260735 56.74031381 -12.4375 59.125 C-18.87511142 60.41080787 -25.39530623 61.02525301 -31.4375 58.125 C-37.12956418 53.36362878 -39.75500956 47.26263635 -40.71875 40.0078125 C-41.29789571 26.83224758 -36.28731868 12.85759361 -27.4375 3.125 C-19.3986307 -3.37451135 -9.21352867 -5.02556109 0 0 Z M104.5625 12.125 C104.76875 13.1975 104.975 14.27 105.1875 15.375 C105.93826146 21.09312836 104.6916998 26.52566215 103.5625 32.125 C107.78103341 31.3290503 109.12120667 29.66066621 111.5625 26.125 C112.49635816 23.32342552 112.72604595 21.47052197 112.75 18.5625 C112.77126953 17.38494141 112.77126953 17.38494141 112.79296875 16.18359375 C112.75417509 13.9006455 112.75417509 13.9006455 110.5625 12.125 C107.47902174 11.95818891 107.47902174 11.95818891 104.5625 12.125 Z M66.5625 20.125 C63.63571751 25.67579437 61.3956267 31.12567626 59.5625 37.125 C60.61679686 38.38972065 60.61679686 38.38972065 63 38.375 C63.845625 38.2925 64.69125 38.21 65.5625 38.125 C68.01641569 34.44412647 67.79052759 31.68144412 67.6875 27.4375 C67.67847656 26.73560547 67.66945313 26.03371094 67.66015625 25.31054688 C67.63663704 23.58188475 67.60076713 21.85339855 67.5625 20.125 C67.2325 20.125 66.9025 20.125 66.5625 20.125 Z " fill="#0CE148" transform="translate(68.4375,83.875)"/>
<path d="M0 0 C7.35426322 0.08108339 16.14578665 0.68887369 21.91796875 5.78515625 C25.6571946 11.4952376 25.80744212 19.27758 24.6875 25.8125 C22.42046732 34.23929909 18.07462784 40.72413044 10.546875 45.1953125 C4.90626601 47.93887402 -0.54021523 48.57124103 -6.75 48.3125 C-6.729375 49.59125 -6.70875 50.87 -6.6875 52.1875 C-6.625 56.0625 -6.625 56.0625 -7.75 58.3125 C-11.05 58.3125 -14.35 58.3125 -17.75 58.3125 C-16.96562423 43.40936035 -13.62106558 28.94983752 -9.62890625 14.609375 C-8.61067724 10.78988485 -7.83156685 6.96137393 -7.14453125 3.0703125 C-6.28068171 -0.77852207 -3.47615243 0.07900346 0 0 Z M1.25 13.3125 C1.45625 14.385 1.6625 15.4575 1.875 16.5625 C2.62576146 22.28062836 1.3791998 27.71316215 0.25 33.3125 C4.46853341 32.5165503 5.80870667 30.84816621 8.25 27.3125 C9.18385816 24.51092552 9.41354595 22.65802197 9.4375 19.75 C9.45876953 18.57244141 9.45876953 18.57244141 9.48046875 17.37109375 C9.44167509 15.0881455 9.44167509 15.0881455 7.25 13.3125 C4.16652174 13.14568891 4.16652174 13.14568891 1.25 13.3125 Z " fill="#0BE249" transform="translate(171.75,82.6875)"/>
<path d="M0 0 C1.299375 0.2165625 1.299375 0.2165625 2.625 0.4375 C5 1 5 1 7 3 C7 3.99 7 4.98 7 6 C6.01 6.33 5.02 6.66 4 7 C3.67 7.99 3.34 8.98 3 10 C-0.3 9.67 -3.6 9.34 -7 9 C-7.31819887 14.30331456 -6.57826265 17.38061275 -4 22 C-4 22.66 -4 23.32 -4 24 C-3.01 24 -2.02 24 -1 24 C-0.896875 24.639375 -0.79375 25.27875 -0.6875 25.9375 C-0.460625 26.618125 -0.23375 27.29875 0 28 C0.99 28.33 1.98 28.66 3 29 C6.92312085 34.76003362 8.08463774 41.18540731 7 48 C5.65835757 52.23298949 4.05532476 55.16115212 0.5625 57.9375 C-4.6837117 60.11275851 -9.39570101 60.09498812 -15 60 C-15 59.34 -15 58.68 -15 58 C-15.721875 57.95875 -16.44375 57.9175 -17.1875 57.875 C-21.06338303 56.66916972 -23.14320794 54.51128772 -25 51 C-25.68336642 47.93732128 -25.85650316 45.15693056 -26 42 C-23.03 42 -20.06 42 -17 42 C-16.34 43.32 -15.68 44.64 -15 46 C-10.9134809 47.1640191 -10.9134809 47.1640191 -7 46 C-6.58228196 42.66799815 -6.58228196 42.66799815 -7 39 C-8.62688999 37.61841232 -10.30036546 36.2910453 -12 35 C-13.46473404 33.33269636 -14.88278237 31.62315994 -16.25 29.875 C-16.93578125 29.00617188 -17.6215625 28.13734375 -18.328125 27.2421875 C-21.0696532 23.56546511 -21.08653804 21.73637249 -20.75 17.1875 C-20.68296875 16.14980469 -20.6159375 15.11210938 -20.546875 14.04296875 C-19.75689052 9.64726939 -17.98630124 6.9581212 -14.8125 3.875 C-10.07204127 0.71469418 -5.65365522 -1.7732442 0 0 Z " fill="#0FE14B" transform="translate(99,84)"/>
<path d="M0 0 C0.80454422 6.32778204 1.13634502 12.47329393 1.09765625 18.84765625 C1.0962413 19.74495956 1.09482635 20.64226288 1.09336853 21.5667572 C1.0878251 24.39870714 1.07528358 27.23057445 1.0625 30.0625 C1.05747767 31.99674364 1.05291606 33.93098853 1.04882812 35.86523438 C1.03787429 40.57685417 1.02064953 45.28841313 1 50 C-2.63 50 -6.26 50 -10 50 C-10.33 48.02 -10.66 46.04 -11 44 C-16.28 44 -21.56 44 -27 44 C-27.33 45.98 -27.66 47.96 -28 50 C-28.33 50.66 -28.66 51.32 -29 52 C-32.96 52 -36.92 52 -41 52 C-41 50.68 -41 49.36 -41 48 C-40.34 48 -39.68 48 -39 48 C-39 45.69 -39 43.38 -39 41 C-38.34 41 -37.68 41 -37 41 C-36.87625 40.401875 -36.7525 39.80375 -36.625 39.1875 C-36 37 -36 37 -34 34 C-33.34 34 -32.68 34 -32 34 C-31.87625 33.21625 -31.7525 32.4325 -31.625 31.625 C-31 29 -31 29 -29 27 C-27.64560332 29.70879335 -27.93498549 32.00933268 -28 35 C-27.67 34.34 -27.34 33.68 -27 33 C-26.34 33 -25.68 33 -25 33 C-24.67 32.01 -24.34 31.02 -24 30 C-23.957279 31.66611905 -23.95936168 33.33382885 -24 35 C-24.33 35.33 -24.66 35.66 -25 36 C-24.01 36.99 -23.02 37.98 -22 39 C-23.32 38.67 -24.64 38.34 -26 38 C-25.67 38.66 -25.34 39.32 -25 40 C-23.35 40 -21.7 40 -20 40 C-20.33 39.01 -20.66 38.02 -21 37 C-15.58461538 34.78461538 -15.58461538 34.78461538 -12.625 35.875 C-12.08875 36.24625 -11.5525 36.6175 -11 37 C-11.33 35.68 -11.66 34.36 -12 33 C-10.515 32.505 -10.515 32.505 -9 32 C-9.04125 31.278125 -9.0825 30.55625 -9.125 29.8125 C-8.99078695 26.79270631 -8.24829381 24.73064271 -7 22 C-6.34 22 -5.68 22 -5 22 C-5.21398437 20.83082031 -5.42796875 19.66164063 -5.6484375 18.45703125 C-5.89235 16.909125 -6.13444242 15.36093118 -6.375 13.8125 C-6.52066406 13.04357422 -6.66632813 12.27464844 -6.81640625 11.48242188 C-7.1519817 9.18274309 -7.34831037 7.30097641 -7 5 C-5.37478547 2.8583563 -2.88015241 0 0 0 Z " fill="#0AE347" transform="translate(147,90)"/>
<path d="M0 0 C3.65466936 2.46937119 4.39335435 4.90215655 5.3125 9.0625 C5.93483249 12.37330887 6.08581883 13.7425435 5 17 C-5.49632482 18.48640765 -5.49632482 18.48640765 -9 17 C-9.70211894 15.34795544 -10.36971413 13.68076231 -11 12 C-13.04105639 11.11306697 -13.04105639 11.11306697 -15 11 C-14.59460628 16.63357485 -13.36551445 19.424487 -9.625 23.625 C-3.34808929 30.76064116 -1.54550096 34.89260401 -1.3125 44.3125 C-1.26125977 45.70952148 -1.26125977 45.70952148 -1.20898438 47.13476562 C-1.12684059 49.42305672 -1.05758338 51.71098104 -1 54 C-1.66 54 -2.32 54 -3 54 C-3 55.32 -3 56.64 -3 58 C0.96 58 4.92 58 9 58 C9.28875 56.700625 9.5775 55.40125 9.875 54.0625 C10.3671875 51.84765625 10.3671875 51.84765625 11 50 C13.73077876 48.63461062 15.95560367 48.86768174 19 48.875 C20.60875 48.87113281 20.60875 48.87113281 22.25 48.8671875 C25 49 25 49 27 50 C27 52.31 27 54.62 27 57 C31.62 57 36.24 57 41 57 C43.22491651 48.28828354 45.35285004 39.57332137 47.2890625 30.79296875 C47.48062927 29.92624542 47.67219604 29.05952209 47.86956787 28.16653442 C48.65840939 24.59100567 49.44488252 21.01499733 50.22363281 17.43725586 C50.80231093 14.78371835 51.38881859 12.1320107 51.9765625 9.48046875 C52.15055573 8.67119431 52.32454895 7.86191986 52.5038147 7.02812195 C53.28727744 3.51708052 53.98336917 1.02494624 56 -2 C64.38003142 -3.05656762 72.21569789 -2.27760089 80 1 C76.12964684 2.48859737 73.81256544 1.28334512 70 0 C66.56932474 -0.23964886 66.56932474 -0.23964886 63.125 -0.125 C61.97257812 -0.10695313 60.82015625 -0.08890625 59.6328125 -0.0703125 C58.32957031 -0.03550781 58.32957031 -0.03550781 57 0 C52.34449624 18.8925754 48.03584853 37.77295933 45 57 C48.3 57 51.6 57 55 57 C55.33 54.36 55.66 51.72 56 49 C56.66 49 57.32 49 58 49 C57.85950482 50.47968324 57.71245174 51.95874516 57.5625 53.4375 C57.44068359 54.67306641 57.44068359 54.67306641 57.31640625 55.93359375 C57 58 57 58 56 59 C53.78144736 59.08783542 51.56011504 59.10694609 49.33984375 59.09765625 C48.34314415 59.09553383 48.34314415 59.09553383 47.3263092 59.09336853 C45.19666101 59.08775518 43.06711661 59.07520054 40.9375 59.0625 C39.49674631 59.05748671 38.05599097 59.05292351 36.61523438 59.04882812 C33.07678898 59.03778145 29.53840461 59.02050792 26 59 C25.505 55.535 25.505 55.535 25 52 C21.04 51.67 17.08 51.34 13 51 C12.690625 52.134375 12.38125 53.26875 12.0625 54.4375 C11 58 11 58 10 59 C7.46950598 59.07313567 4.96695163 59.09247527 2.4375 59.0625 C1.72658203 59.05798828 1.01566406 59.05347656 0.28320312 59.04882812 C-1.47790013 59.03700864 -3.23896036 59.01907263 -5 59 C-6.17113264 55.48660209 -5.41907644 53.78019471 -4.49609375 50.3046875 C-2.81999145 42.51807052 -3.83600809 35.81000684 -8 29 C-8.54011719 28.46246094 -9.08023438 27.92492187 -9.63671875 27.37109375 C-11 26 -11 26 -11 24 C-11.99 24 -12.98 24 -14 24 C-18.46015566 16.6302149 -18.46015566 16.6302149 -17.75 12 C-17.37875 10.515 -17.37875 10.515 -17 9 C-9.25 8.875 -9.25 8.875 -7 10 C-7 8.35 -7 6.7 -7 5 C-5.68 5.33 -4.36 5.66 -3 6 C-3.99135641 3.3726974 -3.99135641 3.3726974 -6 1 C-9.5 0.58333333 -9.5 0.58333333 -13 1 C-13.99 1 -14.98 1 -16 1 C-17.38264106 1.22864687 -18.75833111 1.50235189 -20.125 1.8125 C-21.18074219 2.03873047 -21.18074219 2.03873047 -22.2578125 2.26953125 C-22.83273438 2.51058594 -23.40765625 2.75164062 -24 3 C-24.33 3.99 -24.66 4.98 -25 6 C-25.66 6 -26.32 6 -27 6 C-28.85961414 10.2505466 -29.93204565 14.49933525 -31 19 C-31.33 19 -31.66 19 -32 19 C-31.53016902 11.70951922 -30.62042813 6.5621964 -25.1875 1.25 C-17.20030799 -4.38801789 -8.46612189 -4.64806692 0 0 Z " fill="#40BA62" transform="translate(109,84)"/>
<path d="M0 0 C2.37531394 -0.0543965 4.74935883 -0.09385864 7.125 -0.125 C7.79015625 -0.14175781 8.4553125 -0.15851563 9.140625 -0.17578125 C13.49516056 -0.21847278 16.95600114 0.40003783 21 2 C21 2.66 21 3.32 21 4 C21.99 4.33 22.98 4.66 24 5 C27.78761118 12.15437666 26.92149592 18.5384246 25 26 C24.855625 26.94875 24.71125 27.8975 24.5625 28.875 C23.87324191 31.47886391 22.9989027 32.21526545 21 34 C20.236875 35.0725 19.47375 36.145 18.6875 37.25 C17.3571875 38.61125 17.3571875 38.61125 16 40 C12.6875 39.875 12.6875 39.875 10 39 C9.67 37.68 9.34 36.36 9 35 C9.99 35 10.98 35 12 35 C11.505 33.515 11.505 33.515 11 32 C9.68 32.66 8.36 33.32 7 34 C10.75 29.125 10.75 29.125 13 28 C15.28125928 21.15622215 15.30883689 15.92651066 13 9 C7.72 9 2.44 9 -3 9 C-3 7.35 -3 5.7 -3 4 C-2.34 4 -1.68 4 -1 4 C-0.67 2.68 -0.34 1.36 0 0 Z " fill="#0CE249" transform="translate(168,84)"/>
<path d="M0 0 C6.27 0 12.54 0 19 0 C20.22489534 4.89958134 19.24341865 6.59625227 17 11 C16.34 11.33 15.68 11.66 15 12 C13.86649466 14.01669827 13.86649466 14.01669827 13 16 C12.34 16 11.68 16 11 16 C10.34 17.98 9.68 19.96 9 22 C8.34 22 7.68 22 7 22 C7 23.32 7 24.64 7 26 C6.01 26 5.02 26 4 26 C3.690625 26.639375 3.38125 27.27875 3.0625 27.9375 C2 30 2 30 1 31 C-1.52596259 31.23653523 -4.03107207 31.42173692 -6.5625 31.5625 C-7.62887695 31.62727539 -7.62887695 31.62727539 -8.71679688 31.69335938 C-10.47761912 31.79971777 -12.2387832 31.90038846 -14 32 C-15.4606285 29.35261084 -16 28.10551666 -16 25 C-14.576875 25.309375 -14.576875 25.309375 -13.125 25.625 C-11.578125 25.810625 -11.578125 25.810625 -10 26 C-7.7763932 24.0745356 -7.7763932 24.0745356 -7 21 C-6.01 21 -5.02 21 -4 21 C-4 20.34 -4 19.68 -4 19 C-2.35 18.34 -0.7 17.68 1 17 C1 16.01 1 15.02 1 14 C1.66 14 2.32 14 3 14 C2.72382467 12.05925139 2.72382467 12.05925139 2 10 C1.01 9.34 0.02 8.68 -1 8 C-0.67 5.36 -0.34 2.72 0 0 Z " fill="#0EE14A" transform="translate(56,110)"/>
<path d="M0 0 C0.89460938 -0.00128906 1.78921875 -0.00257812 2.7109375 -0.00390625 C3.65195313 -0.00003906 4.59296875 0.00382812 5.5625 0.0078125 C6.97402344 0.00201172 6.97402344 0.00201172 8.4140625 -0.00390625 C9.75597656 -0.00197266 9.75597656 -0.00197266 11.125 0 C11.95128906 0.00112793 12.77757812 0.00225586 13.62890625 0.00341797 C15.5625 0.1328125 15.5625 0.1328125 16.5625 1.1328125 C16.6560919 2.85146659 16.67994611 4.57396994 16.67602539 6.29516602 C16.67594986 7.39623184 16.67587433 8.49729767 16.67579651 9.63172913 C16.67063522 10.8296257 16.66547394 12.02752228 16.66015625 13.26171875 C16.6587413 14.48108627 16.65732635 15.7004538 16.65586853 16.95677185 C16.65024967 20.8696432 16.63769396 24.78245831 16.625 28.6953125 C16.61998743 31.34049397 16.6154241 33.98567633 16.61132812 36.63085938 C16.60027411 43.13152976 16.58351764 49.63216711 16.5625 56.1328125 C16.2325 56.1328125 15.9025 56.1328125 15.5625 56.1328125 C15.5625 38.6428125 15.5625 21.1528125 15.5625 3.1328125 C8.9625 2.8028125 2.3625 2.4728125 -4.4375 2.1328125 C-4.7675 3.7828125 -5.0975 5.4328125 -5.4375 7.1328125 C-5.94767304 9.23958923 -6.46883108 11.34373112 -7 13.4453125 C-7.26941406 14.51394531 -7.53882812 15.58257812 -7.81640625 16.68359375 C-8.02136719 17.49183594 -8.22632812 18.30007812 -8.4375 19.1328125 C-9.4275 19.1328125 -10.4175 19.1328125 -11.4375 19.1328125 C-12.0975 22.4328125 -12.7575 25.7328125 -13.4375 29.1328125 C-12.7775 29.1328125 -12.1175 29.1328125 -11.4375 29.1328125 C-10.09966607 29.44759696 -8.76546291 29.77868906 -7.4375 30.1328125 C-7.334375 29.2046875 -7.23125 28.2765625 -7.125 27.3203125 C-6.43218505 24.10817045 -6.0495831 23.01351233 -3.4375 21.1328125 C-2.7775 21.1328125 -2.1175 21.1328125 -1.4375 21.1328125 C-1.4375 19.4828125 -1.4375 17.8328125 -1.4375 16.1328125 C-0.4475 16.1328125 0.5425 16.1328125 1.5625 16.1328125 C2.40396888 19.06458368 2.69093601 21.6763042 2.6953125 24.72265625 C2.69724609 26.02299805 2.69724609 26.02299805 2.69921875 27.34960938 C2.69535156 28.24744141 2.69148438 29.14527344 2.6875 30.0703125 C2.69330078 31.41125977 2.69330078 31.41125977 2.69921875 32.77929688 C2.6929223 37.01995347 2.64931103 41.00120547 1.5625 45.1328125 C0.82 44.9265625 0.0775 44.7203125 -0.6875 44.5078125 C-3.76080841 44.08872499 -4.86536866 44.51332239 -7.4375 46.1328125 C-7.4375 46.7928125 -7.4375 47.4528125 -7.4375 48.1328125 C-10.4075 48.6278125 -10.4075 48.6278125 -13.4375 49.1328125 C-13.4375 48.1428125 -13.4375 47.1528125 -13.4375 46.1328125 C-12.4475 46.1328125 -11.4575 46.1328125 -10.4375 46.1328125 C-11.4275 45.4728125 -12.4175 44.8128125 -13.4375 44.1328125 C-13.1075 43.1428125 -12.7775 42.1528125 -12.4375 41.1328125 C-13.0975 41.1328125 -13.7575 41.1328125 -14.4375 41.1328125 C-15.0975 42.4528125 -15.7575 43.7728125 -16.4375 45.1328125 C-16.4375 42.1628125 -16.4375 39.1928125 -16.4375 36.1328125 C-18.57039692 37.89590929 -18.57039692 37.89590929 -18.8125 40.0078125 C-19.64677798 42.84435762 -21.33951267 44.10038727 -23.4375 46.1328125 C-23.7675 47.1228125 -24.0975 48.1128125 -24.4375 49.1328125 C-25.0975 49.1328125 -25.7575 49.1328125 -26.4375 49.1328125 C-25.15248112 45.08520867 -23.66383724 41.2666469 -21.86328125 37.421875 C-21.36352783 36.3486499 -20.86377441 35.2754248 -20.34887695 34.16967773 C-19.82124756 33.04376221 -19.29361816 31.91784668 -18.75 30.7578125 C-14.86305474 22.41215811 -11.01752668 14.05907843 -7.40551758 5.59033203 C-5.01028681 0.00683932 -5.01028681 0.00683932 0 0 Z M0.5625 22.1328125 C-2.36428249 27.68360687 -4.6043733 33.13348876 -6.4375 39.1328125 C-5.38320314 40.39753315 -5.38320314 40.39753315 -3 40.3828125 C-2.154375 40.3003125 -1.30875 40.2178125 -0.4375 40.1328125 C2.01641569 36.45193897 1.79052759 33.68925662 1.6875 29.4453125 C1.67847656 28.74341797 1.66945312 28.04152344 1.66015625 27.31835938 C1.63663704 25.58969725 1.60076713 23.86121105 1.5625 22.1328125 C1.2325 22.1328125 0.9025 22.1328125 0.5625 22.1328125 Z " fill="#12E04B" transform="translate(134.4375,81.8671875)"/>
<path d="M0 0 C1.299375 0.2165625 1.299375 0.2165625 2.625 0.4375 C5 1 5 1 7 3 C7 3.99 7 4.98 7 6 C6.01 6.33 5.02 6.66 4 7 C3.67 7.99 3.34 8.98 3 10 C-0.3 9.67 -3.6 9.34 -7 9 C-7 13.29 -7 17.58 -7 22 C-8.32 22.33 -9.64 22.66 -11 23 C-11 23.66 -11 24.32 -11 25 C-10.01 25 -9.02 25 -8 25 C-7.67 24.34 -7.34 23.68 -7 23 C-6.34 23 -5.68 23 -5 23 C-5 24.98 -5 26.96 -5 29 C-4.34 29.33 -3.68 29.66 -3 30 C-3.495 32.475 -3.495 32.475 -4 35 C-5.98 35.495 -5.98 35.495 -8 36 C-8.495 34.515 -8.495 34.515 -9 33 C-9.66 32.67 -10.32 32.34 -11 32 C-10.67 30.68 -10.34 29.36 -10 28 C-10.99 28 -11.98 28 -13 28 C-14.0625 25.625 -14.0625 25.625 -15 23 C-14.67 22.34 -14.34 21.68 -14 21 C-14.639375 20.896875 -15.27875 20.79375 -15.9375 20.6875 C-16.618125 20.460625 -17.29875 20.23375 -18 20 C-19.37151122 15.88546635 -19.62643787 11.9932114 -18.3125 7.8125 C-14.21419108 2.15293054 -6.93885559 -2.17634167 0 0 Z " fill="#09E347" transform="translate(99,84)"/>
<path d="M0 0 C7.92 0 15.84 0 24 0 C22.73046875 9.1796875 22.73046875 9.1796875 22 12 C21.01 12.66 20.02 13.32 19 14 C23.29 14.33 27.58 14.66 32 15 C32.495 17.475 32.495 17.475 33 20 C34.32 20 35.64 20 37 20 C37 17.69 37 15.38 37 13 C37.66 13.33 38.32 13.66 39 14 C39 16.31 39 18.62 39 21 C35.99758744 22.54409789 34.5837816 23.1459454 31.25 22.3125 C29 21 29 21 28 18 C25.03 17.67 22.06 17.34 19 17 C19.309375 18.423125 19.61875 19.84625 19.9375 21.3125 C20.11152344 22.11300781 20.28554687 22.91351563 20.46484375 23.73828125 C20.99886159 26.145401 20.99886159 26.145401 22 29 C22.99 29.33 23.98 29.66 25 30 C25 30.66 25 31.32 25 32 C26.65 32.33 28.3 32.66 30 33 C28.375 33.75 28.375 33.75 26 34 C22.04328035 32.35136681 20.55859437 31.19258184 18.7265625 27.28125 C17.73030785 24.5397833 16.82032277 21.79874827 16 19 C15.6596875 19.66386719 15.319375 20.32773438 14.96875 21.01171875 C11.64831933 27.0609076 8.67489265 31.61531381 2 34 C-4.51404895 35.30107502 -10.82309657 35.77330358 -17 33 C-19.9375 30.375 -19.9375 30.375 -22 28 C-21.67 27.34 -21.34 26.68 -21 26 C-19.82780457 26.78345715 -18.66236332 27.57702836 -17.5 28.375 C-16.8503125 28.81585938 -16.200625 29.25671875 -15.53125 29.7109375 C-15.0259375 30.13632813 -14.520625 30.56171875 -14 31 C-14 31.66 -14 32.32 -14 33 C-11.22571498 32.77205874 -8.45787215 32.51875073 -5.6875 32.25 C-4.90181641 32.188125 -4.11613281 32.12625 -3.30664062 32.0625 C1.34381642 31.71600709 1.34381642 31.71600709 4.85546875 28.921875 C5.23316406 28.28765625 5.61085938 27.6534375 6 27 C6.99 27 7.98 27 9 27 C9 25.68 9 24.36 9 23 C9.66 23 10.32 23 11 23 C11.28875 22.030625 11.5775 21.06125 11.875 20.0625 C13 17 13 17 15 16 C15.33 15.34 15.66 14.68 16 14 C17 12 17 12 19 11 C19.66 8.03 20.32 5.06 21 2 C14.73 1.67 8.46 1.34 2 1 C2 3.64 2 6.28 2 9 C2.99 9.66 3.98 10.32 5 11 C5 12.32 5 13.64 5 15 C4.34 15 3.68 15 3 15 C3 15.99 3 16.98 3 18 C-0.90748231 21.19703098 -4.07008655 21.28999491 -9 21 C-8.67 20.34 -8.34 19.68 -8 19 C-5.67843403 18.59270772 -3.3431213 18.25561323 -1 18 C-0.67 16.35 -0.34 14.7 0 13 C-0.66 12.67 -1.32 12.34 -2 12 C-1.85831863 10.56208484 -1.71148957 9.1246763 -1.5625 7.6875 C-1.48128906 6.88699219 -1.40007813 6.08648437 -1.31640625 5.26171875 C-1 3 -1 3 0 0 Z " fill="#33B95A" transform="translate(54,109)"/>
<path d="M0 0 C4.27517557 4.23800013 6.45318661 11.06422509 6.6640625 16.96875 C6.63054687 17.6803125 6.59703125 18.391875 6.5625 19.125 C1.03282059 19.83533431 -3.93733036 20.42767176 -9.4375 19.125 C-10.0975 17.145 -10.7575 15.165 -11.4375 13.125 C-15.19728181 13.63307862 -17.01899015 14.19191359 -19.4375 17.125 C-20.6497949 19.61401793 -20.6497949 19.61401793 -21.625 22.3125 C-21.96917969 23.21355469 -22.31335937 24.11460938 -22.66796875 25.04296875 C-22.92191406 25.73003906 -23.17585938 26.41710937 -23.4375 27.125 C-23.7675 27.125 -24.0975 27.125 -24.4375 27.125 C-24.1075 24.485 -23.7775 21.845 -23.4375 19.125 C-22.7775 19.125 -22.1175 19.125 -21.4375 19.125 C-21.1075 17.145 -20.7775 15.165 -20.4375 13.125 C-19.7775 13.125 -19.1175 13.125 -18.4375 13.125 C-18.4375 12.135 -18.4375 11.145 -18.4375 10.125 C-15.1375 10.125 -11.8375 10.125 -8.4375 10.125 C-8.4375 11.115 -8.4375 12.105 -8.4375 13.125 C-7.7775 13.455 -7.1175 13.785 -6.4375 14.125 C-6.1075 13.795 -5.7775 13.465 -5.4375 13.125 C-4.9425 14.61 -4.9425 14.61 -4.4375 16.125 C-3.7775 15.795 -3.1175 15.465 -2.4375 15.125 C-2.47875 14.3825 -2.52 13.64 -2.5625 12.875 C-2.43351866 10.03741048 -1.86698778 8.53726062 -0.4375 6.125 C-1.0975 6.125 -1.7575 6.125 -2.4375 6.125 C-2.9325 5.135 -2.9325 5.135 -3.4375 4.125 C-5.09822849 3.44367549 -6.765267 2.77757873 -8.4375 2.125 C-9.0975 1.465 -9.7575 0.805 -10.4375 0.125 C-10.7675 0.785 -11.0975 1.445 -11.4375 2.125 C-11.953125 1.939375 -12.46875 1.75375 -13 1.5625 C-17.08132874 0.82995382 -20.86560944 1.57271413 -24.75 2.9375 C-26.86812496 4.42803238 -27.36560847 5.78023728 -28.4375 8.125 C-29.05625 8.846875 -29.675 9.56875 -30.3125 10.3125 C-33.07955981 13.97478505 -34.70557131 17.89651452 -36.4375 22.125 C-37.4375 20.125 -37.4375 20.125 -36.87109375 18.2421875 C-32.70626913 8.86724893 -28.03007032 1.83958778 -18.25 -2.1875 C-11.70352719 -3.36801149 -5.90619573 -3.22156131 0 0 Z " fill="#29CA59" transform="translate(68.4375,83.875)"/>
<path d="M0 0 C3.65466936 2.46937119 4.39335435 4.90215655 5.3125 9.0625 C5.93483249 12.37330887 6.08581883 13.7425435 5 17 C-4.41002278 18.33257403 -4.41002278 18.33257403 -9 17 C-9 14.69 -9 12.38 -9 10 C-8.34 10 -7.68 10 -7 10 C-7 8.35 -7 6.7 -7 5 C-5.68 5.33 -4.36 5.66 -3 6 C-3.99135641 3.3726974 -3.99135641 3.3726974 -6 1 C-9.5 0.58333333 -9.5 0.58333333 -13 1 C-13.99 1 -14.98 1 -16 1 C-17.38264106 1.22864687 -18.75833111 1.50235189 -20.125 1.8125 C-21.18074219 2.03873047 -21.18074219 2.03873047 -22.2578125 2.26953125 C-22.83273438 2.51058594 -23.40765625 2.75164062 -24 3 C-24.33 3.99 -24.66 4.98 -25 6 C-25.66 6 -26.32 6 -27 6 C-28.85961414 10.2505466 -29.93204565 14.49933525 -31 19 C-31.33 19 -31.66 19 -32 19 C-31.53016902 11.70951922 -30.62042813 6.5621964 -25.1875 1.25 C-17.20030799 -4.38801789 -8.46612189 -4.64806692 0 0 Z " fill="#10DF4A" transform="translate(109,84)"/>
<path d="M0 0 C2.51355548 0.98425541 3.79062334 1.68436311 5.30078125 3.9609375 C8.69691378 12.06445065 8.79639912 18.9132891 5.86328125 27.21875 C2.82552992 33.94341597 -0.54728629 38.36871577 -7 42 C-7.60070312 42.36609375 -8.20140625 42.7321875 -8.8203125 43.109375 C-11.7969043 44.32561681 -14.54895746 44.43293745 -17.75 44.625 C-18.92046875 44.69976562 -20.0909375 44.77453125 -21.296875 44.8515625 C-22.18890625 44.90054688 -23.0809375 44.94953125 -24 45 C-24 45.66 -24 46.32 -24 47 C-25.65 46.34 -27.3 45.68 -29 45 C-24.17623336 41.78415557 -22.06192565 40.82483166 -16.25 40.75 C-10.52156856 40.41894514 -7.25573831 39.79145895 -3.2578125 35.6328125 C-1.63795288 33.53001336 -0.2937202 31.31507826 1 29 C1.66 29 2.32 29 3 29 C3.06058594 28.16855469 3.12117188 27.33710937 3.18359375 26.48046875 C3.26738281 25.39378906 3.35117188 24.30710937 3.4375 23.1875 C3.51871094 22.10855469 3.59992188 21.02960938 3.68359375 19.91796875 C4 17 4 17 5 14 C4.40138258 11.64828869 3.73075648 9.3140622 3 7 C2.7525 5.824375 2.7525 5.824375 2.5 4.625 C2.2525 3.820625 2.2525 3.820625 2 3 C1.34 2.67 0.68 2.34 0 2 C0 1.34 0 0.68 0 0 Z " fill="#25CC58" transform="translate(189,86)"/>
<path d="M0 0 C2.68149993 -0.38567131 2.68149993 -0.38567131 5 -1 C4.67 -0.34 4.34 0.32 4 1 C4.763125 1.268125 5.52625 1.53625 6.3125 1.8125 C8.87380884 2.94424112 10.19692938 3.91223401 12 6 C11.01 7.485 11.01 7.485 10 9 C9.83300768 12.12521833 9.83300768 12.12521833 10 15 C7.03 14.505 7.03 14.505 4 14 C3.67 12.35 3.34 10.7 3 9 C-0.3 9 -3.6 9 -7 9 C-7 8.34 -7 7.68 -7 7 C-5.68 7 -4.36 7 -3 7 C-3.66 6.34 -4.32 5.68 -5 5 C-4.01 4.67 -3.02 4.34 -2 4 C-2.33 3.67 -2.66 3.34 -3 3 C-5.69082872 3.17635452 -8.32851446 3.61835921 -11 4 C-10.3125 2.0625 -10.3125 2.0625 -9 0 C-5.55539522 -1.17841743 -3.43020875 -0.85755219 0 0 Z " fill="#08E246" transform="translate(57,85)"/>
<path d="M0 0 C0.89460938 -0.00128906 1.78921875 -0.00257812 2.7109375 -0.00390625 C3.65195313 -0.00003906 4.59296875 0.00382812 5.5625 0.0078125 C6.97402344 0.00201172 6.97402344 0.00201172 8.4140625 -0.00390625 C9.75597656 -0.00197266 9.75597656 -0.00197266 11.125 0 C11.95128906 0.00112793 12.77757812 0.00225586 13.62890625 0.00341797 C15.5625 0.1328125 15.5625 0.1328125 16.5625 1.1328125 C16.6560919 2.85146659 16.67994611 4.57396994 16.67602539 6.29516602 C16.67594986 7.39623184 16.67587433 8.49729767 16.67579651 9.63172913 C16.67063522 10.8296257 16.66547394 12.02752228 16.66015625 13.26171875 C16.6587413 14.48108627 16.65732635 15.7004538 16.65586853 16.95677185 C16.65024967 20.8696432 16.63769396 24.78245831 16.625 28.6953125 C16.61998743 31.34049397 16.6154241 33.98567633 16.61132812 36.63085938 C16.60027411 43.13152976 16.58351764 49.63216711 16.5625 56.1328125 C16.2325 56.1328125 15.9025 56.1328125 15.5625 56.1328125 C15.5625 38.6428125 15.5625 21.1528125 15.5625 3.1328125 C8.9625 2.8028125 2.3625 2.4728125 -4.4375 2.1328125 C-4.7675 3.7828125 -5.0975 5.4328125 -5.4375 7.1328125 C-5.94767304 9.23958923 -6.46883108 11.34373112 -7 13.4453125 C-7.26941406 14.51394531 -7.53882812 15.58257812 -7.81640625 16.68359375 C-8.12384766 17.89595703 -8.12384766 17.89595703 -8.4375 19.1328125 C-9.4275 19.1328125 -10.4175 19.1328125 -11.4375 19.1328125 C-11.72625 20.1021875 -12.015 21.0715625 -12.3125 22.0703125 C-13.4375 25.1328125 -13.4375 25.1328125 -15.4375 26.1328125 C-13.61021177 20.11351009 -11.33016112 14.38966347 -8.8125 8.6328125 C-8.49917725 7.91416016 -8.18585449 7.19550781 -7.86303711 6.45507812 C-5.01300976 0.00684303 -5.01300976 0.00684303 0 0 Z " fill="#3EB15D" transform="translate(134.4375,81.8671875)"/>
<path d="M0 0 C2.12438339 -0.08078641 4.2496323 -0.13909141 6.375 -0.1875 C7.55835938 -0.22230469 8.74171875 -0.25710937 9.9609375 -0.29296875 C11.46527344 -0.14794922 11.46527344 -0.14794922 13 0 C15.79377783 4.19066674 16.0379589 8.01979193 16 13 C14.53554726 18.49169778 11.90653877 21.43122106 7.71875 25.03125 C7.1515625 25.3509375 6.584375 25.670625 6 26 C3 25 3 25 1.6875 23 C0.7014598 18.69727911 1.81501371 15.18391314 3 11 C3.66 11 4.32 11 5 11 C5 9.35 5 7.7 5 6 C4.360625 5.7525 3.72125 5.505 3.0625 5.25 C1 4 1 4 0.37109375 1.921875 C0.24863281 1.28765625 0.12617188 0.6534375 0 0 Z M5 3 C5.20625 4.0725 5.4125 5.145 5.625 6.25 C6.37576146 11.96812836 5.1291998 17.40066215 4 23 C8.21853341 22.2040503 9.55870667 20.53566621 12 17 C12.93385816 14.19842552 13.16354595 12.34552197 13.1875 9.4375 C13.20876953 8.25994141 13.20876953 8.25994141 13.23046875 7.05859375 C13.19167509 4.7756455 13.19167509 4.7756455 11 3 C7.91652174 2.83318891 7.91652174 2.83318891 5 3 Z " fill="#21DA54" transform="translate(168,93)"/>
<path d="M0 0 C2.97 0 5.94 0 9 0 C9.66 1.32 10.32 2.64 11 4 C11.66 4.33 12.32 4.66 13 5 C12.67 5.99 12.34 6.98 12 8 C12.33 8.99 12.66 9.98 13 11 C12.5625 13.1875 12.5625 13.1875 12 15 C3.72727273 13.09090909 3.72727273 13.09090909 1 9 C0.38173293 5.9662997 0.18280033 3.10760561 0 0 Z " fill="#09E045" transform="translate(73,126)"/>
<path d="M0 0 C0.33 0 0.66 0 1 0 C1 18.48 1 36.96 1 56 C-3.62 56 -8.24 56 -13 56 C-13 54.35 -13 52.7 -13 51 C-12.67 52.32 -12.34 53.64 -12 55 C-8.37 55 -4.74 55 -1 55 C-1.08378906 54.11828125 -1.16757813 53.2365625 -1.25390625 52.328125 C-2.17586894 40.85072043 -1.94418431 29.43377691 -1.625 17.9375 C-1.60357941 17.11262085 -1.58215881 16.2877417 -1.56008911 15.43786621 C-1.49684711 13.0716226 -1.42588016 10.70576291 -1.3515625 8.33984375 C-1.33166763 7.61455978 -1.31177277 6.88927582 -1.29127502 6.14201355 C-1.11598161 1.11598161 -1.11598161 1.11598161 0 0 Z " fill="#1FC850" transform="translate(149,85)"/>
<path d="M0 0 C7.92 0 15.84 0 24 0 C23.34 3.96 22.68 7.92 22 12 C21.01 12.33 20.02 12.66 19 13 C19.66 9.37 20.32 5.74 21 2 C14.73 1.67 8.46 1.34 2 1 C2 3.64 2 6.28 2 9 C2.99 9.66 3.98 10.32 5 11 C5 12.32 5 13.64 5 15 C4.34 15 3.68 15 3 15 C3 15.99 3 16.98 3 18 C-0.90748231 21.19703098 -4.07008655 21.28999491 -9 21 C-8.67 20.34 -8.34 19.68 -8 19 C-5.67843403 18.59270772 -3.3431213 18.25561323 -1 18 C-0.67 16.35 -0.34 14.7 0 13 C-0.66 12.67 -1.32 12.34 -2 12 C-1.85831863 10.56208484 -1.71148957 9.1246763 -1.5625 7.6875 C-1.48128906 6.88699219 -1.40007813 6.08648437 -1.31640625 5.26171875 C-1 3 -1 3 0 0 Z " fill="#37C35D" transform="translate(54,109)"/>
<path d="M0 0 C2.54356888 1.80727262 3.76577577 2.96584047 4.4609375 6.03515625 C4.71929746 8.01475218 4.8672025 10.00803746 5 12 C4.01 11.67 3.02 11.34 2 11 C1.938125 9.9275 1.87625 8.855 1.8125 7.75 C1.28803585 3.99343028 1.28803585 3.99343028 -0.9375 1.5625 C-7.79625779 -1.93686622 -14.9856031 -0.03700626 -22.06640625 2.05078125 C-22.70449219 2.36402344 -23.34257813 2.67726563 -24 3 C-24.33 3.99 -24.66 4.98 -25 6 C-25.66 6 -26.32 6 -27 6 C-28.85961414 10.2505466 -29.93204565 14.49933525 -31 19 C-31.33 19 -31.66 19 -32 19 C-31.53016902 11.70951922 -30.62042813 6.5621964 -25.1875 1.25 C-17.20030799 -4.38801789 -8.46612189 -4.64806692 0 0 Z " fill="#38B75C" transform="translate(109,84)"/>
<path d="M0 0 C3.20065038 3.20065038 3.96535622 7.27028536 4.0546875 11.73046875 C4.03664063 12.47941406 4.01859375 13.22835937 4 14 C-1.52967941 14.71033431 -6.49983036 15.30267176 -12 14 C-12.66 12.02 -13.32 10.04 -14 8 C-17.75978181 8.50807862 -19.58149015 9.06691359 -22 12 C-23.2122949 14.48901793 -23.2122949 14.48901793 -24.1875 17.1875 C-24.53167969 18.08855469 -24.87585937 18.98960938 -25.23046875 19.91796875 C-25.48441406 20.60503906 -25.73835938 21.29210937 -26 22 C-26.33 22 -26.66 22 -27 22 C-26.67 19.36 -26.34 16.72 -26 14 C-25.34 14 -24.68 14 -24 14 C-23.67 12.02 -23.34 10.04 -23 8 C-22.34 8 -21.68 8 -21 8 C-21 7.01 -21 6.02 -21 5 C-17.7 5 -14.4 5 -11 5 C-10.67 7.31 -10.34 9.62 -10 12 C-6.37 12 -2.74 12 1 12 C1.0984702 7.86425173 0.77403558 4.06368679 0 0 Z " fill="#47C56C" transform="translate(71,89)"/>
<path d="M0 0 C0.33 0 0.66 0 1 0 C1.16435547 0.95712891 1.16435547 0.95712891 1.33203125 1.93359375 C1.49058594 2.75988281 1.64914063 3.58617188 1.8125 4.4375 C1.96332031 5.26121094 2.11414063 6.08492188 2.26953125 6.93359375 C2.51058594 7.61550781 2.75164062 8.29742187 3 9 C3.99 9.33 4.98 9.66 6 10 C6.625 11.9375 6.625 11.9375 7 14 C7.33 14.66 7.66 15.32 8 16 C8.99 16.33 9.98 16.66 11 17 C11 17.66 11 18.32 11 19 C10.34 19 9.68 19 9 19 C9.66 21.31 10.32 23.62 11 26 C1.28571429 16.57142857 1.28571429 16.57142857 -1 12 C-0.91219597 9.95501575 -0.75758462 7.91255052 -0.5625 5.875 C-0.46066406 4.77929688 -0.35882813 3.68359375 -0.25390625 2.5546875 C-0.17011719 1.71164063 -0.08632812 0.86859375 0 0 Z " fill="#22CB50" transform="translate(79,95)"/>
<path d="M0 0 C0.33 0.66 0.66 1.32 1 2 C0.34 2 -0.32 2 -1 2 C-1.19654959 4.9996492 -1.38246106 7.99935101 -1.5625 11 C-1.61857422 11.83917969 -1.67464844 12.67835937 -1.73242188 13.54296875 C-2.0415151 18.85937226 -1.82242609 23.73647304 -1 29 C1.31 29 3.62 29 6 29 C3 31 3 31 0.3125 30.625 C-0.8321875 30.315625 -0.8321875 30.315625 -2 30 C-2 29.34 -2 28.68 -2 28 C-3.32 28 -4.64 28 -6 28 C-6 23.05 -6 18.1 -6 13 C-5.34 13 -4.68 13 -4 13 C-4.020625 11.7625 -4.04125 10.525 -4.0625 9.25 C-4.0416768 3.36744728 -4.0416768 3.36744728 -3 1 C-2.01 0.67 -1.02 0.34 0 0 Z " fill="#26D355" transform="translate(46,101)"/>
<path d="M0 0 C2.64 0 5.28 0 8 0 C8 1.65 8 3.3 8 5 C7.34 4.34 6.68 3.68 6 3 C3.93125966 2.3574765 3.93125966 2.3574765 2 2 C2.40250171 7.67739255 3.68714797 10.50160122 7.4375 14.75 C14.28363933 22.61811518 14.28363933 22.61811518 14 29 C12 26 12 26 10.5625 23 C9.19986082 20.38373277 8.08054016 18.98146682 6 17 C6 16.34 6 15.68 6 15 C5.01 15 4.02 15 3 15 C-1.46015566 7.6302149 -1.46015566 7.6302149 -0.75 3 C-0.5025 2.01 -0.255 1.02 0 0 Z " fill="#35C05C" transform="translate(92,93)"/>
<path d="M0 0 C1.79244141 0.01740234 1.79244141 0.01740234 3.62109375 0.03515625 C5.41740234 0.04869141 5.41740234 0.04869141 7.25 0.0625 C8.17683594 0.07410156 9.10367188 0.08570312 10.05859375 0.09765625 C10.05859375 0.42765625 10.05859375 0.75765625 10.05859375 1.09765625 C4.61359375 1.59265625 4.61359375 1.59265625 -0.94140625 2.09765625 C-1.27140625 3.08765625 -1.60140625 4.07765625 -1.94140625 5.09765625 C-2.60140625 5.09765625 -3.26140625 5.09765625 -3.94140625 5.09765625 C-3.94140625 6.74765625 -3.94140625 8.39765625 -3.94140625 10.09765625 C-2.95140625 9.76765625 -1.96140625 9.43765625 -0.94140625 9.09765625 C-0.69390625 9.84015625 -0.44640625 10.58265625 -0.19140625 11.34765625 C0.8996314 14.20844602 0.8996314 14.20844602 3.24609375 16.16015625 C3.84421875 16.79953125 4.44234375 17.43890625 5.05859375 18.09765625 C4.80859375 20.34765625 4.80859375 20.34765625 4.05859375 22.09765625 C3.39859375 21.43765625 2.73859375 20.77765625 2.05859375 20.09765625 C2.38859375 19.10765625 2.71859375 18.11765625 3.05859375 17.09765625 C-0.24140625 17.09765625 -3.54140625 17.09765625 -6.94140625 17.09765625 C-6.4669587 14.45089536 -5.98709297 11.80532261 -5.50390625 9.16015625 C-5.36919922 8.40541016 -5.23449219 7.65066406 -5.09570312 6.87304688 C-3.85558376 0.12800743 -3.85558376 0.12800743 0 0 Z " fill="#0FE04B" transform="translate(168.94140625,82.90234375)"/>
<path d="M0 0 C0.33 0 0.66 0 1 0 C1.4507629 6.31068063 0.71583421 10.76405179 -3 16 C-8.49065409 20.36436607 -14.30067621 20.11354786 -21 20 C-21 19.67 -21 19.34 -21 19 C-19.39125 18.87625 -19.39125 18.87625 -17.75 18.75 C-13.7261549 17.94523098 -12.51830747 17.12270126 -10 14 C-10.66 13.34 -11.32 12.68 -12 12 C-9.50907189 10.75453595 -8.58919267 11.2232422 -6 12 C-6 12.66 -6 13.32 -6 14 C-5.34 14 -4.68 14 -4 14 C-3.71125 12.989375 -3.4225 11.97875 -3.125 10.9375 C-1.5625 5.46875 -1.5625 5.46875 0 0 Z " fill="#14DF51" transform="translate(105,124)"/>
<path d="M0 0 C0.66 0 1.32 0 2 0 C1.28621973 8.13709505 -0.32773882 16.01731928 -2 24 C1.3 24 4.6 24 8 24 C8 24.33 8 24.66 8 25 C4.04 25 0.08 25 -4 25 C-4.9923473 21.03061081 -4.95069424 19.80277694 -4.00390625 16.015625 C-3.77509766 15.08105469 -3.54628906 14.14648438 -3.31054688 13.18359375 C-3.06369141 12.21550781 -2.81683594 11.24742187 -2.5625 10.25 C-2.19801758 8.77466797 -2.19801758 8.77466797 -1.82617188 7.26953125 C-1.22571669 4.84416327 -0.61673274 2.42127055 0 0 Z " fill="#2FC859" transform="translate(156,117)"/>
<path d="M0 0 C6.875 3.625 6.875 3.625 8 7 C10.75223518 6.744607 13.50068107 6.47137277 16.25 6.1875 C17.02730469 6.11724609 17.80460937 6.04699219 18.60546875 5.97460938 C23.04316954 5.50049604 25.4947045 4.91273364 29 2 C29.99 2.33 30.98 2.66 32 3 C25.7260964 8.00067022 19.9585065 9.18635621 12 9 C6.4181727 8.11399567 3.59890823 6.36231301 0 2 C0 1.34 0 0.68 0 0 Z " fill="#41BF67" transform="translate(32,135)"/>
<path d="M0 0 C0.33 0 0.66 0 1 0 C1.3238762 6.06967993 1.52214307 10.77751201 -2 16 C-4.6875 18.875 -4.6875 18.875 -7 21 C-10 20 -10 20 -11.3125 18 C-12.2985402 13.69727911 -11.18498629 10.18391314 -10 6 C-9.01 6 -8.02 6 -7 6 C-7.14168137 7.43791516 -7.28851043 8.8753237 -7.4375 10.3125 C-7.51871094 11.11300781 -7.59992188 11.91351563 -7.68359375 12.73828125 C-8 15 -8 15 -9 18 C-4.4511923 15.78706653 -2.7549239 13.73829453 -1 9 C-0.49624666 6.00682482 -0.19513859 3.02801257 0 0 Z " fill="#43C666" transform="translate(181,98)"/>
<path d="M0 0 C4.29 0 8.58 0 13 0 C13.33 1.98 13.66 3.96 14 6 C13.01 5.67 12.02 5.34 11 5 C10.67 4.01 10.34 3.02 10 2 C7.03 1.67 4.06 1.34 1 1 C1.309375 2.423125 1.61875 3.84625 1.9375 5.3125 C2.19853516 6.51326172 2.19853516 6.51326172 2.46484375 7.73828125 C2.99886159 10.145401 2.99886159 10.145401 4 13 C4.99 13.33 5.98 13.66 7 14 C7 14.66 7 15.32 7 16 C8.65 16.33 10.3 16.66 12 17 C10.375 17.75 10.375 17.75 8 18 C3.03935854 15.67153564 1.17511144 13.12844291 -0.65234375 8.1953125 C-1 6 -1 6 0 0 Z " fill="#35BB5D" transform="translate(72,125)"/>
<path d="M0 0 C0.99 0 1.98 0 3 0 C3.02888146 3.31248187 3.04675799 6.62493167 3.0625 9.9375 C3.07087891 10.88302734 3.07925781 11.82855469 3.08789062 12.80273438 C3.09111328 13.70185547 3.09433594 14.60097656 3.09765625 15.52734375 C3.10289307 16.35999756 3.10812988 17.19265137 3.11352539 18.05053711 C3 20 3 20 2 21 C-0.67058851 21.14115161 -3.32432238 21.04247107 -6 21 C-5.67 20.34 -5.34 19.68 -5 19 C-3.35 19 -1.7 19 0 19 C1.50156874 15.99686252 1.09281204 13.20932478 1.0625 9.875 C1.041875 7.60625 1.02125 5.3375 1 3 C-0.98 7.95 -2.96 12.9 -5 18 C-5.33 18 -5.66 18 -6 18 C-6.29958164 13.78281234 -5.385802 11.09856336 -3.5625 7.3125 C-3.11003906 6.35988281 -2.65757812 5.40726562 -2.19140625 4.42578125 C-1.46569071 2.94817682 -0.73620349 1.47240698 0 0 Z " fill="#40B65E" transform="translate(134,102)"/>
<path d="M0 0 C0.33 0 0.66 0 1 0 C1.33 6.6 1.66 13.2 2 20 C1.34 20 0.68 20 0 20 C0 21.32 0 22.64 0 24 C3.96 24 7.92 24 12 24 C12 24.33 12 24.66 12 25 C7.38 25 2.76 25 -2 25 C-3.15144451 21.54566648 -2.49155299 20.00758612 -1.546875 16.60546875 C-0.40367953 11.15895889 -0.2960173 5.54642942 0 0 Z " fill="#3EAA5B" transform="translate(106,118)"/>
<path d="M0 0 C0.33 0 0.66 0 1 0 C0.98839844 1.134375 0.97679687 2.26875 0.96484375 3.4375 C0.9554559 4.95833167 0.94635678 6.47916514 0.9375 8 C0.92912109 8.74378906 0.92074219 9.48757812 0.91210938 10.25390625 C0.89581061 14.00262213 1.02990847 17.59921198 1.56640625 21.3125 C1.92983887 24.40331434 2.06871073 26.15010472 1 29 C-3.06850255 18.75609179 -2.22966097 10.65061266 0 0 Z " fill="#41C269" transform="translate(30,106)"/>
<path d="M0 0 C7.92 0 15.84 0 24 0 C23.34 3.96 22.68 7.92 22 12 C21.01 12.33 20.02 12.66 19 13 C19.66 9.37 20.32 5.74 21 2 C17.87494304 1.97311136 14.75011575 1.95321538 11.625 1.9375 C10.73554687 1.92912109 9.84609375 1.92074219 8.9296875 1.91210938 C8.07890625 1.90888672 7.228125 1.90566406 6.3515625 1.90234375 C5.56604004 1.89710693 4.78051758 1.89187012 3.97119141 1.88647461 C1.92227332 1.87426047 1.92227332 1.87426047 0 3 C0 2.01 0 1.02 0 0 Z " fill="#54BB6E" transform="translate(54,109)"/>
<path d="M0 0 C3.20065038 3.20065038 3.96535622 7.27028536 4.0546875 11.73046875 C4.03664063 12.47941406 4.01859375 13.22835937 4 14 C-1.52967941 14.71033431 -6.49983036 15.30267176 -12 14 C-12.66 11.69 -13.32 9.38 -14 7 C-13.01 7.33 -12.02 7.66 -11 8 C-10.67 9.32 -10.34 10.64 -10 12 C-6.37 12 -2.74 12 1 12 C1.0984702 7.86425173 0.77403558 4.06368679 0 0 Z " fill="#4DB767" transform="translate(71,89)"/>
<path d="M0 0 C2.625 0.375 2.625 0.375 5 1 C5.625 2.8125 5.625 2.8125 6 5 C5.01 6.485 5.01 6.485 4 8 C1.375 8.1875 1.375 8.1875 -1 8 C-1.625 5.125 -1.625 5.125 -2 2 C-1.34 1.34 -0.68 0.68 0 0 Z " fill="#6AA66F" transform="translate(183,135)"/>
<path d="M0 0 C2.51355548 0.98425541 3.79062334 1.68436311 5.30078125 3.9609375 C8.16941148 10.8057772 8.5737091 16.7188248 7 24 C6.34 24.99 5.68 25.98 5 27 C5.14148989 25.3954444 5.28835686 23.79136233 5.4375 22.1875 C5.55931641 20.84751953 5.55931641 20.84751953 5.68359375 19.48046875 C6 17 6 17 7 14 C6.34 14 5.68 14 5 14 C3.05194805 7.24675325 3.05194805 7.24675325 2.5 4.625 C2.335 4.08875 2.17 3.5525 2 3 C1.34 2.67 0.68 2.34 0 2 C0 1.34 0 0.68 0 0 Z " fill="#34B457" transform="translate(189,86)"/>
<path d="M0 0 C1.28115618 3.84346855 0.48649852 5.59254575 -0.6875 9.4375 C-1.02136719 10.57058594 -1.35523437 11.70367187 -1.69921875 12.87109375 C-3.05056975 16.12164074 -4.45518441 17.64176966 -7 20 C-7.33 20.99 -7.66 21.98 -8 23 C-8.66 23 -9.32 23 -10 23 C-8.41980408 17.7936703 -6.22115005 13.01626689 -3.875 8.125 C-3.50246094 7.34125 -3.12992187 6.5575 -2.74609375 5.75 C-1.83381003 3.83186501 -0.91733016 1.91572671 0 0 Z " fill="#3FC667" transform="translate(118,108)"/>
<path d="M0 0 C7.37781712 -0.45170309 12.2279803 0.31988074 18.375 4.6875 C20.74521618 8.06049994 20.72744518 10.91167769 21 15 C20.01 14.67 19.02 14.34 18 14 C17.938125 12.9275 17.87625 11.855 17.8125 10.75 C17.29080262 7.02473434 17.29080262 7.02473434 15.1875 4.6875 C10.38205028 2.14343838 5.35407288 1.64897853 0 1 C0 0.67 0 0.34 0 0 Z " fill="#41B25F" transform="translate(93,81)"/>
<path d="M0 0 C1.17949219 0.01804687 2.35898438 0.03609375 3.57421875 0.0546875 C4.92966797 0.08949219 4.92966797 0.08949219 6.3125 0.125 C3.22361478 2.18425681 2.60314073 2.3640374 -0.875 2.25 C-2.7621875 2.188125 -2.7621875 2.188125 -4.6875 2.125 C-4.6875 2.785 -4.6875 3.445 -4.6875 4.125 C-5.6775 4.125 -6.6675 4.125 -7.6875 4.125 C-7.6875 4.785 -7.6875 5.445 -7.6875 6.125 C-10.1625 5.135 -10.1625 5.135 -12.6875 4.125 C-7.87693477 0.91795651 -5.81595808 -0.11516749 0 0 Z " fill="#21C249" transform="translate(172.6875,126.875)"/>
<path d="M0 0 C2.31 0.66 4.62 1.32 7 2 C7 2.66 7 3.32 7 4 C6.01 4.495 6.01 4.495 5 5 C6.32 5.66 7.64 6.32 9 7 C9 8.98 9 10.96 9 13 C8.34 12.34 7.68 11.68 7 11 C7 10.01 7 9.02 7 8 C6.05125 7.9175 5.1025 7.835 4.125 7.75 C1 7 1 7 -0.4375 5.125 C-1 3 -1 3 0 0 Z " fill="#17DE4E" transform="translate(156,126)"/>
<path d="M0 0 C0 0.99 0 1.98 0 3 C-6.08854268 8.53888258 -12.82930887 11 -21 11 C-21 10.34 -21 9.68 -21 9 C-19.89591797 8.85304687 -19.89591797 8.85304687 -18.76953125 8.703125 C-13.0551651 7.82747576 -9.26615267 7.14067759 -5 3 C-3.3497306 1.9731657 -1.68756133 0.96432076 0 0 Z " fill="#43BA62" transform="translate(189,120)"/>
<path d="M0 0 C0.33 0.66 0.66 1.32 1 2 C0.67 2.99 0.34 3.98 0 5 C-9.41002278 6.33257403 -9.41002278 6.33257403 -14 5 C-13.67 4.01 -13.34 3.02 -13 2 C-9.04 2.33 -5.08 2.66 -1 3 C-0.67 2.01 -0.34 1.02 0 0 Z " fill="#43B362" transform="translate(114,96)"/>
<path d="M0 0 C1.13050781 -0.01417969 2.26101562 -0.02835937 3.42578125 -0.04296875 C6.65474946 0.18518589 8.82614412 0.70517304 11.6875 2.1875 C13 4.3125 13 4.3125 13.6875 6.1875 C12.6975 5.8575 11.7075 5.5275 10.6875 5.1875 C10.6875 4.5275 10.6875 3.8675 10.6875 3.1875 C7.3875 2.5275 4.0875 1.8675 0.6875 1.1875 C0.3575 1.8475 0.0275 2.5075 -0.3125 3.1875 C-2.97916667 2.52083333 -5.64583333 1.85416667 -8.3125 1.1875 C-5.50752177 -0.21498912 -3.12748635 0.01770944 0 0 Z " fill="#24CB56" transform="translate(57.3125,82.8125)"/>
<path d="M0 0 C0.33 0.66 0.66 1.32 1 2 C0.34 3.32 -0.32 4.64 -1 6 C-4.96 6 -8.92 6 -13 6 C-12.67 4.68 -12.34 3.36 -12 2 C-12 2.66 -12 3.32 -12 4 C-11.01 4 -10.02 4 -9 4 C-8.67 3.34 -8.34 2.68 -8 2 C-5.03 2.495 -5.03 2.495 -2 3 C-1.34 2.01 -0.68 1.02 0 0 Z " fill="#22D759" transform="translate(119,136)"/>
<path d="M0 0 C0.66 1.32 1.32 2.64 2 4 C-1.13498292 5.85776765 -3.37471432 6.20140476 -7 6 C-7.33 5.01 -7.66 4.02 -8 3 C-5.53387212 -0.1151089 -3.89156016 -0.31553191 0 0 Z " fill="#08DF42" transform="translate(94,135)"/>
<path d="M0 0 C2 2 2 2 2.1875 5.0625 C2 8 2 8 1 9 C-0.85287502 9.07226502 -2.70833878 9.0838122 -4.5625 9.0625 C-5.57441406 9.05347656 -6.58632812 9.04445313 -7.62890625 9.03515625 C-8.41136719 9.02355469 -9.19382813 9.01195313 -10 9 C-10.33 7.35 -10.66 5.7 -11 4 C-9 5 -9 5 -8 7 C-6.10466658 7.46523063 -6.10466658 7.46523063 -3.9375 7.625 C-2.638125 7.74875 -1.33875 7.8725 0 8 C0 5.36 0 2.72 0 0 Z " fill="#1EDA56" transform="translate(71,93)"/>
<path d="M0 0 C3.96 0 7.92 0 12 0 C12 0.99 12 1.98 12 3 C9.69 2.34 7.38 1.68 5 1 C5.66 1.99 6.32 2.98 7 4 C7.125 6.6875 7.125 6.6875 7 9 C5 6 5 6 5 4 C4.360625 3.71125 3.72125 3.4225 3.0625 3.125 C1 2 1 2 0 0 Z " fill="#39B159" transform="translate(168,95)"/>
<path d="M0 0 C1.09570312 0.00902344 2.19140625 0.01804687 3.3203125 0.02734375 C4.16335937 0.03894531 5.00640625 0.05054687 5.875 0.0625 C5.875 0.3925 5.875 0.7225 5.875 1.0625 C4.72 1.35125 3.565 1.64 2.375 1.9375 C1.2921875 2.20820312 1.2921875 2.20820312 0.1875 2.484375 C-1.35416667 2.86979167 -2.89583333 3.25520833 -4.4375 3.640625 C-5.159375 3.82109375 -5.88125 4.0015625 -6.625 4.1875 C-7.78 4.47625 -8.935 4.765 -10.125 5.0625 C-7.72498228 -0.25182494 -5.65089468 -0.0601159 0 0 Z " fill="#33D160" transform="translate(95.125,81.9375)"/>
<path d="M0 0 C4.95 0 9.9 0 15 0 C15 0.33 15 0.66 15 1 C13.89591797 1.02126953 13.89591797 1.02126953 12.76953125 1.04296875 C6.16808313 1.1761169 6.16808313 1.1761169 0.8125 4.5625 C0.214375 5.366875 -0.38375 6.17125 -1 7 C-1.33 6.34 -1.66 5.68 -2 5 C-1.34 3.35 -0.68 1.7 0 0 Z " fill="#15DE51" transform="translate(130,84)"/>
<path d="M0 0 C1.24546405 2.49092811 0.7767578 3.41080733 0 6 C0.66 6.33 1.32 6.66 2 7 C1.38125 7.391875 0.7625 7.78375 0.125 8.1875 C-2.32496368 10.27717491 -3.01879998 11.97463327 -4 15 C-4.33 15 -4.66 15 -5 15 C-5.30017023 10.83513802 -4.45324946 8.34984273 -2.5 4.6875 C-2.0359375 3.80449219 -1.571875 2.92148438 -1.09375 2.01171875 C-0.7328125 1.34785156 -0.371875 0.68398437 0 0 Z " fill="#15DB4F" transform="translate(36,96)"/>
<path d="M0 0 C4.29 0 8.58 0 13 0 C13.33 1.98 13.66 3.96 14 6 C13.01 5.67 12.02 5.34 11 5 C10.67 4.01 10.34 3.02 10 2 C7.03 1.67 4.06 1.34 1 1 C1 2.65 1 4.3 1 6 C0.67 6 0.34 6 0 6 C0 4.02 0 2.04 0 0 Z " fill="#2DD762" transform="translate(72,125)"/>
<path d="M0 0 C0.7734375 0.3403125 0.7734375 0.3403125 1.5625 0.6875 C-4.48602394 4.6622443 -9.39697863 4.80683087 -16.4375 4.6875 C-16.4375 4.3575 -16.4375 4.0275 -16.4375 3.6875 C-15.426875 3.584375 -14.41625 3.48125 -13.375 3.375 C-10.28155053 2.8348739 -8.47083723 2.35224752 -5.75 1.0625 C-2.4375 -0.3125 -2.4375 -0.3125 0 0 Z " fill="#3FB95F" transform="translate(100.4375,139.3125)"/>
<path d="M0 0 C0.99 0.495 0.99 0.495 2 1 C2.44921875 3.36328125 2.44921875 3.36328125 2.6875 6.3125 C2.77386719 7.27800781 2.86023438 8.24351563 2.94921875 9.23828125 C2.99537006 11.74820274 2.75083762 13.62328843 2 16 C0.24836544 12.22777911 -0.22490027 9.333361 -0.125 5.1875 C-0.10695313 4.21167969 -0.08890625 3.23585938 -0.0703125 2.23046875 C-0.04710938 1.49441406 -0.02390625 0.75835937 0 0 Z " fill="#2DC45A" transform="translate(29,119)"/>
<path d="M0 0 C0.33 0 0.66 0 1 0 C1.02685412 2.31243792 1.04632841 4.6249627 1.0625 6.9375 C1.07410156 8.22527344 1.08570313 9.51304688 1.09765625 10.83984375 C1 14 1 14 0 15 C-2.67058851 15.14115161 -5.32432238 15.04247107 -8 15 C-7.67 14.34 -7.34 13.68 -7 13 C-5.35 13 -3.7 13 -2 13 C-0.71553081 10.43106162 -0.67022856 8.23423663 -0.4375 5.375 C-0.35371094 4.37210937 -0.26992187 3.36921875 -0.18359375 2.3359375 C-0.12300781 1.56507812 -0.06242188 0.79421875 0 0 Z " fill="#41C263" transform="translate(136,108)"/>
<path d="M0 0 C2.64 0 5.28 0 8 0 C8 1.65 8 3.3 8 5 C7.34 4.34 6.68 3.68 6 3 C2.91652174 2.83318891 2.91652174 2.83318891 0 3 C-0.33 4.32 -0.66 5.64 -1 7 C-0.67 4.69 -0.34 2.38 0 0 Z " fill="#2DC259" transform="translate(92,93)"/>
<path d="M0 0 C1.79244141 0.01740234 1.79244141 0.01740234 3.62109375 0.03515625 C5.41740234 0.04869141 5.41740234 0.04869141 7.25 0.0625 C8.17683594 0.07410156 9.10367188 0.08570312 10.05859375 0.09765625 C10.05859375 0.42765625 10.05859375 0.75765625 10.05859375 1.09765625 C6.42859375 1.42765625 2.79859375 1.75765625 -0.94140625 2.09765625 C-1.27140625 3.08765625 -1.60140625 4.07765625 -1.94140625 5.09765625 C-2.60140625 5.09765625 -3.26140625 5.09765625 -3.94140625 5.09765625 C-4.27140625 6.41765625 -4.60140625 7.73765625 -4.94140625 9.09765625 C-3.94510886 0.13097971 -3.94510886 0.13097971 0 0 Z " fill="#22D559" transform="translate(168.94140625,82.90234375)"/>
<path d="M0 0 C1.41441874 2.82883747 1.31900332 4.87376745 1 8 C-1 9.875 -1 9.875 -3 11 C-3 8.69 -3 6.38 -3 4 C-2.34 4 -1.68 4 -1 4 C-0.67 2.68 -0.34 1.36 0 0 Z " fill="#17DC4F" transform="translate(111,127)"/>
<path d="M0 0 C0.99 0 1.98 0 3 0 C4.03348696 3.10046087 4.17755913 4.05610218 3 7 C2.01 7.33 1.02 7.66 0 8 C-1.125 2.25 -1.125 2.25 0 0 Z " fill="#10E64E" transform="translate(79,130)"/>
<path d="M0 0 C0.66 0 1.32 0 2 0 C2 0.66 2 1.32 2 2 C4.97 2.33 7.94 2.66 11 3 C11 3.33 11 3.66 11 4 C7.7 4 4.4 4 1 4 C1 5.98 1 7.96 1 10 C0.67 10 0.34 10 0 10 C-0.19412181 8.52168779 -0.38012131 7.04230684 -0.5625 5.5625 C-0.66691406 4.73878906 -0.77132812 3.91507812 -0.87890625 3.06640625 C-0.91886719 2.38449219 -0.95882812 1.70257813 -1 1 C-0.67 0.67 -0.34 0.34 0 0 Z " fill="#2A9848" transform="translate(71,121)"/>
<path d="M0 0 C3.3 0 6.6 0 10 0 C9.67 0.99 9.34 1.98 9 3 C8.071875 2.979375 7.14375 2.95875 6.1875 2.9375 C2.97713989 2.84230396 2.97713989 2.84230396 0 4 C0 2.68 0 1.36 0 0 Z " fill="#27C757" transform="translate(50,94)"/>
<path d="M0 0 C7.37903226 0.60483871 7.37903226 0.60483871 10.0625 2.3125 C11 4 11 4 10.6875 6.1875 C10.3471875 7.0846875 10.3471875 7.0846875 10 8 C8.33333333 6.33333333 6.66666667 4.66666667 5 3 C3.35008418 2.29289322 1.68437744 1.62056011 0 1 C0 0.67 0 0.34 0 0 Z " fill="#16DD4D" transform="translate(60,85)"/>
<path d="M0 0 C0.33 0 0.66 0 1 0 C1.18175781 1.24716797 1.18175781 1.24716797 1.3671875 2.51953125 C1.61855469 4.14955078 1.61855469 4.14955078 1.875 5.8125 C2.03742188 6.89144531 2.19984375 7.97039062 2.3671875 9.08203125 C2.85132338 12.17321793 2.85132338 12.17321793 5 15 C4.01 15.495 4.01 15.495 3 16 C-0.59058175 10.20575649 -1.43484866 6.69596042 0 0 Z " fill="#1BD956" transform="translate(79,95)"/>
<path d="M0 0 C0.99 0.495 0.99 0.495 2 1 C2.12375 1.721875 2.2475 2.44375 2.375 3.1875 C3.16525068 6.74362808 4.88685549 9.06886407 7 12 C5.68 12 4.36 12 3 12 C0.58314288 7.77050005 -0.34833144 4.87664009 0 0 Z " fill="#43B564" transform="translate(92,96)"/>
<path d="M0 0 C0.99 0.33 1.98 0.66 3 1 C2.67 2.65 2.34 4.3 2 6 C1.01 6 0.02 6 -1 6 C-1.625 4.125 -1.625 4.125 -2 2 C-1.34 1.34 -0.68 0.68 0 0 Z " fill="#2D8F3E" transform="translate(184,136)"/>
<path d="M0 0 C0.33 0 0.66 0 1 0 C1.3152595 5.98993047 0.68219822 9.63560356 -2 15 C-3.36722938 11.30848068 -2.5123038 9.52870887 -1 6 C-0.62406934 4.0075675 -0.28020455 2.0081326 0 0 Z " fill="#28CE58" transform="translate(105,124)"/>
<path d="M0 0 C2.4375 1.1875 2.4375 1.1875 5 3 C5.8125 5.6875 5.8125 5.6875 6 8 C5.01 8 4.02 8 3 8 C3.33 6.68 3.66 5.36 4 4 C2.35 3.67 0.7 3.34 -1 3 C-0.67 2.01 -0.34 1.02 0 0 Z " fill="#1DD44F" transform="translate(168,96)"/>
<path d="M0 0 C0.66 0.66 1.32 1.32 2 2 C1.625 4.125 1.625 4.125 1 6 C0.34 6 -0.32 6 -1 6 C-1 5.34 -1 4.68 -1 4 C-2.32 4.33 -3.64 4.66 -5 5 C-3.35 3.35 -1.7 1.7 0 0 Z " fill="#0ADE45" transform="translate(47,90)"/>
<path d="M0 0 C1.43655854 -0.08131463 2.8744483 -0.13933559 4.3125 -0.1875 C5.51326172 -0.23970703 5.51326172 -0.23970703 6.73828125 -0.29296875 C9.47851584 0.06198392 10.29171079 0.89366282 12 3 C11.01 3.33 10.02 3.66 9 4 C8.34 3.34 7.68 2.68 7 2 C3.41656024 1.83322718 3.41656024 1.83322718 0 2 C0 1.34 0 0.68 0 0 Z " fill="#20DD56" transform="translate(96,83)"/>
<path d="M0 0 C0.33 0.99 0.66 1.98 1 3 C-0.375 5.6875 -0.375 5.6875 -2 8 C-2.33 8 -2.66 8 -3 8 C-2.74438677 5.6568787 -2.40729228 3.32156597 -2 1 C-1.34 0.67 -0.68 0.34 0 0 Z " fill="#30B759" transform="translate(69,125)"/>
<path d="M0 0 C6.875 3.75 6.875 3.75 8 6 C2.33846154 4.52307692 2.33846154 4.52307692 0.625 1.875 C0.41875 1.25625 0.2125 0.6375 0 0 Z " fill="#33C561" transform="translate(32,135)"/>
<path d="M0 0 C2.64 0 5.28 0 8 0 C8 0.99 8 1.98 8 3 C5.36 2.67 2.72 2.34 0 2 C0 1.34 0 0.68 0 0 Z " fill="#0EDD3B" transform="translate(128,124)"/>
<path d="M0 0 C1.32 0 2.64 0 4 0 C4 0.66 4 1.32 4 2 C4.66 2 5.32 2 6 2 C6 2.66 6 3.32 6 4 C4.02 4 2.04 4 0 4 C0 2.68 0 1.36 0 0 Z " fill="#06E542" transform="translate(102,94)"/>
</svg>
