<?xml version="1.0" encoding="UTF-8"?>
<!DOCTYPE svg PUBLIC "-//W3C//DTD SVG 1.1//EN" "http://www.w3.org/Graphics/SVG/1.1/DTD/svg11.dtd">
<svg xmlns="http://www.w3.org/2000/svg" version="1.1" width="512px" height="512px" style="shape-rendering:geometricPrecision; text-rendering:geometricPrecision; image-rendering:optimizeQuality; fill-rule:evenodd; clip-rule:evenodd" xmlns:xlink="http://www.w3.org/1999/xlink">
<g><path style="opacity:0.986" fill="#d1382b" d="M 76.5,61.5 C 196.835,61.1667 317.169,61.5 437.5,62.5C 426.758,184.826 415.925,307.159 405,429.5C 355.593,442.727 306.093,455.727 256.5,468.5C 207.227,455.515 157.893,442.848 108.5,430.5C 97.7138,307.518 87.0472,184.518 76.5,61.5 Z"/></g>
<g><path style="opacity:1" fill="#e93e30" d="M 255.5,391.5 C 286.833,383.5 318.167,375.5 349.5,367.5C 353.167,322.167 356.833,276.834 360.5,231.5C 361.451,230.081 361.784,228.415 361.5,226.5C 326.167,226.5 290.833,226.5 255.5,226.5C 255.5,212.167 255.5,197.833 255.5,183.5C 292.337,183.832 329.004,183.498 365.5,182.5C 366.426,168.164 367.426,153.83 368.5,139.5C 331.004,138.502 293.337,138.168 255.5,138.5C 255.5,123.5 255.5,108.5 255.5,93.5C 306.5,93.5 357.5,93.5 408.5,93.5C 399.593,197.148 390.926,300.814 382.5,404.5C 340.181,415.161 297.848,425.827 255.5,436.5C 255.5,421.5 255.5,406.5 255.5,391.5 Z"/></g>
<g><path style="opacity:1" fill="#f6c7c3" d="M 255.5,138.5 C 293.337,138.168 331.004,138.502 368.5,139.5C 294.167,139.5 219.833,139.5 145.5,139.5C 145.5,140.833 145.5,142.167 145.5,143.5C 144.549,142.081 144.216,140.415 144.5,138.5C 181.5,138.5 218.5,138.5 255.5,138.5 Z"/></g>
<g><path style="opacity:1" fill="#fefefe" d="M 368.5,139.5 C 367.426,153.83 366.426,168.164 365.5,182.5C 307.833,182.5 250.167,182.5 192.5,182.5C 193.806,197.142 194.806,211.808 195.5,226.5C 250.331,227.499 305.331,227.832 360.5,227.5C 360.5,228.833 360.5,230.167 360.5,231.5C 356.833,276.834 353.167,322.167 349.5,367.5C 318.167,375.5 286.833,383.5 255.5,391.5C 225.242,383.728 195.076,375.728 165,367.5C 162.502,342.857 160.335,318.19 158.5,293.5C 173.833,293.5 189.167,293.5 204.5,293.5C 206.073,306.472 207.407,319.472 208.5,332.5C 224.174,335.837 239.84,339.17 255.5,342.5C 272.125,338.958 288.792,335.625 305.5,332.5C 308.078,312.873 310.412,293.206 312.5,273.5C 293.5,273.5 274.5,273.5 255.5,273.5C 222.5,273.5 189.5,273.5 156.5,273.5C 152.928,230.159 149.261,186.826 145.5,143.5C 145.5,142.167 145.5,140.833 145.5,139.5C 219.833,139.5 294.167,139.5 368.5,139.5 Z"/></g>
<g><path style="opacity:1" fill="#d2392c" d="M 365.5,182.5 C 329.004,183.498 292.337,183.832 255.5,183.5C 255.5,197.833 255.5,212.167 255.5,226.5C 235.5,226.5 215.5,226.5 195.5,226.5C 194.806,211.808 193.806,197.142 192.5,182.5C 250.167,182.5 307.833,182.5 365.5,182.5 Z"/></g>
<g><path style="opacity:1" fill="#ef928a" d="M 195.5,226.5 C 215.5,226.5 235.5,226.5 255.5,226.5C 290.833,226.5 326.167,226.5 361.5,226.5C 361.784,228.415 361.451,230.081 360.5,231.5C 360.5,230.167 360.5,228.833 360.5,227.5C 305.331,227.832 250.331,227.499 195.5,226.5 Z"/></g>
<g><path style="opacity:1" fill="#e93e30" d="M 255.5,273.5 C 274.5,273.5 293.5,273.5 312.5,273.5C 310.412,293.206 308.078,312.873 305.5,332.5C 288.792,335.625 272.125,338.958 255.5,342.5C 255.5,319.5 255.5,296.5 255.5,273.5 Z"/></g>
</svg>
