<?xml version="1.0" encoding="UTF-8"?>
<svg version="1.1" xmlns="http://www.w3.org/2000/svg" width="320" height="320">
<path d="M0 0 C15.26452337 13.35645795 19.2348198 38.86895913 20.5949707 57.88842773 C20.7450375 60.25849769 20.88210719 62.62813994 21 65 C21.69222656 64.61328125 22.38445312 64.2265625 23.09765625 63.828125 C37.67525861 56.0687688 54.49903315 51.71136461 70.94921875 55.234375 C73.61095523 56.22808995 75.07100655 56.85762232 77 59 C77.44573912 62.03102599 77.61731239 64.59474356 77.5625 67.625 C77.55226807 68.47167236 77.54203613 69.31834473 77.53149414 70.19067383 C76.7887113 92.75401777 64.47752149 117.06967868 49 133 C49.24121582 133.50112305 49.48243164 134.00224609 49.73095703 134.51855469 C65.48285002 167.55034171 73.81478271 205.63209958 62.8984375 241.6328125 C56.88293914 258.3597789 46.86320008 270.84649582 31 279 C11.50230046 287.81984442 -7.82063206 289.54138335 -28.9375 288.8125 C-29.76562195 288.78700073 -30.5937439 288.76150146 -31.44696045 288.73522949 C-64.23736104 287.69938525 -64.23736104 287.69938525 -79 280 C-80.28583984 279.33677734 -80.28583984 279.33677734 -81.59765625 278.66015625 C-91.92030656 272.9005322 -103.05847905 263.84405586 -107.3125 252.5 C-107.539375 251.675 -107.76625 250.85 -108 250 C-108.66 249.67 -109.32 249.34 -110 249 C-110.92767763 246.33590014 -111.74268216 243.71257479 -112.5 241 C-112.81904297 239.90365234 -112.81904297 239.90365234 -113.14453125 238.78515625 C-113.79053175 236.5300993 -114.39859608 234.26731972 -115 232 C-115.19343994 231.32654541 -115.38687988 230.65309082 -115.58618164 229.95922852 C-117.47532717 222.71792891 -117.43892064 215.37990094 -117.4375 207.9375 C-117.43889984 207.23568604 -117.44029968 206.53387207 -117.44174194 205.81079102 C-117.41989019 192.40787519 -115.54659563 179.94582437 -112 167 C-111.70367676 165.85724609 -111.70367676 165.85724609 -111.40136719 164.69140625 C-107.24049344 148.79528753 -98.81790581 128.81790581 -87 117 C-86.90115412 114.814879 -86.90115412 114.814879 -87.25 112.4375 C-87.33765625 111.63183594 -87.4253125 110.82617188 -87.515625 109.99609375 C-87.67546875 109.33738281 -87.8353125 108.67867188 -88 108 C-88.66 107.67 -89.32 107.34 -90 107 C-90.93214152 104.2095507 -91.7486799 101.46454802 -92.5 98.625 C-92.83209473 97.38762085 -92.83209473 97.38762085 -93.17089844 96.12524414 C-97.09172634 81.27940505 -98.82025859 66.63139034 -97.3125 51.3125 C-97.24708008 50.57056396 -97.18166016 49.82862793 -97.11425781 49.06420898 C-96.53758818 44.15073692 -95.23317976 40.90500931 -92 37 C-81.00704291 33.33568097 -69.69133311 38.55755427 -59.8125 43.25 C-53.5711892 46.47199807 -48.24497057 50.34720353 -43 55 C-40.82605176 52.034771 -40.82605176 52.034771 -39.8125 48.3125 C-38.31560085 43.67669499 -36.48551685 39.22143399 -34.5625 34.75 C-34.12997925 33.72193237 -34.12997925 33.72193237 -33.6887207 32.6730957 C-31.91124656 28.59530238 -29.89741676 25.42200168 -27 22 C-25.75983331 19.3205355 -25.75983331 19.3205355 -25 17 C-24.34 17 -23.68 17 -23 17 C-22.74734375 16.4328125 -22.4946875 15.865625 -22.234375 15.28125 C-17.89408043 7.25994612 -9.78793696 -1.92263047 0 0 Z " fill="#FED655" transform="translate(179,16)"/>
<path d="M0 0 C15.26452337 13.35645795 19.2348198 38.86895913 20.5949707 57.88842773 C20.7450375 60.25849769 20.88210719 62.62813994 21 65 C21.69222656 64.61328125 22.38445312 64.2265625 23.09765625 63.828125 C37.67525861 56.0687688 54.49903315 51.71136461 70.94921875 55.234375 C73.61095523 56.22808995 75.07100655 56.85762232 77 59 C77.44573912 62.03102599 77.61731239 64.59474356 77.5625 67.625 C77.55226807 68.47167236 77.54203613 69.31834473 77.53149414 70.19067383 C76.7887113 92.75401777 64.47752149 117.06967868 49 133 C44.78754696 131.49759011 43.00836837 128.47308058 40.6875 124.875 C39.88599251 123.68535132 39.08129992 122.49784237 38.2734375 121.3125 C37.8825293 120.73886719 37.49162109 120.16523438 37.08886719 119.57421875 C27.97335703 106.39556191 14.6697048 97.82357213 0 92 C-0.99902344 91.566875 -1.99804688 91.13375 -3.02734375 90.6875 C-18.02319724 85.01232812 -37.39465866 86.24565916 -51.8828125 92.69921875 C-63.08194059 97.91362759 -72.91289151 104.30611771 -81.34375 113.43359375 C-83 115 -83 115 -86 116 C-86.12117188 115.43410156 -86.24234375 114.86820312 -86.3671875 114.28515625 C-86.61855469 113.18494141 -86.61855469 113.18494141 -86.875 112.0625 C-87.11863281 110.96615234 -87.11863281 110.96615234 -87.3671875 109.84765625 C-87.82961523 107.79299706 -87.82961523 107.79299706 -90 107 C-90.93214152 104.2095507 -91.7486799 101.46454802 -92.5 98.625 C-92.72139648 97.80008057 -92.94279297 96.97516113 -93.17089844 96.12524414 C-97.09172634 81.27940505 -98.82025859 66.63139034 -97.3125 51.3125 C-97.24708008 50.57056396 -97.18166016 49.82862793 -97.11425781 49.06420898 C-96.53758818 44.15073692 -95.23317976 40.90500931 -92 37 C-81.00704291 33.33568097 -69.69133311 38.55755427 -59.8125 43.25 C-53.5711892 46.47199807 -48.24497057 50.34720353 -43 55 C-40.82605176 52.034771 -40.82605176 52.034771 -39.8125 48.3125 C-38.31560085 43.67669499 -36.48551685 39.22143399 -34.5625 34.75 C-34.12997925 33.72193237 -34.12997925 33.72193237 -33.6887207 32.6730957 C-31.91124656 28.59530238 -29.89741676 25.42200168 -27 22 C-25.75983331 19.3205355 -25.75983331 19.3205355 -25 17 C-24.34 17 -23.68 17 -23 17 C-22.74734375 16.4328125 -22.4946875 15.865625 -22.234375 15.28125 C-17.89408043 7.25994612 -9.78793696 -1.92263047 0 0 Z " fill="#64D674" transform="translate(179,16)"/>
<path d="M0 0 C2.38398594 2.38398594 1.37219561 8.77352529 1.38500977 12.09301758 C1.00002002 34.64093076 -11.57166741 59.12030661 -27 75 C-31.21245304 73.49759011 -32.99163163 70.47308058 -35.3125 66.875 C-36.11400749 65.68535132 -36.91870008 64.49784237 -37.7265625 63.3125 C-38.1174707 62.73886719 -38.50837891 62.16523438 -38.91113281 61.57421875 C-43.70436449 54.64445241 -49.61762433 49.71714315 -56.28979492 44.67919922 C-60.90698872 41.18602256 -60.90698872 41.18602256 -62 39 C-61.62209308 37.05000029 -61.16978171 35.11434116 -60.6875 33.1875 C-58.50025364 23.56562268 -57.78295512 13.81997206 -57 4 C-56.01 5.485 -56.01 5.485 -55 7 C-54.30777344 6.61328125 -53.61554688 6.2265625 -52.90234375 5.828125 C-38.65906311 -1.75327866 -14.91785015 -9.94523343 0 0 Z " fill="#52AE59" transform="translate(255,74)"/>
<path d="M0 0 C6.2413108 3.22199807 11.56752943 7.09720353 16.8125 11.75 C17.8025 10.76 18.7925 9.77 19.8125 8.75 C19.63074219 10.24273437 19.63074219 10.24273437 19.4453125 11.765625 C19.32700073 12.76263428 19.32700073 12.76263428 19.20629883 13.77978516 C19.02460629 15.2805226 18.834101 16.78021528 18.63549805 18.27880859 C18.08906737 22.5737625 17.7640858 26.75422975 17.76171875 31.0859375 C17.56273585 43.91621328 17.56273585 43.91621328 14.43164062 47.19677734 C10.83061929 49.58882517 6.83432159 50.8312179 2.72949219 52.09326172 C-5.23401819 54.82146382 -11.88133695 60.97178964 -17.8984375 66.63671875 C-20.24146576 68.79982163 -22.67710649 70.78515137 -25.1875 72.75 C-26.29808786 70.67690266 -27.16148494 68.86381589 -27.6875 66.5625 C-27.8525 65.964375 -28.0175 65.36625 -28.1875 64.75 C-28.8475 64.42 -29.5075 64.09 -30.1875 63.75 C-31.11964152 60.9595507 -31.9361799 58.21454802 -32.6875 55.375 C-32.90889648 54.55008057 -33.13029297 53.72516113 -33.35839844 52.87524414 C-37.27922634 38.02940505 -39.00775859 23.38139034 -37.5 8.0625 C-37.43458008 7.32056396 -37.36916016 6.57862793 -37.30175781 5.81420898 C-36.72508818 0.90073692 -35.42067976 -2.34499069 -32.1875 -6.25 C-21.19454291 -9.91431903 -9.87883311 -4.69244573 0 0 Z " fill="#52B15A" transform="translate(119.1875,59.25)"/>
<path d="M0 0 C5.37842846 1.85800256 8.46081756 4.92163513 11 10 C11.5147039 15.16391457 12.01718869 20.2416778 9 24.6875 C8.34 25.450625 7.68 26.21375 7 27 C7.721875 26.938125 8.44375 26.87625 9.1875 26.8125 C12.63876127 27.04258408 14.34078096 27.79664708 17 30 C17.3125 32.6875 17.3125 32.6875 17 35 C12.32494151 37.72410672 8.83105865 38.43205746 3.4375 38.4375 C2.15746094 38.45683594 0.87742188 38.47617188 -0.44140625 38.49609375 C-4.53178554 37.92586524 -6.22540351 37.0302215 -9 34 C-9 32.68 -9 31.36 -9 30 C-9.8353125 29.9071875 -9.8353125 29.9071875 -10.6875 29.8125 C-15.01710324 28.29128805 -17.52312268 24.71531598 -20 21 C-20.73660386 16.15541304 -21.1582654 11.12653143 -18.76171875 6.7265625 C-13.19012959 0.17337823 -8.39566962 -0.76980352 0 0 Z " fill="#F8F7F2" transform="translate(196,171)"/>
<path d="M0 0 C4.51200095 2.38824878 8.30910279 5.6394497 11 10 C11.98575655 15.85655363 11.3242476 21.01362859 8 26 C6.02141388 28.29771291 4.6020279 29.74198804 1.8125 30.9375 C1.214375 31.288125 0.61625 31.63875 0 32 C-0.165 32.825 -0.33 33.65 -0.5 34.5 C-1 37 -1 37 -2.69921875 38.13671875 C-8.1135105 40.1682272 -14.73987868 39.82784958 -20.0625 37.625 C-23 36 -23 36 -25 34 C-24.67028521 30.70285207 -24.3773161 29.3773161 -22 27 C-19.375 26.375 -19.375 26.375 -17 26 C-17.495 25.195625 -17.99 24.39125 -18.5 23.5625 C-20.34854334 19.17220958 -20.62741033 15.69686347 -20 11 C-16.57396849 2.6252563 -8.73916389 -1.48899767 0 0 Z " fill="#F8F7F2" transform="translate(117,167)"/>
<path d="M0 0 C4.53826202 0.34279555 6.52937797 2.05398689 9.64453125 5.25390625 C10.48564453 6.10791016 11.32675781 6.96191406 12.19335938 7.84179688 C13.05767578 8.73962891 13.92199219 9.63746094 14.8125 10.5625 C15.69615234 11.46419922 16.57980469 12.36589844 17.49023438 13.29492188 C19.66942062 15.52122566 21.83872917 17.75632259 24 20 C28.10712981 16.59209573 31.93947694 13.17534249 35.4375 9.125 C36.11683594 8.34382812 36.79617187 7.56265625 37.49609375 6.7578125 C37.99238281 6.17773438 38.48867187 5.59765625 39 5 C40.32 5.33 41.64 5.66 43 6 C43.90625 8.05859375 43.90625 8.05859375 44 11 C42.15307862 13.66160153 39.83082007 15.82424814 37.5 18.0625 C36.2493084 19.27116225 35.00910726 20.49080379 33.78125 21.72265625 C32.9469043 22.52328491 32.9469043 22.52328491 32.09570312 23.34008789 C30.80846833 24.93925068 30.80846833 24.93925068 31.07617188 26.94311523 C32.28089544 29.62540806 33.87192633 31.15917979 36 33.1875 C36.804375 33.96867187 37.60875 34.74984375 38.4375 35.5546875 C39.7059375 36.76511719 39.7059375 36.76511719 41 38 C42.67353432 39.59700074 44.34052518 41.20089465 46 42.8125 C47.11375 43.87404297 47.11375 43.87404297 48.25 44.95703125 C50.04903724 47.05724659 50.76248782 48.25992042 51 51 C49.5625 52.75 49.5625 52.75 48 54 C43.30202632 52.60078401 40.73725174 49.92132317 37.625 46.3125 C36.66121658 45.22952419 35.69637387 44.14749014 34.73046875 43.06640625 C34.26560059 42.54191895 33.80073242 42.01743164 33.32177734 41.47705078 C31.57241511 39.52218534 29.77303441 37.62401521 27.9375 35.75 C27.41027344 35.20859375 26.88304688 34.6671875 26.33984375 34.109375 C25.0331709 32.78741616 25.0331709 32.78741616 23 33 C21.17270951 34.93530766 19.53104622 36.99047623 17.8515625 39.0546875 C15.99402052 41.00628224 14.46528691 41.968272 12 43 C11.01 42.34 10.02 41.68 9 41 C9.52529369 36.8911959 10.66807991 34.74480159 13.4375 31.6875 C14.05496094 30.99011719 14.67242187 30.29273438 15.30859375 29.57421875 C17 28 17 28 19 28 C15.95710448 21.85430943 10.57365083 17.57576525 5.62890625 12.97070312 C0.23599535 7.77004407 0.23599535 7.77004407 -1.0546875 3.55859375 C-1 1 -1 1 0 0 Z " fill="#EDB833" transform="translate(83,226)"/>
<path d="M0 0 C1.98 0.33 3.96 0.66 6 1 C5.48220221 5.15187903 4.3681772 7.14822072 1.47265625 10.13671875 C0.76302734 10.87857422 0.05339844 11.62042969 -0.67773438 12.38476562 C-1.42345703 13.14466797 -2.16917969 13.90457031 -2.9375 14.6875 C-3.67935547 15.45900391 -4.42121094 16.23050781 -5.18554688 17.02539062 C-7.76812669 19.70630983 -10.36779715 22.36779715 -13 25 C-13.33914005 28.18546722 -13.33914005 28.18546722 -10.75 30.4375 C-9.0766578 31.99675068 -7.37451375 33.52672526 -5.625 35 C-4 37 -4 37 -4.25 39.75 C-4.4975 40.4925 -4.745 41.235 -5 42 C-7.19921875 42.28125 -7.19921875 42.28125 -10 42 C-12.45703125 40.03125 -12.45703125 40.03125 -14.8125 37.5 C-15.99779297 36.24703125 -15.99779297 36.24703125 -17.20703125 34.96875 C-17.79871094 34.3190625 -18.39039063 33.669375 -19 33 C-22.28731688 34.09577229 -22.88003756 34.77804601 -25 37.375 C-28.11518006 41.04265857 -31.36664625 44.5194624 -34.75 47.9375 C-35.67296875 48.87464844 -36.5959375 49.81179688 -37.546875 50.77734375 C-40 53 -40 53 -43 54 C-44.5625 52.75 -44.5625 52.75 -46 51 C-45.6311831 47.39629284 -44.05566625 45.71078567 -41.5078125 43.25 C-40.80269531 42.5590625 -40.09757813 41.868125 -39.37109375 41.15625 C-38.25927734 40.08890625 -38.25927734 40.08890625 -37.125 39 C-35.66705492 37.58561391 -34.21124839 36.16901937 -32.7578125 34.75 C-32.1095752 34.12609375 -31.46133789 33.5021875 -30.79345703 32.859375 C-29.00928809 31.00962947 -27.49550784 29.08713097 -26 27 C-27.44225601 23.6619951 -29.25221856 21.56156534 -31.875 19.0625 C-38.13946484 12.91214198 -38.13946484 12.91214198 -40 10 C-39.75 7.6875 -39.75 7.6875 -39 6 C-37.22949219 5.30102539 -37.22949219 5.30102539 -35 5 C-33.16894531 6.26342773 -33.16894531 6.26342773 -31.328125 8.18359375 C-30.66425781 8.86357422 -30.00039062 9.54355469 -29.31640625 10.24414062 C-28.63449219 10.96794922 -27.95257813 11.69175781 -27.25 12.4375 C-26.20392578 13.51741211 -26.20392578 13.51741211 -25.13671875 14.61914062 C-23.41278364 16.40211461 -21.70153391 18.19567826 -20 20 C-15.33855372 16.10298215 -10.90450892 12.06201152 -6.625 7.75 C-6.09261719 7.22148437 -5.56023437 6.69296875 -5.01171875 6.1484375 C-2.15201917 3.34214389 -2.15201917 3.34214389 0 0 Z " fill="#EDB833" transform="translate(220,226)"/>
<path d="M0 0 C2.94246185 -0.26648711 4.4903637 -0.36087241 6.94458008 1.37695312 C7.54681396 2.00537109 8.14904785 2.63378906 8.76953125 3.28125 C9.43017578 3.95800781 10.09082031 4.63476562 10.77148438 5.33203125 C11.44501953 6.04746094 12.11855469 6.76289063 12.8125 7.5 C13.50537109 8.21542969 14.19824219 8.93085938 14.91210938 9.66796875 C16.61985699 11.43460421 18.31486688 13.21182487 20 15 C24.95836364 10.86596653 29.42982899 6.52621594 33.7890625 1.7578125 C36 0 36 0 38.7734375 -0.2578125 C39.87558594 -0.13019531 39.87558594 -0.13019531 41 0 C41.26648711 2.94246185 41.36087241 4.4903637 39.62304688 6.94458008 C38.68041992 7.84793091 38.68041992 7.84793091 37.71875 8.76953125 C37.04199219 9.43017578 36.36523438 10.09082031 35.66796875 10.77148438 C34.95253906 11.44501953 34.23710937 12.11855469 33.5 12.8125 C32.78457031 13.50537109 32.06914062 14.19824219 31.33203125 14.91210938 C29.56539579 16.61985699 27.78817513 18.31486688 26 20 C26.93590504 21.1055189 27.87379858 22.20935453 28.8125 23.3125 C29.33457031 23.92738281 29.85664063 24.54226562 30.39453125 25.17578125 C31.95608169 27.01817499 31.95608169 27.01817499 33.71875 28.5625 C34.1415625 29.036875 34.564375 29.51125 35 30 C34.6875 32.6875 34.6875 32.6875 34 35 C29.58489226 34.51286902 27.69553355 33.14946803 24.6875 29.9375 C23.99011719 29.20402344 23.29273438 28.47054687 22.57421875 27.71484375 C22.05472656 27.14894531 21.53523438 26.58304688 21 26 C19.8944811 26.93590504 18.79064547 27.87379858 17.6875 28.8125 C17.07261719 29.33457031 16.45773438 29.85664063 15.82421875 30.39453125 C13.98182501 31.95608169 13.98182501 31.95608169 12.4375 33.71875 C11.7259375 34.35296875 11.7259375 34.35296875 11 35 C8.3125 34.6875 8.3125 34.6875 6 34 C6.48713098 29.58489226 7.85053197 27.69553355 11.0625 24.6875 C11.79597656 23.99011719 12.52945313 23.29273438 13.28515625 22.57421875 C13.85105469 22.05472656 14.41695312 21.53523438 15 21 C10.87259299 16.0259454 6.53069696 11.57426752 1.7578125 7.2109375 C0 5 0 5 -0.2578125 2.2265625 C-0.13019531 1.12441406 -0.13019531 1.12441406 0 0 Z " fill="#FFC73B" transform="translate(134,124)"/>
<path d="M0 0 C3 2.4375 3 2.4375 5 5 C5.33 5.33 5.66 5.66 6 6 C6.38301738 9.25564772 6.67642942 11.86168034 4.953125 14.76171875 C1.81071609 18.57882134 0.13322192 19.84890374 -4.75 20.5 C-7.43290586 20.47062512 -8.67094767 20.2391851 -10.859375 18.6484375 C-13.5078642 15.7855468 -14.86513429 13.74925394 -15.5625 9.875 C-14.92746462 6.62926362 -13.98067597 4.6409013 -12 2 C-8.00191454 -0.66539031 -4.70248347 -0.84149704 0 0 Z " fill="#0B0B0B" transform="translate(117,173)"/>
<path d="M0 0 C3.6578218 2.03993908 5.66946174 3.50419262 8 7 C8.53665542 11.02491565 8.14921994 12.7363781 6.125 16.3125 C3.99458352 19.00685026 3.31856112 19.81866546 0.01171875 20.2734375 C-4.48027315 20.46972622 -6.34969305 20.51482633 -10 17.625 C-12.89236866 13.82876614 -13.55362163 11.79805415 -13 7 C-9.58798533 1.48730466 -6.4900561 -0.62404386 0 0 Z " fill="#0F0F0E" transform="translate(194,176)"/>
<path d="M0 0 C2.875 1.1875 2.875 1.1875 5 3 C5.3125 5.6875 5.3125 5.6875 5 8 C0.32494151 10.72410672 -3.16894135 11.43205746 -8.5625 11.4375 C-9.84253906 11.45683594 -11.12257812 11.47617188 -12.44140625 11.49609375 C-16.51292065 10.92849514 -18.20084079 9.97108453 -21 7 C-21 6.01 -21 5.02 -21 4 C-20.25234375 3.87882813 -19.5046875 3.75765625 -18.734375 3.6328125 C-17.74953125 3.46523437 -16.7646875 3.29765625 -15.75 3.125 C-14.77546875 2.96257812 -13.8009375 2.80015625 -12.796875 2.6328125 C-0.79979163 -0.08161139 -0.79979163 -0.08161139 0 0 Z " fill="#EAAEC8" transform="translate(208,198)"/>
<path d="M0 0 C3.75 0.375 3.75 0.375 6.625 2.3125 C10.64146972 4.96337001 14.03235957 5.16532709 18.75 5.375 C18.5 7.75 18.5 7.75 17.75 10.375 C13.21307243 13.40306328 7.98147356 12.87006883 2.75 12.375 C-0.84259666 11.3876729 -3.58252976 10.04247024 -6.25 7.375 C-5.77744125 2.64941251 -5.00120926 0.57706261 0 0 Z " fill="#EAAEC8" transform="translate(98.25,193.625)"/>
<path d="M0 0 C2.81084717 0.4015496 3.79532198 0.74808859 5.625 3 C9.32005253 6.11162318 13.26869414 6.21836796 18 6 C20.55343073 5.2501077 22.61021924 4.2192759 25 3 C25.99 3 26.98 3 28 3 C27.9375 4.8125 27.9375 4.8125 27 7 C21.10643809 10.66710519 14.79924714 10.87701801 8 10 C4.6898973 8.64673345 2.51936833 6.51936833 0 4 C0 2.68 0 1.36 0 0 Z " fill="#1F1B0C" transform="translate(136,197)"/>
<path d="M0 0 C2.5625 0.1875 2.5625 0.1875 4.5625 2.1875 C4.00694444 6.74305556 4.00694444 6.74305556 2.5625 8.1875 C0.125 8.375 0.125 8.375 -2.4375 8.1875 C-3.0975 7.5275 -3.7575 6.8675 -4.4375 6.1875 C-3.71780303 0.28598485 -3.71780303 0.28598485 0 0 Z " fill="#E4E3E3" transform="translate(108.4375,176.8125)"/>
<path d="M0 0 C3.25696479 0.41755959 4.63443291 0.63443291 7 3 C6.46428571 6.53571429 6.46428571 6.53571429 5 8 C2.5625 8.1875 2.5625 8.1875 0 8 C-0.66 7.34 -1.32 6.68 -2 6 C-1.44444444 1.44444444 -1.44444444 1.44444444 0 0 Z " fill="#EAE9E9" transform="translate(185,180)"/>
<path d="M0 0 C-0.0625 1.8125 -0.0625 1.8125 -1 4 C-6.18813591 6.96464909 -10.08874214 7.31111883 -16 7 C-13.65789408 3.48684112 -12.45748068 3.16255306 -8.5625 1.8125 C-7.59441406 1.46832031 -6.62632812 1.12414062 -5.62890625 0.76953125 C-3 0 -3 0 0 0 Z " fill="#0E0C06" transform="translate(164,200)"/>
<path d="M0 0 C-0.33 0.66 -0.66 1.32 -1 2 C-1.5259375 1.84273437 -2.051875 1.68546875 -2.59375 1.5234375 C-5.5887418 0.87192954 -8.43605596 0.71635613 -11.5 0.625 C-12.6240625 0.57601562 -13.748125 0.52703125 -14.90625 0.4765625 C-18.21209879 0.71847815 -18.21209879 0.71847815 -20.40625 3.5234375 C-20.9321875 4.34070312 -21.458125 5.15796875 -22 6 C-22.66 5.67 -23.32 5.34 -24 5 C-18.10270152 -4.55769064 -9.83827163 -2.86204266 0 0 Z " fill="#5FC463" transform="translate(107,54)"/>
<path d="M0 0 C0.66 0.33 1.32 0.66 2 1 C-2.62 5.62 -7.24 10.24 -12 15 C-12.99 14.67 -13.98 14.34 -15 14 C-14.08476563 13.15695313 -13.16953125 12.31390625 -12.2265625 11.4453125 C-11.02602139 10.33856366 -9.82550167 9.23179162 -8.625 8.125 C-8.02171875 7.56941406 -7.4184375 7.01382813 -6.796875 6.44140625 C-6.21679688 5.90644531 -5.63671875 5.37148437 -5.0390625 4.8203125 C-4.50490723 4.32805176 -3.97075195 3.83579102 -3.42041016 3.32861328 C-2.25855182 2.24184238 -1.12494128 1.12494128 0 0 Z " fill="#EDDD66" transform="translate(106,120)"/>
<path d="M0 0 C0.66 0.33 1.32 0.66 2 1 C2 1.99 2 2.98 2 4 C-0.31 4.66 -2.62 5.32 -5 6 C-3.63016497 2.83884224 -3.0109362 2.0072908 0 0 Z " fill="#323231" transform="translate(108,173)"/>
</svg>
