<?xml version="1.0" encoding="UTF-8"?>
<svg version="1.1" xmlns="http://www.w3.org/2000/svg" width="630" height="630">
<path d="M0 0 C6.92338952 -0.05063836 13.84673141 -0.08570749 20.77026367 -0.10986328 C23.12640162 -0.11993155 25.48252704 -0.13358706 27.83862305 -0.15087891 C31.22187386 -0.17509076 34.60495972 -0.18647478 37.98828125 -0.1953125 C39.04461258 -0.20563507 40.10094391 -0.21595764 41.18928528 -0.22659302 C42.17007553 -0.22674408 43.15086578 -0.22689514 44.16137695 -0.22705078 C45.45710381 -0.23371262 45.45710381 -0.23371262 46.77900696 -0.24050903 C49 0 49 0 52 2 C52 2.66 52 3.32 52 4 C52.556875 4.2475 53.11375 4.495 53.6875 4.75 C56.42410913 6.22924818 58.67650869 7.93467439 61 10 C61 10.66 61 11.32 61 12 C62.98 12.99 62.98 12.99 65 14 C65 14.66 65 15.32 65 16 C66.98 16.99 66.98 16.99 69 18 C69 18.66 69 19.32 69 20 C69.55945313 20.24105469 70.11890625 20.48210937 70.6953125 20.73046875 C73.48153854 22.26525428 75.54264415 24.15089294 77.875 26.3125 C80.73351281 28.94267007 83.58473299 31.51976385 86.625 33.9375 C87.800625 34.9584375 87.800625 34.9584375 89 36 C89 36.66 89 37.32 89 38 C89.66 38 90.32 38 91 38 C91 38.66 91 39.32 91 40 C91.57234375 40.2578125 92.1446875 40.515625 92.734375 40.78125 C95.21128995 42.11365942 97.1341166 43.65056118 99.25 45.5 C99.95640625 46.1084375 100.6628125 46.716875 101.390625 47.34375 C103 49 103 49 103 51 C103.66 51 104.32 51 105 51 C105 51.66 105 52.32 105 53 C105.57234375 53.2578125 106.1446875 53.515625 106.734375 53.78125 C109.21128995 55.11365942 111.1341166 56.65056118 113.25 58.5 C114.30960938 59.41265625 114.30960938 59.41265625 115.390625 60.34375 C117 62 117 62 117 64 C117.86625 64.37125 117.86625 64.37125 118.75 64.75 C121.41076851 66.22820473 123.13556544 67.58314039 125 70 C124.75 72.75 124.75 72.75 124 75 C122.515 75.495 122.515 75.495 121 76 C120.67 76.99 120.34 77.98 120 79 C118.28835912 80.58715791 116.50672181 82.09989386 114.6875 83.5625 C113.72199219 84.34753906 112.75648438 85.13257813 111.76171875 85.94140625 C109.5306699 87.604437 107.53257755 88.88710963 105 90 C105 90.66 105 91.32 105 92 C103.57421875 93.18359375 103.57421875 93.18359375 101.6875 94.4375 C99.72068756 95.75283159 98.04293215 96.95560544 96.39453125 98.66015625 C95 100 95 100 93 100 C92.77054688 100.57878906 92.54109375 101.15757812 92.3046875 101.75390625 C90.66435776 104.57782721 88.73270307 105.98365719 86.125 107.9375 C82.49692 110.66126753 79.7212668 113.36109672 77 117 C79.74200234 120.26967289 82.48084043 123.48084043 85.5 126.5 C87.4499844 128.4499844 89.22485968 130.39881349 91 132.5 C94.02029669 136.06734022 97.26382335 139.34217812 100.64453125 142.5703125 C102.13123259 144.01175127 103.56940276 145.50286335 105 147 C105 147.66 105 148.32 105 149 C105.99 149.33 106.98 149.66 108 150 C112.97368421 154.97368421 112.97368421 154.97368421 113.0625 158.4375 C109.38461538 167.30769231 109.38461538 167.30769231 106 169 C105.1085832 170.6114073 104.21869118 172.22367441 103.3359375 173.83984375 C101.21183898 177.27442411 98.59739424 180.29059435 96 183.375 C94.09984026 185.86895966 92.59415454 188.43256715 91.07617188 191.17041016 C89.20664246 194.34877981 86.96751103 197.2464823 84.75 200.1875 C81.33105162 204.77926024 78.01406469 209.39695951 74.875 214.1875 C72.27223402 218.15236258 69.55836413 221.97468664 66.6875 225.75 C62.72649517 230.9657752 58.99270504 236.30577315 55.30419922 241.71679688 C51.36675105 247.48825616 47.34193009 253.19409331 43.29223633 258.88720703 C39.55536722 264.1595315 35.99287432 269.51963847 32.5234375 274.97265625 C32.02070313 275.64167969 31.51796875 276.31070312 31 277 C30.34 277 29.68 277 29 277 C28.7421875 277.70511719 28.484375 278.41023438 28.21875 279.13671875 C26.89669814 282.24269315 25.30252146 284.95978065 23.5 287.8125 C22.8915625 288.78832031 22.283125 289.76414062 21.65625 290.76953125 C21.1096875 291.50558594 20.563125 292.24164063 20 293 C19.34 293 18.68 293 18 293 C17.74863281 293.71542969 17.49726563 294.43085938 17.23828125 295.16796875 C15.88611115 298.26047134 14.22263035 300.62363753 12.1875 303.3125 C9.66242459 306.69454293 7.28602351 310.06214116 5.125 313.6875 C4.42375 314.780625 3.7225 315.87375 3 317 C2.34 317 1.68 317 1 317 C0.79375 317.66 0.5875 318.32 0.375 319 C-1.21565338 322.47051646 -3.29232771 325.15710621 -5.66015625 328.1328125 C-7.18614683 330.06483629 -7.18614683 330.06483629 -8 333 C-8.97648017 334.02297922 -9.98131338 335.01904252 -11 336 C-12.98275123 338.35451709 -14.79048641 340.64961688 -16.37109375 343.29296875 C-23.51117006 355.15885096 -32.06598366 366.53862205 -40.4375 377.5625 C-43.15066561 381.1444883 -45.38110978 384.88599761 -47.5625 388.8125 C-48.036875 389.534375 -48.51125 390.25625 -49 391 C-49.66 391 -50.32 391 -51 391 C-51.28875 391.969375 -51.5775 392.93875 -51.875 393.9375 C-53 397 -53 397 -55 398 C-55.33 398.99 -55.66 399.98 -56 401 C-56.66 401 -57.32 401 -58 401 C-58.2784375 402.2065625 -58.2784375 402.2065625 -58.5625 403.4375 C-60.15827437 407.39224519 -62.2055949 410.01779621 -64.8671875 413.30859375 C-67.3890178 416.49090341 -69.76612056 419.75848918 -72.125 423.0625 C-72.77082031 423.96476318 -72.77082031 423.96476318 -73.4296875 424.88525391 C-75.74610492 428.14807798 -77.93911115 431.44221769 -80 434.875 C-80.66 435.90625 -81.32 436.9375 -82 438 C-82.66 438 -83.32 438 -84 438 C-84.33 439.32 -84.66 440.64 -85 442 C-85.66 442 -86.32 442 -87 442 C-87.226875 442.66 -87.45375 443.32 -87.6875 444 C-89.3878815 447.88658628 -91.39623084 451.63679817 -94 455 C-94.66 455 -95.32 455 -96 455 C-96.07347656 455.52851563 -96.14695312 456.05703125 -96.22265625 456.6015625 C-97.31599854 459.97499046 -99.3494139 462.55743611 -101.4375 465.375 C-102.34127624 466.61709262 -103.24491793 467.85928316 -104.1484375 469.1015625 C-104.61604492 469.7399707 -105.08365234 470.37837891 -105.56542969 471.03613281 C-107.91940161 474.25862263 -110.24092803 477.50413386 -112.5625 480.75 C-112.99167725 481.34603027 -113.42085449 481.94206055 -113.86303711 482.55615234 C-116.10579364 485.67008574 -116.10579364 485.67008574 -118 489 C-118.66 489 -119.32 489 -120 489 C-120.1546875 489.8353125 -120.1546875 489.8353125 -120.3125 490.6875 C-121.14178408 493.4769101 -122.34299056 495.6139064 -124 498 C-124.66 498 -125.32 498 -126 498 C-126.28875 498.763125 -126.5775 499.52625 -126.875 500.3125 C-128 503 -128 503 -130 506 C-130.66 506 -131.32 506 -132 506 C-132.08507812 506.54140625 -132.17015625 507.0828125 -132.2578125 507.640625 C-133.2533945 510.80552778 -134.93582401 513.06498708 -136.875 515.75 C-137.92300781 517.22726562 -137.92300781 517.22726562 -138.9921875 518.734375 C-139.98605469 519.85585937 -139.98605469 519.85585937 -141 521 C-141.99 521 -142.98 521 -144 521 C-144.7348612 513.10024209 -141.73295679 505.98633792 -139.171875 498.6171875 C-137.30134429 493.22448727 -135.98793421 487.79943501 -134.73828125 482.23046875 C-132.65544925 473.11670122 -129.88508203 464.19255211 -127.15698242 455.25561523 C-126.90795166 454.43520752 -126.6589209 453.6147998 -126.40234375 452.76953125 C-126.18054443 452.04354736 -125.95874512 451.31756348 -125.73022461 450.56958008 C-124.93285054 447.76370844 -124.22824254 444.93885831 -123.52787781 442.10743713 C-122.68407109 438.73872266 -121.77863305 435.38716883 -120.87109375 432.03515625 C-120.67653091 431.31637802 -120.48196808 430.59759979 -120.2815094 429.85704041 C-119.87444294 428.35532548 -119.46688106 426.85374476 -119.05883789 425.35229492 C-118.64132215 423.81363869 -118.2253296 422.27456841 -117.81079102 420.73510742 C-117.20915338 418.50089237 -116.60315045 416.26790412 -115.99609375 414.03515625 C-115.81066513 413.34357925 -115.62523651 412.65200226 -115.43418884 411.93946838 C-114.11414936 407.11414936 -114.11414936 407.11414936 -113 406 C-112.54126451 403.99964861 -112.08927265 401.99763647 -111.66015625 399.99072266 C-110.39477662 394.25814112 -108.95733559 388.56572166 -107.54101562 382.86889648 C-107.17824665 381.40619757 -106.81759283 379.94297255 -106.45898438 378.47924805 C-105.93558677 376.34307208 -105.40600618 374.20851443 -104.875 372.07421875 C-104.56304687 370.81182373 -104.25109375 369.54942871 -103.9296875 368.2487793 C-103.16408357 365.57338762 -102.31460379 363.42554635 -101 361 C-100.51884581 359.30344476 -100.08635476 357.59276713 -99.6875 355.875 C-98.44999528 350.73220402 -97.07090573 345.64907933 -95.625 340.5625 C-93.44958712 332.87383961 -91.5525995 325.13685143 -89.78759766 317.34399414 C-88.67654923 312.51925931 -87.34001027 307.87132394 -85.72753906 303.19116211 C-84.5386378 299.61049471 -83.61928144 295.96691676 -82.6875 292.3125 C-82.25741107 290.65211019 -81.82638107 288.99196394 -81.39453125 287.33203125 C-81.16975098 286.46787598 -80.9449707 285.6037207 -80.71337891 284.71337891 C-79.46550132 279.96700263 -78.17033023 275.23360746 -76.875 270.5 C-76.63354248 269.61739502 -76.39208496 268.73479004 -76.14331055 267.82543945 C-75.66928428 266.09393809 -75.1947599 264.36257301 -74.71972656 262.63134766 C-74.22409091 260.81928488 -73.73142432 259.00640825 -73.24121094 257.19287109 C-71.73967514 251.64409227 -70.16075065 246.12789463 -68.5 240.625 C-66.70739473 234.61352217 -65.1719069 228.5995192 -63.81640625 222.47265625 C-62.79274131 218.1184068 -61.62965588 213.81073517 -60.4375 209.5 C-60.12232422 208.35059937 -60.12232422 208.35059937 -59.80078125 207.17797852 C-59.59710938 206.44893311 -59.3934375 205.7198877 -59.18359375 204.96875 C-58.91373657 204.00098633 -58.91373657 204.00098633 -58.63842773 203.01367188 C-58 201 -58 201 -57.01147461 198.55249023 C-56.04521213 196.11409434 -55.30933254 193.7236759 -54.6328125 191.19140625 C-54.38893799 190.28600098 -54.14506348 189.3805957 -53.89379883 188.44775391 C-53.64009521 187.49562012 -53.3863916 186.54348633 -53.125 185.5625 C-52.59038075 183.58188622 -52.05522456 181.6014173 -51.51953125 179.62109375 C-51.25994629 178.65929199 -51.00036133 177.69749023 -50.73291016 176.70654297 C-48.46993978 168.34968434 -46.21924618 160.04811546 -43 152 C-38.30814053 153.29026136 -34.84519863 155.28304114 -30.9296875 158.07421875 C-29.02537132 159.19552214 -29.02537132 159.19552214 -26.8203125 158.76953125 C-24.80403896 158.14949356 -24.80403896 158.14949356 -24 156 C-23.91469203 153.66589795 -23.89582344 151.32929167 -23.90576172 148.99365234 C-23.90855102 147.49465963 -23.91122056 145.99566669 -23.91378784 144.49667358 C-23.91836313 143.29884813 -23.91836313 143.29884813 -23.92303085 142.07682419 C-23.93443971 137.80768327 -23.91381465 133.53864477 -23.8984375 129.26953125 C-23.88031869 123.85478533 -23.87098169 118.44059742 -23.90039062 113.02587891 C-23.99743909 93.21748829 -23.99559621 75.02763578 -16.84901428 56.25544739 C-15.56289162 52.83880051 -14.51121278 49.36375418 -13.4375 45.875 C-12.85548828 44.04388672 -12.85548828 44.04388672 -12.26171875 42.17578125 C-10.31287028 35.86920047 -8.65136255 29.47638607 -6.96655273 23.09521484 C-6.72493408 22.18852051 -6.48331543 21.28182617 -6.234375 20.34765625 C-6.02006836 19.53304932 -5.80576172 18.71844238 -5.58496094 17.87915039 C-5 16 -5 16 -4 15 C-3.65239293 13.61249279 -3.34663367 12.21438266 -3.0625 10.8125 C-2.30872872 7.09431731 -1.21667117 3.59262044 0 0 Z " fill="#4051BC" transform="translate(467,55)"/>
<path d="M0 0 C1.10272751 0.00707474 2.20545502 0.01414948 3.34159851 0.0214386 C6.85733392 0.04938636 10.37146618 0.1121296 13.88671875 0.17578125 C16.27276343 0.20086344 18.65883312 0.22367674 21.04492188 0.24414062 C26.88856612 0.29921433 32.7312779 0.3828458 38.57421875 0.48828125 C39.6968168 4.33457643 40.81913567 8.18095301 41.94140625 12.02734375 C42.25746826 13.11023682 42.57353027 14.19312988 42.89916992 15.30883789 C45.54896538 24.39138321 48.18614705 33.47658026 50.71484375 42.59375 C50.90600266 43.2808757 51.09716156 43.9680014 51.29411316 44.6759491 C51.71408052 46.19837848 52.12801791 47.72249176 52.53425598 49.24864197 C53.57328984 53.10589294 54.67853552 56.86769657 56.11889648 60.59521484 C62.51283672 78.09043767 61.37363071 96.50692146 61.27490234 114.85491943 C61.24001566 121.98876103 61.24631553 129.12242719 61.27103615 136.25628471 C61.27339759 138.73160131 61.25567275 141.20618731 61.23576355 143.68141174 C61.23551559 145.190033 61.23591214 146.69865455 61.23706055 148.20727539 C61.23006638 149.52071426 61.2230722 150.83415314 61.21586609 152.18739319 C61.59108242 155.64361726 62.20486567 157.01317597 64.57421875 159.48828125 C68.70034709 158.67243315 71.79206173 156.7007837 75.35546875 154.546875 C77.57421875 153.48828125 77.57421875 153.48828125 81.57421875 153.48828125 C84.44797246 159.6375901 86.22909681 165.94971414 88.01171875 172.48828125 C88.32028809 173.60460937 88.62885742 174.7209375 88.94677734 175.87109375 C90.8825361 182.8931834 92.76152673 189.92904177 94.6171875 196.97265625 C95.6899142 200.91328496 96.84375289 204.82508119 98.01171875 208.73828125 C100.02629237 215.49198739 101.85675104 222.28044652 103.62426758 229.10253906 C105.69336988 237.04311271 107.96061832 244.92353933 110.23046875 252.80859375 C112.05126123 259.13384673 113.77629284 265.48206041 115.46484375 271.84375 C115.7896875 273.06707031 116.11453125 274.29039062 116.44921875 275.55078125 C116.61856934 276.18862549 116.78791992 276.82646973 116.96240234 277.48364258 C118.21464967 282.18276753 119.51228927 286.86801938 120.82421875 291.55078125 C124.19224167 303.59270888 127.37536083 315.68492065 130.5859375 327.76953125 C133.18681331 337.55622601 135.78849548 347.34264918 138.44921875 357.11328125 C138.7004248 358.03713623 138.95163086 358.96099121 139.21044922 359.9128418 C140.98060728 366.39333655 142.82706427 372.84914047 144.69921875 379.30078125 C146.82512996 386.62757009 148.72443438 393.97509565 150.36962891 401.42504883 C150.89114868 404.7366445 150.89114868 404.7366445 152.57421875 407.48828125 C152.69796875 408.49890625 152.82171875 409.50953125 152.94921875 410.55078125 C153.49789894 414.00746642 154.4051778 416.83635846 155.6875 420.0703125 C158.33630406 427.29326279 160.19334589 434.83209723 162.01171875 442.30078125 C163.21972323 447.24501816 164.61845175 452.11296701 166.07421875 456.98828125 C168.56287562 465.33526598 170.7902111 473.70985442 172.57421875 482.23828125 C173.35148945 485.83315822 174.51517863 489.12953996 175.859375 492.546875 C176.7656413 495.00815559 177.37485208 497.52097893 177.96484375 500.07421875 C179.09108703 504.53587482 180.50907931 508.92055076 181.8671875 513.31640625 C182.53122792 516.2954163 182.65872477 517.69757785 181.57421875 520.48828125 C179.13671875 519.73828125 179.13671875 519.73828125 176.57421875 518.48828125 C175.76171875 516.36328125 175.76171875 516.36328125 175.57421875 514.48828125 C174.91421875 514.48828125 174.25421875 514.48828125 173.57421875 514.48828125 C172.33759013 512.74416824 171.1831974 510.9412164 170.07421875 509.11328125 C167.63205368 505.05884978 167.63205368 505.05884978 164.57421875 501.48828125 C164.57421875 500.49828125 164.57421875 499.50828125 164.57421875 498.48828125 C163.91421875 498.48828125 163.25421875 498.48828125 162.57421875 498.48828125 C161.05078125 496.4609375 161.05078125 496.4609375 159.19921875 493.55078125 C155.8427886 488.38890673 152.387631 483.32195306 148.82421875 478.30078125 C148.31455566 477.58156494 147.80489258 476.86234863 147.27978516 476.12133789 C146.23320353 474.64518431 145.18616282 473.16935612 144.13867188 471.69384766 C141.61069609 468.12990677 139.09274287 464.55890449 136.57421875 460.98828125 C133.590496 456.7584697 130.60502883 452.5299668 127.609375 448.30859375 C121.73061149 440.01570049 115.95431812 431.66162693 110.2409668 423.25390625 C106.4401438 417.68682863 102.50085524 412.26879565 98.37890625 406.93359375 C96.6048764 404.52982171 95.10503954 402.050926 93.57421875 399.48828125 C92.74921875 398.49828125 91.92421875 397.50828125 91.07421875 396.48828125 C87.93459783 392.72073614 85.47723517 389.36456991 84.57421875 384.48828125 C83.91421875 384.48828125 83.25421875 384.48828125 82.57421875 384.48828125 C79.57421875 380.10366587 79.57421875 380.10366587 79.57421875 377.48828125 C78.91421875 377.48828125 78.25421875 377.48828125 77.57421875 377.48828125 C76.33759013 375.74416824 75.1831974 373.9412164 74.07421875 372.11328125 C71.63205368 368.05884978 71.63205368 368.05884978 68.57421875 364.48828125 C68.57421875 363.49828125 68.57421875 362.50828125 68.57421875 361.48828125 C67.91421875 361.48828125 67.25421875 361.48828125 66.57421875 361.48828125 C62.57421875 356.07651654 62.57421875 356.07651654 62.57421875 353.48828125 C61.91421875 353.48828125 61.25421875 353.48828125 60.57421875 353.48828125 C59.33759013 351.74416824 58.1831974 349.9412164 57.07421875 348.11328125 C54.63205368 344.05884978 54.63205368 344.05884978 51.57421875 340.48828125 C51.57421875 339.49828125 51.57421875 338.50828125 51.57421875 337.48828125 C50.58421875 337.15828125 49.59421875 336.82828125 48.57421875 336.48828125 C47.1015625 334.4765625 47.1015625 334.4765625 45.51171875 331.80078125 C42.74383847 327.30006836 39.8497713 322.95851251 36.76171875 318.67578125 C36.34108154 318.09207764 35.92044434 317.50837402 35.48706055 316.90698242 C34.6220836 315.70850463 33.75643623 314.51051043 32.89013672 313.31298828 C31.56022376 311.46887521 30.23953553 309.61850923 28.921875 307.765625 C28.48963623 307.15799316 28.05739746 306.55036133 27.61206055 305.92431641 C26.76292861 304.73021959 25.91412541 303.53588892 25.06567383 302.34130859 C22.32158035 298.49220734 19.49406891 294.72544263 16.53515625 291.0390625 C15.57421875 289.48828125 15.57421875 289.48828125 15.57421875 286.48828125 C14.91421875 286.48828125 14.25421875 286.48828125 13.57421875 286.48828125 C12.21340066 284.6414567 10.93489927 282.7335721 9.69921875 280.80078125 C7.67766209 277.65314836 5.71370002 274.65551398 3.31640625 271.78125 C1.57421875 269.48828125 1.57421875 269.48828125 1.57421875 266.48828125 C0.91421875 266.48828125 0.25421875 266.48828125 -0.42578125 266.48828125 C-1.9765625 264.546875 -1.9765625 264.546875 -3.73828125 261.92578125 C-4.35574219 261.01570313 -4.97320312 260.105625 -5.609375 259.16796875 C-6.20878906 258.28367187 -6.80820313 257.399375 -7.42578125 256.48828125 C-8.37976149 255.17261384 -9.33742436 253.85959848 -10.30078125 252.55078125 C-12.42578125 249.48828125 -12.42578125 249.48828125 -13.42578125 246.48828125 C-14.40983067 245.47258112 -15.41278823 244.47511717 -16.42578125 243.48828125 C-17.66595594 241.86630605 -18.8723409 240.21814898 -20.05078125 238.55078125 C-20.66179687 237.69613281 -21.2728125 236.84148437 -21.90234375 235.9609375 C-23.42578125 233.48828125 -23.42578125 233.48828125 -23.94921875 231.234375 C-24.10648437 230.65816406 -24.26375 230.08195313 -24.42578125 229.48828125 C-25.41578125 229.15828125 -26.40578125 228.82828125 -27.42578125 228.48828125 C-28.32250691 226.93625606 -29.20865989 225.37735965 -30.046875 223.79296875 C-32.49866805 219.69507102 -35.55658808 216.01054226 -38.5 212.2578125 C-40.18520796 209.83425784 -41.02139305 208.36012289 -41.42578125 205.48828125 C-42.08578125 205.48828125 -42.74578125 205.48828125 -43.42578125 205.48828125 C-44.94140625 203.36328125 -44.94140625 203.36328125 -46.67578125 200.48828125 C-48.89067635 196.89081071 -51.14062832 193.44491473 -53.73828125 190.11328125 C-55.8622946 187.36055994 -57.37678274 184.8450765 -58.42578125 181.48828125 C-59.08578125 181.48828125 -59.74578125 181.48828125 -60.42578125 181.48828125 C-61.49088125 179.86244615 -62.47773087 178.18503646 -63.42578125 176.48828125 C-64.60469015 174.56631841 -65.79235286 172.64970027 -66.98828125 170.73828125 C-67.58769531 169.7740625 -68.18710938 168.80984375 -68.8046875 167.81640625 C-70.21583676 165.39389358 -70.21583676 165.39389358 -72.42578125 164.48828125 C-74.43533805 161.55123669 -75.42578125 160.0960564 -75.42578125 156.48828125 C-73.55078125 154.30078125 -73.55078125 154.30078125 -71.42578125 152.48828125 C-70.76578125 152.48828125 -70.10578125 152.48828125 -69.42578125 152.48828125 C-69.17828125 151.93140625 -68.93078125 151.37453125 -68.67578125 150.80078125 C-66.58415421 146.93127123 -63.76272659 143.37018859 -60.42578125 140.48828125 C-59.76578125 140.48828125 -59.10578125 140.48828125 -58.42578125 140.48828125 C-58.15765625 139.905625 -57.88953125 139.32296875 -57.61328125 138.72265625 C-56.41097134 136.46041524 -55.08752212 134.68251807 -53.42578125 132.73828125 C-52.91015625 132.1246875 -52.39453125 131.51109375 -51.86328125 130.87890625 C-50.42578125 129.48828125 -50.42578125 129.48828125 -48.42578125 129.48828125 C-47.76578125 128.16828125 -47.10578125 126.84828125 -46.42578125 125.48828125 C-45.76578125 125.48828125 -45.10578125 125.48828125 -44.42578125 125.48828125 C-44.05453125 124.65296875 -44.05453125 124.65296875 -43.67578125 123.80078125 C-42.2097211 121.08856998 -40.39588654 118.8524076 -38.42578125 116.48828125 C-39.41578125 115.70453125 -40.40578125 114.92078125 -41.42578125 114.11328125 C-42.41578125 113.24703125 -43.40578125 112.38078125 -44.42578125 111.48828125 C-44.42578125 110.82828125 -44.42578125 110.16828125 -44.42578125 109.48828125 C-45.25335938 109.11703125 -45.25335938 109.11703125 -46.09765625 108.73828125 C-48.87714832 107.24593651 -51.20725195 105.45155602 -53.67578125 103.48828125 C-54.5678125 102.78703125 -55.45984375 102.08578125 -56.37890625 101.36328125 C-57.054375 100.74453125 -57.72984375 100.12578125 -58.42578125 99.48828125 C-58.42578125 98.82828125 -58.42578125 98.16828125 -58.42578125 97.48828125 C-59.08578125 97.48828125 -59.74578125 97.48828125 -60.42578125 97.48828125 C-60.42578125 96.82828125 -60.42578125 96.16828125 -60.42578125 95.48828125 C-61.00457031 95.21628906 -61.58335938 94.94429688 -62.1796875 94.6640625 C-68.03597852 91.59842146 -72.83984792 87.18886291 -77.42578125 82.48828125 C-80.96505271 79.27076174 -84.44189483 76.14420553 -88.42578125 73.48828125 C-88.42578125 72.82828125 -88.42578125 72.16828125 -88.42578125 71.48828125 C-82.94959077 66.48828125 -82.94959077 66.48828125 -80.42578125 66.48828125 C-80.0390625 65.59882813 -80.0390625 65.59882813 -79.64453125 64.69140625 C-78.3280823 62.3116716 -76.99997343 60.97849333 -74.92578125 59.23828125 C-74.31734375 58.7175 -73.70890625 58.19671875 -73.08203125 57.66015625 C-71.42578125 56.48828125 -71.42578125 56.48828125 -69.42578125 56.48828125 C-69.15765625 55.84890625 -68.88953125 55.20953125 -68.61328125 54.55078125 C-67.42578125 52.48828125 -67.42578125 52.48828125 -64.42578125 51.48828125 C-64.09578125 50.49828125 -63.76578125 49.50828125 -63.42578125 48.48828125 C-61.68359375 46.69921875 -61.68359375 46.69921875 -59.55078125 44.86328125 C-58.85210937 44.25226563 -58.1534375 43.64125 -57.43359375 43.01171875 C-55.42578125 41.48828125 -55.42578125 41.48828125 -52.42578125 40.48828125 C-51.74243201 39.16342049 -51.07775654 37.82885965 -50.42578125 36.48828125 C-48.7265625 34.8125 -48.7265625 34.8125 -46.73828125 33.17578125 C-43.22829829 30.2220251 -40.02081483 27.1062819 -36.87109375 23.7734375 C-35.42578125 22.48828125 -35.42578125 22.48828125 -33.42578125 22.48828125 C-33.42578125 21.82828125 -33.42578125 21.16828125 -33.42578125 20.48828125 C-31.96484375 18.98046875 -31.96484375 18.98046875 -30.05078125 17.36328125 C-29.42429688 16.82445313 -28.7978125 16.285625 -28.15234375 15.73046875 C-26.42578125 14.48828125 -26.42578125 14.48828125 -24.42578125 14.48828125 C-24.42578125 13.82828125 -24.42578125 13.16828125 -24.42578125 12.48828125 C-22.8515625 10.9375 -22.8515625 10.9375 -20.73828125 9.17578125 C-18.33274067 7.15983858 -16.38235686 5.4298499 -14.5 2.89697266 C-9.8791244 -0.72354503 -5.70667332 -0.13790735 0 0 Z " fill="#7839B7" transform="translate(134.42578125,54.51171875)"/>
<path d="M0 0 C2.18921261 3.28381892 2.25208398 4.23977093 2.26069641 8.0480957 C2.26778122 9.09123932 2.27486603 10.13438293 2.28216553 11.20913696 C2.27968811 12.35312958 2.27721069 13.49712219 2.2746582 14.67578125 C2.27976913 15.8808432 2.28488007 17.08590515 2.29014587 18.32748413 C2.30167564 21.63327021 2.30411375 24.93880582 2.30158257 28.24459457 C2.30051361 31.00318607 2.30539423 33.76175438 2.310188 36.52034092 C2.32128569 43.02692458 2.32171887 49.53345051 2.31567383 56.04003906 C2.30963029 62.75602783 2.32195393 69.4718073 2.3432439 76.18776035 C2.36084525 81.9517402 2.36686366 87.71565334 2.36360615 93.47965908 C2.36179108 96.92323433 2.36445176 100.36666022 2.37832069 103.81021118 C2.3932002 107.64829771 2.38394176 111.48611642 2.37231445 115.32421875 C2.37995819 116.46821136 2.38760193 117.61220398 2.39547729 118.79086304 C2.38846298 119.83400665 2.38144867 120.87715027 2.3742218 121.9519043 C2.37438954 122.8596611 2.37455729 123.76741791 2.37473011 124.7026825 C2 127 2 127 0.66020489 128.80769348 C-1 130 -1 130 -3.9375 130.125 C-9.87258119 128.99570337 -14.93694298 125.10959408 -20 122 C-21.49410943 121.15615082 -22.99358531 120.32168074 -24.5 119.5 C-27.88566657 117.63455223 -31.22854211 115.70640059 -34.5625 113.75 C-39.34628641 110.9467621 -44.16280788 108.20942357 -49 105.5 C-55.70866673 101.73875533 -62.40124324 97.95200267 -69 94 C-69.98277924 93.56701096 -69.98277924 93.56701096 -70.9854126 93.12527466 C-74.28054683 91.49623181 -76.55735684 90.29144338 -77.78637695 86.70568848 C-78.12838965 83.79189539 -78.21357007 80.97305848 -78.203125 78.0390625 C-78.2202655 76.97513275 -78.23740601 75.911203 -78.25506592 74.81503296 C-78.27800626 72.56755948 -78.28006312 70.31978907 -78.26269531 68.07226562 C-78.25005286 64.63935311 -78.34378598 61.2202647 -78.4453125 57.7890625 C-78.62816766 41.88621107 -78.62816766 41.88621107 -74.41821289 37.0090332 C-71.30100731 35.18896807 -68.43385911 34.07701654 -65 33 C-63.28541803 32.0253382 -61.5919214 31.01111389 -59.9375 29.9375 C-55.67668236 27.37017109 -51.33631728 24.98258889 -46.9609375 22.6171875 C-36.75016295 17.04032647 -26.73507633 11.10913528 -16.71484375 5.19921875 C-16.07119873 4.82152344 -15.42755371 4.44382812 -14.7644043 4.0546875 C-13.24462622 3.14622738 -11.75211114 2.19243764 -10.265625 1.23046875 C-6.61677256 -0.75123559 -4.10079036 -0.40335643 0 0 Z " fill="#773AB8" transform="translate(436,72)"/>
<path d="M0 0 C1.45823212 -0.0270043 2.91660675 -0.04639787 4.375 -0.0625 C5.18710938 -0.07410156 5.99921875 -0.08570312 6.8359375 -0.09765625 C9 0 9 0 11 1 C11 1.66 11 2.32 11 3 C11.58394531 3.13019531 12.16789063 3.26039062 12.76953125 3.39453125 C18.09221926 4.83939402 22.74702253 7.76132593 27.25 10.875 C30.71189789 13.25057821 34.22199834 15.16853219 38 17 C41.54898613 18.72341254 44.84344938 20.47170572 48.0625 22.75 C53.45918953 26.51374288 59.32763571 29.40564677 65.17407227 32.39746094 C65.96612061 32.80512695 66.75816895 33.21279297 67.57421875 33.6328125 C68.28151123 33.99262207 68.98880371 34.35243164 69.7175293 34.72314453 C70.47074463 35.14450684 71.22395996 35.56586914 72 36 C73.06992187 36.50063965 74.13984375 37.0012793 75.2421875 37.51708984 C78.30529019 40.27485847 78.42342345 40.64560657 78.6652832 44.52148438 C78.65757996 46.37928238 78.61735452 48.23712921 78.55078125 50.09375 C78.53991989 51.07742554 78.52905853 52.06110107 78.51786804 53.07458496 C78.47768145 56.21758463 78.39637612 59.35789018 78.3125 62.5 C78.25506725 65.64173958 78.2060037 68.7834789 78.16069031 71.92541504 C78.12960459 73.87992345 78.08987909 75.83431772 78.04060364 77.78845215 C78.01144112 79.12003357 78.01144112 79.12003357 77.98168945 80.47851562 C77.96137161 81.25698853 77.94105377 82.03546143 77.92012024 82.83752441 C78.00100023 85.02707785 78.39034445 86.9011424 79 89 C77.64068359 89.65355469 77.64068359 89.65355469 76.25390625 90.3203125 C70.018414 93.35479283 64.08116778 96.44453238 58.37890625 100.4140625 C51.87800251 104.74799832 44.89000012 108.38639068 38.0703125 112.1953125 C36.73421847 112.94242847 35.39828175 113.68982583 34.0625 114.4375 C33.40145264 114.8072998 32.74040527 115.17709961 32.05932617 115.55810547 C26.59944831 118.62816685 21.22076871 121.82346583 15.87133789 125.08178711 C6.60958251 130.70916654 6.60958251 130.70916654 2 130 C-0.8491696 127.02245864 -1.37411547 124.93146088 -1.36749268 120.86961365 C-1.37306183 119.83350952 -1.37863098 118.7974054 -1.3843689 117.72990417 C-1.37515411 116.59885757 -1.36593933 115.46781097 -1.35644531 114.30249023 C-1.35848969 113.10703583 -1.36053406 111.91158142 -1.36264038 110.67990112 C-1.36513267 107.40510362 -1.35424932 104.1306841 -1.33711338 100.85594058 C-1.32206697 97.42871292 -1.32325117 94.00148917 -1.32244873 90.57423401 C-1.3187576 84.82002393 -1.30379743 79.06593324 -1.28125 73.31176758 C-1.25236339 65.92475353 -1.24202508 58.53783554 -1.2375679 51.15077114 C-1.23358817 44.80026551 -1.22108741 38.44978078 -1.20722103 32.09929013 C-1.20312288 30.05753645 -1.20019685 28.01578351 -1.19742584 25.97402763 C-1.19057357 22.17201808 -1.1769462 18.37009674 -1.16113281 14.56811523 C-1.16001495 13.4350444 -1.15889709 12.30197357 -1.15774536 11.13456726 C-1.15203522 10.10128296 -1.14632507 9.06799866 -1.14044189 8.00340271 C-1.13746723 7.10431907 -1.13449257 6.20523542 -1.13142776 5.27890682 C-1 3 -1 3 0 0 Z " fill="#9C2AB5" transform="translate(203,72)"/>
<path d="M0 0 C1.31138443 -0.00307663 2.62276886 -0.00615326 3.97389221 -0.00932312 C5.40178605 -0.00242547 6.82967814 0.00484149 8.25756836 0.01245117 C9.72440043 0.01364378 11.19123327 0.01409596 12.6580658 0.01383972 C15.72879839 0.01540226 18.79941401 0.0236749 21.87011719 0.03710938 C25.80670087 0.05411384 29.74315627 0.05792313 33.67977238 0.05716419 C36.70720138 0.05743605 39.73460234 0.06291952 42.76202202 0.07016563 C44.21369655 0.0733479 45.66537425 0.07531868 47.11705208 0.07605934 C49.14445259 0.0782267 51.17184119 0.08776934 53.19921875 0.09765625 C54.35297501 0.10146805 55.50673126 0.10527985 56.69544983 0.10920715 C59.53491211 0.24291992 59.53491211 0.24291992 62.53491211 1.24291992 C62.55958543 7.0453256 62.57775935 12.8477009 62.58984375 18.65014648 C62.59488021 20.62508679 62.60170962 22.60002335 62.61035156 24.57495117 C62.62244719 27.40959597 62.62814721 30.24419158 62.63256836 33.07885742 C62.63772964 33.9653598 62.64289093 34.85186218 62.64820862 35.76522827 C62.64878382 42.01517651 62.64878382 42.01517651 61.53491211 44.24291992 C58.26578067 45.3326304 55.8400756 45.3829824 52.39868164 45.40405273 C51.13371857 45.41366028 49.86875549 45.42326782 48.56546021 45.4331665 C47.18288351 45.43801442 45.80030472 45.44229327 44.41772461 45.44604492 C42.99909463 45.45179883 41.58046467 45.45755653 40.16183472 45.46331787 C37.18772012 45.47381881 34.21363248 45.47966745 31.23950195 45.4831543 C27.43411921 45.48863814 23.62909444 45.51266724 19.82382393 45.54112625 C16.89324918 45.55977707 13.96276027 45.56495951 11.0321312 45.56649017 C9.62953611 45.56951157 8.22694235 45.57752284 6.82440567 45.59067535 C4.85965336 45.60778546 2.89475298 45.60400362 0.92993164 45.59936523 C-0.74527054 45.60483368 -0.74527054 45.60483368 -2.45431519 45.6104126 C-5.89459363 45.19049477 -7.77488863 44.42010721 -10.46508789 42.24291992 C-11.06636047 40.36360168 -11.06636047 40.36360168 -11.03271484 38.23046875 C-11.03233719 37.42986526 -11.03195953 36.62926178 -11.03157043 35.80439758 C-10.99286079 34.51519661 -10.99286079 34.51519661 -10.95336914 33.19995117 C-10.9462944 32.31635422 -10.93921967 31.43275726 -10.93193054 30.52238464 C-10.90393316 27.69920301 -10.84118659 24.87800233 -10.77758789 22.05541992 C-10.75251185 20.1420371 -10.72969747 18.2286232 -10.70922852 16.31518555 C-10.65408912 11.62366665 -10.56778109 6.93362915 -10.46508789 2.24291992 C-6.93869564 0.06685427 -4.09994302 -0.0050604 0 0 Z " fill="#8A31B5" transform="translate(293.465087890625,113.757080078125)"/>
<path d="M0 0 C0.7734375 0.7115625 0.7734375 0.7115625 1.5625 1.4375 C1.5625 2.0975 1.5625 2.7575 1.5625 3.4375 C2.2225 3.4375 2.8825 3.4375 3.5625 3.4375 C6.60935437 10.54682687 7.80262923 16.12134594 5.4375 23.625 C3.17611368 29.01428515 -0.7709334 31.54249201 -5.8125 34.25 C-12.24569229 36.35742506 -16.52356919 36.11706012 -22.625 33.4375 C-27.58214201 30.71488508 -30.45653714 27.76018059 -32.4375 22.4375 C-33.9623275 15.86041072 -33.86966137 10.54121955 -30.36328125 4.625 C-27.45967357 0.22837008 -24.62688999 -2.35273138 -19.625 -4.25 C-11.88909818 -5.35512883 -6.65110129 -4.26352647 0 0 Z " fill="#4151BC" transform="translate(331.4375,312.5625)"/>
<path d="M0 0 C4.1646279 3.12347092 5.73859616 7.08052502 7 12 C7.9314785 19.21895836 5.56638823 23.7842948 2 30 C1.34 30 0.68 30 0 30 C0 30.66 0 31.32 0 32 C-6.86764558 35.40459877 -12.45720162 37.10754661 -20 35 C-25.11273212 32.85794154 -28.85769983 29.97981369 -31.31640625 24.953125 C-33.49070603 18.74083992 -33.4979904 13.13143099 -31 7 C-28.20496588 1.25195156 -24.63096217 -1.32947372 -18.62109375 -3.41015625 C-11.91574342 -4.9191099 -5.94643322 -3.1481117 0 0 Z " fill="#6A3FB8" transform="translate(331,200)"/>
<path d="M0 0 C5.42410909 3.36006757 8.20274086 8.04572257 10.1875 14 C10.72475034 20.33955403 9.87309728 24.73647116 6.1875 30 C2.6923068 33.60470317 -1.07212709 36.89869774 -6.16796875 37.1953125 C-7.43253906 37.17210937 -8.69710938 37.14890625 -10 37.125 C-11.27230469 37.10695313 -12.54460937 37.08890625 -13.85546875 37.0703125 C-14.83128906 37.04710937 -15.80710937 37.02390625 -16.8125 37 C-16.8125 36.34 -16.8125 35.68 -16.8125 35 C-17.534375 34.938125 -18.25625 34.87625 -19 34.8125 C-22.87270683 33.69371803 -24.31080905 32.16003068 -26.8125 29 C-29.96764835 22.84746072 -30.72462459 16.6709515 -28.8125 10 C-26.16955559 4.70499757 -22.47555834 0.94973716 -17.01171875 -1.37109375 C-10.95755831 -3.10239007 -5.66628223 -2.77666654 0 0 Z " fill="#205EBF" transform="translate(327.8125,422)"/>
</svg>
