<?xml version="1.0" encoding="UTF-8"?>
<svg version="1.1" xmlns="http://www.w3.org/2000/svg" width="500" height="500">
<path d="M0 0 C4.79917262 -0.06128041 9.5921454 -0.01073573 14.390625 0.078125 C15.64617187 0.09488281 16.90171875 0.11164063 18.1953125 0.12890625 C25.8015652 0.42017413 32.92444347 1.67667853 40.328125 3.390625 C41.20452637 3.59131592 42.08092773 3.79200684 42.98388672 3.9987793 C47.84541765 5.19584201 52.11176662 6.73785206 56.52636719 9.09814453 C58.28414969 10.02215435 60.11281055 10.80754352 61.94140625 11.58203125 C65.63679459 13.18490071 69.08703476 15.01690921 72.578125 17.015625 C73.18076172 17.35013672 73.78339844 17.68464844 74.40429688 18.02929688 C77.91028573 20.02667143 80.6347378 22.14646368 83.390625 25.078125 C85.52371692 26.31324579 85.52371692 26.31324579 87.390625 27.078125 C87.390625 27.738125 87.390625 28.398125 87.390625 29.078125 C88.1125 29.305 88.834375 29.531875 89.578125 29.765625 C92.98580476 31.35587555 94.77852626 33.36894065 97.390625 36.078125 C98.34676391 37.05222492 99.30399614 38.02525265 100.26220703 38.99731445 C100.76688507 39.51167557 101.27156311 40.02603668 101.79153442 40.5559845 C104.08832796 42.89354061 106.39365661 45.22260959 108.69921875 47.55151367 C109.90216961 48.76950141 111.10240799 49.99017462 112.29980469 51.21362305 C128.00685685 67.25205676 144.67263813 80.10488434 168.078125 80.578125 C186.63205859 80.48031829 202.75551645 72.47367823 216.390625 60.078125 C216.92429687 59.35109375 217.45796875 58.6240625 218.0078125 57.875 C218.46414063 57.28203125 218.92046875 56.6890625 219.390625 56.078125 C220.050625 56.078125 220.710625 56.078125 221.390625 56.078125 C221.65875 55.315 221.926875 54.551875 222.203125 53.765625 C223.35033229 51.16931377 224.33709168 49.9530902 226.390625 48.078125 C226.720625 47.418125 227.050625 46.758125 227.390625 46.078125 C228.710625 46.078125 230.030625 46.078125 231.390625 46.078125 C230.6740197 48.46680932 229.95649998 50.85516325 229.234375 53.2421875 C228.71679123 54.98184407 228.21338578 56.72589216 227.734375 58.4765625 C222.60549495 76.85504934 213.30803318 93.91300916 199.390625 107.078125 C198.545 107.92375 197.699375 108.769375 196.828125 109.640625 C195.6215625 110.8471875 195.6215625 110.8471875 194.390625 112.078125 C193.689375 112.84125 192.988125 113.604375 192.265625 114.390625 C190.390625 116.078125 190.390625 116.078125 187.390625 116.078125 C187.060625 117.068125 186.730625 118.058125 186.390625 119.078125 C167.05495825 132.93152291 144.0128802 136.9710351 120.78295898 136.78491211 C117.59006582 136.76569686 114.40155412 136.80525111 111.20898438 136.84960938 C82.01937431 136.96909236 56.77848773 127.62154493 34.390625 109.078125 C33.72869141 108.54106934 33.06675781 108.00401367 32.38476562 107.45068359 C31.74216797 106.91910645 31.09957031 106.3875293 30.4375 105.83984375 C29.85323242 105.35862061 29.26896484 104.87739746 28.66699219 104.3815918 C27.390625 103.078125 27.390625 103.078125 27.390625 101.078125 C26.83503906 100.84923584 26.27945313 100.62034668 25.70703125 100.38452148 C22.73963315 98.71098152 20.71421673 96.60777625 18.328125 94.17578125 C17.8549585 93.69741318 17.38179199 93.2190451 16.89428711 92.72618103 C15.38821086 91.20235939 13.88900706 89.67201001 12.390625 88.140625 C10.89140289 86.61368415 9.39070852 85.08826728 7.88696289 83.56578064 C6.5215782 82.18262537 5.16104827 80.7946827 3.80078125 79.40649414 C1.49817267 77.07525377 1.49817267 77.07525377 -0.92578125 75.38842773 C-1.48136719 74.95602783 -2.03695312 74.52362793 -2.609375 74.078125 C-2.609375 73.418125 -2.609375 72.758125 -2.609375 72.078125 C-3.34285156 71.81644531 -4.07632813 71.55476563 -4.83203125 71.28515625 C-7.64407531 70.06304428 -9.63931954 68.64744045 -12.046875 66.765625 C-24.86416534 57.54718345 -40.2833686 55.71398401 -55.609375 57.078125 C-75.78083022 60.44760452 -91.86810591 73.03147366 -103.9375 89.09375 C-104.76507813 90.07601562 -104.76507813 90.07601562 -105.609375 91.078125 C-106.269375 91.078125 -106.929375 91.078125 -107.609375 91.078125 C-107.89335935 85.6185259 -106.98682125 81.21494829 -105.109375 76.140625 C-104.84527832 75.41061279 -104.58118164 74.68060059 -104.30908203 73.9284668 C-100.51405388 63.76141816 -95.72778437 54.04745278 -89.609375 45.078125 C-88.91508121 43.7589668 -88.23407005 42.43163094 -87.609375 41.078125 C-86.949375 41.078125 -86.289375 41.078125 -85.609375 41.078125 C-85.34253906 40.49546875 -85.07570313 39.9128125 -84.80078125 39.3125 C-80.3935344 31.04710592 -71.4624013 22.15338677 -62.609375 19.078125 C-62.609375 18.418125 -62.609375 17.758125 -62.609375 17.078125 C-61.74183594 16.65144531 -60.87429687 16.22476562 -59.98046875 15.78515625 C-57.88609489 14.72462163 -55.81073297 13.62442602 -53.76953125 12.46484375 C-37.01807534 3.27583578 -18.87438065 0.32568775 0 0 Z " fill="#1AB6B9" transform="translate(132.609375,248.921875)"/>
<path d="M0 0 C3.14209809 0.02681179 6.28061635 0.00008555 9.42260742 -0.03173828 C32.81363166 -0.07244338 53.64896092 5.55967762 73.7097168 17.65185547 C73.7097168 18.31185547 73.7097168 18.97185547 73.7097168 19.65185547 C74.44319336 19.91353516 75.17666992 20.17521484 75.93237305 20.44482422 C78.74787554 21.66843923 80.76202955 23.04685199 83.1472168 24.96435547 C83.91807617 25.58310547 84.68893555 26.20185547 85.4831543 26.83935547 C86.58530273 27.73654297 86.58530273 27.73654297 87.7097168 28.65185547 C88.34135742 29.14685547 88.97299805 29.64185547 89.6237793 30.15185547 C91.02674012 31.26890484 92.37503111 32.45406062 93.7097168 33.65185547 C93.7097168 34.31185547 93.7097168 34.97185547 93.7097168 35.65185547 C94.5140918 35.99216797 94.5140918 35.99216797 95.3347168 36.33935547 C99.85439157 38.83707048 103.32241896 42.08195727 106.5847168 46.02685547 C109.38694374 49.4101216 112.50327176 52.19908859 115.84643555 55.03857422 C117.7097168 56.65185547 117.7097168 56.65185547 120.0847168 59.08935547 C124.0355982 62.94616827 128.32235493 66.30683268 132.7097168 69.65185547 C133.31299805 70.13009766 133.9162793 70.60833984 134.5378418 71.10107422 C146.35618748 79.53894715 162.6513872 81.39127096 176.7097168 79.65185547 C196.92486127 76.04639114 212.87479333 63.8231446 225.0378418 47.63623047 C225.58956055 46.98138672 226.1412793 46.32654297 226.7097168 45.65185547 C227.3697168 45.65185547 228.0297168 45.65185547 228.7097168 45.65185547 C228.99370115 51.11145457 228.08716304 55.51503218 226.2097168 60.58935547 C225.94562012 61.31936768 225.68152344 62.04937988 225.40942383 62.80151367 C221.62026861 72.95282847 216.85647002 82.71873357 210.7097168 91.65185547 C209.76032227 93.13685547 209.76032227 93.13685547 208.79174805 94.65185547 C206.54952504 97.88267586 204.07024205 100.77960717 201.3972168 103.65185547 C200.9115625 104.17658447 200.4259082 104.70131348 199.92553711 105.24194336 C192.42108256 113.25874522 184.11015044 119.75078927 174.2722168 124.65185547 C173.58699951 124.99361816 172.90178223 125.33538086 172.19580078 125.6875 C164.93953031 129.19200988 157.47105409 131.54679596 149.7097168 133.65185547 C148.88084961 133.88646484 148.05198242 134.12107422 147.19799805 134.36279297 C133.57298985 137.83830338 118.65286903 136.88252264 104.7097168 136.65185547 C102.81866211 136.62671875 102.81866211 136.62671875 100.8894043 136.60107422 C93.83133406 136.30907368 87.17814635 134.9993335 80.3347168 133.33935547 C79.08537354 133.03831909 79.08537354 133.03831909 77.81079102 132.73120117 C73.07973543 131.50791381 68.903157 129.92413182 64.58935547 127.63183594 C62.82433017 126.71161103 60.99182337 125.92425484 59.15893555 125.14794922 C55.46354721 123.54507976 52.01330704 121.71307125 48.5222168 119.71435547 C47.91958008 119.37984375 47.31694336 119.04533203 46.69604492 118.70068359 C43.19123953 116.70398326 40.46410542 114.58394658 37.7097168 111.65185547 C36.7506543 111.18779297 36.7506543 111.18779297 35.7722168 110.71435547 C32.86771519 109.21809706 31.0042255 106.97277578 28.7097168 104.65185547 C26.8823725 102.97862455 25.04840828 101.31260907 23.2097168 99.65185547 C18.89280674 95.73639951 14.74393466 91.69577437 10.68237305 87.51513672 C-5.65317693 70.71336743 -21.8365891 56.62667931 -46.4152832 56.21435547 C-66.25674384 56.0821877 -81.87095091 64.76365491 -95.9777832 78.21435547 C-98.35520216 80.6406391 -98.35520216 80.6406391 -100.4777832 83.46435547 C-101.3749707 84.54716797 -101.3749707 84.54716797 -102.2902832 85.65185547 C-102.9502832 85.65185547 -103.6102832 85.65185547 -104.2902832 85.65185547 C-104.9502832 87.30185547 -105.6102832 88.95185547 -106.2902832 90.65185547 C-107.2802832 90.65185547 -108.2702832 90.65185547 -109.2902832 90.65185547 C-107.6431992 72.94570242 -98.79093982 54.80261439 -88.2902832 40.65185547 C-87.6302832 40.65185547 -86.9702832 40.65185547 -86.2902832 40.65185547 C-86.2284082 40.11560547 -86.1665332 39.57935547 -86.1027832 39.02685547 C-84.09203958 33.14929719 -78.75878059 29.15924139 -74.1574707 25.26513672 C-72.27602537 23.70432954 -72.27602537 23.70432954 -70.7355957 21.94482422 C-69.2902832 20.65185547 -69.2902832 20.65185547 -66.2902832 20.65185547 C-66.2902832 19.99185547 -66.2902832 19.33185547 -66.2902832 18.65185547 C-46.64657617 4.29927597 -23.88542574 -0.24143576 0 0 Z " fill="#17BAB8" transform="translate(246.290283203125,114.34814453125)"/>
<path d="M0 0 C1.32 0 2.64 0 4 0 C3.2833947 2.38868432 2.56587498 4.77703825 1.84375 7.1640625 C1.32616623 8.90371907 0.82276078 10.64776716 0.34375 12.3984375 C-2.44587322 22.39458739 -6.53298766 32.16867238 -12 41 C-12.33 41 -12.66 41 -13 41 C-13 38.36 -13 35.72 -13 33 C-14.65 32.34 -16.3 31.68 -18 31 C-18 28 -18 28 -17 26 C-19.89057007 26.4282326 -21.12872814 27.10562309 -23.4375 29 C-26.22723331 31.17735283 -27.57864837 31.44303578 -31 32 C-32.42641769 32.44930804 -33.84292702 32.9308534 -35.25 33.4375 C-35.93578125 33.68371094 -36.6215625 33.92992187 -37.328125 34.18359375 C-39.19620553 34.88617359 -39.19620553 34.88617359 -40 37 C-44.53542964 36.93056646 -49.0699856 36.84234047 -53.60473633 36.73754883 C-55.14369926 36.70453079 -56.68277656 36.67642878 -58.22192383 36.65356445 C-68.73861561 36.49313456 -77.9574249 36.12561539 -87 30 C-85 29 -85 29 -82.35546875 29.7421875 C-81.31003906 30.11601562 -80.26460938 30.48984375 -79.1875 30.875 C-63.96188636 36.28434845 -47.81261357 35.35724959 -33 29 C-24.83635722 25.00297059 -14.84446327 19.23738475 -9.3828125 11.796875 C-8.92648437 11.20390625 -8.47015625 10.6109375 -8 10 C-7.34 10 -6.68 10 -6 10 C-5.731875 9.236875 -5.46375 8.47375 -5.1875 7.6875 C-4.04029271 5.09118877 -3.05353332 3.8749652 -1 2 C-0.67 1.34 -0.34 0.68 0 0 Z " fill="#13C8B7" transform="translate(360,295)"/>
<path d="M0 0 C0.495 2.97 0.495 2.97 1 6 C-0.98 6.99 -0.98 6.99 -3 8 C-3 7.34 -3 6.68 -3 6 C-3.66 6 -4.32 6 -5 6 C-5.33 6.99 -5.66 7.98 -6 9 C-6.66 9 -7.32 9 -8 9 C-8.0825 9.7425 -8.165 10.485 -8.25 11.25 C-9.14809799 14.54302595 -10.38416074 15.85976788 -13 18 C-13.66 18 -14.32 18 -15 18 C-15.33 18.99 -15.66 19.98 -16 21 C-16.66 21.33 -17.32 21.66 -18 22 C-18.62599243 25.38035912 -19 28.56169885 -19 32 C-20.98 32.495 -20.98 32.495 -23 33 C-23 33.763125 -23 34.52625 -23 35.3125 C-23 37.20833333 -23 39.10416667 -23 41 C-22.67 41.33 -22.34 41.66 -22 42 C-21.67 41.01 -21.34 40.02 -21 39 C-19.515 38.505 -19.515 38.505 -18 38 C-17.67 38.99 -17.34 39.98 -17 41 C-15.6078125 40.7215625 -15.6078125 40.7215625 -14.1875 40.4375 C-11 40 -11 40 -8 41 C-9.28970703 41.83337891 -9.28970703 41.83337891 -10.60546875 42.68359375 C-13.99954802 44.95128846 -17.18557732 47.4412435 -20.3125 50.0625 C-20.87428955 50.53276611 -21.4360791 51.00303223 -22.01489258 51.48754883 C-26.74451089 55.55875786 -30.53193015 59.99133591 -34.29296875 64.98046875 C-34.85628906 65.64691406 -35.41960938 66.31335938 -36 67 C-36.66 67 -37.32 67 -38 67 C-38.28398435 61.5404009 -37.37744625 57.13682329 -35.5 52.0625 C-35.23590332 51.33248779 -34.97180664 50.60247559 -34.69970703 49.8503418 C-30.90467888 39.68329316 -26.11840937 29.96932778 -20 21 C-19.30570621 19.6808418 -18.62469505 18.35350594 -18 17 C-17.34 17 -16.68 17 -16 17 C-15.73832031 16.42121094 -15.47664063 15.84242188 -15.20703125 15.24609375 C-12.84788514 10.85609694 -5.29689262 0 0 0 Z " fill="#24A2BA" transform="translate(63,273)"/>
<path d="M0 0 C4.79917262 -0.06128041 9.5921454 -0.01073573 14.390625 0.078125 C15.64617187 0.09488281 16.90171875 0.11164063 18.1953125 0.12890625 C25.8015652 0.42017413 32.92444347 1.67667853 40.328125 3.390625 C41.20452637 3.59131592 42.08092773 3.79200684 42.98388672 3.9987793 C47.86267307 5.20009084 52.17847478 6.7382449 56.60375977 9.12670898 C59.45030248 10.64235005 62.41532299 11.83841583 65.390625 13.078125 C61.98130603 14.21456466 61.38727044 13.94560264 58.203125 12.640625 C57.48769531 12.35316406 56.77226562 12.06570313 56.03515625 11.76953125 C55.49246094 11.54136719 54.94976562 11.31320312 54.390625 11.078125 C54.060625 11.738125 53.730625 12.398125 53.390625 13.078125 C51.90856005 12.823629 50.42993885 12.54900738 48.953125 12.265625 C48.12941406 12.11480469 47.30570312 11.96398437 46.45703125 11.80859375 C45.43416016 11.44701172 45.43416016 11.44701172 44.390625 11.078125 C43.895625 9.593125 43.895625 9.593125 43.390625 8.078125 C42.400625 7.748125 41.410625 7.418125 40.390625 7.078125 C40.390625 6.418125 40.390625 5.758125 40.390625 5.078125 C39.08738281 5.11292969 39.08738281 5.11292969 37.7578125 5.1484375 C36.60539062 5.16648438 35.45296875 5.18453125 34.265625 5.203125 C32.56019531 5.23792969 32.56019531 5.23792969 30.8203125 5.2734375 C27.390625 5.078125 27.390625 5.078125 24.7121582 4.0847168 C20.64502537 2.85217077 17.03866615 2.77233927 12.81640625 2.77734375 C12.01075729 2.77305862 11.20510834 2.7687735 10.37504578 2.76435852 C8.68159929 2.75864168 6.98812827 2.75809534 5.29467773 2.76245117 C2.70058829 2.76562811 0.10762198 2.74206183 -2.48632812 2.71679688 C-4.13541523 2.71452534 -5.7845054 2.71381971 -7.43359375 2.71484375 C-8.2086174 2.705634 -8.98364105 2.69642426 -9.78215027 2.68693542 C-13.93364466 2.64926006 -13.93364466 2.64926006 -17.46704102 4.57104492 C-18.03249634 5.31704956 -18.03249634 5.31704956 -18.609375 6.078125 C-21.0625 6.5546875 -21.0625 6.5546875 -23.859375 6.703125 C-28.16244128 6.98313861 -32.35005009 7.41556335 -36.609375 8.078125 C-37.43575876 10.97046815 -37.609375 12.96554931 -37.609375 16.078125 C-37.939375 15.418125 -38.269375 14.758125 -38.609375 14.078125 C-39.269375 13.748125 -39.929375 13.418125 -40.609375 13.078125 C-40.939375 12.418125 -41.269375 11.758125 -41.609375 11.078125 C-41.609375 12.068125 -41.609375 13.058125 -41.609375 14.078125 C-42.228125 14.34625 -42.846875 14.614375 -43.484375 14.890625 C-45.9088983 16.03369348 -45.9088983 16.03369348 -47.609375 19.078125 C-49.51953125 19.51953125 -49.51953125 19.51953125 -51.671875 19.640625 C-52.97125 19.785 -54.270625 19.929375 -55.609375 20.078125 C-55.939375 20.738125 -56.269375 21.398125 -56.609375 22.078125 C-59.25797927 22.67168114 -61.90134822 22.82021769 -64.609375 23.078125 C-63.984375 20.265625 -63.984375 20.265625 -62.609375 17.078125 C-60.64979909 16.00106313 -58.64160968 15.01087481 -56.609375 14.078125 C-55.67222656 13.54574219 -54.73507813 13.01335937 -53.76953125 12.46484375 C-37.01807534 3.27583578 -18.87438065 0.32568775 0 0 Z " fill="#1FA4BA" transform="translate(132.609375,248.921875)"/>
<path d="M0 0 C0.66 0 1.32 0 2 0 C2.28398435 5.4595991 1.37744625 9.86317671 -0.5 14.9375 C-0.76409668 15.66751221 -1.02819336 16.39752441 -1.30029297 17.1496582 C-5.09033071 27.30333732 -9.85771147 37.06111857 -16 46 C-16.639375 47.010625 -17.27875 48.02125 -17.9375 49.0625 C-20.04262885 52.06071382 -22.34131709 54.48902169 -25 57 C-25 54.69 -25 52.38 -25 50 C-24.01 50 -23.02 50 -22 50 C-21.67 49.34 -21.34 48.68 -21 48 C-20.34 48 -19.68 48 -19 48 C-18.855625 46.989375 -18.71125 45.97875 -18.5625 44.9375 C-18.2840625 42.9884375 -18.2840625 42.9884375 -18 41 C-17.9071875 39.1746875 -17.9071875 39.1746875 -17.8125 37.3125 C-16.73253588 32.90956937 -14.67064917 32.42106647 -11 30 C-10.49830585 26.83073436 -10.49830585 26.83073436 -11 24 C-10.01 24 -9.02 24 -8 24 C-8.495 21.525 -8.495 21.525 -9 19 C-9.66 19 -10.32 19 -11 19 C-10.67 19.99 -10.34 20.98 -10 22 C-13.91493776 25.91493776 -13.91493776 25.91493776 -17.04296875 26.16015625 C-17.75066406 26.12792969 -18.45835937 26.09570312 -19.1875 26.0625 C-21.0746875 26.0315625 -21.0746875 26.0315625 -23 26 C-23.66 26.99 -24.32 27.98 -25 29 C-26.9453125 29.51171875 -26.9453125 29.51171875 -29.125 29.6875 C-30.40375 29.790625 -31.6825 29.89375 -33 30 C-30.93067643 27.79272153 -29.30988627 26.59104372 -26.625 25 C-16.77634169 18.94207758 -8.63754544 11.21307048 -1.70703125 2.01953125 C-1.14371094 1.35308594 -0.58039063 0.68664062 0 0 Z " fill="#1DCBB3" transform="translate(473,160)"/>
<path d="M0 0 C0.66 0.33 1.32 0.66 2 1 C1.319375 1.86625 0.63875 2.7325 -0.0625 3.625 C-2.38418226 6.79969771 -2.38418226 6.79969771 -1.375 9.9375 C-1 13 -1 13 -2.18359375 14.93359375 C-3.71473681 16.75848128 -5.18944548 18.45071537 -7 20 C-7.66 20 -8.32 20 -9 20 C-8.67 20.598125 -8.34 21.19625 -8 21.8125 C-7 24 -7 24 -7 27 C-3.7 27 -0.4 27 3 27 C-2.51706037 33.77093772 -2.51706037 33.77093772 -4.9765625 34.9375 C-7.66043993 36.34679471 -8.86245611 38.17917919 -10.625 40.625 C-11.70354973 42.11801426 -12.81916951 43.58649355 -14 45 C-14.66 45 -15.32 45 -16 45 C-16.99 47.475 -16.99 47.475 -18 50 C-18.99 50 -19.98 50 -21 50 C-19.27977833 31.50761709 -9.87907309 15.23142393 0 0 Z " fill="#48B5C5" transform="translate(158,155)"/>
<path d="M0 0 C-17.21252053 10.43856083 -37.06410854 13.02034428 -56.83398438 12.78222656 C-60.00044826 12.74999544 -63.16181162 12.78217593 -66.328125 12.8203125 C-80.55996257 12.84726465 -94.64348516 11.26879494 -108 6 C-108.66 5.34 -109.32 4.68 -110 4 C-104.39 4.66 -98.78 5.32 -93 6 C-92.67 6.99 -92.34 7.98 -92 9 C-85.05829978 9.05058729 -78.11664685 9.08568579 -71.17480469 9.10986328 C-68.81183089 9.11993924 -66.44886961 9.13360029 -64.0859375 9.15087891 C-60.69528112 9.17505724 -57.30478916 9.18646699 -53.9140625 9.1953125 C-52.85256989 9.20563507 -51.79107727 9.21595764 -50.69741821 9.22659302 C-49.71655243 9.22674408 -48.73568665 9.22689514 -47.72509766 9.22705078 C-46.42603989 9.23371262 -46.42603989 9.23371262 -45.10073853 9.24050903 C-42.78084656 9.19557184 -42.78084656 9.19557184 -41 7 C-38.03125 6.83984375 -38.03125 6.83984375 -34.5 6.9375 C-30.08928302 7.22513616 -30.08928302 7.22513616 -26 6 C-23.6670134 5.95977609 -21.33293334 5.95679753 -19 6 C-19 5.34 -19 4.68 -19 4 C-15.52674819 2.8422494 -12.63932552 2.93133348 -9 3 C-9 2.01 -9 1.02 -9 0 C-2.25 -1.125 -2.25 -1.125 0 0 Z " fill="#3FBEB7" transform="translate(310,373)"/>
<path d="M0 0 C1.53759979 -0.01354271 1.53759979 -0.01354271 3.10626221 -0.02735901 C5.27117019 -0.04180254 7.43612124 -0.05073349 9.60107422 -0.05444336 C12.84031464 -0.06622329 16.07757328 -0.11537026 19.31640625 -0.16601562 C39.49930557 -0.32410219 57.03343182 3.48397065 75.140625 12.37109375 C71.20392012 13.68332871 69.01574356 12.61405631 65.140625 11.37109375 C65.140625 10.71109375 65.140625 10.05109375 65.140625 9.37109375 C64.57029541 9.28545166 63.99996582 9.19980957 63.41235352 9.11157227 C60.84194684 8.72316575 58.27254606 8.32846546 55.703125 7.93359375 C54.80529297 7.79888672 53.90746094 7.66417969 52.98242188 7.52539062 C52.12841797 7.39326172 51.27441406 7.26113281 50.39453125 7.125 C49.60377197 7.00455322 48.8130127 6.88410645 47.99829102 6.76000977 C46.140625 6.37109375 46.140625 6.37109375 45.140625 5.37109375 C30.69546476 2.60729628 15.78848278 2.7508759 1.140625 2.37109375 C1.140625 3.03109375 1.140625 3.69109375 1.140625 4.37109375 C-3.81421683 5.75598743 -8.60526648 5.2622999 -13.671875 4.93359375 C-14.99735352 4.8552832 -14.99735352 4.8552832 -16.34960938 4.77539062 C-18.51987908 4.64634756 -20.68968193 4.50949419 -22.859375 4.37109375 C-16.10297757 -0.1331712 -7.88631471 0.04407774 0 0 Z " fill="#30ABB4" transform="translate(235.859375,114.62890625)"/>
<path d="M0 0 C1.25554687 0.01675781 2.51109375 0.03351563 3.8046875 0.05078125 C11.4109402 0.34204913 18.53381847 1.59855353 25.9375 3.3125 C26.81390137 3.51319092 27.69030273 3.71388184 28.59326172 3.9206543 C33.47204807 5.12196584 37.78784978 6.6601199 42.21313477 9.04858398 C45.05967748 10.56422505 48.02469799 11.76029083 51 13 C47.59068103 14.13643966 46.99664544 13.86747764 43.8125 12.5625 C43.09707031 12.27503906 42.38164062 11.98757813 41.64453125 11.69140625 C41.10183594 11.46324219 40.55914062 11.23507812 40 11 C39.67 11.66 39.34 12.32 39 13 C37.51793505 12.745504 36.03931385 12.47088238 34.5625 12.1875 C33.73878906 12.03667969 32.91507812 11.88585937 32.06640625 11.73046875 C31.04353516 11.36888672 31.04353516 11.36888672 30 11 C29.505 9.515 29.505 9.515 29 8 C28.01 7.67 27.02 7.34 26 7 C26 6.34 26 5.68 26 5 C24.69675781 5.03480469 24.69675781 5.03480469 23.3671875 5.0703125 C22.21476562 5.08835938 21.06234375 5.10640625 19.875 5.125 C18.16957031 5.15980469 18.16957031 5.15980469 16.4296875 5.1953125 C13 5 13 5 10.31713867 4.00219727 C6.26166877 2.77693018 2.70293376 2.72989675 -1.50390625 2.76953125 C-2.30481186 2.76998947 -3.10571747 2.77044769 -3.93089294 2.7709198 C-5.61597179 2.77392768 -7.30104822 2.78176983 -8.98608398 2.79418945 C-11.55788069 2.81246717 -14.1293169 2.8146987 -16.70117188 2.81445312 C-18.3437531 2.81936849 -19.98633189 2.82519688 -21.62890625 2.83203125 C-22.77595787 2.83370049 -22.77595787 2.83370049 -23.94618225 2.83540344 C-27.75994831 2.86914887 -31.28657875 3.13053689 -35 4 C-36.43628457 4.06266512 -37.8750555 4.08686347 -39.3125 4.0625 C-41.1378125 4.0315625 -41.1378125 4.0315625 -43 4 C-31.26235256 -2.52091525 -13.07632397 -0.24215415 0 0 Z " fill="#91D7DD" transform="translate(147,249)"/>
<path d="M0 0 C27.06582443 1.05595619 27.06582443 1.05595619 30.53125 4.5390625 C32.0759782 6.36672578 32.0759782 6.36672578 35.5 6.5 C39 7 39 7 40.9375 8.4375 C42 10 42 10 42 12 C42.99 12.33 43.98 12.66 45 13 C44.34 13.33 43.68 13.66 43 14 C41.15185511 13.15750698 39.34507635 12.22357876 37.5625 11.25 C23.31770171 4.01828422 7.69907046 2.17530794 -7.67358398 7.15258789 C-9.95532271 7.96198136 -12.21550909 8.8121312 -14.47265625 9.6875 C-18 11 -18 11 -21 11 C-19.53333333 5.5 -19.53333333 5.5 -17 3.125 C-15 2 -15 2 -13 2 C-13 2.66 -13 3.32 -13 4 C-11.35 4 -9.7 4 -8 4 C-7.67 3.34 -7.34 2.68 -7 2 C-5.02 2 -3.04 2 -1 2 C-0.67 1.34 -0.34 0.68 0 0 Z " fill="#36AAB5" transform="translate(189,166)"/>
<path d="M0 0 C3 0 3 0 5 1 C-9.22251759 16.15007308 -26.1581565 24.61435676 -46 30 C-46.86367188 30.24621094 -47.72734375 30.49242187 -48.6171875 30.74609375 C-54.39862799 32.23774654 -60.05675485 32.19995965 -66 32 C-66 31.67 -66 31.34 -66 31 C-65.15695312 30.80664062 -64.31390625 30.61328125 -63.4453125 30.4140625 C-61.80175781 30.02347656 -61.80175781 30.02347656 -60.125 29.625 C-59.03445313 29.36976563 -57.94390625 29.11453125 -56.8203125 28.8515625 C-53.89591545 28.21093785 -53.89591545 28.21093785 -52 26 C-49.49609375 25.875 -49.49609375 25.875 -46.4375 26 C-40.92522429 26.10638892 -36.31453163 25.41720844 -31 24 C-31 23.01 -31 22.02 -31 21 C-29.35 21 -27.7 21 -26 21 C-26 20.34 -26 19.68 -26 19 C-24.68 19 -23.36 19 -22 19 C-22 18.01 -22 17.02 -22 16 C-19.29120665 14.64560332 -16.99066732 14.93498549 -14 15 C-13.67 13.35 -13.34 11.7 -13 10 C-12.01 10.33 -11.02 10.66 -10 11 C-10 9.35 -10 7.7 -10 6 C-7.66666667 6 -5.33333333 6 -3 6 C-1.515 3.03 -1.515 3.03 0 0 Z " fill="#48D3C2" transform="translate(442,218)"/>
<path d="M0 0 C0.99 0.495 0.99 0.495 2 1 C1.0409375 2.175625 1.0409375 2.175625 0.0625 3.375 C-1.98142313 5.79539281 -1.98142313 5.79539281 -3 8 C-3.66 8 -4.32 8 -5 8 C-5 8.66 -5 9.32 -5 10 C-8.90528197 13.65332829 -12.63575401 16.32946925 -18 17 C-19.42723875 17.44669305 -20.84365953 17.92882366 -22.25 18.4375 C-22.93578125 18.68371094 -23.6215625 18.92992187 -24.328125 19.18359375 C-26.19620553 19.88617359 -26.19620553 19.88617359 -27 22 C-31.53542964 21.93056646 -36.0699856 21.84234047 -40.60473633 21.73754883 C-42.14369926 21.70453079 -43.68277656 21.67642878 -45.22192383 21.65356445 C-55.73861561 21.49313456 -64.9574249 21.12561539 -74 15 C-72 14 -72 14 -69.35546875 14.7421875 C-68.31003906 15.11601562 -67.26460938 15.48984375 -66.1875 15.875 C-50.96495839 21.28325702 -34.80925016 20.36050112 -20 14 C-12.59298781 10.37211473 -6.02382737 5.60356035 0 0 Z " fill="#72DAD2" transform="translate(347,310)"/>
<path d="M0 0 C0.33 0 0.66 0 1 0 C1 1.65 1 3.3 1 5 C0.34 5 -0.32 5 -1 5 C-0.979375 6.258125 -0.95875 7.51625 -0.9375 8.8125 C-0.89113917 11.64051087 -1.08307039 13.24921116 -2 16 C-2.99 16 -3.98 16 -5 16 C-5.33 14.68 -5.66 13.36 -6 12 C-6.66 12 -7.32 12 -8 12 C-7.67 12.99 -7.34 13.98 -7 15 C-10.91493776 18.91493776 -10.91493776 18.91493776 -14.04296875 19.16015625 C-14.75066406 19.12792969 -15.45835937 19.09570312 -16.1875 19.0625 C-18.0746875 19.0315625 -18.0746875 19.0315625 -20 19 C-20.66 19.99 -21.32 20.98 -22 22 C-23.9453125 22.51171875 -23.9453125 22.51171875 -26.125 22.6875 C-27.40375 22.790625 -28.6825 22.89375 -30 23 C-27.98344335 20.8481865 -26.05386681 19.33589839 -23.5 17.875 C-19.87314185 15.67751136 -16.68751901 13.16000561 -13.4375 10.4375 C-9.44163558 7.09186665 -5.56169184 4.47918035 -1 2 C-0.67 1.34 -0.34 0.68 0 0 Z " fill="#14CCB5" transform="translate(470,167)"/>
<path d="M0 0 C1.32 0 2.64 0 4 0 C3.2833947 2.38868432 2.56587498 4.77703825 1.84375 7.1640625 C1.32616623 8.90371907 0.82276078 10.64776716 0.34375 12.3984375 C-2.44587322 22.39458739 -6.53298766 32.16867238 -12 41 C-13.53434585 37.93130829 -12.2212354 35.94983114 -11.1875 32.75 C-10.65189453 31.07164062 -10.65189453 31.07164062 -10.10546875 29.359375 C-9.37660352 27.14444887 -8.63979669 24.9321181 -7.89453125 22.72265625 C-6.9778588 20.09223079 -6.9778588 20.09223079 -6.5 17.6875 C-6.335 17.130625 -6.17 16.57375 -6 16 C-5.34 15.67 -4.68 15.34 -4 15 C-3.34444881 12.47266765 -3.34444881 12.47266765 -3 10 C-4.98 11.32 -6.96 12.64 -9 14 C-9 13.01 -9 12.02 -9 11 C-8.01 10.67 -7.02 10.34 -6 10 C-5.30341637 8.34561387 -4.63903117 6.67745682 -4 5 C-2.4375 3.3125 -2.4375 3.3125 -1 2 C-0.67 1.34 -0.34 0.68 0 0 Z " fill="#9AE5DB" transform="translate(360,295)"/>
<path d="M0 0 C0.66 0 1.32 0 2 0 C2.268125 0.61875 2.53625 1.2375 2.8125 1.875 C3.95556848 4.2995233 3.95556848 4.2995233 7 6 C6.55491959 11.04424468 4.39019075 13.44443409 1 17 C0.34 17 -0.32 17 -1 17 C-1.99 19.475 -1.99 19.475 -3 22 C-3.99 22 -4.98 22 -6 22 C-5.30908755 14.57269115 -3.34107163 6.68214326 0 0 Z " fill="#26A5B5" transform="translate(143,183)"/>
<path d="M0 0 C2.27141109 0.11402064 4.54214552 0.24158505 6.8125 0.375 C8.07707031 0.44460937 9.34164063 0.51421875 10.64453125 0.5859375 C14 1 14 1 17 3 C17 3.66 17 4.32 17 5 C17.63091553 4.99476318 18.26183105 4.98952637 18.91186523 4.98413086 C21.75373347 4.96342174 24.59558588 4.95035934 27.4375 4.9375 C28.43072266 4.92912109 29.42394531 4.92074219 30.44726562 4.91210938 C31.86362305 4.90727539 31.86362305 4.90727539 33.30859375 4.90234375 C34.62041626 4.89448853 34.62041626 4.89448853 35.95874023 4.88647461 C38 5 38 5 39 6 C40.55753051 6.22670908 42.12377359 6.39435092 43.69140625 6.53515625 C44.63564453 6.62216797 45.57988281 6.70917969 46.55273438 6.79882812 C47.54595703 6.88583984 48.53917969 6.97285156 49.5625 7.0625 C50.55958984 7.15337891 51.55667969 7.24425781 52.58398438 7.33789062 C55.05565702 7.56258814 57.52763256 7.78310351 60 8 C60 8.33 60 8.66 60 9 C28.42870606 9.27874682 28.42870606 9.27874682 13.375 5.625 C12.50858887 5.41593018 11.64217773 5.20686035 10.74951172 4.99145508 C6.59424125 3.91760733 3.20331165 3.0263331 0 0 Z " fill="#A1E6E2" transform="translate(313,242)"/>
<path d="M0 0 C1.33365476 0.2901934 2.66690215 0.58225892 4 0.875 C5.11375 1.11863281 5.11375 1.11863281 6.25 1.3671875 C8.42715893 1.86818146 10.58698695 2.44442268 12.73828125 3.046875 C17.23594609 4.17102782 21.56510543 4.38209174 26.1875 4.375 C27.42608765 4.37802124 27.42608765 4.37802124 28.68969727 4.38110352 C35.14037559 4.27521088 40.3961109 3.11519565 46.43359375 0.77734375 C49.15085366 -0.04569236 50.38137715 0.01569496 53 1 C52.24389648 2.94824219 52.24389648 2.94824219 51 5 C47.92463125 5.65263081 45.175716 6.02912209 42.0625 6.25 C40.72735352 6.35731445 40.72735352 6.35731445 39.36523438 6.46679688 C36.57790003 6.67333894 33.79042207 6.84107985 31 7 C29.70811768 7.08604492 29.70811768 7.08604492 28.39013672 7.17382812 C17.33718947 7.85084525 9.45718227 7.3425414 0 1 C0 0.67 0 0.34 0 0 Z " fill="#90E4DC" transform="translate(387,190)"/>
<path d="M0 0 C0.66 0.99 1.32 1.98 2 3 C1.01 3.495 1.01 3.495 0 4 C-0.66 3.67 -1.32 3.34 -2 3 C-2.33 4.32 -2.66 5.64 -3 7 C-2.34 7.33 -1.68 7.66 -1 8 C-2.32 8 -3.64 8 -5 8 C-5 10.31 -5 12.62 -5 15 C-6.32 15.33 -7.64 15.66 -9 16 C-9.33 15.34 -9.66 14.68 -10 14 C-11.56249809 15.31201173 -11.56249809 15.31201173 -13 17 C-13 17.99 -13 18.98 -13 20 C-13.66 20.99 -14.32 21.98 -15 23 C-15.99 22.67 -16.98 22.34 -18 22 C-17.60791281 16.64147506 -15.6642613 12.85831875 -12 9 C-11.34 9 -10.68 9 -10 9 C-9.62875 8.071875 -9.62875 8.071875 -9.25 7.125 C-7.77753937 4.62181694 -6.58971163 4.16954719 -4 3 C-3.67 2.34 -3.34 1.68 -3 1 C-2.01 0.67 -1.02 0.34 0 0 Z " fill="#2EA7B7" transform="translate(173,144)"/>
<path d="M0 0 C-13.77725287 8.35523723 -31.84632858 13.67427688 -48 12 C-48 11.67 -48 11.34 -48 11 C-47.40461426 10.88406494 -46.80922852 10.76812988 -46.19580078 10.64868164 C-43.50493604 10.12296202 -40.8149682 9.59278705 -38.125 9.0625 C-37.18785156 8.88009766 -36.25070312 8.69769531 -35.28515625 8.50976562 C-34.38925781 8.33251953 -33.49335938 8.15527344 -32.5703125 7.97265625 C-31.74289551 7.81031494 -30.91547852 7.64797363 -30.06298828 7.48071289 C-27.95281634 7.07331058 -27.95281634 7.07331058 -26 6 C-23.6670134 5.95977609 -21.33293334 5.95679753 -19 6 C-19 5.34 -19 4.68 -19 4 C-15.52674819 2.8422494 -12.63932552 2.93133348 -9 3 C-9 2.01 -9 1.02 -9 0 C-2.25 -1.125 -2.25 -1.125 0 0 Z " fill="#91E1DA" transform="translate(310,373)"/>
<path d="M0 0 C0.33 1.98 0.66 3.96 1 6 C-0.98 6.99 -0.98 6.99 -3 8 C-3 7.34 -3 6.68 -3 6 C-3.66 6 -4.32 6 -5 6 C-5.33 6.99 -5.66 7.98 -6 9 C-6.66 9 -7.32 9 -8 9 C-8.0825 9.7425 -8.165 10.485 -8.25 11.25 C-9.14809799 14.54302595 -10.38416074 15.85976788 -13 18 C-13.66 18 -14.32 18 -15 18 C-15.33 18.99 -15.66 19.98 -16 21 C-17.66666667 22.66666667 -19.33333333 24.33333333 -21 26 C-22.05287814 27.63377642 -23.0727001 29.29181597 -24 31 C-24.33 30.34 -24.66 29.68 -25 29 C-24.07421875 27.1953125 -24.07421875 27.1953125 -22.6875 25.125 C-20.9317895 22.47885752 -19.369437 19.86745963 -18 17 C-17.34 17 -16.68 17 -16 17 C-15.73832031 16.42121094 -15.47664063 15.84242188 -15.20703125 15.24609375 C-12.84788514 10.85609694 -5.29689262 0 0 0 Z " fill="#93D3DC" transform="translate(63,273)"/>
<path d="M0 0 C0 0.66 0 1.32 0 2 C1.65 2 3.3 2 5 2 C5.33 1.34 5.66 0.68 6 0 C18.87 0.495 18.87 0.495 32 1 C32 1.33 32 1.66 32 2 C30.83726562 2.00257813 29.67453125 2.00515625 28.4765625 2.0078125 C17.6817828 2.20885164 8.66175771 3.91670453 -1.4375 7.72265625 C-5 9 -5 9 -8 9 C-5.4 0 -5.4 0 0 0 Z " fill="#64C5CF" transform="translate(176,168)"/>
<path d="M0 0 C-13.65918024 6.58083021 -29.60962344 12.5884563 -45 11 C-45 10.67 -45 10.34 -45 10 C-44.15695312 9.80664062 -43.31390625 9.61328125 -42.4453125 9.4140625 C-41.34960938 9.15367187 -40.25390625 8.89328125 -39.125 8.625 C-38.03445313 8.36976563 -36.94390625 8.11453125 -35.8203125 7.8515625 C-32.89591545 7.21093785 -32.89591545 7.21093785 -31 5 C-28.49609375 4.875 -28.49609375 4.875 -25.4375 5 C-19.92522429 5.10638892 -15.31453163 4.41720844 -10 3 C-10 2.01 -10 1.02 -10 0 C-3.375 -1.125 -3.375 -1.125 0 0 Z " fill="#A3EAE4" transform="translate(421,239)"/>
<path d="M0 0 C0 0.66 0 1.32 0 2 C-0.886875 2.37125 -1.77375 2.7425 -2.6875 3.125 C-5.61722863 4.78333696 -6.76017002 5.67496841 -8.75 8.1875 C-9.4925 9.115625 -10.235 10.04375 -11 11 C-11.66 11 -12.32 11 -13 11 C-13 12.32 -13 13.64 -13 15 C-15.64738916 16.4606285 -16.89448334 17 -20 17 C-20.33 17.99 -20.66 18.98 -21 20 C-22.64333504 21.03789581 -24.31243867 22.03567924 -26 23 C-27.75149165 24.58245275 -27.75149165 24.58245275 -29 26 C-29 21.80110063 -26.79014735 19.87692227 -24 17 C-21.99088064 15.15895872 -19.94724842 13.37364409 -17.8671875 11.61328125 C-15.98574217 10.05247407 -15.98574217 10.05247407 -14.4453125 8.29296875 C-13 7 -13 7 -10 7 C-10 6.34 -10 5.68 -10 5 C-8.3203125 3.7109375 -8.3203125 3.7109375 -6.125 2.375 C-5.40570313 1.92898437 -4.68640625 1.48296875 -3.9453125 1.0234375 C-2 0 -2 0 0 0 Z " fill="#97D6DB" transform="translate(190,128)"/>
<path d="M0 0 C0.66 0 1.32 0 2 0 C2.34682864 5.83442852 1.21082936 10.23933891 -0.8125 15.6875 C-1.07353516 16.43322266 -1.33457031 17.17894531 -1.60351562 17.94726562 C-2.97357556 21.7394562 -4.29962786 24.92660349 -7 28 C-7.33 26.35 -7.66 24.7 -8 23 C-7.01 23 -6.02 23 -5 23 C-4.67 19.37 -4.34 15.74 -4 12 C-3.34 12 -2.68 12 -2 12 C-2.33 11.01 -2.66 10.02 -3 9 C-4.65 10.32 -6.3 11.64 -8 13 C-8.66 12.67 -9.32 12.34 -10 12 C-8.38201759 9.99394062 -6.75623702 7.99523205 -5.125 6 C-4.66480469 5.42765625 -4.20460938 4.8553125 -3.73046875 4.265625 C-2.53150078 2.80601181 -1.26958455 1.3986243 0 0 Z " fill="#58D3C4" transform="translate(473,160)"/>
<path d="M0 0 C1.06064163 0.00045822 2.12128326 0.00091644 3.21406555 0.00138855 C5.44195687 0.00439302 7.66984643 0.01222469 9.89770508 0.0246582 C13.30101991 0.04297003 16.70406277 0.04516716 20.10742188 0.04492188 C22.27995026 0.04983603 24.45247681 0.05566391 26.625 0.0625 C27.63761398 0.06361282 28.65022797 0.06472565 29.69352722 0.06587219 C34.44315356 0.09771818 38.94351091 0.24230099 43.61328125 1.23046875 C43.61328125 1.56046875 43.61328125 1.89046875 43.61328125 2.23046875 C42.68153076 2.22380692 42.68153076 2.22380692 41.73095703 2.2170105 C35.24172272 2.17262155 28.75253184 2.14253783 22.26318359 2.12060547 C19.84422045 2.11057365 17.42526935 2.09694504 15.00634766 2.07958984 C11.52112852 2.05521768 8.03607032 2.04395717 4.55078125 2.03515625 C3.47650879 2.02483368 2.40223633 2.01451111 1.29541016 2.00387573 C-4.6481963 2.00299588 -9.68378104 2.55908689 -15.38671875 4.23046875 C-18.10733843 4.44039311 -20.65067575 4.32818457 -23.38671875 4.23046875 C-16.43994783 -0.40071186 -8.08740529 -0.05773452 0 0 Z " fill="#92CFD4" transform="translate(236.38671875,114.76953125)"/>
<path d="M0 0 C6.47761985 0.43484022 13.5785152 1.02307007 18.68359375 5.46484375 C20.22747676 7.26527706 20.60108453 8.6862903 21 11 C22.32 10.67 23.64 10.34 25 10 C25.66 12.31 26.32 14.62 27 17 C25.68 16.34 24.36 15.68 23 15 C23 14.34 23 13.68 23 13 C22.27425781 12.74089844 21.54851562 12.48179687 20.80078125 12.21484375 C17.90144251 10.95725052 15.70918623 9.45682003 13.1875 7.5625 C8.89919268 4.47646175 5.0253584 2.58205727 0 1 C0 0.67 0 0.34 0 0 Z " fill="#9ADBDF" transform="translate(107,308)"/>
<path d="M0 0 C0.66 0.66 1.32 1.32 2 2 C0.54284421 12.03818431 -3.72248025 21.39959745 -9 30 C-10.53434585 26.93130829 -9.2212354 24.94983114 -8.1875 21.75 C-7.65189453 20.07164062 -7.65189453 20.07164062 -7.10546875 18.359375 C-6.37660352 16.14444887 -5.63979669 13.9321181 -4.89453125 11.72265625 C-3.9778588 9.09223079 -3.9778588 9.09223079 -3.5 6.6875 C-3.335 6.130625 -3.17 5.57375 -3 5 C-2.34 4.67 -1.68 4.34 -1 4 C-0.34786708 1.97536745 -0.34786708 1.97536745 0 0 Z " fill="#75DBD1" transform="translate(357,306)"/>
<path d="M0 0 C1 3 1 3 1 7 C1.66 7 2.32 7 3 7 C3.33 5.02 3.66 3.04 4 1 C5.65 1.33 7.3 1.66 9 2 C6.07172384 6.61766625 2.94957039 11.18584346 -1 15 C-1.66 15 -2.32 15 -3 15 C-3.36263859 9.1977825 -2.25684543 5.36000789 0 0 Z " fill="#A8D8DC" transform="translate(28,325)"/>
<path d="M0 0 C5.45185241 1.09037048 7.87513306 2.57675991 11.578125 6.66796875 C13.5440242 8.50964904 15.35511248 8.84441838 18 9 C18 9.99 18 10.98 18 12 C21.12589127 15.47573437 21.12589127 15.47573437 25 18 C24.67 18.66 24.34 19.32 24 20 C22.57061219 19.04707479 21.14164387 18.09351412 19.71484375 17.13671875 C18.13645581 16.09045249 16.53779944 15.07493434 14.9375 14.0625 C11.91811883 11.94250896 9.57388313 9.63666077 7 7 C5.13768288 5.38703078 3.25374579 3.80480462 1.35546875 2.234375 C0.90816406 1.82703125 0.46085937 1.4196875 0 1 C0 0.67 0 0.34 0 0 Z " fill="#88D8D8" transform="translate(268,212)"/>
<path d="M0 0 C0.33 0.66 0.66 1.32 1 2 C-0.24846488 3.73027536 -1.49884402 5.45916957 -2.75 7.1875 C-3.44609375 8.15042969 -4.1421875 9.11335938 -4.859375 10.10546875 C-8.98670695 15.68640483 -8.98670695 15.68640483 -11 18 C-11.66 18 -12.32 18 -13 18 C-12.67 16.02 -12.34 14.04 -12 12 C-11.34 12 -10.68 12 -10 12 C-8.58622659 9.36095629 -7.62759865 6.92879371 -7 4 C-6.34 4 -5.68 4 -5 4 C-4.67 3.34 -4.34 2.68 -4 2 C-1.9375 0.875 -1.9375 0.875 0 0 Z " fill="#5FD4C9" transform="translate(345,337)"/>
<path d="M0 0 C1.32 0.33 2.64 0.66 4 1 C2.87607452 4.89051128 1.96542676 7.27180738 -1 10 C-1.45375 10.78375 -1.9075 11.5675 -2.375 12.375 C-4.23227293 15.37521012 -6.44442223 17.58256157 -9 20 C-9 17.69 -9 15.38 -9 13 C-8.01 13 -7.02 13 -6 13 C-5.67 12.34 -5.34 11.68 -5 11 C-4.34 11 -3.68 11 -3 11 C-2.814375 9.39125 -2.814375 9.39125 -2.625 7.75 C-2.10356064 4.62136385 -1.59911746 2.66519576 0 0 Z " fill="#61DBC9" transform="translate(457,197)"/>
<path d="M0 0 C1.10196568 2.86511076 1.01402944 3.95878852 0 6.9375 C-1.06565385 10.20106491 -0.95231147 11.76214101 0 15 C0.66 14.01 1.32 13.02 2 12 C2.66 12.33 3.32 12.66 4 13 C2.625 15 2.625 15 1 17 C0.34 17 -0.32 17 -1 17 C-1.99 19.475 -1.99 19.475 -3 22 C-3.99 22 -4.98 22 -6 22 C-5.30908755 14.57269115 -3.34107163 6.68214326 0 0 Z " fill="#AFDFE3" transform="translate(143,183)"/>
<path d="M0 0 C10.95579977 1.01914416 21.19564226 5.20588519 31 10 C27.06329512 11.31223496 24.87511856 10.24296256 21 9 C21 8.34 21 7.68 21 7 C20.11957031 6.87882812 19.23914063 6.75765625 18.33203125 6.6328125 C17.17058594 6.46523437 16.00914062 6.29765625 14.8125 6.125 C13.66394531 5.96257812 12.51539063 5.80015625 11.33203125 5.6328125 C8.31275375 5.05939755 5.79424152 4.25240957 3 3 C3 2.34 3 1.68 3 1 C2.01 0.67 1.02 0.34 0 0 Z " fill="#97DBDE" transform="translate(280,117)"/>
<path d="M0 0 C4.4771655 1.36802279 6.19042726 3.34755544 9 7 C9.99 7.33 10.98 7.66 12 8 C12 8.66 12 9.32 12 10 C13.32 10.33 14.64 10.66 16 11 C16 11.66 16 12.32 16 13 C16.66 13 17.32 13 18 13 C19.0625 14.8125 19.0625 14.8125 20 17 C19.67 17.99 19.34 18.98 19 20 C15.8293305 16.85817898 12.66414446 13.71089125 9.5 10.5625 C8.59378906 9.66466797 7.68757812 8.76683594 6.75390625 7.84179688 C5.89667969 6.98779297 5.03945312 6.13378906 4.15625 5.25390625 C3.36025391 4.46314697 2.56425781 3.6723877 1.74414062 2.85766602 C0 1 0 1 0 0 Z " fill="#8BD6D6" transform="translate(248,192)"/>
<path d="M0 0 C2.47923801 -0.02685095 4.9581884 -0.04676547 7.4375 -0.0625 C8.14455078 -0.07087891 8.85160156 -0.07925781 9.58007812 -0.08789062 C11.38693559 -0.09653588 13.19387603 -0.05220011 15 0 C15.33 0.33 15.66 0.66 16 1 C17.55753051 1.22670908 19.12377359 1.39435092 20.69140625 1.53515625 C21.63564453 1.62216797 22.57988281 1.70917969 23.55273438 1.79882812 C24.54595703 1.88583984 25.53917969 1.97285156 26.5625 2.0625 C27.55958984 2.15337891 28.55667969 2.24425781 29.58398438 2.33789062 C32.05565702 2.56258814 34.52763256 2.78310351 37 3 C37 3.33 37 3.66 37 4 C24.26222146 4.34039562 12.38307392 4.24043056 0 1 C0 0.67 0 0.34 0 0 Z " fill="#81DBD3" transform="translate(336,247)"/>
<path d="M0 0 C-2.57662281 2.57662281 -3.92083461 2.34115688 -7.5 2.5625 C-11.39598635 2.73519346 -11.39598635 2.73519346 -15 4 C-17.204364 4.22950319 -19.41392173 4.41075933 -21.625 4.5625 C-22.81351562 4.64628906 -24.00203125 4.73007812 -25.2265625 4.81640625 C-26.14179687 4.87699219 -27.05703125 4.93757813 -28 5 C-22.15738777 -0.84261223 -7.73295137 -2.36832849 0 0 Z " fill="#6DC0CB" transform="translate(116,253)"/>
<path d="M0 0 C5.61 0.66 11.22 1.32 17 2 C17.33 2.99 17.66 3.98 18 5 C18.65226562 5.06058594 19.30453125 5.12117188 19.9765625 5.18359375 C24.68716217 5.63519991 29.34201638 6.14195039 34 7 C34 7.33 34 7.66 34 8 C26.54668431 8.35676641 20.23423661 7.08798329 13.0625 5.125 C12.02287109 4.85558594 10.98324219 4.58617187 9.91210938 4.30859375 C2.27004769 2.27004769 2.27004769 2.27004769 0 0 Z " fill="#ACE9E7" transform="translate(200,377)"/>
<path d="M0 0 C3.34984368 0.62904304 5.58478731 1.87893156 8.375 3.8125 C11.07796906 5.67553818 13.78444666 7.5013441 16.5625 9.25 C17.366875 9.8275 18.17125 10.405 19 11 C19 11.66 19 12.32 19 13 C15.7 12.34 12.4 11.68 9 11 C9.33 9.68 9.66 8.36 10 7 C9.01 7.33 8.02 7.66 7 8 C6.6596875 6.824375 6.6596875 6.824375 6.3125 5.625 C5.21875 2.78125 5.21875 2.78125 2.375 1.6875 C1.59125 1.460625 0.8075 1.23375 0 1 C0 0.67 0 0.34 0 0 Z " fill="#66CBCA" transform="translate(201,265)"/>
<path d="M0 0 C0.66 0.33 1.32 0.66 2 1 C1.319375 1.86625 0.63875 2.7325 -0.0625 3.625 C-2.38905184 6.81628414 -2.38905184 6.81628414 -1.375 10.0625 C-1.25125 11.031875 -1.1275 12.00125 -1 13 C-3.88061896 15.94608758 -6.08468011 17.69489337 -10 19 C-8.65300688 12.66913232 -5.72956707 8.22950166 -2 3 C-1.34 2.01 -0.68 1.02 0 0 Z " fill="#73C7D5" transform="translate(158,155)"/>
<path d="M0 0 C0.66 0.33 1.32 0.66 2 1 C1.67 1.99 1.34 2.98 1 4 C0.01 4.33 -0.98 4.66 -2 5 C-2.66 4.67 -3.32 4.34 -4 4 C-4.33 4.99 -4.66 5.98 -5 7 C-8.97563044 9.02532117 -11.5050702 10 -16 10 C-16 9.34 -16 8.68 -16 8 C-14.66510254 7.33255127 -13.32963485 6.66623066 -11.9921875 6.00390625 C-10.46840137 5.23603755 -8.95451943 4.44848502 -7.4453125 3.65234375 C-6.55585937 3.18957031 -5.66640625 2.72679687 -4.75 2.25 C-3.89921875 1.80140625 -3.0484375 1.3528125 -2.171875 0.890625 C-1.45515625 0.59671875 -0.7384375 0.3028125 0 0 Z " fill="#9CDBE1" transform="translate(86,258)"/>
<path d="M0 0 C2.875 -0.125 2.875 -0.125 6 0 C8 2 8 2 10 5 C7.90277606 7.09722394 3.90285764 6.86940109 1 7 C0.34 6.67 -0.32 6.34 -1 6 C-0.67 4.02 -0.34 2.04 0 0 Z " fill="#20A6B8" transform="translate(152,176)"/>
<path d="M0 0 C-3.37097383 1.49821059 -5.20442119 2 -9 2 C-8.67 3.32 -8.34 4.64 -8 6 C-9.98 6.33 -11.96 6.66 -14 7 C-14 6.34 -14 5.68 -14 5 C-14.928125 5.515625 -15.85625 6.03125 -16.8125 6.5625 C-20 8 -20 8 -23 7 C-6.17331164 -2.05777055 -6.17331164 -2.05777055 0 0 Z " fill="#9BDCE1" transform="translate(213,120)"/>
<path d="M0 0 C0 0.99 0 1.98 0 3 C-2.30078125 5.12109375 -2.30078125 5.12109375 -5.3125 7.4375 C-9.32249147 10.47821869 -9.32249147 10.47821869 -12.59375 14.23828125 C-14 16 -14 16 -16.04296875 16.609375 C-19.02148438 16.8046875 -19.02148438 16.8046875 -22 17 C-19.98344335 14.8481865 -18.05386681 13.33589839 -15.5 11.875 C-9.89938586 8.47910523 -4.99500776 4.2145378 0 0 Z " fill="#ADEEE7" transform="translate(462,173)"/>
<path d="M0 0 C2.31 0 4.62 0 7 0 C5.61167648 2.77664705 3.66264324 3.41429754 1 5 C-0.96130259 6.53251579 -2.89847882 8.09632577 -4.8125 9.6875 C-6.27623047 10.89986328 -6.27623047 10.89986328 -7.76953125 12.13671875 C-8.50558594 12.75160156 -9.24164063 13.36648438 -10 14 C-10 10.29588166 -9.24698231 8.921077 -7 6 C-5.0040278 5.32136945 -3.00431449 4.65358081 -1 4 C-0.03122943 1.96756452 -0.03122943 1.96756452 0 0 Z " fill="#ACE0E6" transform="translate(48,313)"/>
<path d="M0 0 C1.37706825 0.26011289 2.75158555 0.53373766 4.125 0.8125 C5.27355469 1.03873047 5.27355469 1.03873047 6.4453125 1.26953125 C9 2 9 2 11.78125 3.53125 C15.75164363 5.34298301 19.06615966 5.55114429 23.375 5.6875 C24.11105469 5.72166016 24.84710938 5.75582031 25.60546875 5.79101562 C27.40313853 5.87272789 29.20154046 5.93805781 31 6 C31 6.33 31 6.66 31 7 C19.08808726 7.67284863 10.22515095 7.85758627 0 1 C0 0.67 0 0.34 0 0 Z " fill="#6AD5C9" transform="translate(387,190)"/>
<path d="M0 0 C3.6875 0.875 3.6875 0.875 7 2 C6.01 3.485 6.01 3.485 5 5 C4.01 5 3.02 5 2 5 C1.67 5.99 1.34 6.98 1 8 C0.34 7.67 -0.32 7.34 -1 7 C-0.67 6.34 -0.34 5.68 0 5 C-0.66 5 -1.32 5 -2 5 C-2 5.66 -2 6.32 -2 7 C-2.99 6.67 -3.98 6.34 -5 6 C-3.63016497 2.83884224 -3.0109362 2.0072908 0 0 Z " fill="#0DCBB2" transform="translate(318,360)"/>
<path d="M0 0 C0.66 0.33 1.32 0.66 2 1 C1.360625 1.78375 0.72125 2.5675 0.0625 3.375 C-1.98142313 5.79539281 -1.98142313 5.79539281 -3 8 C-3.66 8 -4.32 8 -5 8 C-5 8.66 -5 9.32 -5 10 C-6.78810766 10.69670416 -8.58062052 11.38211189 -10.375 12.0625 C-11.37273437 12.44535156 -12.37046875 12.82820313 -13.3984375 13.22265625 C-16 14 -16 14 -18 13 C-17.28714844 12.56429688 -16.57429688 12.12859375 -15.83984375 11.6796875 C-10.14263272 8.13714175 -4.95953879 4.5186909 0 0 Z " fill="#9AE7E0" transform="translate(347,310)"/>
<path d="M0 0 C1.40742022 2.81484045 0.66652164 4.56936113 0.0625 7.625 C-0.13214844 8.62789063 -0.32679687 9.63078125 -0.52734375 10.6640625 C-0.76130859 11.82035156 -0.76130859 11.82035156 -1 13 C-2.32 13.33 -3.64 13.66 -5 14 C-5.66 16.31 -6.32 18.62 -7 21 C-8.19456387 17.41630839 -7.74039469 16.69379709 -6.3125 13.3125 C-5.94253906 12.43464844 -5.57257812 11.55679687 -5.19140625 10.65234375 C-3.56853949 7.03946987 -1.82313343 3.51604304 0 0 Z " fill="#97D5DD" transform="translate(37,304)"/>
<path d="M0 0 C4.2736853 2.34363387 7.96115923 5.27222769 11.7734375 8.28125 C14.43556394 10.3362248 17.16995176 12.18586651 20 14 C19.01 14.495 19.01 14.495 18 15 C16.16015625 14.2578125 16.16015625 14.2578125 14.0625 13.125 C11.67865342 11.85064463 9.58115056 10.86038352 7 10 C4.35703248 7.66796984 3.12775574 6.38326722 2 3 C1.34 2.67 0.68 2.34 0 2 C0 1.34 0 0.68 0 0 Z " fill="#A3E8E3" transform="translate(365,174)"/>
<path d="M0 0 C0.78375 0.04125 1.5675 0.0825 2.375 0.125 C1.1875 2.5625 1.1875 2.5625 -0.625 5.125 C-4.23740923 6.17861936 -7.69342382 6.23260935 -11.4375 6.1875 C-12.90123047 6.17396484 -12.90123047 6.17396484 -14.39453125 6.16015625 C-15.49861328 6.14275391 -15.49861328 6.14275391 -16.625 6.125 C-16.625 5.795 -16.625 5.465 -16.625 5.125 C-15.78195312 4.93164062 -14.93890625 4.73828125 -14.0703125 4.5390625 C-12.97460938 4.27867187 -11.87890625 4.01828125 -10.75 3.75 C-9.65945313 3.49476563 -8.56890625 3.23953125 -7.4453125 2.9765625 C-4.190248 1.99373139 -3.37831756 0.16087226 0 0 Z " fill="#73DFD2" transform="translate(392.625,243.875)"/>
<path d="M0 0 C1.07765625 0.03609375 2.1553125 0.0721875 3.265625 0.109375 C4.49539063 0.17898438 4.49539063 0.17898438 5.75 0.25 C4.27982546 3.19034909 1.92500999 3.64868773 -1.0390625 4.71875 C-4.4014713 5.52667862 -6.90296321 5.01702926 -10.25 4.25 C-7.0246569 0.27312065 -5.05259733 -0.21967814 0 0 Z " fill="#48CFC0" transform="translate(311.25,367.75)"/>
<path d="M0 0 C6.82147797 0.46510077 12.92380493 2.92356685 19 6 C19.33 6.66 19.66 7.32 20 8 C18.35328588 7.69217504 16.70764424 7.37860766 15.0625 7.0625 C14.14597656 6.88847656 13.22945312 6.71445312 12.28515625 6.53515625 C10 6 10 6 9 5 C6.67182036 4.63239269 4.3381615 4.29758419 2 4 C2 3.01 2 2.02 2 1 C1.34 0.67 0.68 0.34 0 0 Z " fill="#9FDEE1" transform="translate(178,255)"/>
<path d="M0 0 C5.29012124 4.40843437 10.18808428 9.07559794 15 14 C10.49910325 14 7.46908901 11.75420082 4 9 C2.625 6.4375 2.625 6.4375 2 4 C1.35191436 2.65753688 0.68783209 1.32253894 0 0 Z " fill="#A4E2E0" transform="translate(237,293)"/>
<path d="M0 0 C5.8897686 2.49182518 10.72673573 7.349683 15 12 C15 12.66 15 13.32 15 14 C8.7933791 11.87201569 5.10336075 8.76338425 2 3 C1.34 2.01 0.68 1.02 0 0 Z " fill="#C1F0EE" transform="translate(340,150)"/>
<path d="M0 0 C1.04414063 0.41958984 1.04414063 0.41958984 2.109375 0.84765625 C4.0940104 1.63882847 6.08394529 2.41679622 8.078125 3.18359375 C9.12484375 3.59738281 10.1715625 4.01117188 11.25 4.4375 C12.30703125 4.84871094 13.3640625 5.25992187 14.453125 5.68359375 C17 7 17 7 18 10 C13.95293895 9.39552094 10.89235455 8.08830359 7.3125 6.125 C6.35988281 5.61195313 5.40726563 5.09890625 4.42578125 4.5703125 C2 3 2 3 0 0 Z " fill="#A1E2E1" transform="translate(178,365)"/>
<path d="M0 0 C0.66 0 1.32 0 2 0 C2.33 2.97 2.66 5.94 3 9 C4.65 9.33 6.3 9.66 8 10 C8 11.32 8 12.64 8 14 C4.79424013 13.65652573 4.02483241 13.0292146 1.875 10.5 C1.25625 9.675 0.6375 8.85 0 8 C-0.66 7.67 -1.32 7.34 -2 7 C-2 6.34 -2 5.68 -2 5 C-1.34 5 -0.68 5 0 5 C0 3.35 0 1.7 0 0 Z " fill="#22AFB3" transform="translate(252,186)"/>
<path d="M0 0 C4.78775956 3.53613714 9.46451416 7.14483704 14 11 C10.58238295 11 8.17045938 10.24061454 5 9 C4.67 8.34 4.34 7.68 4 7 C3.01 6.67 2.02 6.34 1 6 C0.67 4.02 0.34 2.04 0 0 Z " fill="#98E0DC" transform="translate(252,308)"/>
<path d="M0 0 C6.6740416 0.44802594 14.04680381 1.04680381 19 6 C16.19723367 7.11435288 15.02021689 7.00643141 12.08984375 6.07421875 C11.04957031 5.61660156 10.00929688 5.15898437 8.9375 4.6875 C7.89464844 4.23761719 6.85179688 3.78773438 5.77734375 3.32421875 C3 2 3 2 0 0 Z " fill="#6BC4CD" transform="translate(107,308)"/>
<path d="M0 0 C2.29109597 -0.08075665 4.58299267 -0.13907731 6.875 -0.1875 C8.78925781 -0.23970703 8.78925781 -0.23970703 10.7421875 -0.29296875 C11.81726563 -0.19628906 12.89234375 -0.09960938 14 0 C14.66 0.99 15.32 1.98 16 3 C15.67 3.66 15.34 4.32 15 5 C12.87308203 4.55065113 10.74849961 4.09023527 8.625 3.625 C7.44164063 3.36976563 6.25828125 3.11453125 5.0390625 2.8515625 C2 2 2 2 0 0 Z " fill="#27A9B6" transform="translate(103,305)"/>
<path d="M0 0 C-2.64738916 1.4606285 -3.89448334 2 -7 2 C-7.33 2.99 -7.66 3.98 -8 5 C-9.64333504 6.03789581 -11.31243867 7.03567924 -13 8 C-14.75149165 9.58245275 -14.75149165 9.58245275 -16 11 C-16 6.67750434 -13.85084926 5.11604454 -11 2 C-7.06425135 -0.62383243 -4.54354105 -1.51451368 0 0 Z " fill="#3FACBA" transform="translate(177,143)"/>
<path d="M0 0 C4.69165109 2.97519337 8.84703191 6.31393365 13 10 C12.67 10.66 12.34 11.32 12 12 C11.34 11.401875 10.68 10.80375 10 10.1875 C6.41816003 7.57574169 3.18622274 6.41905856 -1 5 C-0.67 3.35 -0.34 1.7 0 0 Z " fill="#8FDBDC" transform="translate(327,138)"/>
<path d="M0 0 C-1.3125 1.5 -1.3125 1.5 -3 3 C-3.99 3 -4.98 3 -6 3 C-8.68767578 5.43750025 -8.68767578 5.43750025 -11 8 C-11 7.34 -11 6.68 -11 6 C-11.99 5.67 -12.98 5.34 -14 5 C-14 4.34 -14 3.68 -14 3 C-4.58997722 -0.44419134 -4.58997722 -0.44419134 0 0 Z " fill="#20A8B3" transform="translate(218,119)"/>
<path d="M0 0 C1.46373047 0.02707031 1.46373047 0.02707031 2.95703125 0.0546875 C3.69308594 0.07789063 4.42914063 0.10109375 5.1875 0.125 C2.40996623 1.57058008 -0.35789908 2.77535413 -3.3125 3.8125 C-4.0653125 4.08449219 -4.818125 4.35648437 -5.59375 4.63671875 C-8.04847493 5.1769311 -9.45673338 4.92274824 -11.8125 4.125 C-10.8125 2.125 -10.8125 2.125 -8.61328125 1.0078125 C-5.57167697 0.04909205 -3.17866882 -0.07659443 0 0 Z " fill="#7DC7D1" transform="translate(71.8125,304.875)"/>
<path d="M0 0 C0.66 0.99 1.32 1.98 2 3 C1.01 3.495 1.01 3.495 0 4 C-0.66 3.67 -1.32 3.34 -2 3 C-2.33 4.32 -2.66 5.64 -3 7 C-2.34 7.33 -1.68 7.66 -1 8 C-2.32 8 -3.64 8 -5 8 C-5 8.99 -5 9.98 -5 11 C-5.99 10.67 -6.98 10.34 -8 10 C-7.42531075 6.12084756 -5.62115553 3.85243395 -3 1 C-2.01 0.67 -1.02 0.34 0 0 Z " fill="#1BA7BC" transform="translate(173,144)"/>
<path d="M0 0 C0 0.33 0 0.66 0 1 C-0.98742187 1.13277344 -1.97484375 1.26554687 -2.9921875 1.40234375 C-4.27351563 1.57894531 -5.55484375 1.75554687 -6.875 1.9375 C-8.78925781 2.19853516 -8.78925781 2.19853516 -10.7421875 2.46484375 C-13.87559454 2.81433227 -13.87559454 2.81433227 -16 4 C-18.6723621 4.13415472 -21.32250488 4.04318541 -24 4 C-16.8350205 -0.776653 -8.32645748 -0.25359769 0 0 Z " fill="#BEEAED" transform="translate(237,115)"/>
<path d="M0 0 C1.77174819 0.08723378 3.54247377 0.19541655 5.3125 0.3125 C6.29863281 0.37050781 7.28476563 0.42851562 8.30078125 0.48828125 C11.25649894 1.04862715 12.25629698 1.58976204 14 4 C14 4.66 14 5.32 14 6 C14.99 6.33 15.98 6.66 17 7 C16.01 7.495 16.01 7.495 15 8 C12.28515625 6.85546875 12.28515625 6.85546875 9.0625 5.1875 C8.00160156 4.64480469 6.94070312 4.10210937 5.84765625 3.54296875 C3 2 3 2 0 0 Z " fill="#A6DDE0" transform="translate(217,172)"/>
<path d="M0 0 C0.66 0 1.32 0 2 0 C2.33 1.98 2.66 3.96 3 6 C1.02 6.99 1.02 6.99 -1 8 C-1 7.34 -1 6.68 -1 6 C-1.66 6 -2.32 6 -3 6 C-3.33 6.99 -3.66 7.98 -4 9 C-4.66 8.67 -5.32 8.34 -6 8 C-2.25 2.25 -2.25 2.25 0 0 Z " fill="#6BBDCD" transform="translate(61,273)"/>
<path d="M0 0 C4.43458973 1.3937282 6.87378374 3.60582235 10 7 C8.35 7.33 6.7 7.66 5 8 C5 7.34 5 6.68 5 6 C3.68 6.33 2.36 6.66 1 7 C1 4 1 4 2 3 C1.34 2.01 0.68 1.02 0 0 Z " fill="#5CD1CA" transform="translate(266,320)"/>
<path d="M0 0 C0.99 0.33 1.98 0.66 3 1 C3.99 0.67 4.98 0.34 6 0 C6.66 0.33 7.32 0.66 8 1 C8 1.66 8 2.32 8 3 C7.01 3 6.02 3 5 3 C4.67 3.99 4.34 4.98 4 6 C3.34 5.67 2.68 5.34 2 5 C2 5.66 2 6.32 2 7 C1.34 7 0.68 7 0 7 C0 4.69 0 2.38 0 0 Z " fill="#11C9B8" transform="translate(336,336)"/>
<path d="M0 0 C2.31 0.33 4.62 0.66 7 1 C7.28875 1.9075 7.5775 2.815 7.875 3.75 C8.76841716 6.33098291 9.75227117 8.58842326 11 11 C6.86378916 7.6189962 3.18683431 4.33409466 0 0 Z " fill="#2FABB2" transform="translate(142,331)"/>
<path d="M0 0 C3.465 1.485 3.465 1.485 7 3 C7 3.66 7 4.32 7 5 C7.78375 5.28875 8.5675 5.5775 9.375 5.875 C12 7 12 7 14 9 C11.03 8.505 11.03 8.505 8 8 C8 7.34 8 6.68 8 6 C7.236875 5.896875 6.47375 5.79375 5.6875 5.6875 C2.81583516 4.95288806 1.76957906 4.3283935 0 2 C0 1.34 0 0.68 0 0 Z " fill="#A3E3E3" transform="translate(313,129)"/>
<path d="M0 0 C0.33 0.99 0.66 1.98 1 3 C-0.7015625 3.680625 -0.7015625 3.680625 -2.4375 4.375 C-6.04721692 5.57095806 -6.04721692 5.57095806 -7 8 C-9.32156597 8.40729228 -11.6568787 8.74438677 -14 9 C-11.82575883 6.49962266 -10.26954202 5.56371414 -7 5 C-7 4.34 -7 3.68 -7 3 C-4.69 2.01 -2.38 1.02 0 0 Z " fill="#3BA7B5" transform="translate(197,125)"/>
<path d="M0 0 C-6.6276327 3.8741903 -11.29711007 5.6212008 -19 5 C-19 4.67 -19 4.34 -19 4 C-16.21079611 3.1369594 -13.41913928 2.28427693 -10.625 1.4375 C-9.8309375 1.19064453 -9.036875 0.94378906 -8.21875 0.68945312 C-7.45820313 0.46064453 -6.69765625 0.23183594 -5.9140625 -0.00390625 C-5.2123291 -0.21861572 -4.5105957 -0.4333252 -3.78759766 -0.65454102 C-2 -1 -2 -1 0 0 Z " fill="#BCF1EC" transform="translate(329,325)"/>
<path d="M0 0 C0.33 1.32 0.66 2.64 1 4 C1.99 4 2.98 4 4 4 C4 3.34 4 2.68 4 2 C5.32 1.67 6.64 1.34 8 1 C7.1875 2.9375 7.1875 2.9375 6 5 C5.01 5.33 4.02 5.66 3 6 C1.33289654 7.49985609 1.33289654 7.49985609 0 9 C-1.125 3.375 -1.125 3.375 0 0 Z " fill="#56B5C0" transform="translate(142,190)"/>
<path d="M0 0 C0.33 0 0.66 0 1 0 C1 1.65 1 3.3 1 5 C0.34 5 -0.32 5 -1 5 C-1 5.66 -1 6.32 -1 7 C-1.7425 7.28875 -2.485 7.5775 -3.25 7.875 C-5.56739797 8.82302644 -7.77917115 9.84845911 -10 11 C-7.76842922 6.53685845 -5.17599036 4.63268957 -1 2 C-0.67 1.34 -0.34 0.68 0 0 Z " fill="#25C5AE" transform="translate(470,167)"/>
<path d="M0 0 C3.98381075 2.16264012 6.88983545 4.71211176 10 8 C9.67 8.66 9.34 9.32 9 10 C8.01 10 7.02 10 6 10 C6 9.34 6 8.68 6 8 C5.34 8 4.68 8 4 8 C0 2.58823529 0 2.58823529 0 0 Z " fill="#AAE7E3" transform="translate(355,164)"/>
<path d="M0 0 C0.66 0.33 1.32 0.66 2 1 C1.401875 1.721875 0.80375 2.44375 0.1875 3.1875 C-2.03177437 5.87732394 -2.03177437 5.87732394 -3.4375 8.6875 C-5.31818 11.4709064 -6.83189603 12.05813125 -10 13 C-6.73279209 8.61105071 -3.45101522 4.24740335 0 0 Z " fill="#BDF0EB" transform="translate(473,160)"/>
<path d="M0 0 C7.87587413 1.93181818 7.87587413 1.93181818 10 5 C10.6875 7.1875 10.6875 7.1875 11 9 C8.03469503 7.64199529 5.70868729 6.07571737 3.25 3.9375 C2.63640625 3.41027344 2.0228125 2.88304687 1.390625 2.33984375 C0.93171875 1.89769531 0.4728125 1.45554688 0 1 C0 0.67 0 0.34 0 0 Z " fill="#93DEDC" transform="translate(268,212)"/>
<path d="M0 0 C0.99 1.485 0.99 1.485 2 3 C1.01 3 0.02 3 -1 3 C-1.33 2.34 -1.66 1.68 -2 1 C-3.32 1 -4.64 1 -6 1 C-6.66 1.99 -7.32 2.98 -8 4 C-9 3 -9 3 -9.0625 0.4375 C-9.041875 -0.366875 -9.02125 -1.17125 -9 -2 C-5.08434068 -3.59526861 -3.2887767 -2.42330915 0 0 Z " fill="#2BB8B6" transform="translate(338,148)"/>
<path d="M0 0 C1.48206495 0.254496 2.96068615 0.52911762 4.4375 0.8125 C5.67306641 1.03873047 5.67306641 1.03873047 6.93359375 1.26953125 C7.95646484 1.63111328 7.95646484 1.63111328 9 2 C9.33 2.99 9.66 3.98 10 5 C10.99 5.33 11.98 5.66 13 6 C12.67 6.66 12.34 7.32 12 8 C10.35 7.67 8.7 7.34 7 7 C7 5.68 7 4.36 7 3 C6.030625 2.87625 5.06125 2.7525 4.0625 2.625 C3.051875 2.41875 2.04125 2.2125 1 2 C0.67 1.34 0.34 0.68 0 0 Z " fill="#3AB9B6" transform="translate(303,126)"/>
<path d="M0 0 C0 3.54823932 -0.67734388 4.41927097 -3 7 C-3.99 7.33 -4.98 7.66 -6 8 C-6.33 8.99 -6.66 9.98 -7 11 C-7.66 11 -8.32 11 -9 11 C-8.34 9.35 -7.68 7.7 -7 6 C-6.34 6 -5.68 6 -5 6 C-4.9175 5.38125 -4.835 4.7625 -4.75 4.125 C-4 2 -4 2 -1.9375 0.75 C-1.298125 0.5025 -0.65875 0.255 0 0 Z " fill="#2AC5B2" transform="translate(353,307)"/>
<path d="M0 0 C0.66 0.33 1.32 0.66 2 1 C1.01 3.31 0.02 5.62 -1 8 C-3.97 7.505 -3.97 7.505 -7 7 C-4.66666667 4.66666667 -2.33333333 2.33333333 0 0 Z " fill="#2AC9B2" transform="translate(458,178)"/>
<path d="M0 0 C3.49844386 0.63389235 5.84086876 2.05177694 8.75 4.0625 C9.94882813 4.88427734 9.94882813 4.88427734 11.171875 5.72265625 C12.07679688 6.35494141 12.07679688 6.35494141 13 7 C11 8 11 8 7 8 C6.6596875 6.824375 6.6596875 6.824375 6.3125 5.625 C5.21875 2.78125 5.21875 2.78125 2.375 1.6875 C1.59125 1.460625 0.8075 1.23375 0 1 C0 0.67 0 0.34 0 0 Z " fill="#A7E2E3" transform="translate(201,265)"/>
<path d="M0 0 C-0.165 0.5775 -0.33 1.155 -0.5 1.75 C-1.14462031 4.26664369 -1.14462031 4.26664369 -1 8 C-1.33 7.34 -1.66 6.68 -2 6 C-2.66 5.67 -3.32 5.34 -4 5 C-4 4.34 -4 3.68 -4 3 C-5.65 3 -7.3 3 -9 3 C-8 1 -8 1 -6.1875 0.375 C-4 0 -4 0 0 0 Z " fill="#2EA5B5" transform="translate(96,257)"/>
<path d="M0 0 C-2 2 -2 2 -4.12890625 2.046875 C-4.93199219 1.94890625 -5.73507813 1.8509375 -6.5625 1.75 C-7.77099609 1.61851562 -7.77099609 1.61851562 -9.00390625 1.484375 C-9.66261719 1.32453125 -10.32132813 1.1646875 -11 1 C-11.33 0.34 -11.66 -0.32 -12 -1 C-7.28400182 -1.92470553 -4.32734391 -2.22923777 0 0 Z " fill="#66C4C9" transform="translate(220,170)"/>
<path d="M0 0 C0.33 0 0.66 0 1 0 C0.88541307 1.43836751 0.75790884 2.87570966 0.625 4.3125 C0.55539062 5.11300781 0.48578125 5.91351563 0.4140625 6.73828125 C0 9 0 9 -2 12 C-2 10.02 -2 8.04 -2 6 C-2.66 5.67 -3.32 5.34 -4 5 C-2.69254251 3.31295807 -1.35827971 1.64639965 0 0 Z " fill="#99DFD4" transform="translate(474,161)"/>
<path d="M0 0 C3.625 -0.1875 3.625 -0.1875 7 0 C7 1.32 7 2.64 7 4 C4.03 3.67 1.06 3.34 -2 3 C-1.34 2.01 -0.68 1.02 0 0 Z " fill="#14C0B6" transform="translate(225,378)"/>
<path d="M0 0 C0 0.99 0 1.98 0 3 C-6.5 6 -6.5 6 -11 6 C-11 5.34 -11 4.68 -11 4 C-7.37 2.68 -3.74 1.36 0 0 Z " fill="#6DBECA" transform="translate(81,262)"/>
<path d="M0 0 C0.99 0 1.98 0 3 0 C1.44499019 3.81684226 -1.03595495 6.19195732 -4 9 C-4 6.69 -4 4.38 -4 2 C-3.01 2 -2.02 2 -1 2 C-0.67 1.34 -0.34 0.68 0 0 Z " fill="#90E5DA" transform="translate(452,208)"/>
<path d="M0 0 C-2.22825644 2.22825644 -3.65761628 2.69239369 -6.625 3.625 C-7.44226563 3.88539063 -8.25953125 4.14578125 -9.1015625 4.4140625 C-9.72804687 4.60742188 -10.35453125 4.80078125 -11 5 C-10.1875 2.5625 -10.1875 2.5625 -9 0 C-5.52176885 -1.15941038 -3.54104422 -0.70820884 0 0 Z " fill="#90D4DA" transform="translate(179,173)"/>
<path d="M0 0 C-1.79036458 0.9765625 -3.58072917 1.953125 -5.37109375 2.9296875 C-7.16618315 3.91410024 -7.16618315 3.91410024 -8 6 C-8.66 6 -9.32 6 -10 6 C-10.33 6.66 -10.66 7.32 -11 8 C-11.33 7.01 -11.66 6.02 -12 5 C-4.50757576 -1.35227273 -4.50757576 -1.35227273 0 0 Z " fill="#20A6BA" transform="translate(189,134)"/>
<path d="M0 0 C0.66 0 1.32 0 2 0 C2.8125 2.1875 2.8125 2.1875 3 5 C0.5625 7.8125 0.5625 7.8125 -2 10 C-2.33 8.68 -2.66 7.36 -3 6 C-2.34 6 -1.68 6 -1 6 C-0.67 4.02 -0.34 2.04 0 0 Z " fill="#5BD9CA" transform="translate(329,351)"/>
<path d="M0 0 C-5.445 1.485 -5.445 1.485 -11 3 C-11 2.01 -11 1.02 -11 0 C-3.375 -2.25 -3.375 -2.25 0 0 Z " fill="#2BC3B2" transform="translate(411,242)"/>
<path d="M0 0 C2.64 0 5.28 0 8 0 C5.93243723 2.7972908 4.85559629 3.02692273 1.3125 3.6875 C0.219375 3.790625 -0.87375 3.89375 -2 4 C-1.34 2.68 -0.68 1.36 0 0 Z " fill="#56B4C7" transform="translate(52,310)"/>
<path d="M0 0 C3 0 3 0 5 1 C2.36 3.64 -0.28 6.28 -3 9 C-3 5.30581799 -1.71820705 3.22163822 0 0 Z " fill="#9DEAE1" transform="translate(442,218)"/>
<path d="M0 0 C5.29158974 1.40071493 7.77478044 4.85487245 11 9 C10.67 9.66 10.34 10.32 10 11 C8.33035479 9.35718838 6.6643536 7.71067239 5 6.0625 C4.071875 5.14597656 3.14375 4.22945312 2.1875 3.28515625 C0 1 0 1 0 0 Z " fill="#D9F7F7" transform="translate(248,192)"/>
<path d="M0 0 C1.98 0.66 3.96 1.32 6 2 C6 2.66 6 3.32 6 4 C-0.625 4.25 -0.625 4.25 -4 2 C-2.68 2 -1.36 2 0 2 C0 1.34 0 0.68 0 0 Z " fill="#20ACB3" transform="translate(222,169)"/>
<path d="M0 0 C2 1 2 1 3 3 C2.34 3 1.68 3 1 3 C1 3.99 1 4.98 1 6 C-0.65 5.67 -2.3 5.34 -4 5 C-2.68 3.35 -1.36 1.7 0 0 Z " fill="#15C7B3" transform="translate(300,370)"/>
<path d="M0 0 C1.65 0.33 3.3 0.66 5 1 C4.01 2.485 4.01 2.485 3 4 C2.01 4 1.02 4 0 4 C-0.33 4.99 -0.66 5.98 -1 7 C-1.66 6.67 -2.32 6.34 -3 6 C-2.67 5.01 -2.34 4.02 -2 3 C-1.34 3 -0.68 3 0 3 C0 2.01 0 1.02 0 0 Z " fill="#88E0D9" transform="translate(320,361)"/>
<path d="M0 0 C1.48484412 0.39595843 2.9628831 0.81750706 4.4375 1.25 C5.26121094 1.48203125 6.08492187 1.7140625 6.93359375 1.953125 C9 3 9 3 9.78515625 5.109375 C9.85605469 5.73328125 9.92695313 6.3571875 10 7 C5.56541027 5.6062718 3.12621626 3.39417765 0 0 Z " fill="#A8E3E4" transform="translate(168,358)"/>
<path d="M0 0 C2.3125 0.1875 2.3125 0.1875 5 1 C6.875 3.4375 6.875 3.4375 8 6 C7.67 6.66 7.34 7.32 7 8 C5.8274869 7.04882866 4.66212985 6.08882991 3.5 5.125 C2.8503125 4.59132813 2.200625 4.05765625 1.53125 3.5078125 C1.0259375 3.01023437 0.520625 2.51265625 0 2 C0 1.34 0 0.68 0 0 Z " fill="#A4E1E4" transform="translate(160,350)"/>
<path d="M0 0 C1.98 0.66 3.96 1.32 6 2 C5.67 3.32 5.34 4.64 5 6 C3.35 5.67 1.7 5.34 0 5 C0 3.33333333 0 1.66666667 0 0 Z " fill="#12C2B8" transform="translate(280,329)"/>
<path d="M0 0 C0.33 0 0.66 0 1 0 C1.33 1.98 1.66 3.96 2 6 C1.01 6.66 0.02 7.32 -1 8 C-2.19232613 10.05003955 -2.19232613 10.05003955 -3 12 C-4 10 -4 10 -3.22265625 7.6171875 C-2.83980469 6.71226562 -2.45695312 5.80734375 -2.0625 4.875 C-1.68222656 3.96492188 -1.30195313 3.05484375 -0.91015625 2.1171875 C-0.60980469 1.41851562 -0.30945313 0.71984375 0 0 Z " fill="#3AA3B5" transform="translate(32,318)"/>
<path d="M0 0 C0.99 0.33 1.98 0.66 3 1 C2.01 1.66 1.02 2.32 0 3 C-0.309375 3.66 -0.61875 4.32 -0.9375 5 C-2.24187242 7.45528927 -3.46627297 7.98650919 -6 9 C-4.68775452 5.06326356 -3.08089673 2.77280706 0 0 Z " fill="#7BC3CD" transform="translate(43,318)"/>
<path d="M0 0 C0.33 0.66 0.66 1.32 1 2 C-0.65 4.31 -2.3 6.62 -4 9 C-5.37245106 6.25509788 -4.93580311 4.87939419 -4 2 C-1.9375 0.6875 -1.9375 0.6875 0 0 Z " fill="#94E4DC" transform="translate(345,337)"/>
<path d="M0 0 C2.475 0.495 2.475 0.495 5 1 C3.69593116 3.01920337 2.36176581 5.01924973 1 7 C0.67 7 0.34 7 0 7 C0 4.69 0 2.38 0 0 Z " fill="#7FCAD6" transform="translate(32,326)"/>
<path d="M0 0 C2.97 0.99 5.94 1.98 9 3 C5.77208445 5.1519437 4.71599191 5.20086443 1 5 C0.67 3.35 0.34 1.7 0 0 Z " fill="#4EB9BC" transform="translate(192,261)"/>
<path d="M0 0 C0.33 0 0.66 0 1 0 C0.75 3.375 0.75 3.375 0 7 C-2.0625 8.4375 -2.0625 8.4375 -4 9 C-2.25 2.25 -2.25 2.25 0 0 Z " fill="#A0D8E0" transform="translate(152,165)"/>
<path d="M0 0 C4.95 0.99 4.95 0.99 10 2 C10.33 2.99 10.66 3.98 11 5 C7.08406554 4.21681311 3.63593365 2.60820142 0 1 C0 0.67 0 0.34 0 0 Z " fill="#ACE7E5" transform="translate(302,237)"/>
<path d="M0 0 C2.31 0.33 4.62 0.66 7 1 C7 2.32 7 3.64 7 5 C4.11424181 4.60196439 3.17810487 4.20990931 1.25 1.9375 C0.8375 1.298125 0.425 0.65875 0 0 Z " fill="#34B4B5" transform="translate(253,195)"/>
<path d="M0 0 C2.64 0.66 5.28 1.32 8 2 C8.33 3.65 8.66 5.3 9 7 C7.4972763 6.02501855 5.99788037 5.04490611 4.5 4.0625 C3.6646875 3.51722656 2.829375 2.97195312 1.96875 2.41015625 C1.3190625 1.94480469 0.669375 1.47945312 0 1 C0 0.67 0 0.34 0 0 Z " fill="#AAE3E3" transform="translate(234,180)"/>
<path d="M0 0 C3.40755272 1.92880342 6.74147635 3.8276509 10 6 C10 6.66 10 7.32 10 8 C6.01328937 6.63312778 3.11505367 4.84804907 0 2 C0 1.34 0 0.68 0 0 Z " fill="#76D3CF" transform="translate(345,156)"/>
<path d="M0 0 C0.66 0.66 1.32 1.32 2 2 C1.34 3.32 0.68 4.64 0 6 C-1.32 5.67 -2.64 5.34 -4 5 C-2.68 3.35 -1.36 1.7 0 0 Z " fill="#24A1BA" transform="translate(60,304)"/>
<path d="M0 0 C-6.625 3 -6.625 3 -10 3 C-10 2.01 -10 1.02 -10 0 C-3.375 -1.125 -3.375 -1.125 0 0 Z " fill="#89E3DA" transform="translate(421,239)"/>
<path d="M0 0 C0.33 0.66 0.66 1.32 1 2 C0.22265625 3.9453125 0.22265625 3.9453125 -0.9375 6.125 C-1.31777344 6.84945312 -1.69804687 7.57390625 -2.08984375 8.3203125 C-2.39019531 8.87460938 -2.69054687 9.42890625 -3 10 C-3.33 10 -3.66 10 -4 10 C-4 8.02 -4 6.04 -4 4 C-3.01 4 -2.02 4 -1 4 C-0.67 2.68 -0.34 1.36 0 0 Z " fill="#92E5DB" transform="translate(465,188)"/>
<path d="M0 0 C2.31 0 4.62 0 7 0 C5.35 1.65 3.7 3.3 2 5 C0 1.125 0 1.125 0 0 Z " fill="#6EC5D1" transform="translate(154,182)"/>
<path d="M0 0 C0.33 0.66 0.66 1.32 1 2 C3.02463255 2.65213292 3.02463255 2.65213292 5 3 C2.625 4.5625 2.625 4.5625 0 6 C-0.66 5.67 -1.32 5.34 -2 5 C-1.125 1.125 -1.125 1.125 0 0 Z " fill="#7ACAD7" transform="translate(163,176)"/>
<path d="M0 0 C0.99 0.33 1.98 0.66 3 1 C2.67 2.32 2.34 3.64 2 5 C0.68 5 -0.64 5 -2 5 C-2 4.01 -2 3.02 -2 2 C-1.34 2 -0.68 2 0 2 C0 1.34 0 0.68 0 0 Z " fill="#1FA3B7" transform="translate(157,161)"/>
<path d="M0 0 C0.66 0 1.32 0 2 0 C0.44499019 3.81684226 -2.03595495 6.19195732 -5 9 C-5 4.68381834 -2.86729652 3.07210341 0 0 Z " fill="#D4F4F7" transform="translate(166,145)"/>
<path d="M0 0 C0.99 0 1.98 0 3 0 C3 1.32 3 2.64 3 4 C0.69 4.33 -1.62 4.66 -4 5 C-4 4.34 -4 3.68 -4 3 C-2.68 3 -1.36 3 0 3 C0 2.01 0 1.02 0 0 Z " fill="#43CCB8" transform="translate(420,234)"/>
<path d="M0 0 C3.02419525 0.58803797 6.01758453 1.22678118 9 2 C9 2.99 9 3.98 9 5 C5.22454612 3.90931332 2.52956528 3.0916909 0 0 Z " fill="#98DFDE" transform="translate(293,232)"/>
<path d="M0 0 C-3.96 1.98 -3.96 1.98 -8 4 C-8.33 2.68 -8.66 1.36 -9 0 C-2.25 -1.125 -2.25 -1.125 0 0 Z " fill="#8CE4D9" transform="translate(431,233)"/>
<path d="M0 0 C-0.66 0 -1.32 0 -2 0 C-2 0.66 -2 1.32 -2 2 C-4.31 2.33 -6.62 2.66 -9 3 C-8.67 2.01 -8.34 1.02 -8 0 C-5.04215769 -1.22393475 -3.00272755 -0.96516243 0 0 Z " fill="#17C9B1" transform="translate(448,190)"/>
<path d="M0 0 C0.6875 1.625 0.6875 1.625 1 4 C-0.4375 7.25 -0.4375 7.25 -2 10 C-4 7 -4 7 -4 5 C-3.01 5 -2.02 5 -1 5 C-0.67 3.35 -0.34 1.7 0 0 Z " fill="#A0EBE3" transform="translate(469,178)"/>
<path d="M0 0 C2.97 0 5.94 0 9 0 C5.39338934 1.80330533 2.91606575 2.46599103 -1 3 C-0.67 2.01 -0.34 1.02 0 0 Z " fill="#A0DCE4" transform="translate(68,305)"/>
<path d="M0 0 C3.625 -0.1875 3.625 -0.1875 7 0 C6.01 0.33 5.02 0.66 4 1 C4 1.66 4 2.32 4 3 C2.02 3 0.04 3 -2 3 C-1.34 2.01 -0.68 1.02 0 0 Z " fill="#12CAB3" transform="translate(429,195)"/>
<path d="M0 0 C-1.0625 1.5 -1.0625 1.5 -3 3 C-6.6875 3.1875 -6.6875 3.1875 -10 3 C-6.1865669 0.45771127 -4.5252563 -0.11908569 0 0 Z " fill="#37A9B3" transform="translate(218,119)"/>
</svg>
