<?xml version="1.0" encoding="UTF-8"?>
<svg version="1.1" xmlns="http://www.w3.org/2000/svg" width="225" height="225">
<path d="M0 0 C2.98885268 2.77737346 5.01050908 5.43928991 6.9609375 9.015625 C7.50741943 10.0068335 8.05390137 10.99804199 8.61694336 12.01928711 C9.19710205 13.08542236 9.77726074 14.15155762 10.375 15.25 C11.63231524 17.52833766 12.89147654 19.80565738 14.15234375 22.08203125 C14.47278152 22.66155045 14.7932193 23.24106964 15.12336731 23.83815002 C18.30974153 29.5881411 21.610649 35.26798944 24.9375 40.9375 C26.10428696 42.92831492 27.2709525 44.919201 28.4375 46.91015625 C29.02144531 47.9067627 29.60539063 48.90336914 30.20703125 49.93017578 C33.30437038 55.2332725 36.37113858 60.55394935 39.4375 65.875 C40.06003662 66.95515381 40.68257324 68.03530762 41.32397461 69.14819336 C42.58576826 71.33796334 43.84740534 73.52782355 45.10888672 75.71777344 C48.23680148 81.14659942 51.36858448 86.57319281 54.5 92 C55.75001879 94.16665583 57.00001878 96.3333225 58.25 98.5 C59.178125 100.10875 59.178125 100.10875 60.125 101.75 C80.75 137.5 80.75 137.5 82.62719727 140.75390625 C83.86976019 142.9076172 85.11243489 145.06126367 86.35522461 147.21484375 C89.25314623 152.23684262 92.15003349 157.25942807 95.04275513 162.28442383 C96.05947198 164.05045522 97.07655658 165.81627431 98.09375 167.58203125 C99.36400873 169.78734155 100.63359018 171.99304216 101.90234375 174.19921875 C105.16638294 179.86414009 108.48428892 185.48323534 111.93139648 191.0390625 C113 193 113 193 113 195 C38.75 195.33 -35.5 195.66 -112 196 C-112 168.15210525 -103.07393256 145.27689164 -83.37109375 125.33984375 C-65.01139864 108.02479701 -41.89264965 98.82889025 -16.75 98.8125 C-15.77675781 98.80025391 -14.80351563 98.78800781 -13.80078125 98.77539062 C-6.99873783 98.76184074 -0.64550388 99.5632883 6 101 C4.86784053 108.81546621 3.26494044 116.44451955 1.4375 124.125 C1.21553955 125.06174561 0.9935791 125.99849121 0.76489258 126.96362305 C-0.86912095 133.7382419 -0.86912095 133.7382419 -2 136 C-3.258125 135.835 -4.51625 135.67 -5.8125 135.5 C-24.22340597 133.54993519 -40.37131561 137.57753165 -55.375 148.75 C-61.82557824 154.21063801 -67.12258848 161.01518302 -70 169 C-68.7934375 169.37125 -68.7934375 169.37125 -67.5625 169.75 C-63.25675857 171.26078647 -59.14635993 173.10188856 -55 175 C-54.7215625 174.01 -54.7215625 174.01 -54.4375 173 C-49.63863093 162.98496889 -40.41692567 156.58090985 -30.296875 152.76171875 C-19.86015195 149.3005606 -8.95409255 150.49787751 1.5546875 153.01953125 C2.37316162 153.20890259 3.19163574 153.39827393 4.03491211 153.59338379 C6.02498924 154.05492469 8.0127565 154.52640709 10 155 C10.18570053 154.21739304 10.37140106 153.43478607 10.56272888 152.62846375 C12.31228643 145.25628615 14.06314187 137.88441859 15.81545925 130.51289654 C16.71631404 126.72304186 17.61666495 122.93306894 18.51586914 119.14282227 C19.38352629 115.48563215 20.25250069 111.82875733 21.12239265 108.17209816 C21.45418376 106.77635682 21.78549857 105.38050217 22.1163311 103.98453331 C22.5794701 102.03065007 23.04445371 100.07720434 23.50952148 98.1237793 C23.90590065 96.4549897 23.90590065 96.4549897 24.31028748 94.75248718 C25 92 25 92 26 89 C25.37996094 88.89042969 24.75992188 88.78085938 24.12109375 88.66796875 C18.52196513 87.66550467 12.9464638 86.58440072 7.375 85.4375 C-9.17568741 82.14068299 -24.34622931 82.69745601 -40.8828125 85.63623047 C-43.91370183 86.15698982 -46.95328214 86.58269689 -50 87 C-46.45180902 79.51418245 -42.52748156 72.35950727 -38.29614258 65.24609375 C-34.41228047 58.71674331 -30.60384305 52.1459705 -26.8125 45.5625 C-26.18311523 44.4708252 -25.55373047 43.37915039 -24.90527344 42.25439453 C-21.89364082 37.02921954 -18.88549494 31.80207544 -15.88301086 26.57164001 C-14.85520677 24.78167126 -13.82655008 22.99219533 -12.79760742 21.20288086 C-11.50435049 18.95339951 -10.21276206 16.70295783 -8.9230957 14.45141602 C-6.08956168 9.52530642 -3.24349768 4.66806118 0 0 Z " fill="#61A4F8" transform="translate(112,15)"/>
<path d="M0 0 C2.76857389 2.76857389 4.25357719 4.94947991 6.13671875 8.32421875 C6.71357422 9.35224609 7.29042969 10.38027344 7.88476562 11.43945312 C8.47966797 12.51130859 9.07457031 13.58316406 9.6875 14.6875 C10.59725586 16.31268555 10.59725586 16.31268555 11.52539062 17.97070312 C13.02140286 20.64467775 14.51273714 23.32115216 16 26 C15.34 26.33 14.68 26.66 14 27 C13.71125 26.360625 13.4225 25.72125 13.125 25.0625 C12.17176549 22.84793921 12.17176549 22.84793921 10 22 C10 22.66 10 23.32 10 24 C9.34 24 8.68 24 8 24 C8 23.34 8 22.68 8 22 C7.34 21.67 6.68 21.34 6 21 C6 18 6 18 8 16 C7.34 15.34 6.68 14.68 6 14 C5.01 14 4.02 14 3 14 C3.66 12.68 4.32 11.36 5 10 C4.34 10 3.68 10 3 10 C2.01 6.7 1.02 3.4 0 0 Z " fill="#62A0ED" transform="translate(174,122)"/>
<path d="M0 0 C2.91121708 2.91121708 4.67418635 5.53275902 6.75 9.0625 C7.38421875 10.12597656 8.0184375 11.18945312 8.671875 12.28515625 C9.11015625 13.18105469 9.5484375 14.07695312 10 15 C9.67 15.66 9.34 16.32 9 17 C8.566875 16.505 8.13375 16.01 7.6875 15.5 C6.00259517 13.66781808 6.00259517 13.66781808 3 14 C3.66 12.68 4.32 11.36 5 10 C4.34 10 3.68 10 3 10 C2.01 6.7 1.02 3.4 0 0 Z " fill="#6DA3E3" transform="translate(174,122)"/>
<path d="M0 0 C0.66 0 1.32 0 2 0 C1.01 3.96 0.02 7.92 -1 12 C-3.97 11.67 -6.94 11.34 -10 11 C-10 10.67 -10 10.34 -10 10 C-6.535 9.505 -6.535 9.505 -3 9 C-3 8.34 -3 7.68 -3 7 C-2.34 7 -1.68 7 -1 7 C-0.67 4.69 -0.34 2.38 0 0 Z " fill="#689FE2" transform="translate(111,139)"/>
<path d="M0 0 C2.40575607 2.18517099 3.79535581 4.25919671 5.1875 7.1875 C5.53167969 7.90292969 5.87585938 8.61835938 6.23046875 9.35546875 C6.48441406 9.89816406 6.73835937 10.44085938 7 11 C4.03 10.505 4.03 10.505 1 10 C1.020625 9.0925 1.04125 8.185 1.0625 7.25 C1.0110245 4.57327412 0.7784983 2.53011948 0 0 Z " fill="#659FE7" transform="translate(193,155)"/>
<path d="M0 0 C0.66 0.99 1.32 1.98 2 3 C1.46890625 3.38671875 0.9378125 3.7734375 0.390625 4.171875 C-3.32822227 6.91350693 -6.85329738 9.59107216 -10 13 C-8.65515286 8.95838045 -6.9494838 6.61321846 -3.875 3.6875 C-3.15054688 2.99011719 -2.42609375 2.29273438 -1.6796875 1.57421875 C-1.12539062 1.05472656 -0.57109375 0.53523437 0 0 Z " fill="#6E9FDF" transform="translate(68,175)"/>
<path d="M0 0 C-6.5 3 -6.5 3 -11 3 C-11.66 4.32 -12.32 5.64 -13 7 C-13.66 6.67 -14.32 6.34 -15 6 C-14 3 -14 3 -11.85546875 1.796875 C-10.97503906 1.45140625 -10.09460938 1.1059375 -9.1875 0.75 C-8.31480469 0.39421875 -7.44210938 0.0384375 -6.54296875 -0.328125 C-3.86358764 -1.03604136 -2.56787877 -0.9337741 0 0 Z " fill="#69A0E4" transform="translate(88,168)"/>
<path d="M0 0 C2.62400522 2.37409996 4.44568209 4.81364829 6 8 C5.6875 10.3125 5.6875 10.3125 5 12 C5 11.01 5 10.02 5 9 C3.68 8.67 2.36 8.34 1 8 C0.17361624 5.10765685 0 3.11257569 0 0 Z " fill="#6EA4EC" transform="translate(121,30)"/>
<path d="M0 0 C2.79872437 2.52788007 4.45773019 4.20411134 5 8 C4.34 8 3.68 8 3 8 C2.34 6.68 1.68 5.36 1 4 C-0.32 5.32 -1.64 6.64 -3 8 C-3.33 7.34 -3.66 6.68 -4 6 C-2.68 4.02 -1.36 2.04 0 0 Z " fill="#6C9BDE" transform="translate(112,15)"/>
<path d="M0 0 C0 4.27053927 -2.30125972 5.82898018 -5 9 C-5 9.66 -5 10.32 -5 11 C-6.32 11 -7.64 11 -9 11 C-7.59155282 7.78475695 -5.89655214 5.67816132 -3.375 3.25 C-2.74335938 2.63640625 -2.11171875 2.0228125 -1.4609375 1.390625 C-0.73777344 0.70226562 -0.73777344 0.70226562 0 0 Z " fill="#7AA9E7" transform="translate(32,137)"/>
<path d="M0 0 C2.97 0.33 5.94 0.66 9 1 C5.71536341 3.18975773 2.79303725 3.99806563 -1 5 C-1 2 -1 2 0 0 Z " fill="#65A1E8" transform="translate(70,150)"/>
<path d="M0 0 C0.66 0.99 1.32 1.98 2 3 C1.34 3.433125 0.68 3.86625 0 4.3125 C-0.66 4.869375 -1.32 5.42625 -2 6 C-2 6.99 -2 7.98 -2 9 C-3.32 8.34 -4.64 7.68 -6 7 C-4.02 4.69 -2.04 2.38 0 0 Z " fill="#6FA5ED" transform="translate(22,148)"/>
<path d="M0 0 C0.66 0 1.32 0 2 0 C0.87548273 2.9719385 -0.22293791 5.33440687 -2 8 C-0.68 8.33 0.64 8.66 2 9 C-0.31 9.33 -2.62 9.66 -5 10 C-3.35 6.7 -1.7 3.4 0 0 Z " fill="#6D9CD6" transform="translate(67,92)"/>
<path d="M0 0 C4.23429756 1.31061591 8.07407404 2.94356259 12 5 C9 6 9 6 5.4375 4.75 C2 3 2 3 0 0 Z " fill="#699CE6" transform="translate(44,185)"/>
<path d="M0 0 C1.32 0 2.64 0 4 0 C3.67 2.64 3.34 5.28 3 8 C1.68 6.68 0.36 5.36 -1 4 C-0.34 3.34 0.32 2.68 1 2 C0.67 1.34 0.34 0.68 0 0 Z " fill="#60A0E4" transform="translate(114,116)"/>
<path d="M0 0 C0.99 0.33 1.98 0.66 3 1 C3 1.66 3 2.32 3 3 C5.31 3.33 7.62 3.66 10 4 C5.47907032 5.45606519 2.48351204 4.27032841 -2 3 C-2 2.34 -2 1.68 -2 1 C-1.34 0.67 -0.68 0.34 0 0 Z " fill="#669DE0" transform="translate(125,98)"/>
<path d="M0 0 C3.09592835 3.5087188 4.74194623 6.49197399 6 11 C5.38125 10.34 4.7625 9.68 4.125 9 C2.24362573 6.7715451 2.24362573 6.7715451 0 7 C0 4.69 0 2.38 0 0 Z " fill="#649FEA" transform="translate(153,85)"/>
<path d="M0 0 C2.96865509 2.54456151 4.3619751 5.48994665 6 9 C4.35 9.33 2.7 9.66 1 10 C1.020625 9.0925 1.04125 8.185 1.0625 7.25 C1.0110245 4.57327412 0.7784983 2.53011948 0 0 Z " fill="#659FE4" transform="translate(129,44)"/>
<path d="M0 0 C0.66 0 1.32 0 2 0 C0.44499019 3.81684226 -2.03595495 6.19195732 -5 9 C-4.67 7.35 -4.34 5.7 -4 4 C-3.34 4 -2.68 4 -2 4 C-2 3.34 -2 2.68 -2 2 C-1.34 2 -0.68 2 0 2 C0 1.34 0 0.68 0 0 Z " fill="#71A2E4" transform="translate(49,168)"/>
<path d="M0 0 C0.99 0.33 1.98 0.66 3 1 C2.67 1.99 2.34 2.98 2 4 C0.68 3.67 -0.64 3.34 -2 3 C-2 3.66 -2 4.32 -2 5 C-3.32 5.33 -4.64 5.66 -6 6 C-4 4 -2 2 0 0 Z " fill="#679FE8" transform="translate(40,131)"/>
<path d="M0 0 C2.64 0.33 5.28 0.66 8 1 C8 1.66 8 2.32 8 3 C5.69 3.33 3.38 3.66 1 4 C0.67 2.68 0.34 1.36 0 0 Z " fill="#63A0EA" transform="translate(105,114)"/>
<path d="M0 0 C2.61500768 2.36595933 4.38999603 4.86049226 6 8 C5.67 8.66 5.34 9.32 5 10 C0 4.5 0 4.5 0 0 Z " fill="#689DE2" transform="translate(137,58)"/>
<path d="M0 0 C2.74277578 3.19990508 4.6302836 6.00499382 6 10 C5.01 9.67 4.02 9.34 3 9 C3 8.01 3 7.02 3 6 C2.34 6 1.68 6 1 6 C0.67 4.02 0.34 2.04 0 0 Z " fill="#629EE3" transform="translate(214,191)"/>
</svg>
