<svg version="1.1" xmlns="http://www.w3.org/2000/svg" viewBox="50.53 62.6 179.48 155.87">
<path d="M0 0 C0.70949799 -0.0049649 1.41899597 -0.00992981 2.1499939 -0.01504517 C4.4922585 -0.02962364 6.83445533 -0.03646225 9.17675781 -0.04199219 C10.81097413 -0.04774804 12.44519044 -0.05350572 14.07940674 -0.05926514 C17.50574049 -0.06976345 20.93205087 -0.07561348 24.35839844 -0.07910156 C28.73402729 -0.08457794 33.10934366 -0.10859245 37.48487473 -0.13707352 C40.86164227 -0.15576326 44.23833557 -0.1609089 47.61515045 -0.16243744 C49.22738601 -0.16545119 50.83962066 -0.17343626 52.45180511 -0.18662262 C63.26745517 -0.2687577 72.42734934 -0.13673282 80.77050781 7.67285156 C85.09095683 12.76938124 88.14998591 18.69580623 91.390625 24.51269531 C94.23922259 29.57852918 97.1948433 34.58257359 100.12988281 39.59863281 C100.99734131 41.08931274 100.99734131 41.08931274 101.88232422 42.61010742 C104.58639789 47.25625411 107.31084031 51.88652505 110.09472656 56.48535156 C112.27265309 60.10430947 114.31048158 63.7520403 116.19238281 67.53613281 C116.68351563 68.51324219 117.17464844 69.49035156 117.68066406 70.49707031 C120.01865766 75.69091928 119.88367606 78.29052396 117.97216797 83.58251953 C115.8869243 88.50526061 113.22797614 93.0937556 110.56738281 97.72363281 C109.64783813 99.34325928 109.64783813 99.34325928 108.7097168 100.99560547 C106.7769248 104.39024538 104.83061866 107.77677638 102.87988281 111.16113281 C102.24920898 112.2576416 101.61853516 113.35415039 100.96875 114.48388672 C99.13224748 117.67126433 97.28949691 120.85489412 95.44238281 124.03613281 C94.88832764 124.99076416 94.33427246 125.94539551 93.76342773 126.92895508 C79.61245629 151.12870624 79.61245629 151.12870624 68.77612305 154.55450439 C62.40679277 155.88858459 55.82854886 155.58856031 49.34863281 155.55957031 C47.74637724 155.56159529 46.14412257 155.56451025 44.54187012 155.56826782 C41.19660601 155.57267124 37.8515835 155.56632451 34.50634766 155.55224609 C30.23963942 155.53515525 25.97349751 155.54500714 21.70681 155.56296349 C18.40203663 155.57385523 15.09739535 155.57033041 11.7926178 155.56258011 C10.22030061 155.56059296 8.64797104 155.56298456 7.07566833 155.57001877 C-13.30163287 155.6411986 -13.30163287 155.6411986 -20.71630859 148.79492188 C-23.78299483 145.22583243 -26.00277177 141.11927355 -28.30761719 137.03613281 C-28.87222656 136.05765381 -29.43683594 135.0791748 -30.01855469 134.07104492 C-31.1761565 132.06296346 -32.32900535 130.05213445 -33.47705078 128.03857422 C-35.39588038 124.67819894 -37.345127 121.33635159 -39.29785156 117.99560547 C-40.63140757 115.7042332 -41.948883 113.40416535 -43.26464844 111.10253906 C-45.35615299 107.45265858 -47.51402567 103.84845949 -49.69433594 100.25097656 C-50.8991447 98.22125515 -52.1035774 96.19131047 -53.30761719 94.16113281 C-53.88511719 93.22986572 -54.46261719 92.29859863 -55.05761719 91.33911133 C-58.82890433 84.90165723 -60.43579066 79.62018133 -59.12011719 72.16113281 C-58.1316465 69.2726127 -56.76475192 66.84896645 -55.12011719 64.28613281 C-54.71438477 63.61050293 -54.30865234 62.93487305 -53.890625 62.23876953 C-52.65747587 60.19711601 -51.39322296 58.17805315 -50.12011719 56.16113281 C-49.38446075 54.97442623 -48.65001964 53.78696511 -47.91699219 52.59863281 C-46.6389077 50.53028234 -45.34914341 48.46905001 -44.04199219 46.41894531 C-42.49717809 43.80029703 -41.1316356 41.2104927 -39.79589844 38.48535156 C-36.98177856 32.77790112 -33.80614111 27.31766675 -30.55761719 21.84863281 C-29.99365234 20.88634766 -29.4296875 19.9240625 -28.84863281 18.93261719 C-21.49928518 6.51178991 -21.49928518 6.51178991 -15.62011719 3.41113281 C-14.86730469 3.00378906 -14.11449219 2.59644531 -13.33886719 2.17675781 C-8.86918876 0.13077825 -4.90709305 0.02614381 0 0 Z M25.87988281 8.16113281 C25.55826172 8.72396973 25.23664063 9.28680664 24.90527344 9.86669922 C24.45345703 10.65737793 24.00164062 11.44805664 23.53613281 12.26269531 C23.035896 13.13812988 22.53565918 14.01356445 22.02026367 14.91552734 C20.91698076 16.84623138 19.81362668 18.77689475 18.71020508 20.70751953 C15.19685031 26.85477955 15.19685031 26.85477955 11.68847656 33.00488281 C7.43400668 40.46574857 3.1416676 47.90374443 -1.17700195 55.32763672 C-3.39274338 59.14406523 -5.57822831 62.97284425 -7.70996094 66.83691406 C-10.28558229 71.49923042 -13.06380526 76.02810889 -15.86230469 80.55957031 C-17.50182819 83.17873277 -17.50182819 83.17873277 -16.12011719 86.16113281 C-12.3083148 86.93544107 -8.49555337 87.70492871 -4.68261719 88.47363281 C-3.54928955 88.7036499 -2.41596191 88.93366699 -1.24829102 89.1706543 C3.88507483 90.20314225 9.01043697 91.2133671 14.18457031 92.02050781 C15.34194702 92.20359497 15.34194702 92.20359497 16.52270508 92.39038086 C18.56291641 92.7037474 20.60610361 92.99756126 22.64941406 93.29003906 C26.527056 94.33564263 27.58562422 94.86265945 29.87988281 98.16113281 C30.50838203 101.85643029 30.48488464 105.52900576 30.48925781 109.27050781 C30.50579407 110.35245422 30.52233032 111.43440063 30.53936768 112.5491333 C30.58793383 116.00319039 30.60923847 119.45680692 30.62988281 122.91113281 C30.65803517 125.253603 30.68796155 127.59605258 30.71972656 129.93847656 C30.79369505 135.67928177 30.84528709 141.41996264 30.87988281 147.16113281 C34.2910218 146.54384792 34.2910218 146.54384792 36.52832031 143.84472656 C37.09808594 142.77351562 37.66785156 141.70230469 38.25488281 140.59863281 C38.95862817 139.30718522 39.66452397 138.01690813 40.37207031 136.72753906 C40.76620117 136.00324707 41.16033203 135.27895508 41.56640625 134.53271484 C44.0853225 129.9846196 46.74618875 125.51837501 49.37988281 121.03613281 C54.78553435 111.79447516 60.13172087 102.52007005 65.44238281 93.22363281 C65.94825928 92.33862091 65.94825928 92.33862091 66.46435547 91.43572998 C70.31257747 84.70110603 74.13478968 77.95371446 77.87988281 71.16113281 C71.2519203 68.41549134 64.66485879 66.94044231 57.62988281 65.59863281 C56.57414062 65.39044922 55.51839844 65.18226563 54.43066406 64.96777344 C48.05654969 63.72337779 41.68050118 62.6336698 35.25195312 61.70825195 C32.87988281 61.16113281 32.87988281 61.16113281 30.87988281 59.16113281 C30.60140991 57.02243042 30.60140991 57.02243042 30.56103516 54.34423828 C30.54116547 53.34335175 30.52129578 52.34246521 30.50082397 51.31124878 C30.48927277 50.22788239 30.47772156 49.14451599 30.46582031 48.02832031 C30.44645416 46.92134796 30.42708801 45.81437561 30.40713501 44.67385864 C30.34721527 41.12802913 30.30090408 37.58216736 30.25488281 34.03613281 C30.21671447 31.63637884 30.17766342 29.23663873 30.13769531 26.83691406 C30.04150365 20.9451098 29.95649267 15.05322245 29.87988281 9.16113281 C28.55988281 8.83113281 27.23988281 8.50113281 25.87988281 8.16113281 Z " fill="#10C3AA" transform="translate(110.1201171875,62.8388671875)"/>
<path d="M0 0 C12.54 0 25.08 0 38 0 C37.34 0.33 36.68 0.66 36 1 C36.495 1.99 36.495 1.99 37 3 C38.051875 2.690625 38.051875 2.690625 39.125 2.375 C42.83662241 1.89087534 44.62666515 2.34775436 48 4 C53.02793184 8.80932611 56.16961996 14.53298753 59.5234375 20.57421875 C62.63965639 26.18156259 65.8885732 31.71148211 69.125 37.25 C69.71087891 38.25538818 70.29675781 39.26077637 70.90039062 40.29663086 C73.64270574 44.99636227 76.40494869 49.6809745 79.22265625 54.3359375 C81.39775348 57.95100964 83.43273667 61.59520636 85.3125 65.375 C86.04919922 66.84066406 86.04919922 66.84066406 86.80078125 68.3359375 C87.81932395 70.59862846 88.44391244 72.60125355 89 75 C80.67726937 74.34828581 72.52638023 72.96154453 64.3125 71.5 C61.76708509 71.05118629 59.22151679 70.60324149 56.67578125 70.15625 C55.56114502 69.95837891 54.44650879 69.76050781 53.2980957 69.55664062 C51.0218781 69.17246888 48.73961162 68.82308055 46.45361328 68.50219727 C43.29055849 68.04225073 40.19312065 67.46773895 37.06640625 66.80859375 C35.47602539 66.47504883 35.47602539 66.47504883 33.85351562 66.13476562 C32.76748047 65.90466797 31.68144531 65.67457031 30.5625 65.4375 C28.8928418 65.08655273 28.8928418 65.08655273 27.18945312 64.72851562 C24.4592074 64.15434378 21.7294126 63.57811692 19 63 C19 62.34 19 61.68 19 61 C18.236875 60.855625 17.47375 60.71125 16.6875 60.5625 C12.20050604 59.62336173 10.02334058 58.44035307 7 55 C7 54.34 7 53.68 7 53 C6.34 53 5.68 53 5 53 C5 53.99 5 54.98 5 56 C3.68 55.67 2.36 55.34 1 55 C0.1027915 50.40481348 -0.14661309 45.95973142 -0.1328125 41.29296875 C-0.13376923 40.56813797 -0.13472595 39.84330719 -0.13571167 39.09651184 C-0.13638904 37.56946729 -0.13456581 36.0424198 -0.13037109 34.51538086 C-0.12504003 32.20484783 -0.13031908 29.89451125 -0.13671875 27.58398438 C-0.14661959 8.29323918 -0.14661959 8.29323918 2 4 C1.34 4 0.68 4 0 4 C0 2.68 0 1.36 0 0 Z " fill="#0DC8AB" transform="translate(141,65)"/>
<path d="M0 0 C0.70949799 -0.0049649 1.41899597 -0.00992981 2.1499939 -0.01504517 C4.4922585 -0.02962364 6.83445533 -0.03646225 9.17675781 -0.04199219 C10.81097413 -0.04774804 12.44519044 -0.05350572 14.07940674 -0.05926514 C17.50574049 -0.06976345 20.93205087 -0.07561348 24.35839844 -0.07910156 C28.73402729 -0.08457794 33.10934366 -0.10859245 37.48487473 -0.13707352 C40.86164227 -0.15576326 44.23833557 -0.1609089 47.61515045 -0.16243744 C49.22738601 -0.16545119 50.83962066 -0.17343626 52.45180511 -0.18662262 C68.37115289 -0.30751567 68.37115289 -0.30751567 74.87988281 3.16113281 C75.20988281 3.82113281 75.53988281 4.48113281 75.87988281 5.16113281 C72.87988281 5.16113281 69.87988281 5.16113281 66.87988281 5.16113281 C66.87988281 4.50113281 66.87988281 3.84113281 66.87988281 3.16113281 C55.32988281 3.16113281 43.77988281 3.16113281 31.87988281 3.16113281 C31.54988281 4.15113281 31.21988281 5.14113281 30.87988281 6.16113281 C31.53988281 6.16113281 32.19988281 6.16113281 32.87988281 6.16113281 C33.0049311 12.66364351 33.0049311 12.66364351 32.3830719 15.13763428 C31.85299627 17.26925298 31.75941676 19.0938612 31.76635742 21.28710938 C31.76643295 22.08763733 31.76650848 22.88816528 31.7665863 23.71295166 C31.77174759 24.56725769 31.77690887 25.42156372 31.78222656 26.30175781 C31.78364151 27.18393982 31.78505646 28.06612183 31.78651428 28.97503662 C31.7921028 31.78710347 31.8046532 34.59909011 31.81738281 37.41113281 C31.8223993 39.31998583 31.82696194 41.22884009 31.83105469 43.13769531 C31.84206847 47.81220529 31.85932523 52.48665546 31.87988281 57.16113281 C33.85988281 57.65613281 33.85988281 57.65613281 35.87988281 58.16113281 C35.87988281 57.17113281 35.87988281 56.18113281 35.87988281 55.16113281 C36.53988281 55.16113281 37.19988281 55.16113281 37.87988281 55.16113281 C37.87988281 55.82113281 37.87988281 56.48113281 37.87988281 57.16113281 C39.19988281 57.82113281 40.51988281 58.48113281 41.87988281 59.16113281 C41.87988281 59.82113281 41.87988281 60.48113281 41.87988281 61.16113281 C42.74613281 61.34675781 42.74613281 61.34675781 43.62988281 61.53613281 C45.90600487 62.16838894 47.78748487 63.07976749 49.87988281 64.16113281 C46.5445708 63.84572101 43.2122602 63.50602901 39.87988281 63.16113281 C37.93082031 62.97550781 37.93082031 62.97550781 35.94238281 62.78613281 C32.64541143 62.11328151 31.85133139 61.77241084 29.87988281 59.16113281 C29.4811554 56.9021759 29.4811554 56.9021759 29.44750977 54.23071289 C29.42771561 53.22990189 29.40792145 52.22909088 29.38752747 51.19795227 C29.38113754 50.11974716 29.37474762 49.04154205 29.36816406 47.93066406 C29.35021286 46.82510666 29.33226166 45.71954926 29.31376648 44.58049011 C29.25952854 41.04490996 29.22572389 37.50946585 29.19238281 33.97363281 C29.15922172 31.57843153 29.12473321 29.18324824 29.08886719 26.78808594 C29.00379436 20.91255687 28.93550163 15.03701049 28.87988281 9.16113281 C27.88988281 8.83113281 26.89988281 8.50113281 25.87988281 8.16113281 C25.60982422 8.8755957 25.33976562 9.59005859 25.06152344 10.32617188 C23.86794781 13.18976695 22.49161758 15.81582174 20.97363281 18.52050781 C20.3995166 19.54563477 19.82540039 20.57076172 19.23388672 21.62695312 C18.62206543 22.71073242 18.01024414 23.79451172 17.37988281 24.91113281 C16.75130371 26.02842773 16.12272461 27.14572266 15.47509766 28.296875 C9.02379525 39.73260198 2.44079696 51.07488921 -4.49511719 62.22363281 C-6.9591963 66.19683669 -9.24116587 70.15727111 -11.24511719 74.37988281 C-12.19997779 76.32370619 -13.26958756 78.1713465 -14.37011719 80.03613281 C-16.28298498 82.85502862 -16.28298498 82.85502862 -16.12011719 85.16113281 C-12.49011719 85.82113281 -8.86011719 86.48113281 -5.12011719 87.16113281 C-5.12011719 87.49113281 -5.12011719 87.82113281 -5.12011719 88.16113281 C-10.55328698 89.20963926 -13.04469764 89.33800596 -18.18579102 86.96948242 C-21.56981065 85.55530989 -25.10449268 84.85613927 -28.68261719 84.09863281 C-29.46475586 83.92871826 -30.24689453 83.75880371 -31.05273438 83.58374023 C-37.04293272 82.31414488 -43.03073433 81.34055789 -49.10449219 80.55566406 C-52.12404932 80.16061838 -55.11920904 79.67775622 -58.12011719 79.16113281 C-58.61511719 80.15113281 -58.61511719 80.15113281 -59.12011719 81.16113281 C-59.68193116 74.38425177 -58.70290979 70.1450515 -55.12011719 64.41113281 C-54.51151855 63.38415283 -54.51151855 63.38415283 -53.890625 62.33642578 C-52.65517601 60.26404423 -51.39296382 58.21071656 -50.12011719 56.16113281 C-49.74693359 55.55624023 -49.37375 54.95134766 -48.98925781 54.328125 C-47.35567678 51.68136666 -45.71416881 49.0415471 -44.04199219 46.41894531 C-42.49717809 43.80029703 -41.1316356 41.2104927 -39.79589844 38.48535156 C-36.98177856 32.77790112 -33.80614111 27.31766675 -30.55761719 21.84863281 C-29.99365234 20.88634766 -29.4296875 19.9240625 -28.84863281 18.93261719 C-21.49928518 6.51178991 -21.49928518 6.51178991 -15.62011719 3.41113281 C-14.86730469 3.00378906 -14.11449219 2.59644531 -13.33886719 2.17675781 C-8.86918876 0.13077825 -4.90709305 0.02614381 0 0 Z " fill="#2999A4" transform="translate(110.1201171875,62.8388671875)"/>
<path d="M0 0 C27.57723112 3.76859268 27.57723112 3.76859268 41 7 C40.58300078 13.09356921 39.17595831 17.20323944 35.875 22.375 C34.96691138 23.85694784 34.06079554 25.34010565 33.15625 26.82421875 C32.40601563 28.0450415 32.40601563 28.0450415 31.640625 29.29052734 C28.46343511 34.53761863 25.43086699 39.86918187 22.375 45.1875 C21.40119385 46.87311035 21.40119385 46.87311035 20.40771484 48.59277344 C17.74183348 53.20964777 15.07966194 57.826042 12.5078125 62.49609375 C7.47202145 71.6291181 2.71521602 79.50221481 -7 84 C-10.97149177 85.02629111 -14.71722288 85.12111832 -18.80981445 85.11352539 C-19.47378738 85.11367142 -20.13776031 85.11381744 -20.82185364 85.1139679 C-23.00236349 85.11327483 -25.18278644 85.10551099 -27.36328125 85.09765625 C-28.8807114 85.09578992 -30.39814215 85.09436703 -31.91557312 85.09336853 C-35.89891235 85.08956032 -39.8822148 85.07974459 -43.86553955 85.06866455 C-47.93444318 85.05841389 -52.00335279 85.05386309 -56.07226562 85.04882812 C-64.04819391 85.03812074 -72.02409237 85.02106478 -80 85 C-80 84.67 -80 84.34 -80 84 C-70.76 83.67 -61.52 83.34 -52 83 C-52 80.36 -52 77.72 -52 75 C-51.01 75 -50.02 75 -49 75 C-49.09231915 68.37946382 -49.19963152 61.75929253 -49.31738281 55.13916016 C-49.35567157 52.88693764 -49.39052461 50.634654 -49.421875 48.38232422 C-49.46752737 45.14528553 -49.52552215 41.90866764 -49.5859375 38.671875 C-49.59748871 37.66445251 -49.60903992 36.65703003 -49.62094116 35.61907959 C-49.64081085 34.67840637 -49.66068054 33.73773315 -49.68115234 32.76855469 C-49.69447601 31.94248718 -49.70779968 31.11641968 -49.7215271 30.26531982 C-50.02472816 27.79884149 -50.76716538 26.14090571 -52 24 C-48.125 25.75 -48.125 25.75 -47 28 C-46.90996034 29.57291208 -46.88243491 31.14961575 -46.88647461 32.72509766 C-46.88655014 33.70596344 -46.88662567 34.68682922 -46.88670349 35.69741821 C-46.89186478 36.75891083 -46.89702606 37.82040344 -46.90234375 38.9140625 C-46.9037587 39.99883881 -46.90517365 41.08361511 -46.90663147 42.20126343 C-46.91224198 45.67587 -46.92479628 49.15041281 -46.9375 52.625 C-46.94251365 54.97656157 -46.94707679 57.32812415 -46.95117188 59.6796875 C-46.96221482 65.45314686 -46.97896321 71.22656888 -47 77 C-42.98926157 75.66308719 -42.68968784 74.12667538 -40.6875 70.4375 C-39.97431697 69.1462168 -39.25933428 67.85592661 -38.54296875 66.56640625 C-38.14255371 65.84211426 -37.74213867 65.11782227 -37.32958984 64.37158203 C-34.78593935 59.83448675 -32.13264097 55.360826 -29.5 50.875 C-23.42769316 40.4974949 -17.44668552 30.06982943 -11.50585938 19.61669922 C-7.75380412 13.02569102 -3.93841657 6.48151888 0 0 Z " fill="#2998A4" transform="translate(188,133)"/>
<path d="M0 0 C3.875 1.75 3.875 1.75 5 4 C5.09003966 5.57291208 5.11756509 7.14961575 5.11352539 8.72509766 C5.11344986 9.70596344 5.11337433 10.68682922 5.11329651 11.69741821 C5.10813522 12.75891083 5.10297394 13.82040344 5.09765625 14.9140625 C5.0962413 15.99883881 5.09482635 17.08361511 5.09336853 18.20126343 C5.08775802 21.67587 5.07520372 25.15041281 5.0625 28.625 C5.05748635 30.97656157 5.05292321 33.32812415 5.04882812 35.6796875 C5.03778518 41.45314686 5.02103679 47.22656888 5 53 C9.0787449 51.64041837 9.45880941 49.87006579 11.5 46.125 C12.19837878 44.86411772 12.8976501 43.60372953 13.59765625 42.34375 C14.16637451 41.31121094 14.16637451 41.31121094 14.74658203 40.2578125 C17.09856668 36.02112493 19.51877703 31.82382098 21.9375 27.625 C22.4221875 26.77437988 22.906875 25.92375977 23.40625 25.04736328 C23.85871094 24.26087402 24.31117188 23.47438477 24.77734375 22.6640625 C25.18202881 21.95717285 25.58671387 21.2502832 26.00366211 20.52197266 C26.33245361 20.01972168 26.66124512 19.5174707 27 19 C27.33 19 27.66 19 28 19 C28.8125 21.6875 28.8125 21.6875 29 25 C28.21625 25.763125 27.4325 26.52625 26.625 27.3125 C23.34724107 30.66830081 23.55816496 32.42956933 23.3046875 36.91015625 C23 39 23 39 21.0625 41.5 C19 43 19 43 17 44 C16.690625 44.969375 16.38125 45.93875 16.0625 46.9375 C15 50 15 50 12 52 C12.99 53.32 13.98 54.64 15 56 C13.02 56.495 13.02 56.495 11 57 C11.66 57.33 12.32 57.66 13 58 C13 58.66 13 59.32 13 60 C7.39 60 1.78 60 -4 60 C-2.02 59.505 -2.02 59.505 0 59 C0 56.36 0 53.72 0 51 C0.99 51 1.98 51 3 51 C2.90768085 44.37946382 2.80036848 37.75929253 2.68261719 31.13916016 C2.64432843 28.88693764 2.60947539 26.634654 2.578125 24.38232422 C2.53247263 21.14528553 2.47447785 17.90866764 2.4140625 14.671875 C2.40251129 13.66445251 2.39096008 12.65703003 2.37905884 11.61907959 C2.35918915 10.67840637 2.33931946 9.73773315 2.31884766 8.76855469 C2.30552399 7.94248718 2.29220032 7.11641968 2.2784729 6.26531982 C1.97527184 3.79884149 1.23283462 2.14090571 0 0 Z " fill="#27A7A5" transform="translate(136,157)"/>
<path d="M0 0 C7.17156168 -0.07609679 14.34301914 -0.12861962 21.51489258 -0.16479492 C23.95438528 -0.17987654 26.3938509 -0.20034469 28.83325195 -0.22631836 C32.34072559 -0.26272812 35.84784054 -0.27973289 39.35546875 -0.29296875 C40.44522507 -0.30845261 41.53498138 -0.32393646 42.65776062 -0.33988953 C52.00274878 -0.34196413 52.00274878 -0.34196413 56 3 C53.3260876 3.89130413 50.76276177 4.47731534 48 5 C47.505 3.515 47.505 3.515 47 2 C35.45 2 23.9 2 12 2 C11.67 2.99 11.34 3.98 11 5 C11.66 5 12.32 5 13 5 C13.12504828 11.5025107 13.12504828 11.5025107 12.50318909 13.97650146 C11.97311345 16.10812017 11.87953395 17.93272839 11.88647461 20.12597656 C11.88655014 20.92650452 11.88662567 21.72703247 11.88670349 22.55181885 C11.89186478 23.40612488 11.89702606 24.26043091 11.90234375 25.140625 C11.90446617 26.46389801 11.90446617 26.46389801 11.90663147 27.81390381 C11.91221999 30.62597065 11.92477039 33.4379573 11.9375 36.25 C11.94251648 38.15885302 11.94707913 40.06770728 11.95117188 41.9765625 C11.96218566 46.65107247 11.97944242 51.32552265 12 56 C13.32 56.33 14.64 56.66 16 57 C16 56.01 16 55.02 16 54 C16.66 54 17.32 54 18 54 C18 54.66 18 55.32 18 56 C19.32 56.66 20.64 57.32 22 58 C22 58.66 22 59.32 22 60 C22.86625 60.185625 22.86625 60.185625 23.75 60.375 C26.02612206 61.00725613 27.90760206 61.91863468 30 63 C26.66468799 62.6845882 23.33237739 62.3448962 20 62 C18.0509375 61.814375 18.0509375 61.814375 16.0625 61.625 C12.76403829 60.95184455 11.95701384 60.62867006 10 58 C9.63923645 55.62715149 9.63923645 55.62715149 9.65942383 52.79418945 C9.65965042 51.73331619 9.65987701 50.67244293 9.66011047 49.579422 C9.67559433 48.43559555 9.69107819 47.2917691 9.70703125 46.11328125 C9.71127609 44.94113571 9.71552094 43.76899017 9.71989441 42.56132507 C9.73670928 38.81148466 9.77436768 35.06217843 9.8125 31.3125 C9.82754316 28.77279421 9.8412322 26.23308001 9.85351562 23.69335938 C9.88662204 17.46205681 9.93684972 11.23106656 10 5 C8.68 5 7.36 5 6 5 C6.33 3.68 6.66 2.36 7 1 C4.69 1.33 2.38 1.66 0 2 C0 1.34 0 0.68 0 0 Z " fill="#28A99F" transform="translate(130,64)"/>
<path d="M0 0 C0.33 0.66 0.66 1.32 1 2 C0.29296875 3.8046875 0.29296875 3.8046875 -0.8125 5.875 C-1.16957031 6.55304688 -1.52664062 7.23109375 -1.89453125 7.9296875 C-2.62678232 9.30104109 -3.37147588 10.66582874 -4.12890625 12.0234375 C-5.43852616 14.99504142 -5.12302593 17.80132582 -5 21 C-5.7425 21.185625 -6.485 21.37125 -7.25 21.5625 C-11.16528579 23.60912666 -12.04375275 26.0875055 -14 30 C-13.34 30 -12.68 30 -12 30 C-12.33 30.99 -12.66 31.98 -13 33 C-12.01 33.66 -11.02 34.32 -10 35 C-11.98 35 -13.96 35 -16 35 C-16.33 35.99 -16.66 36.98 -17 38 C-17.56178042 31.2235237 -16.58342223 26.98347558 -13 21.25 C-12.59789307 20.57259766 -12.19578613 19.89519531 -11.78149414 19.19726562 C-10.54076011 17.1187627 -9.27317707 15.05875441 -8 13 C-7.20615357 11.69324111 -6.41315346 10.38596763 -5.62109375 9.078125 C-3.77093221 6.03718524 -1.89399763 3.01388179 0 0 Z " fill="#41859C" transform="translate(68,106)"/>
<path d="M0 0 C7.17156168 -0.07609679 14.34301914 -0.12861962 21.51489258 -0.16479492 C23.95438528 -0.17987654 26.3938509 -0.20034469 28.83325195 -0.22631836 C32.34072559 -0.26272812 35.84784054 -0.27973289 39.35546875 -0.29296875 C40.44522507 -0.30845261 41.53498138 -0.32393646 42.65776062 -0.33988953 C52.00274878 -0.34196413 52.00274878 -0.34196413 56 3 C53.3260876 3.89130413 50.76276177 4.47731534 48 5 C47.505 3.515 47.505 3.515 47 2 C35.45 2 23.9 2 12 2 C11.67 2.99 11.34 3.98 11 5 C11.66 5 12.32 5 13 5 C13.17700355 9.60209225 13.10814567 11.78370866 11 16 C10.67 12.37 10.34 8.74 10 5 C8.68 5 7.36 5 6 5 C6.33 3.68 6.66 2.36 7 1 C4.69 1.33 2.38 1.66 0 2 C0 1.34 0 0.68 0 0 Z " fill="#1EB2A5" transform="translate(130,64)"/>
<path d="M0 0 C3.875 1.75 3.875 1.75 5 4 C5.09003966 5.57291208 5.11756509 7.14961575 5.11352539 8.72509766 C5.11341209 10.19639633 5.11341209 10.19639633 5.11329651 11.69741821 C5.10813522 12.75891083 5.10297394 13.82040344 5.09765625 14.9140625 C5.0962413 15.99883881 5.09482635 17.08361511 5.09336853 18.20126343 C5.08775802 21.67587 5.07520372 25.15041281 5.0625 28.625 C5.05748635 30.97656157 5.05292321 33.32812415 5.04882812 35.6796875 C5.03778518 41.45314686 5.02103679 47.22656888 5 53 C4.34 53 3.68 53 3 53 C2.99191315 52.39500671 2.98382629 51.79001343 2.97549438 51.16668701 C2.88946741 44.87246604 2.78996444 38.57856068 2.68261719 32.28466797 C2.64432334 29.93543801 2.60947121 27.58614934 2.578125 25.23681641 C2.53248373 21.86078906 2.47448701 18.48516609 2.4140625 15.109375 C2.39673569 13.53261993 2.39673569 13.53261993 2.37905884 11.92401123 C2.35918915 10.94329651 2.33931946 9.96258179 2.31884766 8.95214844 C2.30552399 8.09055115 2.29220032 7.22895386 2.2784729 6.34124756 C1.98002319 3.83204596 1.2596594 2.17274086 0 0 Z " fill="#37A5A2" transform="translate(136,157)"/>
<path d="M0 0 C0.66 0.99 1.32 1.98 2 3 C-4.0569826 14.18096207 -10.16708077 25.27094631 -17 36 C-17.66 35.67 -18.32 35.34 -19 35 C-19 33.35 -19 31.7 -19 30 C-17.35 29.67 -15.7 29.34 -14 29 C-13.91363281 28.40832031 -13.82726562 27.81664062 -13.73828125 27.20703125 C-12.71039696 21.42636088 -11.25306614 19.14673949 -7 15 C-5.29838716 10.90291276 -4.68427783 7.28086416 -6 3 C-5.195625 2.690625 -4.39125 2.38125 -3.5625 2.0625 C-1.10919595 1.23664655 -1.10919595 1.23664655 0 0 Z " fill="#3B8B9E" transform="translate(222,151)"/>
<path d="M0 0 C0.99 0 1.98 0 3 0 C3 0.66 3 1.32 3 2 C3.69867188 1.96519531 4.39734375 1.93039063 5.1171875 1.89453125 C6.02726563 1.86746094 6.93734375 1.84039062 7.875 1.8125 C8.77992188 1.77769531 9.68484375 1.74289063 10.6171875 1.70703125 C11.79667969 1.85205078 11.79667969 1.85205078 13 2 C13.99 3.485 13.99 3.485 15 5 C13.68 5.33 12.36 5.66 11 6 C11.66 6.33 12.32 6.66 13 7 C13 7.66 13 8.32 13 9 C7.39 9 1.78 9 -4 9 C-2.68 8.67 -1.36 8.34 0 8 C0 5.36 0 2.72 0 0 Z " fill="#1CAEA6" transform="translate(136,208)"/>
<path d="M0 0 C0.33 0.66 0.66 1.32 1 2 C-0.2508536 4.6279953 -1.55357292 7.10695616 -3 9.625 C-3.41427246 10.34977539 -3.82854492 11.07455078 -4.25537109 11.82128906 C-8.83315952 19.65835003 -13.46681054 26.29691778 -22 30 C-24.4375 29.75 -24.4375 29.75 -26 29 C-25.360625 28.896875 -24.72125 28.79375 -24.0625 28.6875 C-23.0415625 28.3471875 -23.0415625 28.3471875 -22 28 C-21.67 27.01 -21.34 26.02 -21 25 C-19.68 25 -18.36 25 -17 25 C-16.67 24.01 -16.34 23.02 -16 22 C-15.01 21.67 -14.02 21.34 -13 21 C-11.96567096 19.01753602 -10.96761608 17.01586684 -10 15 C-8.3125 13.125 -8.3125 13.125 -7 12 C-7.66 11.67 -8.32 11.34 -9 11 C-7 9 -7 9 -4 8 C-3.3185177 6.10820797 -3.3185177 6.10820797 -3 4 C-2.67 3.01 -2.34 2.02 -2 1 C-1.34 0.67 -0.68 0.34 0 0 Z " fill="#3C909B" transform="translate(203,187)"/>
<path d="M0 0 C9.68125896 1.58556264 19.34132701 3.2834112 29 5 C29 5.33 29 5.66 29 6 C27.3603125 6.2165625 27.3603125 6.2165625 25.6875 6.4375 C22.06877013 6.88288104 22.06877013 6.88288104 19 8 C18.67 7.67 18.34 7.34 18 7 C17.01 7.495 17.01 7.495 16 8 C13.65593068 7.37212429 11.32206525 6.70491267 9 6 C8.34 6 7.68 6 7 6 C6.34 5.01 5.68 4.02 5 3 C2.44816596 1.79549696 2.44816596 1.79549696 0 1 C0 0.67 0 0.34 0 0 Z " fill="#2CB4A7" transform="translate(107,151)"/>
<path d="M0 0 C1.1875 1.6875 1.1875 1.6875 2 4 C0.8125 6.75 0.8125 6.75 -1 9 C-1.99 9 -2.98 9 -4 9 C-4.33 10.65 -4.66 12.3 -5 14 C-5.66 14 -6.32 14 -7 14 C-7.309375 14.928125 -7.61875 15.85625 -7.9375 16.8125 C-8.625 18.875 -9.3125 20.9375 -10 23 C-10.66 23 -11.32 23 -12 23 C-12.28875 23.78375 -12.5775 24.5675 -12.875 25.375 C-14 28 -14 28 -16 30 C-15.41497025 26.02999616 -14.1900656 23.23459287 -12.12890625 19.8046875 C-11.26749023 18.36029297 -11.26749023 18.36029297 -10.38867188 16.88671875 C-9.78603516 15.89285156 -9.18339844 14.89898437 -8.5625 13.875 C-7.96373047 12.87339844 -7.36496094 11.87179688 -6.74804688 10.83984375 C-4.55613515 7.18256663 -2.36540198 3.54810296 0 0 Z " fill="#458B99" transform="translate(85,76)"/>
<path d="M0 0 C3.96 0.33 7.92 0.66 12 1 C11.50769231 8.38461538 11.50769231 8.38461538 8.9375 11.5 C7.9784375 12.2425 7.9784375 12.2425 7 13 C7 9.7 7 6.4 7 3 C4.69 2.67 2.38 2.34 0 2 C0 1.34 0 0.68 0 0 Z " fill="#39879A" transform="translate(217,139)"/>
<path d="M0 0 C-0.99 0.495 -0.99 0.495 -2 1 C-1.67 2.32 -1.34 3.64 -1 5 C-2.98 5 -4.96 5 -7 5 C-6.67 5.99 -6.34 6.98 -6 8 C-6.99 8.33 -7.98 8.66 -9 9 C-9 6.03 -9 3.06 -9 0 C-5.52176885 -1.15941038 -3.54104422 -0.70820884 0 0 Z " fill="#20AAA9" transform="translate(129,81)"/>
<path d="M0 0 C0.33 0 0.66 0 1 0 C1.875 2.5625 1.875 2.5625 2 6 C0.35221084 8.68906308 -1.60352933 10.94934915 -4 13 C-4.66 13 -5.32 13 -6 13 C-6 13.99 -6 14.98 -6 16 C-6.66 16 -7.32 16 -8 16 C-6.44584521 10.0942118 -3.40465533 5.02261107 0 0 Z " fill="#3BA3A2" transform="translate(163,176)"/>
<path d="M0 0 C3.06303578 -0.08115993 6.12390815 -0.14057409 9.1875 -0.1875 C10.48397461 -0.22520508 10.48397461 -0.22520508 11.80664062 -0.26367188 C16.73038334 -0.32026662 19.96831189 -0.18027571 24 3 C21.3260876 3.89130413 18.76276177 4.47731534 16 5 C15.67 4.01 15.34 3.02 15 2 C10.05 1.67 5.1 1.34 0 1 C0 0.67 0 0.34 0 0 Z " fill="#1EC3A8" transform="translate(162,64)"/>
<path d="M0 0 C1.06544301 3.19632902 1.19353531 3.97025652 0 7 C-0.5775 7.556875 -1.155 8.11375 -1.75 8.6875 C-4.50844689 11.52257041 -6.05318854 14.57483503 -7.8515625 18.07421875 C-9 20 -9 20 -11 21 C-9.3003494 16.26525903 -6.86340973 12.03832889 -4.375 7.6875 C-3.95476562 6.94693359 -3.53453125 6.20636719 -3.1015625 5.44335938 C-2.07051505 3.62730989 -1.03563954 1.81343467 0 0 Z " fill="#40959B" transform="translate(185,138)"/>
<path d="M0 0 C0.66 0.99 1.32 1.98 2 3 C0.68 5.31 -0.64 7.62 -2 10 C-3.32 9.01 -4.64 8.02 -6 7 C-5.8125 5.1875 -5.8125 5.1875 -5 3 C-2.4375 1.25 -2.4375 1.25 0 0 Z " fill="#3A839D" transform="translate(222,151)"/>
<path d="M0 0 C0 0.99 0 1.98 0 3 C-2.90600261 4.25664978 -4.79604584 5 -8 5 C-8.4021875 6.2065625 -8.4021875 6.2065625 -8.8125 7.4375 C-9.4003125 8.7059375 -9.4003125 8.7059375 -10 10 C-10.99 10.33 -11.98 10.66 -13 11 C-11.83457164 6.04692946 -8.8657115 4.02558405 -4.97265625 1.13671875 C-3 0 -3 0 0 0 Z " fill="#40919A" transform="translate(99,65)"/>
<path d="M0 0 C0 0.99 0 1.98 0 3 C-1.32 3.33 -2.64 3.66 -4 4 C-4 5.98 -4 7.96 -4 10 C-4.99 10 -5.98 10 -7 10 C-7.33 7.69 -7.66 5.38 -8 3 C-4.93882432 0.37613513 -4.26826873 0 0 0 Z " fill="#308FA3" transform="translate(208,177)"/>
<path d="M0 0 C2.58422459 0.11418667 5.16679513 0.24092362 7.75 0.375 C8.47960937 0.4059375 9.20921875 0.436875 9.9609375 0.46875 C13.73942656 0.6748494 16.77946668 0.91512843 20 3 C20 3.33 20 3.66 20 4 C18.00045254 4.04254356 15.99958364 4.04080783 14 4 C13.67 3.67 13.34 3.34 13 3 C10.81980521 2.60333773 8.6303537 2.25684763 6.4375 1.9375 C4.64119141 1.67259766 4.64119141 1.67259766 2.80859375 1.40234375 C1.88175781 1.26957031 0.95492187 1.13679687 0 1 C0 0.67 0 0.34 0 0 Z " fill="#14CAB1" transform="translate(56,143)"/>
<path d="M0 0 C0.99 0 1.98 0 3 0 C3 0.66 3 1.32 3 2 C4.32 1.67 5.64 1.34 7 1 C7.33 2.65 7.66 4.3 8 6 C5.23723823 5.47731534 2.6739124 4.89130413 0 4 C-0.33 3.01 -0.66 2.02 -1 1 C-0.67 0.67 -0.34 0.34 0 0 Z " fill="#14BCAA" transform="translate(152,120)"/>
<path d="M0 0 C0.99 0.33 1.98 0.66 3 1 C2.67 2.65 2.34 4.3 2 6 C1.38125 6.12375 0.7625 6.2475 0.125 6.375 C-2.19120832 6.87197356 -2.19120832 6.87197356 -4 9 C-3.35455571 5.51460083 -1.89865603 2.97180943 0 0 Z " fill="#3684A5" transform="translate(60,122)"/>
<path d="M0 0 C0.99 0.66 1.98 1.32 3 2 C2.8125 3.8125 2.8125 3.8125 2 6 C-0.375 7.8125 -0.375 7.8125 -3 9 C-3.99 8.67 -4.98 8.34 -6 8 C-5.38125 7.4225 -4.7625 6.845 -4.125 6.25 C-2.18652947 4.19750179 -1.09985751 2.56633418 0 0 Z " fill="#33AAA6" transform="translate(148,202)"/>
<path d="M0 0 C0.66 0.99 1.32 1.98 2 3 C1.34 3 0.68 3 0 3 C0.268125 3.556875 0.53625 4.11375 0.8125 4.6875 C1 7 1 7 -1.3125 9.75 C-4 12 -4 12 -6 12 C-4.43358249 7.69235185 -2.31663844 3.93828536 0 0 Z " fill="#308CA4" transform="translate(77,92)"/>
<path d="M0 0 C1.98 0 3.96 0 6 0 C4.75 2.9375 4.75 2.9375 3 6 C0.8125 6.875 0.8125 6.875 -1 7 C-0.67 4.69 -0.34 2.38 0 0 Z " fill="#28A69F" transform="translate(122,86)"/>
<path d="M0 0 C0.86625 0.4640625 0.86625 0.4640625 1.75 0.9375 C3.84294184 1.92583364 5.74535275 2.5168613 8 3 C8 3.66 8 4.32 8 5 C7.01 5.495 7.01 5.495 6 6 C5.01 7.485 5.01 7.485 4 9 C3.67 7.35 3.34 5.7 3 4 C2.01 4 1.02 4 0 4 C0 2.68 0 1.36 0 0 Z " fill="#07D2AB" transform="translate(71,175)"/>
<path d="M0 0 C2.97 0.495 2.97 0.495 6 1 C6.33 3.31 6.66 5.62 7 8 C4.5 6.6875 4.5 6.6875 2 5 C2 4.01 2 3.02 2 2 C1.34 2 0.68 2 0 2 C0 1.34 0 0.68 0 0 Z " fill="#04D8AB" transform="translate(200,96)"/>
<path d="M0 0 C0.66 0.33 1.32 0.66 2 1 C1.41892368 4.7602985 0.34800504 7.53035032 -1.5625 10.8125 C-2.01753906 11.60269531 -2.47257813 12.39289063 -2.94140625 13.20703125 C-3.29074219 13.79871094 -3.64007813 14.39039063 -4 15 C-4.66 14.01 -5.32 13.02 -6 12 C-5.38125 11.319375 -4.7625 10.63875 -4.125 9.9375 C-1.6680932 6.54118766 -0.95054395 4.03981179 0 0 Z " fill="#4F8EA4" transform="translate(217,159)"/>
<path d="M0 0 C0.66 0 1.32 0 2 0 C2.33 1.32 2.66 2.64 3 4 C-0.3 3.67 -3.6 3.34 -7 3 C-7 2.34 -7 1.68 -7 1 C-4.69 1.33 -2.38 1.66 0 2 C0 1.34 0 0.68 0 0 Z " fill="#24C8B2" transform="translate(227,136)"/>
<path d="M0 0 C0.33 0.66 0.66 1.32 1 2 C3.02463255 2.65213292 3.02463255 2.65213292 5 3 C5 2.01 5 1.02 5 0 C5.66 0 6.32 0 7 0 C7 0.66 7 1.32 7 2 C7.66 2 8.32 2 9 2 C8.67 2.99 8.34 3.98 8 5 C5.125 5.125 5.125 5.125 2 5 C1.34 4.34 0.68 3.68 0 3 C0 2.01 0 1.02 0 0 Z " fill="#16B7A6" transform="translate(141,118)"/>
<path d="M0 0 C1.75070517 0.11470137 3.50057536 0.24219028 5.25 0.375 C6.22453125 0.44460937 7.1990625 0.51421875 8.203125 0.5859375 C10.89633189 0.98465249 12.66963279 1.63507063 15 3 C8.77166905 4.2019586 5.62870885 3.93161919 0 1 C0 0.67 0 0.34 0 0 Z " fill="#2FB9A8" transform="translate(90,148)"/>
<path d="M0 0 C1.32 0 2.64 0 4 0 C4 1.65 4 3.3 4 5 C2.68 5 1.36 5 0 5 C0 3.35 0 1.7 0 0 Z " fill="#22A3A7" transform="translate(164,176)"/>
<path d="M0 0 C0.33 0 0.66 0 1 0 C1.25 2.25 1.25 2.25 1 5 C-0.9375 7.125 -0.9375 7.125 -3 9 C-3.33 9.99 -3.66 10.98 -4 12 C-4.66 12 -5.32 12 -6 12 C-4.43358249 7.69235185 -2.31663844 3.93828536 0 0 Z " fill="#3F979A" transform="translate(173,159)"/>
<path d="M0 0 C0.66 0.33 1.32 0.66 2 1 C-0.475 5.455 -0.475 5.455 -3 10 C-3.33 10 -3.66 10 -4 10 C-4 7.69 -4 5.38 -4 3 C-3.34 3 -2.68 3 -2 3 C-1.34 2.01 -0.68 1.02 0 0 Z " fill="#41969F" transform="translate(96,138)"/>
<path d="M0 0 C0.66 0 1.32 0 2 0 C5 4.38461538 5 4.38461538 5 7 C3.0625 6.3125 3.0625 6.3125 1 5 C0.25 2.375 0.25 2.375 0 0 Z " fill="#1DD4A8" transform="translate(209,104)"/>
<path d="M0 0 C2.64 0.66 5.28 1.32 8 2 C7.67 2.66 7.34 3.32 7 4 C6.34 4 5.68 4 5 4 C4.67 3.67 4.34 3.34 4 3 C3.01 3.495 3.01 3.495 2 4 C1.34 3.67 0.68 3.34 0 3 C0 2.01 0 1.02 0 0 Z " fill="#18B6A8" transform="translate(121,155)"/>
<path d="M0 0 C-0.3125 1.9375 -0.3125 1.9375 -1 4 C-1.99 4.33 -2.98 4.66 -4 5 C-4.66 3.68 -5.32 2.36 -6 1 C-3 0 -3 0 0 0 Z " fill="#05DAAD" transform="translate(63,152)"/>
</svg>