<?xml version="1.0" encoding="UTF-8"?>
<svg version="1.1" xmlns="http://www.w3.org/2000/svg" width="280" height="280">
<path d="M0 0 C3.10685788 1.15604014 6.05778967 2.47440946 9 4 C9 4.99 9 5.98 9 7 C10.98 7 12.96 7 15 7 C15.23203125 7.59425781 15.4640625 8.18851563 15.703125 8.80078125 C18.15875041 12.9649894 22.76662689 14.90920563 27 17 C30.38965608 17.93534083 30.38965608 17.93534083 33 18 C33 18.99 33 19.98 33 21 C33.86625 21.28875 34.7325 21.5775 35.625 21.875 C36.73875 22.24625 37.8525 22.6175 39 23 C40.093125 23.309375 41.18625 23.61875 42.3125 23.9375 C43.6428125 24.4634375 43.6428125 24.4634375 45 25 C45.33 25.99 45.66 26.98 46 28 C49.81857204 30.9200845 53.27132978 31.53640488 58 32 C58.33 32.99 58.66 33.98 59 35 C60.47061813 36.23194913 60.47061813 36.23194913 62.30859375 37.26171875 C62.97310547 37.65810547 63.63761719 38.05449219 64.32226562 38.46289062 C65.36930664 39.06907227 65.36930664 39.06907227 66.4375 39.6875 C67.13166016 40.10322266 67.82582031 40.51894531 68.54101562 40.94726562 C72.03286164 43.20891 72.03286164 43.20891 76 44 C78.0078864 44.64252365 80.00882592 45.30741771 82 46 C82 46.99 82 47.98 82 49 C83.32 48.67 84.64 48.34 86 48 C86.185625 48.5775 86.37125 49.155 86.5625 49.75 C89.16259404 53.81971241 93.40605426 55.59303513 97.9375 56.75 C98.618125 56.8325 99.29875 56.915 100 57 C100.33 57.99 100.66 58.98 101 60 C102.65 60.33 104.3 60.66 106 61 C106 61.66 106 62.32 106 63 C106.928125 63.268125 107.85625 63.53625 108.8125 63.8125 C111.90941622 64.9662531 113.08179924 65.42562838 115 68 C115.38311005 70.54440212 115.38311005 70.54440212 115.39440918 73.64878845 C115.40575897 74.82511337 115.41710876 76.00143829 115.42880249 77.21340942 C115.42587189 78.50544281 115.42294128 79.7974762 115.41992188 81.12866211 C115.42726056 82.50191439 115.4358462 83.87516049 115.44558716 85.24839783 C115.46783325 88.97982918 115.47073233 92.71103992 115.46883965 96.44252849 C115.46872009 99.55643829 115.47727821 102.67030111 115.48561716 105.78419787 C115.50486234 113.12984533 115.50773101 120.47537915 115.50097656 127.82104492 C115.49433439 135.40167982 115.51720422 142.9818283 115.55429029 150.56236452 C115.58496695 157.06861936 115.59634957 163.57471757 115.59245348 170.0810433 C115.59038385 173.96795994 115.59589746 177.85449812 115.62034607 181.74134636 C115.64257765 185.39657618 115.64076654 189.05101418 115.62041855 192.70624733 C115.61537205 194.68788016 115.63505285 196.66952749 115.65542603 198.65106201 C115.63861282 200.41977913 115.63861282 200.41977913 115.62145996 202.22422791 C115.62217247 203.24905242 115.62288498 204.27387693 115.62361908 205.32975674 C114.77377913 208.96864381 113.03932033 209.96209827 110 212 C109.319375 212.515625 108.63875 213.03125 107.9375 213.5625 C107.298125 214.036875 106.65875 214.51125 106 215 C105.0409375 215.7734375 105.0409375 215.7734375 104.0625 216.5625 C101.78005627 218.15329411 99.60903309 219.0454757 97 220 C93.4086871 221.34674234 90.16106211 222.80481798 87 225 C86.67 225.99 86.34 226.98 86 228 C84.68 228 83.36 228 82 228 C82.33 228.66 82.66 229.32 83 230 C76.25 232 76.25 232 74 232 C71.79300588 233.24869404 69.64636948 234.52944516 67.5 235.875 C66.90574219 236.23980469 66.31148437 236.60460937 65.69921875 236.98046875 C61.10321772 239.75589501 61.10321772 239.75589501 58 244 C52.77777778 246 52.77777778 246 50 246 C45.90824712 248.0027528 45.90824712 248.0027528 44 252 C43.29875 252.12375 42.5975 252.2475 41.875 252.375 C38.82343613 253.03838345 35.94659062 253.97211955 33 255 C33 255.99 33 256.98 33 258 C32.05125 258.20625 31.1025 258.4125 30.125 258.625 C24.98164125 260.09001407 20.25948949 262.79314297 16 266 C15.67 266.99 15.34 267.98 15 269 C13.02 269 11.04 269 9 269 C9 269.99 9 270.98 9 272 C5.98968256 272.93423645 5.13349732 273.04449911 2 272 C2.33 272.99 2.66 273.98 3 275 C1.00458132 275.68025637 -0.99617991 276.34490497 -3 277 C-3.680625 277.2475 -4.36125 277.495 -5.0625 277.75 C-7.79898116 278.10309434 -9.5283241 277.14077349 -12 276 C-12.99 275.67 -13.98 275.34 -15 275 C-14.67 274.01 -14.34 273.02 -14 272 C-14.598125 272.185625 -15.19625 272.37125 -15.8125 272.5625 C-18 273 -18 273 -21 272 C-21 271.01 -21 270.02 -21 269 C-22.98 269 -24.96 269 -27 269 C-27.33 268.34 -27.66 267.68 -28 267 C-27.67 266.34 -27.34 265.68 -27 265 C-27.86625 264.7525 -28.7325 264.505 -29.625 264.25 C-33 263 -33 263 -36 260.9375 C-39.13933105 258.91001536 -41.31887825 258.35058302 -45 258 C-45 257.01 -45 256.02 -45 255 C-46.29550781 254.63261719 -46.29550781 254.63261719 -47.6171875 254.2578125 C-52.3762231 252.48828656 -56.08719628 249.61704286 -60.1953125 246.6796875 C-63.02707742 244.65747152 -63.02707742 244.65747152 -67 245 C-67.66 244.67 -68.32 244.34 -69 244 C-69 243.01 -69 242.02 -69 241 C-69.87140625 240.74476563 -70.7428125 240.48953125 -71.640625 240.2265625 C-75.07907051 238.97113007 -77.71815661 237.41018769 -80.75 235.375 C-84.10479391 232.84947153 -84.10479391 232.84947153 -88 232 C-90.33932406 231.35466922 -92.67328146 230.68939809 -95 230 C-94.67 229.34 -94.34 228.68 -94 228 C-95.65 227.67 -97.3 227.34 -99 227 C-99.33 226.01 -99.66 225.02 -100 224 C-104.10083664 221.31868373 -107.18826308 219.86364509 -112 219 C-114.02237052 218.04605164 -116.0282696 217.05464649 -118 216 C-118 215.34 -118 214.68 -118 214 C-119.75674121 212.6719936 -119.75674121 212.6719936 -121.9375 211.4375 C-125.94347826 209.05652174 -125.94347826 209.05652174 -127 208 C-127.10732515 206.19970671 -127.14410815 204.39518356 -127.15390015 202.59172058 C-127.16250061 201.41814499 -127.17110107 200.2445694 -127.17996216 199.03543091 C-127.18422211 197.73620697 -127.18848206 196.43698303 -127.19287109 195.09838867 C-127.20076893 193.7254363 -127.20903767 192.35248603 -127.21765137 190.97953796 C-127.24390954 186.45903517 -127.25918325 181.93852293 -127.2734375 177.41796875 C-127.27879572 175.86377773 -127.28417322 174.30958678 -127.28956985 172.75539589 C-127.3112046 166.29157789 -127.3299422 159.82776242 -127.34119225 153.36391735 C-127.35743639 144.09053026 -127.39061813 134.81756189 -127.44759309 125.54433268 C-127.48625877 119.02965412 -127.50582093 112.51508769 -127.51111281 106.00029737 C-127.51477112 102.10660293 -127.52684201 98.21335469 -127.55921555 94.31978416 C-127.58923735 90.65642899 -127.59562975 86.9937913 -127.58383179 83.33033943 C-127.58350499 81.34387639 -127.60801034 79.35745802 -127.63320923 77.37115479 C-127.62489075 76.18911972 -127.61657227 75.00708466 -127.60800171 73.78923035 C-127.61131186 72.7618082 -127.614622 71.73438604 -127.61803246 70.67582989 C-126.77401199 67.02156355 -125.09100572 65.98732849 -122 64 C-120.66666667 63.66666667 -119.33333333 63.33333333 -118 63 C-117.67 62.01 -117.34 61.02 -117 60 C-114.525 59.505 -114.525 59.505 -112 59 C-111.67 58.01 -111.34 57.02 -111 56 C-110.13375 55.9175 -109.2675 55.835 -108.375 55.75 C-104.46755744 54.88167943 -102.12649571 53.47211289 -99 51 C-98.67 50.01 -98.34 49.02 -98 48 C-96.68 48.33 -95.36 48.66 -94 49 C-94 48.01 -94 47.02 -94 46 C-88.25 44 -88.25 44 -86 44 C-83.46892454 42.53708483 -80.98067989 41.04404935 -78.5 39.5 C-71.27027027 35 -71.27027027 35 -69 35 C-69 34.01 -69 33.02 -69 32 C-68.00613281 31.76539063 -67.01226562 31.53078125 -65.98828125 31.2890625 C-61.59218227 30.03366682 -58.01987048 27.81551453 -54.1875 25.375 C-47.24252301 21 -47.24252301 21 -45 21 C-45 20.01 -45 19.02 -45 18 C-44.030625 17.773125 -43.06125 17.54625 -42.0625 17.3125 C-37.97521657 16.16972892 -34.54825015 14.18536067 -30.91796875 12.0234375 C-29 11 -29 11 -27 11 C-27.495 9.515 -27.495 9.515 -28 8 C-23.25 7 -23.25 7 -21 7 C-21 6.01 -21 5.02 -21 4 C-16.92801377 1.52487112 -13.76784929 -0.31887867 -9 -1 C-5.77936264 -2.61031868 -3.31794628 -1.06849117 0 0 Z M-15 2 C-15.33 2.66 -15.66 3.32 -16 4 C-15.34 4 -14.68 4 -14 4 C-14.33 3.34 -14.66 2.68 -15 2 Z M2 2 C2 2.66 2 3.32 2 4 C2.66 3.67 3.32 3.34 4 3 C3.34 2.67 2.68 2.34 2 2 Z " fill="#FEFEFE" transform="translate(146,2)"/>
<path d="M0 0 C6.97949592 5.1639706 11.8200408 10.51612608 16.12109375 18.04296875 C16.73210937 19.09226562 17.343125 20.1415625 17.97265625 21.22265625 C18.91582662 22.90784692 19.82854735 24.61296465 20.64453125 26.36328125 C22.91922426 31.18396094 25.53278867 32.27187486 30.24609375 34.078125 C35.32141382 36.40709589 39.15677888 40.6252959 42.95703125 44.62890625 C45.79659794 47.33523814 48.65597618 49.30458896 51.99609375 51.35546875 C53.07632813 52.02964844 54.1565625 52.70382813 55.26953125 53.3984375 C62.46535967 57.19763362 69.60188869 58.16909244 77.62109375 57.16796875 C87.99703004 53.64626246 93.96824789 47.44189525 99.12109375 38.10546875 C99.60175293 37.25927979 100.08241211 36.41309082 100.57763672 35.54125977 C103.15095562 30.97106979 105.52936102 26.36091774 107.74609375 21.60546875 C111.31932586 14.3156657 116.24994217 6.99636768 124.12109375 4.04296875 C132.99935261 1.90788574 140.41655804 3.15102807 148.62109375 7.16796875 C151.43359375 9.48046875 151.43359375 9.48046875 153.62109375 12.16796875 C154.61821334 13.33709819 155.61839246 14.50362291 156.62109375 15.66796875 C157.12125 16.26222656 157.62140625 16.85648438 158.13671875 17.46875 C159.4737705 18.99932239 160.9175984 20.43500738 162.37109375 21.85546875 C166.60740957 26.20946001 166.86869747 29.3724751 166.84814453 35.41503906 C166.84843658 36.13738739 166.84872864 36.85973572 166.84902954 37.60397339 C166.84763937 39.98480358 166.83209309 42.36531842 166.81640625 44.74609375 C166.812675 46.39947336 166.80982856 48.05285518 166.80783081 49.70623779 C166.80020313 54.05295949 166.78056208 58.39954704 166.75842285 62.74621582 C166.73794579 67.18365667 166.72882511 71.62111925 166.71875 76.05859375 C166.69731536 84.76178024 166.66318987 93.46485779 166.62109375 102.16796875 C165.20413208 102.97113525 165.20413208 102.97113525 163.75854492 103.79052734 C162.49784037 104.50741006 161.23718202 105.22437403 159.9765625 105.94140625 C159.35648315 106.29259521 158.73640381 106.64378418 158.09753418 107.00561523 C154.30464139 109.16550886 150.59587446 111.415133 146.93359375 113.79296875 C142.49678965 116.66192859 137.9547381 119.2166886 133.296875 121.70703125 C130.73292039 123.10691304 128.23891465 124.58319686 125.74609375 126.10546875 C122.03642521 128.36047986 118.26955158 130.44773896 114.43359375 132.48046875 C108.86200872 135.44673074 103.45999616 138.62686831 98.06762695 141.90161133 C93.62175124 144.59300415 89.10567526 147.10554617 84.5234375 149.55859375 C80.19611645 151.95813113 75.97201381 154.52461621 71.74609375 157.09765625 C70.04389429 158.13126357 68.33285489 159.15027485 66.62109375 160.16796875 C65.93917969 160.60625 65.25726563 161.04453125 64.5546875 161.49609375 C61.04347947 162.71614988 58.079764 161.84072748 54.77050781 160.31445312 C52.73003966 159.23150601 50.73663858 158.09006861 48.74609375 156.91796875 C47.68382568 156.30671143 47.68382568 156.30671143 46.60009766 155.68310547 C43.02560569 153.61548296 39.48740435 151.49871925 35.99609375 149.29296875 C32.78152085 147.1879308 32.78152085 147.1879308 29.8515625 145.80078125 C26.30823623 144.00983762 22.93978567 141.99161286 19.55859375 139.91796875 C14.79310201 137.02075638 9.99991112 134.25973815 5.05859375 131.66796875 C0.42411813 129.22042172 -3.95172858 126.55493281 -8.31640625 123.66796875 C-14.07044236 119.86430377 -19.97564265 116.78974628 -26.18359375 113.796875 C-29.75784205 111.97479488 -32.98426731 109.89177052 -36.21875 107.52734375 C-39.121798 105.70047087 -42.22179504 104.49559094 -45.37890625 103.16796875 C-45.54263289 94.85641552 -45.66623758 86.54555941 -45.74159145 78.23278141 C-45.77779707 74.37082676 -45.82672567 70.50999195 -45.90698242 66.64868164 C-46.56898262 33.94025459 -46.56898262 33.94025459 -38.37890625 20.16796875 C-37.7955249 19.12519775 -37.21214355 18.08242676 -36.61108398 17.00805664 C-35.27260107 14.66907373 -33.85357569 12.42234848 -32.37890625 10.16796875 C-31.91871094 9.32234375 -31.45851563 8.47671875 -30.984375 7.60546875 C-29.22113663 4.92843531 -27.62579641 3.63815132 -24.94140625 1.91796875 C-24.17957031 1.4178125 -23.41773437 0.91765625 -22.6328125 0.40234375 C-15.83769258 -3.31907375 -6.77573281 -3.67377883 0 0 Z " fill="#FD777B" transform="translate(79.37890625,99.83203125)"/>
<path d="M0 0 C3.10685788 1.15604014 6.05778967 2.47440946 9 4 C9 4.99 9 5.98 9 7 C10.98 7 12.96 7 15 7 C15.23203125 7.59425781 15.4640625 8.18851563 15.703125 8.80078125 C18.15875041 12.9649894 22.76662689 14.90920563 27 17 C30.38965608 17.93534083 30.38965608 17.93534083 33 18 C33 18.99 33 19.98 33 21 C33.86625 21.28875 34.7325 21.5775 35.625 21.875 C36.73875 22.24625 37.8525 22.6175 39 23 C40.093125 23.309375 41.18625 23.61875 42.3125 23.9375 C43.6428125 24.4634375 43.6428125 24.4634375 45 25 C45.33 25.99 45.66 26.98 46 28 C49.81857204 30.9200845 53.27132978 31.53640488 58 32 C58.33 32.99 58.66 33.98 59 35 C60.47061813 36.23194913 60.47061813 36.23194913 62.30859375 37.26171875 C62.97310547 37.65810547 63.63761719 38.05449219 64.32226562 38.46289062 C65.36930664 39.06907227 65.36930664 39.06907227 66.4375 39.6875 C67.13166016 40.10322266 67.82582031 40.51894531 68.54101562 40.94726562 C72.03286164 43.20891 72.03286164 43.20891 76 44 C78.0078864 44.64252365 80.00882592 45.30741771 82 46 C82 46.99 82 47.98 82 49 C83.32 48.67 84.64 48.34 86 48 C86.185625 48.5775 86.37125 49.155 86.5625 49.75 C89.16259404 53.81971241 93.40605426 55.59303513 97.9375 56.75 C98.618125 56.8325 99.29875 56.915 100 57 C100.33 57.99 100.66 58.98 101 60 C102.65 60.33 104.3 60.66 106 61 C106 61.66 106 62.32 106 63 C106.928125 63.268125 107.85625 63.53625 108.8125 63.8125 C111.90941622 64.9662531 113.08179924 65.42562838 115 68 C115.38311005 70.54440212 115.38311005 70.54440212 115.39440918 73.64878845 C115.40575897 74.82511337 115.41710876 76.00143829 115.42880249 77.21340942 C115.42587189 78.50544281 115.42294128 79.7974762 115.41992188 81.12866211 C115.42726056 82.50191439 115.4358462 83.87516049 115.44558716 85.24839783 C115.46783325 88.97982918 115.47073233 92.71103992 115.46883965 96.44252849 C115.46872009 99.55643829 115.47727821 102.67030111 115.48561716 105.78419787 C115.50486234 113.12984533 115.50773101 120.47537915 115.50097656 127.82104492 C115.49433439 135.40167982 115.51720422 142.9818283 115.55429029 150.56236452 C115.58496695 157.06861936 115.59634957 163.57471757 115.59245348 170.0810433 C115.59038385 173.96795994 115.59589746 177.85449812 115.62034607 181.74134636 C115.64257765 185.39657618 115.64076654 189.05101418 115.62041855 192.70624733 C115.61537205 194.68788016 115.63505285 196.66952749 115.65542603 198.65106201 C115.63861282 200.41977913 115.63861282 200.41977913 115.62145996 202.22422791 C115.62217247 203.24905242 115.62288498 204.27387693 115.62361908 205.32975674 C114.77377913 208.96864381 113.03932033 209.96209827 110 212 C109.319375 212.515625 108.63875 213.03125 107.9375 213.5625 C107.298125 214.036875 106.65875 214.51125 106 215 C105.0409375 215.7734375 105.0409375 215.7734375 104.0625 216.5625 C101.78005627 218.15329411 99.60903309 219.0454757 97 220 C93.4086871 221.34674234 90.16106211 222.80481798 87 225 C86.67 225.99 86.34 226.98 86 228 C84.68 228 83.36 228 82 228 C82.33 228.66 82.66 229.32 83 230 C76.25 232 76.25 232 74 232 C71.79300588 233.24869404 69.64636948 234.52944516 67.5 235.875 C66.90574219 236.23980469 66.31148437 236.60460937 65.69921875 236.98046875 C61.10321772 239.75589501 61.10321772 239.75589501 58 244 C52.77777778 246 52.77777778 246 50 246 C45.90824712 248.0027528 45.90824712 248.0027528 44 252 C43.29875 252.12375 42.5975 252.2475 41.875 252.375 C38.82343613 253.03838345 35.94659062 253.97211955 33 255 C33 255.99 33 256.98 33 258 C32.05125 258.20625 31.1025 258.4125 30.125 258.625 C24.98164125 260.09001407 20.25948949 262.79314297 16 266 C15.67 266.99 15.34 267.98 15 269 C13.02 269 11.04 269 9 269 C9 269.99 9 270.98 9 272 C5.98968256 272.93423645 5.13349732 273.04449911 2 272 C2.33 272.99 2.66 273.98 3 275 C1.00458132 275.68025637 -0.99617991 276.34490497 -3 277 C-3.680625 277.2475 -4.36125 277.495 -5.0625 277.75 C-7.79898116 278.10309434 -9.5283241 277.14077349 -12 276 C-12.99 275.67 -13.98 275.34 -15 275 C-14.67 274.01 -14.34 273.02 -14 272 C-14.598125 272.185625 -15.19625 272.37125 -15.8125 272.5625 C-18 273 -18 273 -21 272 C-21 271.01 -21 270.02 -21 269 C-22.98 269 -24.96 269 -27 269 C-27.33 268.34 -27.66 267.68 -28 267 C-27.67 266.34 -27.34 265.68 -27 265 C-27.86625 264.7525 -28.7325 264.505 -29.625 264.25 C-33 263 -33 263 -36 260.9375 C-39.13933105 258.91001536 -41.31887825 258.35058302 -45 258 C-45 257.01 -45 256.02 -45 255 C-46.29550781 254.63261719 -46.29550781 254.63261719 -47.6171875 254.2578125 C-52.3762231 252.48828656 -56.08719628 249.61704286 -60.1953125 246.6796875 C-63.02707742 244.65747152 -63.02707742 244.65747152 -67 245 C-67.66 244.67 -68.32 244.34 -69 244 C-69 243.01 -69 242.02 -69 241 C-69.87140625 240.74476563 -70.7428125 240.48953125 -71.640625 240.2265625 C-75.07907051 238.97113007 -77.71815661 237.41018769 -80.75 235.375 C-84.10479391 232.84947153 -84.10479391 232.84947153 -88 232 C-90.33932406 231.35466922 -92.67328146 230.68939809 -95 230 C-94.67 229.34 -94.34 228.68 -94 228 C-95.65 227.67 -97.3 227.34 -99 227 C-99.33 226.01 -99.66 225.02 -100 224 C-104.10083664 221.31868373 -107.18826308 219.86364509 -112 219 C-114.02237052 218.04605164 -116.0282696 217.05464649 -118 216 C-118 215.34 -118 214.68 -118 214 C-119.75674121 212.6719936 -119.75674121 212.6719936 -121.9375 211.4375 C-125.94347826 209.05652174 -125.94347826 209.05652174 -127 208 C-127.10732515 206.19970671 -127.14410815 204.39518356 -127.15390015 202.59172058 C-127.16250061 201.41814499 -127.17110107 200.2445694 -127.17996216 199.03543091 C-127.18422211 197.73620697 -127.18848206 196.43698303 -127.19287109 195.09838867 C-127.20076893 193.7254363 -127.20903767 192.35248603 -127.21765137 190.97953796 C-127.24390954 186.45903517 -127.25918325 181.93852293 -127.2734375 177.41796875 C-127.27879572 175.86377773 -127.28417322 174.30958678 -127.28956985 172.75539589 C-127.3112046 166.29157789 -127.3299422 159.82776242 -127.34119225 153.36391735 C-127.35743639 144.09053026 -127.39061813 134.81756189 -127.44759309 125.54433268 C-127.48625877 119.02965412 -127.50582093 112.51508769 -127.51111281 106.00029737 C-127.51477112 102.10660293 -127.52684201 98.21335469 -127.55921555 94.31978416 C-127.58923735 90.65642899 -127.59562975 86.9937913 -127.58383179 83.33033943 C-127.58350499 81.34387639 -127.60801034 79.35745802 -127.63320923 77.37115479 C-127.62489075 76.18911972 -127.61657227 75.00708466 -127.60800171 73.78923035 C-127.61131186 72.7618082 -127.614622 71.73438604 -127.61803246 70.67582989 C-126.77401199 67.02156355 -125.09100572 65.98732849 -122 64 C-120.66666667 63.66666667 -119.33333333 63.33333333 -118 63 C-117.67 62.01 -117.34 61.02 -117 60 C-114.525 59.505 -114.525 59.505 -112 59 C-111.67 58.01 -111.34 57.02 -111 56 C-110.13375 55.9175 -109.2675 55.835 -108.375 55.75 C-104.46755744 54.88167943 -102.12649571 53.47211289 -99 51 C-98.67 50.01 -98.34 49.02 -98 48 C-96.68 48.33 -95.36 48.66 -94 49 C-94 48.01 -94 47.02 -94 46 C-88.25 44 -88.25 44 -86 44 C-83.46892454 42.53708483 -80.98067989 41.04404935 -78.5 39.5 C-71.27027027 35 -71.27027027 35 -69 35 C-69 34.01 -69 33.02 -69 32 C-68.00613281 31.76539063 -67.01226562 31.53078125 -65.98828125 31.2890625 C-61.59218227 30.03366682 -58.01987048 27.81551453 -54.1875 25.375 C-47.24252301 21 -47.24252301 21 -45 21 C-45 20.01 -45 19.02 -45 18 C-44.030625 17.773125 -43.06125 17.54625 -42.0625 17.3125 C-37.97521657 16.16972892 -34.54825015 14.18536067 -30.91796875 12.0234375 C-29 11 -29 11 -27 11 C-27.495 9.515 -27.495 9.515 -28 8 C-23.25 7 -23.25 7 -21 7 C-21 6.01 -21 5.02 -21 4 C-16.92801377 1.52487112 -13.76784929 -0.31887867 -9 -1 C-5.77936264 -2.61031868 -3.31794628 -1.06849117 0 0 Z M-15 2 C-15.33 2.66 -15.66 3.32 -16 4 C-15.34 4 -14.68 4 -14 4 C-14.33 3.34 -14.66 2.68 -15 2 Z M2 2 C2 2.66 2 3.32 2 4 C2.66 3.67 3.32 3.34 4 3 C3.34 2.67 2.68 2.34 2 2 Z M-15.0625 19.5625 C-15.72499756 19.92239014 -16.38749512 20.28228027 -17.07006836 20.65307617 C-22.02967695 23.37969414 -26.82163394 26.32212937 -31.53515625 29.45703125 C-34.27500899 31.17215301 -37.10924044 32.55462022 -40 34 C-42.3672911 35.39922361 -44.7187976 36.81270524 -47.0625 38.25 C-51.78822822 41.12190931 -56.5388843 43.86603216 -61.4375 46.4375 C-67.18783542 49.47514647 -72.63471527 52.87728723 -78.11328125 56.36987305 C-83.03390001 59.47559724 -88.07177634 62.11522199 -93.3203125 64.6328125 C-96.66444291 66.33900148 -99.70683115 68.34374896 -102.76953125 70.5078125 C-105.74529375 72.49860282 -108.891446 74.22368343 -112 76 C-112 117.25 -112 158.5 -112 201 C-105.07 204.465 -105.07 204.465 -98 208 C-93.25 211.125 -93.25 211.125 -91.10546875 212.62109375 C-88.9808313 214.0125539 -86.85648723 215.10087447 -84.5625 216.1875 C-78.59098909 219.05570603 -73.03356635 222.57599679 -67.42016602 226.07885742 C-63.35760115 228.60445019 -59.29260683 230.87976505 -55 233 C-52.63271088 234.39922244 -50.28122259 235.81274207 -47.9375 237.25 C-43.14870167 240.15929832 -38.33102195 242.94297442 -33.375 245.5625 C-27.74193976 248.54225689 -22.35569853 251.80044341 -16.97265625 255.203125 C-11.44061635 258.81889124 -11.44061635 258.81889124 -5.1171875 259.953125 C-1.0997106 258.72472354 2.26698715 256.87454332 5.875 254.75 C6.5868042 254.34031982 7.2986084 253.93063965 8.03198242 253.50854492 C12.1148075 251.14652968 16.13875923 248.7065294 20.109375 246.16015625 C22.38213748 244.76550655 24.7128076 243.51072677 27.0625 242.25 C32.36742784 239.39804715 37.50356754 236.30913495 42.64916992 233.18334961 C46.42770784 230.90186754 50.22738208 228.83387243 54.21484375 226.9375 C56.24440637 225.87164655 58.05797613 224.6249569 59.9375 223.3125 C64.24171814 220.35847854 68.74912296 217.96207584 73.375 215.5625 C79.27579432 212.49930583 84.96221275 209.28738334 90.5078125 205.60546875 C93.60610438 203.60954718 96.79526193 201.82041662 100 200 C100.3509867 183.98839993 100.61518552 167.97805381 100.77718258 151.96353245 C100.85441479 144.52686775 100.95961546 137.09259765 101.1315918 129.6574707 C101.28148585 123.17392499 101.37795684 116.69211313 101.41132742 110.20688289 C101.43082924 106.77435868 101.47634088 103.34679227 101.58595085 99.91586494 C102.65625917 86.37937673 102.65625917 86.37937673 98.54274368 73.98954391 C94.52835817 70.37400647 90.05733127 68.71211211 85 67 C83.18857482 66.05788768 81.39111592 65.08703471 79.625 64.0625 C78.33722656 63.37220703 78.33722656 63.37220703 77.0234375 62.66796875 C71.61886366 59.68637569 66.32602397 56.51250111 61.015625 53.3671875 C57.36430306 51.20731191 53.68805921 49.0965492 50 47 C43.4375 43.25 43.4375 43.25 41.60595703 42.20214844 C38.63546599 40.50318467 35.66250601 38.80919068 32.68359375 37.125 C24.68217047 32.59054525 16.7866327 27.90021549 8.92724609 23.12402344 C-2.60682226 15.86014457 -2.60682226 15.86014457 -15.0625 19.5625 Z " fill="#E5E6EA" transform="translate(146,2)"/>
<path d="M0 0 C7.02982562 5.20120841 11.85944369 10.58377714 16.18359375 18.16796875 C18.7052072 22.57548117 18.7052072 22.57548117 21.3359375 26.91796875 C22.62109375 29.16796875 22.62109375 29.16796875 22.62109375 31.16796875 C21.85925781 31.24273437 21.09742187 31.3175 20.3125 31.39453125 C6.26892195 33.18285205 -1.87513084 41.42091488 -10.37890625 52.16796875 C-14.14308792 57.32784514 -17.59547971 62.68999036 -21.02880859 68.07324219 C-22.25948879 69.98268813 -23.51946567 71.86526966 -24.8046875 73.73828125 C-25.50980469 74.76695312 -26.21492188 75.795625 -26.94140625 76.85546875 C-27.54082031 77.72558594 -28.14023437 78.59570312 -28.7578125 79.4921875 C-30.64485015 82.60693639 -31.96280471 85.81366762 -33.37890625 89.16796875 C-34.72023629 91.843641 -36.13886819 94.47497819 -37.56640625 97.10546875 C-37.93443359 97.78931641 -38.30246094 98.47316406 -38.68164062 99.17773438 C-39.57809029 100.84256947 -40.47812148 102.50547524 -41.37890625 104.16796875 C-42.69890625 103.83796875 -44.01890625 103.50796875 -45.37890625 103.16796875 C-45.54263289 94.85641552 -45.66623758 86.54555941 -45.74159145 78.23278141 C-45.77779707 74.37082676 -45.82672567 70.50999195 -45.90698242 66.64868164 C-46.56898262 33.94025459 -46.56898262 33.94025459 -38.37890625 20.16796875 C-37.7955249 19.12519775 -37.21214355 18.08242676 -36.61108398 17.00805664 C-35.27260107 14.66907373 -33.85357569 12.42234848 -32.37890625 10.16796875 C-31.91871094 9.32234375 -31.45851563 8.47671875 -30.984375 7.60546875 C-29.22113663 4.92843531 -27.62579641 3.63815132 -24.94140625 1.91796875 C-24.17957031 1.4178125 -23.41773437 0.91765625 -22.6328125 0.40234375 C-15.83769258 -3.31907375 -6.77573281 -3.67377883 0 0 Z " fill="#FD819D" transform="translate(79.37890625,99.83203125)"/>
<path d="M0 0 C2.8125 2.3125 2.8125 2.3125 5 5 C5.99711959 6.16912944 6.99729871 7.33565416 8 8.5 C8.50015625 9.09425781 9.0003125 9.68851563 9.515625 10.30078125 C10.85267675 11.83135364 12.29650465 13.26703863 13.75 14.6875 C17.23124151 18.26544266 18 19.9698198 18 25 C14.6211915 23.72923547 11.6607537 22.21139994 8.5625 20.375 C2.13167081 17.12119239 -3.95045802 17.40907027 -11 18 C-11.79277344 18.06058594 -12.58554688 18.12117188 -13.40234375 18.18359375 C-24.48977299 19.85599928 -34.39803906 27.19817745 -40.921875 35.95703125 C-41.60765625 36.96121094 -42.2934375 37.96539062 -43 39 C-43.36931641 39.53931152 -43.73863281 40.07862305 -44.11914062 40.63427734 C-48.03319709 46.40367658 -51.64805832 52.30986043 -55.01855469 58.41162109 C-59.02437347 65.65996085 -63.46880751 71.83604782 -69 78 C-69.48339844 78.54914063 -69.96679688 79.09828125 -70.46484375 79.6640625 C-74.60161447 83.26400038 -80.41960564 84.81562066 -85.75 85.4375 C-93.56810314 84.38506304 -97.39040791 79.95188865 -102 74 C-105.91732947 68.80182534 -108.53303852 63.77243926 -110.89135742 57.72460938 C-113.10723533 52.27884908 -115.78126268 47.03995381 -118.37695312 41.76757812 C-121.03575791 36.28404618 -123.2412062 30.83684679 -125 25 C-119.88445292 25.45203656 -117.30668549 26.92569269 -113.4375 30.25 C-112.07431641 31.40242188 -112.07431641 31.40242188 -110.68359375 32.578125 C-108.91918859 34.17045571 -107.20721385 35.82322914 -105.55859375 37.53515625 C-102.76574604 40.22567061 -99.92735733 42.15980554 -96.625 44.1875 C-95.00464844 45.19876953 -95.00464844 45.19876953 -93.3515625 46.23046875 C-86.15573408 50.02966487 -79.01920506 51.00112369 -71 50 C-60.62406371 46.47829371 -54.65284586 40.2739265 -49.5 30.9375 C-49.01934082 30.09131104 -48.53868164 29.24512207 -48.04345703 28.37329102 C-45.47013813 23.80310104 -43.09173273 19.19294899 -40.875 14.4375 C-37.30176789 7.14769695 -32.37115158 -0.17160107 -24.5 -3.125 C-15.62174114 -5.26008301 -8.20453571 -4.01694068 0 0 Z " fill="#FDCD56" transform="translate(228,107)"/>
<path d="M0 0 C3.43137654 2.1355804 5.62087287 4.63094254 7.96875 7.84765625 C8.39881348 8.42362549 8.82887695 8.99959473 9.27197266 9.59301758 C14.74298533 17.06910805 18.81979708 24.9656109 22.0859375 33.625 C23.0158524 36.08988801 23.0158524 36.08988801 24.78125 39.22265625 C25.96875 41.84765625 25.96875 41.84765625 25.78515625 43.84375 C24.7207435 46.45639949 23.51208849 47.13110258 21.09375 48.53515625 C20.39507812 48.95152344 19.69640625 49.36789063 18.9765625 49.796875 C12.87211675 52.99161412 5.68170628 52.68281986 -0.9140625 51.19921875 C-10.1261235 48.12853175 -17.30787083 42.7391199 -24.03125 35.84765625 C-27.32043165 33.12451981 -30.66845774 30.47912281 -34.03125 27.84765625 C-30.82053143 17.67795942 -25.02871294 7.61796178 -17.28125 0.22265625 C-11.57815747 -2.19019059 -5.78459464 -2.19904049 0 0 Z " fill="#36A2EA" transform="translate(143.03125,106.15234375)"/>
<path d="M0 0 C0.66 0.33 1.32 0.66 2 1 C1.01 1 0.02 1 -1 1 C-0.67 0.67 -0.34 0.34 0 0 Z " fill="#FFFFFF" transform="translate(168,264)"/>
<path d="M0 0 C0.99 0.33 1.98 0.66 3 1 C2.01 1 1.02 1 0 1 C0 0.67 0 0.34 0 0 Z " fill="#FFFFFF" transform="translate(110,264)"/>
<path d="M0 0 C0.66 0.33 1.32 0.66 2 1 C1.01 1 0.02 1 -1 1 C-0.67 0.67 -0.34 0.34 0 0 Z " fill="#DFDFDF" transform="translate(212,239)"/>
<path d="M0 0 C0.99 0.33 1.98 0.66 3 1 C2.01 1 1.02 1 0 1 C0 0.67 0 0.34 0 0 Z " fill="#DFDFDF" transform="translate(66,239)"/>
<path d="M0 0 C0.66 0.33 1.32 0.66 2 1 C1.01 1 0.02 1 -1 1 C-0.67 0.67 -0.34 0.34 0 0 Z " fill="#E5E5E5" transform="translate(241,222)"/>
<path d="M0 0 C0.99 0.33 1.98 0.66 3 1 C2.01 1 1.02 1 0 1 C0 0.67 0 0.34 0 0 Z " fill="#E5E5E5" transform="translate(37,222)"/>
<path d="M0 0 C0.66 0.33 1.32 0.66 2 1 C1.01 1 0.02 1 -1 1 C-0.67 0.67 -0.34 0.34 0 0 Z " fill="#FFFFFF" transform="translate(254,215)"/>
<path d="M0 0 C0.99 0.33 1.98 0.66 3 1 C2.01 1 1.02 1 0 1 C0 0.67 0 0.34 0 0 Z " fill="#FFFFFF" transform="translate(24,215)"/>
<path d="M0 0 C0.99 0.33 1.98 0.66 3 1 C2.01 1 1.02 1 0 1 C0 0.67 0 0.34 0 0 Z " fill="#DFEFFF" transform="translate(246,60)"/>
<path d="M0 0 C0.66 0.33 1.32 0.66 2 1 C1.01 1 0.02 1 -1 1 C-0.67 0.67 -0.34 0.34 0 0 Z " fill="#DFEFFF" transform="translate(32,60)"/>
<path d="M0 0 C0.99 0.33 1.98 0.66 3 1 C2.01 1 1.02 1 0 1 C0 0.67 0 0.34 0 0 Z " fill="#A5A5E5" transform="translate(240,56)"/>
<path d="M0 0 C0.66 0.33 1.32 0.66 2 1 C1.01 1 0.02 1 -1 1 C-0.67 0.67 -0.34 0.34 0 0 Z " fill="#A5A5E5" transform="translate(38,56)"/>
<path d="M0 0 C0.99 0.33 1.98 0.66 3 1 C2.01 1 1.02 1 0 1 C0 0.67 0 0.34 0 0 Z " fill="#FFFFFF" transform="translate(233,52)"/>
<path d="M0 0 C0.66 0.33 1.32 0.66 2 1 C1.01 1 0.02 1 -1 1 C-0.67 0.67 -0.34 0.34 0 0 Z " fill="#FFFFFF" transform="translate(45,52)"/>
<path d="M0 0 C0.99 0.33 1.98 0.66 3 1 C2.01 1 1.02 1 0 1 C0 0.67 0 0.34 0 0 Z " fill="#9F9F9F" transform="translate(211,39)"/>
<path d="M0 0 C0.66 0.33 1.32 0.66 2 1 C1.01 1 0.02 1 -1 1 C-0.67 0.67 -0.34 0.34 0 0 Z " fill="#9F9F9F" transform="translate(67,39)"/>
<path d="M0 0 C0.66 0.33 1.32 0.66 2 1 C1.01 1 0.02 1 -1 1 C-0.67 0.67 -0.34 0.34 0 0 Z " fill="#DFDFFF" transform="translate(111,14)"/>
<path d="M0 0 C0.99 0.33 1.98 0.66 3 1 C2.01 1 1.02 1 0 1 C0 0.67 0 0.34 0 0 Z " fill="#DFDFFF" transform="translate(167,14)"/>
<path d="M0 0 C2 1 2 1 2 1 Z " fill="#CCCCFF" transform="translate(143,279)"/>
<path d="M0 0 C2 1 2 1 2 1 Z " fill="#CCCCFF" transform="translate(135,279)"/>
<path d="M0 0 C2 1 2 1 2 1 Z " fill="#FFFFFF" transform="translate(149,275)"/>
<path d="M0 0 C2 1 2 1 2 1 Z " fill="#FFFFFF" transform="translate(129,275)"/>
<path d="M0 0 C2 1 2 1 2 1 Z " fill="#404040" transform="translate(157,271)"/>
<path d="M0 0 C2 1 2 1 2 1 Z " fill="#404040" transform="translate(121,271)"/>
<path d="M0 0 C2 1 2 1 2 1 Z " fill="#FFFFFF" transform="translate(163,267)"/>
<path d="M0 0 C2 1 2 1 2 1 Z " fill="#FFFFFF" transform="translate(115,267)"/>
<path d="M0 0 C2 1 2 1 2 1 Z " fill="#FFFFFF" transform="translate(165,266)"/>
<path d="M0 0 C2 1 2 1 2 1 Z " fill="#FFFFFF" transform="translate(113,266)"/>
<path d="M0 0 C2 1 2 1 2 1 Z " fill="#AAAAAA" transform="translate(170,263)"/>
<path d="M0 0 C2 1 2 1 2 1 Z " fill="#557FAA" transform="translate(108,263)"/>
<path d="M0 0 C2 1 2 1 2 1 Z " fill="#FFFFFF" transform="translate(172,262)"/>
<path d="M0 0 C2 1 2 1 2 1 Z " fill="#FFFFFF" transform="translate(106,262)"/>
<path d="M0 0 C2 1 2 1 2 1 Z " fill="#FFFFFF" transform="translate(181,257)"/>
<path d="M0 0 C2 1 2 1 2 1 Z " fill="#FFFFFF" transform="translate(97,257)"/>
<path d="M0 0 C2 1 2 1 2 1 Z " fill="#FFFFFF" transform="translate(183,256)"/>
<path d="M0 0 C2 1 2 1 2 1 Z " fill="#FFFFFF" transform="translate(95,256)"/>
<path d="M0 0 C2 1 2 1 2 1 Z " fill="#FFFFFF" transform="translate(185,255)"/>
<path d="M0 0 C2 1 2 1 2 1 Z " fill="#FFFFFF" transform="translate(93,255)"/>
<path d="M0 0 C2 1 2 1 2 1 Z " fill="#FFFFFF" transform="translate(89,252)"/>
<path d="M0 0 C2 1 2 1 2 1 Z " fill="#FFFFFF" transform="translate(191,251)"/>
<path d="M0 0 C2 1 2 1 2 1 Z " fill="#FFFFFF" transform="translate(87,251)"/>
<path d="M0 0 C2 1 2 1 2 1 Z " fill="#AAAAAA" transform="translate(194,249)"/>
<path d="M0 0 C2 1 2 1 2 1 Z " fill="#AAAAAA" transform="translate(84,249)"/>
<path d="M0 0 C2 1 2 1 2 1 Z " fill="#BFBFBF" transform="translate(196,248)"/>
<path d="M0 0 C2 1 2 1 2 1 Z " fill="#BFBFBF" transform="translate(82,248)"/>
<path d="M0 0 C2 1 2 1 2 1 Z " fill="#FFFFFF" transform="translate(205,243)"/>
<path d="M0 0 C2 1 2 1 2 1 Z " fill="#FFFFFF" transform="translate(73,243)"/>
<path d="M0 0 C2 1 2 1 2 1 Z " fill="#FFFFFF" transform="translate(207,242)"/>
<path d="M0 0 C2 1 2 1 2 1 Z " fill="#FFFFFF" transform="translate(71,242)"/>
<path d="M0 0 C2 1 2 1 2 1 Z " fill="#CCCCCC" transform="translate(209,241)"/>
<path d="M0 0 C2 1 2 1 2 1 Z " fill="#CCCCCC" transform="translate(69,241)"/>
<path d="M0 0 C2 1 2 1 2 1 Z " fill="#CCCCCC" transform="translate(214,238)"/>
<path d="M0 0 C2 1 2 1 2 1 Z " fill="#CCCCCC" transform="translate(64,238)"/>
<path d="M0 0 C2 1 2 1 2 1 Z " fill="#FFFFFF" transform="translate(218,235)"/>
<path d="M0 0 C2 1 2 1 2 1 Z " fill="#FFFFFF" transform="translate(60,235)"/>
<path d="M0 0 C2 1 2 1 2 1 Z " fill="#7F7F7F" transform="translate(220,234)"/>
<path d="M0 0 C2 1 2 1 2 1 Z " fill="#7F7F7F" transform="translate(58,234)"/>
<path d="M0 0 C2 1 2 1 2 1 Z " fill="#FFFFFF" transform="translate(233,227)"/>
<path d="M0 0 C2 1 2 1 2 1 Z " fill="#FFFFFF" transform="translate(45,227)"/>
<path d="M0 0 C2 1 2 1 2 1 Z " fill="#FFFFFF" transform="translate(236,225)"/>
<path d="M0 0 C2 1 2 1 2 1 Z " fill="#FFFFFF" transform="translate(42,225)"/>
<path d="M0 0 C2 1 2 1 2 1 Z " fill="#BFDFFF" transform="translate(238,224)"/>
<path d="M0 0 C2 1 2 1 2 1 Z " fill="#BFDFFF" transform="translate(40,224)"/>
<path d="M0 0 C2 1 2 1 2 1 Z " fill="#FFFFFF" transform="translate(256,214)"/>
<path d="M0 0 C2 1 2 1 2 1 Z " fill="#FFFFFF" transform="translate(22,214)"/>
<path d="M0 0 C2 1 2 1 2 1 Z " fill="#FFFFFF" transform="translate(256,65)"/>
<path d="M0 0 C2 1 2 1 2 1 Z " fill="#FFFFFF" transform="translate(22,65)"/>
<path d="M0 0 C2 1 2 1 2 1 Z " fill="#FFFFFF" transform="translate(254,64)"/>
<path d="M0 0 C2 1 2 1 2 1 Z " fill="#FFFFFF" transform="translate(24,64)"/>
<path d="M0 0 C2 1 2 1 2 1 Z " fill="#FFFFFF" transform="translate(238,55)"/>
<path d="M0 0 C2 1 2 1 2 1 Z " fill="#FFFFFF" transform="translate(40,55)"/>
<path d="M0 0 C2 1 2 1 2 1 Z " fill="#AAAAAA" transform="translate(236,54)"/>
<path d="M0 0 C2 1 2 1 2 1 Z " fill="#AAAAAA" transform="translate(42,54)"/>
<path d="M0 0 C2 1 2 1 2 1 Z " fill="#FFFFFF" transform="translate(220,45)"/>
<path d="M0 0 C2 1 2 1 2 1 Z " fill="#FFFFFF" transform="translate(58,45)"/>
<path d="M0 0 C2 1 2 1 2 1 Z " fill="#AAAAAA" transform="translate(218,44)"/>
<path d="M0 0 C2 1 2 1 2 1 Z " fill="#AAAAAA" transform="translate(60,44)"/>
<path d="M0 0 C2 1 2 1 2 1 Z " fill="#4C4C4C" transform="translate(214,41)"/>
<path d="M0 0 C2 1 2 1 2 1 Z " fill="#4C4C4C" transform="translate(64,41)"/>
<path d="M0 0 C2 1 2 1 2 1 Z " fill="#CCCCCC" transform="translate(209,38)"/>
<path d="M0 0 C2 1 2 1 2 1 Z " fill="#CCCCCC" transform="translate(69,38)"/>
<path d="M0 0 C2 1 2 1 2 1 Z " fill="#BFBFBF" transform="translate(207,37)"/>
<path d="M0 0 C2 1 2 1 2 1 Z " fill="#BFBFBF" transform="translate(71,37)"/>
<path d="M0 0 C2 1 2 1 2 1 Z " fill="#FFFFFF" transform="translate(205,36)"/>
<path d="M0 0 C2 1 2 1 2 1 Z " fill="#FFFFFF" transform="translate(73,36)"/>
<path d="M0 0 C2 1 2 1 2 1 Z " fill="#BFBFFF" transform="translate(196,31)"/>
<path d="M0 0 C2 1 2 1 2 1 Z " fill="#BFBFFF" transform="translate(82,31)"/>
<path d="M0 0 C2 1 2 1 2 1 Z " fill="#BFBFBF" transform="translate(194,30)"/>
<path d="M0 0 C2 1 2 1 2 1 Z " fill="#BFBFBF" transform="translate(84,30)"/>
<path d="M0 0 C2 1 2 1 2 1 Z " fill="#FFFFFF" transform="translate(191,28)"/>
<path d="M0 0 C2 1 2 1 2 1 Z " fill="#FFFFFF" transform="translate(87,28)"/>
<path d="M0 0 C2 1 2 1 2 1 Z " fill="#FFFFFF" transform="translate(89,27)"/>
<path d="M0 0 C2 1 2 1 2 1 Z " fill="#FFFFFF" transform="translate(185,24)"/>
<path d="M0 0 C2 1 2 1 2 1 Z " fill="#FFFFFF" transform="translate(93,24)"/>
<path d="M0 0 C2 1 2 1 2 1 Z " fill="#FFFFFF" transform="translate(183,23)"/>
<path d="M0 0 C2 1 2 1 2 1 Z " fill="#FFFFFF" transform="translate(95,23)"/>
<path d="M0 0 C2 1 2 1 2 1 Z " fill="#7F7F7F" transform="translate(181,22)"/>
<path d="M0 0 C2 1 2 1 2 1 Z " fill="#7F7F7F" transform="translate(97,22)"/>
<path d="M0 0 C2 1 2 1 2 1 Z " fill="#7FBFFF" transform="translate(172,17)"/>
<path d="M0 0 C2 1 2 1 2 1 Z " fill="#7F7FFF" transform="translate(106,17)"/>
<path d="M0 0 C2 1 2 1 2 1 Z " fill="#AAAAAA" transform="translate(170,16)"/>
<path d="M0 0 C2 1 2 1 2 1 Z " fill="#AAAAAA" transform="translate(108,16)"/>
<path d="M0 0 C2 1 2 1 2 1 Z " fill="#FFFFFF" transform="translate(165,13)"/>
<path d="M0 0 C2 1 2 1 2 1 Z " fill="#FFFFFF" transform="translate(113,13)"/>
<path d="M0 0 C2 1 2 1 2 1 Z " fill="#FFFFFF" transform="translate(163,12)"/>
<path d="M0 0 C2 1 2 1 2 1 Z " fill="#FFFFFF" transform="translate(115,12)"/>
<path d="M0 0 C2 1 2 1 2 1 Z " fill="#FFFFFF" transform="translate(157,8)"/>
<path d="M0 0 C2 1 2 1 2 1 Z " fill="#FFFFFF" transform="translate(121,8)"/>
<path d="M0 0 C2 1 2 1 2 1 Z " fill="#CCCCFF" transform="translate(143,0)"/>
<path d="M0 0 C2 1 2 1 2 1 Z " fill="#CCCCFF" transform="translate(135,0)"/>
<path d="" fill="#808080" transform="translate(0,0)"/>
<path d="" fill="#808080" transform="translate(0,0)"/>
<path d="" fill="#7F7F7F" transform="translate(0,0)"/>
<path d="" fill="#7F7F7F" transform="translate(0,0)"/>
<path d="" fill="#FFFFFF" transform="translate(0,0)"/>
<path d="" fill="#FFFFFF" transform="translate(0,0)"/>
<path d="" fill="#CCCCCC" transform="translate(0,0)"/>
<path d="" fill="#CCCCCC" transform="translate(0,0)"/>
<path d="" fill="#40407F" transform="translate(0,0)"/>
<path d="" fill="#40407F" transform="translate(0,0)"/>
<path d="" fill="#FFFFFF" transform="translate(0,0)"/>
<path d="" fill="#FFFFFF" transform="translate(0,0)"/>
<path d="" fill="#AAAAAA" transform="translate(0,0)"/>
<path d="" fill="#FFFFFF" transform="translate(0,0)"/>
<path d="" fill="#FFFFFF" transform="translate(0,0)"/>
<path d="" fill="#7F7F7F" transform="translate(0,0)"/>
<path d="" fill="#FFFFFF" transform="translate(0,0)"/>
<path d="" fill="#FFFFFF" transform="translate(0,0)"/>
<path d="" fill="#404040" transform="translate(0,0)"/>
<path d="" fill="#808080" transform="translate(0,0)"/>
<path d="" fill="#FFFFFF" transform="translate(0,0)"/>
<path d="" fill="#FFFFFF" transform="translate(0,0)"/>
<path d="" fill="#FFFFFF" transform="translate(0,0)"/>
<path d="" fill="#FFFFFF" transform="translate(0,0)"/>
<path d="" fill="#FFFFFF" transform="translate(0,0)"/>
<path d="" fill="#FFFFFF" transform="translate(0,0)"/>
<path d="" fill="#7F7F7F" transform="translate(0,0)"/>
<path d="" fill="#7F7F7F" transform="translate(0,0)"/>
<path d="" fill="#FFFFFF" transform="translate(0,0)"/>
<path d="" fill="#FFFFFF" transform="translate(0,0)"/>
<path d="" fill="#FFFFFF" transform="translate(0,0)"/>
<path d="" fill="#FFFFFF" transform="translate(0,0)"/>
<path d="" fill="#FFFFFF" transform="translate(0,0)"/>
<path d="" fill="#FFFFFF" transform="translate(0,0)"/>
<path d="" fill="#FFFFFF" transform="translate(0,0)"/>
<path d="" fill="#FFFFFF" transform="translate(0,0)"/>
<path d="" fill="#7F7F7F" transform="translate(0,0)"/>
<path d="" fill="#7F7F7F" transform="translate(0,0)"/>
<path d="" fill="#FFFFFF" transform="translate(0,0)"/>
<path d="" fill="#FFFFFF" transform="translate(0,0)"/>
<path d="" fill="#40407F" transform="translate(0,0)"/>
<path d="" fill="#40407F" transform="translate(0,0)"/>
<path d="" fill="#7F7F7F" transform="translate(0,0)"/>
<path d="" fill="#7F7F7F" transform="translate(0,0)"/>
<path d="" fill="#BFBFBF" transform="translate(0,0)"/>
<path d="" fill="#808080" transform="translate(0,0)"/>
<path d="" fill="#FFFFFF" transform="translate(0,0)"/>
<path d="" fill="#FFFFFF" transform="translate(0,0)"/>
<path d="" fill="#7F7F7F" transform="translate(0,0)"/>
<path d="" fill="#FFFFFF" transform="translate(0,0)"/>
<path d="" fill="#FFFFFF" transform="translate(0,0)"/>
<path d="" fill="#FFFFFF" transform="translate(0,0)"/>
<path d="" fill="#FFFFFF" transform="translate(0,0)"/>
<path d="" fill="#FFFFFF" transform="translate(0,0)"/>
<path d="" fill="#8080FF" transform="translate(0,0)"/>
<path d="" fill="#8080FF" transform="translate(0,0)"/>
<path d="" fill="#404040" transform="translate(0,0)"/>
<path d="" fill="#404040" transform="translate(0,0)"/>
<path d="" fill="#4C4C4C" transform="translate(0,0)"/>
<path d="" fill="#4C4C4C" transform="translate(0,0)"/>
<path d="" fill="#FFFFFF" transform="translate(0,0)"/>
<path d="" fill="#FFFFFF" transform="translate(0,0)"/>
<path d="" fill="#7F7F7F" transform="translate(0,0)"/>
<path d="" fill="#7F7F7F" transform="translate(0,0)"/>
<path d="" fill="#808080" transform="translate(0,0)"/>
<path d="" fill="#808080" transform="translate(0,0)"/>
</svg>
