<?xml version="1.0" encoding="UTF-8"?>
<svg version="1.1" xmlns="http://www.w3.org/2000/svg" width="320" height="320">
<path d="M0 0 C1.18787109 0.00499512 2.37574219 0.00999023 3.59960938 0.01513672 C12.86863004 0.19884476 20.3123831 1.46881328 28.75 5.5 C29.71292969 5.9228125 30.67585937 6.345625 31.66796875 6.78125 C48.00260398 14.70665835 59.64825606 29.90103705 65.91796875 46.61328125 C66.75 49.5 66.75 49.5 66.75 53.5 C67.75417969 53.53738281 68.75835937 53.57476562 69.79296875 53.61328125 C88.81500133 54.46239559 104.02883098 58.58792776 117.75 72.5 C118.39839844 73.13808594 119.04679687 73.77617187 119.71484375 74.43359375 C129.71489913 84.95881615 133.10332186 97.4160153 133 111.5625 C133.00773437 112.62533203 133.01546875 113.68816406 133.0234375 114.78320312 C132.99839795 124.80528174 132.99839795 124.80528174 130.75 129.5 C128.3200385 130.71498075 126.78459677 130.62424432 124.06857109 130.62304783 C122.57867143 130.6260344 122.57867143 130.6260344 121.05867279 130.62908131 C119.95946915 130.62616847 118.86026552 130.62325563 117.72775269 130.62025452 C116.56631497 130.62110894 115.40487725 130.62196337 114.20824444 130.62284368 C110.97470139 130.6242103 107.74119803 130.62106871 104.50765967 130.61606562 C101.02436303 130.61175989 97.54106834 130.61320763 94.05776978 130.6139679 C88.01947462 130.61449305 81.98119024 130.61134711 75.9428978 130.60573006 C67.21246765 130.59761394 58.48204273 130.59499972 49.75160922 130.59374207 C35.58814668 130.59155172 21.42468989 130.58489211 7.26123047 130.57543945 C-6.49983695 130.56626488 -20.2609028 130.55918427 -34.02197266 130.55493164 C-34.86975395 130.55466892 -35.71753525 130.55440619 -36.59100689 130.55413551 C-40.84394185 130.5528305 -45.09687682 130.55156679 -49.34981179 130.55032361 C-84.64987863 130.53995154 -119.94993878 130.5223337 -155.25 130.5 C-155.29401229 127.45036197 -155.3261777 124.40136543 -155.3515625 121.3515625 C-155.36517822 120.49248291 -155.37879395 119.63340332 -155.39282227 118.74829102 C-155.43354577 112.22313194 -154.60825105 107.19124165 -151.25 101.5 C-150.82589844 100.736875 -150.40179688 99.97375 -149.96484375 99.1875 C-144.11350057 89.53848841 -135.92381834 83.09677098 -125.25 79.5 C-121.60169418 78.63437713 -117.96766341 77.98178617 -114.25 77.5 C-114.29640625 76.76136719 -114.3428125 76.02273437 -114.390625 75.26171875 C-114.74556858 65.28526889 -113.02833917 57.46714615 -106.625 49.625 C-100.29983481 43.01555772 -92.29344425 39.44230551 -83.1875 39.1875 C-77.54899703 39.21785533 -69.45158917 40.29841083 -65.25 44.5 C-64.84910156 43.61699219 -64.44820313 42.73398438 -64.03515625 41.82421875 C-55.73614856 24.08074153 -42.83607493 10.56434922 -24.25 3.5 C-16.15277378 0.68115925 -8.54190381 -0.04723968 0 0 Z " fill="#F3811F" transform="translate(171.25,94.5)"/>
<path d="M0 0 C20.065792 0.74699354 36.39202595 4.18878458 51 19 C51.64839844 19.63808594 52.29679688 20.27617187 52.96484375 20.93359375 C62.96489913 31.45881615 66.35332186 43.9160153 66.25 58.0625 C66.25773438 59.12533203 66.26546875 60.18816406 66.2734375 61.28320312 C66.24839795 71.30528174 66.24839795 71.30528174 64 76 C61.00451679 77.4977416 57.93247675 77.13864225 54.64794922 77.12939453 C53.51098854 77.13202301 53.51098854 77.13202301 52.35105896 77.13470459 C49.83557876 77.13911891 47.32016847 77.13618483 44.8046875 77.1328125 C43.05551134 77.13348608 41.30633527 77.13445656 39.55715942 77.13571167 C35.88347486 77.13718842 32.20981456 77.13503638 28.53613281 77.13037109 C23.84219852 77.12469903 19.14832172 77.12793687 14.45438957 77.13394356 C10.83742853 77.13757137 7.22048091 77.13639997 3.60351944 77.13381577 C1.8740755 77.13315132 0.14463032 77.13395797 -1.58481216 77.13629532 C-4.01376784 77.13885551 -6.44263303 77.13493306 -8.87158203 77.12939453 C-9.57838608 77.13141876 -10.28519012 77.13344299 -11.01341248 77.13552856 C-15.76300034 77.11562294 -20.30695305 76.66110748 -25 76 C-24.835 74.9275 -24.67 73.855 -24.5 72.75 C-22.80531181 62.14801834 -22.80531181 62.14801834 -26 52.4375 C-34.21894013 45.75961114 -43.54688703 46.54339588 -53.5703125 46.5234375 C-55.21338134 46.50907731 -56.85643843 46.49331161 -58.4994812 46.47622681 C-62.83127438 46.43445058 -67.16299513 46.40945319 -71.49493408 46.38873291 C-78.3274655 46.35305679 -85.15984871 46.2914968 -91.99221039 46.23233795 C-93.66616031 46.21809751 -95.34011582 46.20449952 -97.01407623 46.19155121 C-112.68819589 46.06894832 -128.33824801 45.63386099 -144 45 C-143.67 43.68 -143.34 42.36 -143 41 C-141.70717354 40.9845388 -141.70717354 40.9845388 -140.38822937 40.96876526 C-132.08447193 40.8689368 -123.78075531 40.76623796 -115.4770689 40.66066074 C-111.21267495 40.60653309 -106.94827453 40.55334798 -102.68383789 40.50268555 C-93.5885479 40.39401312 -84.49381514 40.26945314 -75.39918327 40.11463356 C-70.45635506 40.03235056 -65.514067 39.97623659 -60.57070065 39.93929768 C-57.39072781 39.91085648 -54.21126944 39.86224426 -51.03162575 39.80894279 C-49.5516774 39.7882695 -48.07158643 39.77577968 -46.59149742 39.77246284 C-33.29303249 39.73486374 -22.82624864 36.86771997 -13.11328125 27.43359375 C-9.79040381 23.60706391 -7.86853653 19.68077839 -6 15 C-5.45741724 13.67692498 -4.91441912 12.35402024 -4.37109375 11.03125 C-2.87934701 7.36726536 -1.43098588 3.68810793 0 0 Z " fill="#F9AD3F" transform="translate(238,148)"/>
<path d="M0 0 C1.65 0.33 3.3 0.66 5 1 C4.54678672 3.06363112 4.08720894 5.12586507 3.625 7.1875 C3.36976563 8.33605469 3.11453125 9.48460937 2.8515625 10.66796875 C2 14 2 14 0.91796875 16.6796875 C-0.94620611 21.39168693 -0.50053392 25.63011768 1.1875 30.25 C3.53899209 33.8177811 6.18442157 36.09221079 10 38 C12.00624513 38.21102944 14.01820493 38.36884174 16.03125 38.5 C17.23394531 38.5825 18.43664062 38.665 19.67578125 38.75 C20.93777344 38.8325 22.19976562 38.915 23.5 39 C25.98984127 39.16276797 28.47944382 39.32924373 30.96875 39.5 C32.07669922 39.5721875 33.18464844 39.644375 34.32617188 39.71875 C37 40 37 40 39 41 C38.38232422 42.96142578 38.38232422 42.96142578 37 45 C34.30126953 45.54248047 34.30126953 45.54248047 30.8828125 45.6171875 C29.635 45.66746094 28.3871875 45.71773437 27.1015625 45.76953125 C24.48975416 45.83880318 21.87776183 45.90151012 19.265625 45.95703125 C8.13088567 46.42382503 -1.29272393 49.6353932 -9.5390625 57.37890625 C-14.59230135 62.98610979 -16.85033616 68.58724211 -18 76 C-20.31 76 -22.62 76 -25 76 C-24.835 74.9275 -24.67 73.855 -24.5 72.75 C-22.80531181 62.14801834 -22.80531181 62.14801834 -26 52.4375 C-34.21894013 45.75961114 -43.54688703 46.54339588 -53.5703125 46.5234375 C-55.21338134 46.50907731 -56.85643843 46.49331161 -58.4994812 46.47622681 C-62.83127438 46.43445058 -67.16299513 46.40945319 -71.49493408 46.38873291 C-78.3274655 46.35305679 -85.15984871 46.2914968 -91.99221039 46.23233795 C-93.66616031 46.21809751 -95.34011582 46.20449952 -97.01407623 46.19155121 C-112.68819589 46.06894832 -128.33824801 45.63386099 -144 45 C-143.67 43.68 -143.34 42.36 -143 41 C-141.70717354 40.9845388 -141.70717354 40.9845388 -140.38822937 40.96876526 C-132.08447193 40.8689368 -123.78075531 40.76623796 -115.4770689 40.66066074 C-111.21267495 40.60653309 -106.94827453 40.55334798 -102.68383789 40.50268555 C-93.5885479 40.39401312 -84.49381514 40.26945314 -75.39918327 40.11463356 C-70.45635506 40.03235056 -65.514067 39.97623659 -60.57070065 39.93929768 C-57.39072781 39.91085648 -54.21126944 39.86224426 -51.03162575 39.80894279 C-49.5516774 39.7882695 -48.07158643 39.77577968 -46.59149742 39.77246284 C-33.29303249 39.73486374 -22.82624864 36.86771997 -13.11328125 27.43359375 C-9.79040381 23.60706391 -7.86853653 19.68077839 -6 15 C-5.45741724 13.67692498 -4.91441912 12.35402024 -4.37109375 11.03125 C-2.87934701 7.36726536 -1.43098588 3.68810793 0 0 Z " fill="#FEFAF7" transform="translate(238,148)"/>
</svg>
