<?xml version="1.0" encoding="UTF-8"?>
<svg version="1.1" xmlns="http://www.w3.org/2000/svg" width="512" height="511">
<path d="M0 0 C1.75447952 -0.01287048 1.75447952 -0.01287048 3.54440308 -0.02600098 C18.39333734 -0.10246613 32.35989817 0.99390485 46.88288879 4.12611389 C49.59473902 4.68508961 52.31771276 5.07858615 55.0625 5.4375 C82.26644134 9.93887159 109.74413803 22.0059247 133 36.5625 C133.91652344 37.12453125 134.83304687 37.6865625 135.77734375 38.265625 C146.04879503 44.66187236 155.65908481 51.88279713 165 59.5625 C165.52948242 59.99498047 166.05896484 60.42746094 166.60449219 60.87304688 C172.93784342 66.06050171 178.80489873 71.19850094 184 77.5625 C184.79148437 78.18511719 185.58296875 78.80773437 186.3984375 79.44921875 C189.0428874 81.59733797 191.00075278 83.78017173 193.125 86.4375 C194.28902344 87.89349609 194.28902344 87.89349609 195.4765625 89.37890625 C195.88551758 89.89598145 196.29447266 90.41305664 196.71582031 90.94580078 C198.0358893 92.60768231 199.37225526 94.25543111 200.7109375 95.90234375 C207.07225723 103.7872057 212.69596208 111.93557666 218 120.5625 C218.50789063 121.36558594 219.01578125 122.16867188 219.5390625 122.99609375 C227.71777457 136.17798444 234.64802794 150.01031012 240 164.5625 C240.62455078 166.17898437 240.62455078 166.17898437 241.26171875 167.828125 C259.73453956 217.01128198 263.31018903 275.57215337 246.84619141 325.85571289 C246.1140679 328.19762094 245.56227153 330.46436142 245.125 332.875 C240.23440463 356.13722318 226.52755122 380.33447414 213 399.5625 C212.04673828 401.01269531 212.04673828 401.01269531 211.07421875 402.4921875 C208.8956212 405.71700422 206.57678164 408.80590919 204.1875 411.875 C203.75026611 412.43896484 203.31303223 413.00292969 202.86254883 413.58398438 C201.98457374 414.71619064 201.10592642 415.84787599 200.2265625 416.97900391 C199.13324848 418.39047578 198.05026719 419.80993752 196.96875 421.23046875 C193.8632827 425.29617923 190.72431918 429.03419762 187 432.5625 C186.13375 433.47 185.2675 434.3775 184.375 435.3125 C182 437.5625 182 437.5625 179 438.5625 C178.71125 439.14 178.4225 439.7175 178.125 440.3125 C175.95810581 444.64628837 172.01941388 447.92909091 168 450.5625 C167.34 450.5625 166.68 450.5625 166 450.5625 C165.7421875 451.16449219 165.484375 451.76648438 165.21875 452.38671875 C163.88026023 454.7762662 162.7168262 455.79869121 160.5 457.375 C159.78457031 457.88804687 159.06914062 458.40109375 158.33203125 458.9296875 C157.56246094 459.46851563 156.79289062 460.00734375 156 460.5625 C155.22011719 461.12195313 154.44023437 461.68140625 153.63671875 462.2578125 C147.56057688 466.57991661 141.33153077 470.62593957 135 474.5625 C134.23429687 475.04332031 133.46859375 475.52414062 132.6796875 476.01953125 C127.35296285 479.29682116 121.88651892 482.29803953 116.375 485.25 C115.67036621 485.63075684 114.96573242 486.01151367 114.23974609 486.40380859 C110.19536554 488.54639545 106.16986307 490.31573382 101.86157227 491.85595703 C99.14022236 492.88882085 96.59518639 494.24906103 94 495.5625 C70.54304788 505.03973837 34.20467919 518.41095404 9.125 510.67578125 C3.47707509 507.87968685 -1.60542908 503.36220047 -3.80859375 497.359375 C-5.98805268 488.52129328 -5.21445693 480.70951038 -1 472.5625 C-0.01 472.2325 0.98 471.9025 2 471.5625 C2.30349365 470.92602539 2.6069873 470.28955078 2.91967773 469.63378906 C4.69572256 466.22859939 7.53891861 465.6960522 11.01220703 464.41992188 C16.3970726 462.8746001 21.88137422 462.40118386 27.4375 461.8125 C55.41076042 458.39868041 80.93469444 448.54088734 105.4375 434.9375 C106.11224365 434.56520264 106.7869873 434.19290527 107.48217773 433.80932617 C111.28408716 431.66935489 114.63738349 429.36468043 118 426.5625 C119.80558673 425.24050564 121.61826087 423.92814292 123.4375 422.625 C126.57430463 420.36328776 129.63696843 418.09171572 132.5625 415.5625 C135 413.5625 135 413.5625 137 413.5625 C137.33 412.5725 137.66 411.5825 138 410.5625 C139.6015625 408.984375 139.6015625 408.984375 141.625 407.3125 C152.12233158 398.54874198 152.12233158 398.54874198 160 387.5625 C160.66 387.5625 161.32 387.5625 162 387.5625 C162.26425781 386.99660156 162.52851563 386.43070312 162.80078125 385.84765625 C164.0875163 383.39573441 165.56983342 381.24696479 167.1875 379 C199.05220754 333.9911006 212.3238503 281.52428667 205.25 226.6875 C205.09329834 225.47030273 204.93659668 224.25310547 204.77514648 222.99902344 C203.75820659 215.90626966 202.15718765 209.27142625 199.93359375 202.46166992 C199.15950652 200.05782948 198.49861027 197.68665796 197.921875 195.23046875 C196.93945612 191.32160718 195.68449116 187.63537588 194.25 183.875 C193.98832031 183.18510986 193.72664063 182.49521973 193.45703125 181.78442383 C187.83056061 167.17141621 180.58539656 153.63660846 172 140.5625 C171.38253906 139.60988281 170.76507813 138.65726563 170.12890625 137.67578125 C167.74177446 134.18487477 165.19032224 130.87348373 162.5625 127.5625 C161.86543945 126.67691406 161.86543945 126.67691406 161.15429688 125.7734375 C156.68029974 120.10762244 152.17817401 114.61121966 147 109.5625 C146.24203125 108.78777344 145.4840625 108.01304688 144.703125 107.21484375 C140.07817923 102.6767828 135.01503409 98.65693092 130 94.5625 C129.23300781 93.92828125 128.46601563 93.2940625 127.67578125 92.640625 C122.40303265 88.39123796 116.78001117 84.88106085 110.984375 81.40234375 C108.73661389 80.01661668 106.69224637 78.62502614 104.625 77 C100.07388729 73.62373594 94.72892703 71.52267245 89.58984375 69.19921875 C86.88711982 67.96696486 84.2524751 66.69232093 81.625 65.3125 C77.56223149 63.25484785 73.34797476 61.88962214 69 60.5625 C68.28714844 60.33949219 67.57429688 60.11648437 66.83984375 59.88671875 C65.23544615 59.3941164 63.62692021 58.91486172 62.015625 58.4453125 C59.72543822 57.77486922 57.44930074 57.07846563 55.171875 56.3671875 C28.79203779 48.34592236 1.22604485 47.36991639 -26 50.5625 C-26.84916992 50.65515137 -27.69833984 50.74780273 -28.57324219 50.84326172 C-46.93772941 52.89941938 -65.23218494 57.7287864 -82 65.5625 C-82.86625 65.93761719 -83.7325 66.31273438 -84.625 66.69921875 C-95.66575027 71.529547 -106.44102567 76.99375766 -116.046875 84.3125 C-118 85.5625 -118 85.5625 -121 85.5625 C-121 86.2225 -121 86.8825 -121 87.5625 C-122.74285148 88.97894115 -124.54732215 90.31984466 -126.375 91.625 C-131.44945627 95.31173858 -136.14539665 99.24578725 -140.74609375 103.51953125 C-143 105.5625 -143 105.5625 -145.5625 107.54296875 C-147.98728949 109.55196902 -149.69815361 111.53633227 -151.5625 114.0625 C-153.85678774 117.15687422 -156.27538744 119.84364772 -159 122.5625 C-159.33 123.2225 -159.66 123.8825 -160 124.5625 C-160.66 124.5625 -161.32 124.5625 -162 124.5625 C-162.4021875 125.41908203 -162.4021875 125.41908203 -162.8125 126.29296875 C-164.04662023 128.65159985 -165.44699129 130.71348066 -167 132.875 C-180.10080421 151.32607301 -180.10080421 151.32607301 -189.87109375 171.65625 C-190.75597733 173.9342894 -191.68481148 176.16693248 -192.66015625 178.40625 C-196.80914879 188.00817236 -199.71569863 197.35351332 -202 207.5625 C-202.33257812 208.81546875 -202.66515625 210.0684375 -203.0078125 211.359375 C-204.24185234 216.27003524 -204.91428145 221.23312961 -205.5625 226.25 C-205.69398438 227.24805664 -205.82546875 228.24611328 -205.9609375 229.27441406 C-206.81625891 236.12346502 -207.27132875 242.91674975 -207.5 249.8125 C-207.85923604 259.59400994 -208.32688573 268.40678828 -215.109375 276.02734375 C-220.87471617 280.70870548 -225.20234572 282.21915805 -232.5 282.0625 C-233.22058594 282.07796875 -233.94117188 282.0934375 -234.68359375 282.109375 C-240.21507926 282.06936425 -243.46926667 280.74834412 -248 277.5625 C-250.1796875 275.2734375 -250.1796875 275.2734375 -251.875 272.9375 C-252.73738281 271.77347656 -252.73738281 271.77347656 -253.6171875 270.5859375 C-256.18100153 266.83436781 -256.2054836 263.79180691 -256.2734375 259.36328125 C-256.28592026 258.62871201 -256.29840302 257.89414276 -256.31126404 257.13731384 C-256.66473879 231.16006224 -254.36065275 206.35110201 -246 181.5625 C-245.51485017 179.85585618 -245.03494726 178.14770381 -244.5625 176.4375 C-242.89016291 170.86937764 -240.66212649 165.51372734 -238.45703125 160.140625 C-237.63448992 158.12065755 -236.82747213 156.0936901 -236.07421875 154.046875 C-233.87439392 148.08336882 -230.99743968 142.50262357 -228.0625 136.875 C-227.64323242 136.06643555 -227.22396484 135.25787109 -226.79199219 134.42480469 C-224.1844091 129.49936997 -221.3031543 125.04895745 -218 120.5625 C-217.04276206 118.87137964 -216.085851 117.18005791 -215.13671875 115.484375 C-209.67116508 106.24364509 -202.67906378 97.93831451 -196 89.5625 C-195.28199219 88.655 -194.56398437 87.7475 -193.82421875 86.8125 C-188.5608379 80.32062127 -188.5608379 80.32062127 -184.8125 78.5 C-182.41706854 77.26098373 -182.10972262 75.99001824 -181 73.5625 C-178.5484095 70.1302733 -176.73532646 68.37356737 -173 66.5625 C-172.13375 65.69625 -171.2675 64.83 -170.375 63.9375 C-169.199375 62.761875 -169.199375 62.761875 -168 61.5625 C-167.34 61.5625 -166.68 61.5625 -166 61.5625 C-165.7429126 60.96123291 -165.4858252 60.35996582 -165.22094727 59.74047852 C-163.87511385 57.33972269 -162.69036023 56.30377278 -160.46484375 54.71484375 C-159.38746948 53.93886841 -159.38746948 53.93886841 -158.28833008 53.1472168 C-157.51255615 52.60363525 -156.73678223 52.06005371 -155.9375 51.5 C-155.13401123 50.92999268 -154.33052246 50.35998535 -153.50268555 49.77270508 C-128.21037781 31.95993096 -101.76071583 18.26306232 -72 9.5625 C-70.95207275 9.25183594 -69.90414551 8.94117188 -68.82446289 8.62109375 C-45.75968881 1.88267701 -23.94651392 0.06492014 0 0 Z " fill="#21BC86" transform="translate(256,-0.5625)"/>
<path d="M0 0 C1.77206192 0.00015919 3.54412846 0.00585754 5.31616211 0.01586914 C6.24698105 0.01728409 7.17779999 0.01869904 8.13682556 0.02015686 C11.12241777 0.02577367 14.10793615 0.03832899 17.09350586 0.05102539 C19.11238499 0.05603823 21.13126529 0.06060151 23.15014648 0.06469727 C28.11046158 0.07574856 33.07072118 0.09302444 38.03100586 0.11352539 C41.12978807 7.26950762 43.89914654 14.36270852 46.03100586 21.86352539 C46.541948 23.61245038 47.05367582 25.36114601 47.56616211 27.10961914 C47.81382324 27.96023926 48.06148438 28.81085938 48.31665039 29.68725586 C49.32557875 33.11402622 50.3939671 36.51920907 51.46850586 39.92602539 C55.90068762 54.01669261 60.28236844 68.12978235 64.20678711 82.37133789 C65.00568595 85.02928568 65.99738843 87.54002893 67.03100586 90.11352539 C67.56830564 92.08362459 68.01880213 94.05948029 68.46850586 96.05102539 C69.13463249 98.49348971 70.05804819 100.77842699 71.03100586 103.11352539 C73.77404324 93.85273989 76.48749277 84.58357866 79.15600586 75.30102539 C79.39722168 74.46740479 79.6384375 73.63378418 79.88696289 72.77490234 C81.17659458 68.27353239 82.37847933 63.76245638 83.49584961 59.21508789 C84.98451259 53.19053436 86.6997045 47.24841935 88.46850586 41.30102539 C90.46576497 34.52832551 92.4291624 27.75677303 94.21850586 20.92602539 C99.19247217 1.95205908 99.19247217 1.95205908 101.03100586 0.11352539 C103.98805906 0.0248424 106.92165642 -0.00167757 109.87866211 0.01586914 C111.20830238 0.01799156 111.20830238 0.01799156 112.56480408 0.02015686 C115.4077384 0.02577324 118.25059517 0.03832848 121.09350586 0.05102539 C123.01603077 0.05603828 124.9385569 0.06060155 126.86108398 0.06469727 C131.58442135 0.07574798 136.30770044 0.09302356 141.03100586 0.11352539 C140.06915375 8.66691946 140.06915375 8.66691946 138.76147461 12.26196289 C138.51437744 12.95217529 138.26728027 13.6423877 138.01269531 14.35351562 C137.75061279 15.05806885 137.48853027 15.76262207 137.21850586 16.48852539 C136.81474731 17.60432983 136.81474731 17.60432983 136.40283203 18.74267578 C134.67296488 23.48882757 132.82075241 28.17655856 130.89819336 32.84790039 C129.64826115 36.11348905 128.71209167 39.45440011 127.74584961 42.81274414 C126.75016033 46.01744897 125.35228474 49.03054133 124.03100586 52.11352539 C123.51322071 53.77475274 123.01435209 55.44195302 122.53100586 57.11352539 C121.52565371 60.58798074 120.32229361 63.80691447 118.83569336 67.10961914 C117.79820534 69.69326649 117.01823632 72.32165562 116.21850586 74.98852539 C114.70528454 80.0192725 113.0533 84.98160716 111.28100586 89.92602539 C108.74144799 97.01822534 106.33602334 104.14963528 103.96850586 111.30102539 C101.47728967 118.8167198 98.94522711 126.30650619 96.24584961 133.75024414 C95.32834551 136.29034391 94.42542125 138.8335013 93.53491211 141.38305664 C91.12565289 148.27740667 88.67011002 155.11177839 85.89038086 161.86743164 C84.99177601 164.21605794 84.28118419 166.57018992 83.59350586 168.98852539 C80.84989681 178.39939945 77.10475989 188.3155087 71.03100586 196.11352539 C70.01200195 196.62012695 70.01200195 196.62012695 68.97241211 197.13696289 C66.8649834 197.95144655 66.8649834 197.95144655 66.07397461 200.07446289 C64.66603375 202.82706636 63.10896275 203.42567449 60.34350586 204.73852539 C59.51463867 205.14329102 58.68577148 205.54805664 57.83178711 205.96508789 C51.98550741 208.36230718 46.55884242 209.42873599 40.26147461 209.44946289 C39.54043045 209.45611969 38.81938629 209.46277649 38.07649231 209.46963501 C36.55964687 209.47969914 35.0427577 209.48445398 33.52587891 209.48413086 C31.23450846 209.48849491 28.94508234 209.52485148 26.65405273 209.56274414 C18.44569871 209.62363846 11.4063304 209.12815849 4.03100586 205.11352539 C3.60329381 198.68893404 5.17412691 193.29452518 7.03100586 187.17602539 C7.31717773 186.20600586 7.60334961 185.23598633 7.89819336 184.23657227 C8.60075003 181.85958887 9.31184987 179.48552881 10.03100586 177.11352539 C17.53739102 178.03508579 17.53739102 178.03508579 20.46459961 178.50024414 C28.13900672 179.6521532 34.53054785 178.44716406 41.03100586 174.11352539 C41.69100586 174.11352539 42.35100586 174.11352539 43.03100586 174.11352539 C43.29913086 173.53602539 43.56725586 172.95852539 43.84350586 172.36352539 C45.03100586 170.11352539 45.03100586 170.11352539 46.54980469 168.29101562 C49.2613284 164.30484784 49.15724937 159.82326034 49.03100586 155.11352539 C48.3226364 151.44288363 47.15458993 148.04638074 45.84350586 144.55102539 C45.53864258 143.6828418 45.2337793 142.8146582 44.91967773 141.92016602 C43.40802582 137.66408945 41.77924143 133.46490423 40.07788086 129.28149414 C37.6465935 123.26265469 35.56417268 117.13063153 33.46850586 110.98852539 C30.21774207 101.47619568 30.21774207 101.47619568 26.75292969 92.04077148 C25.31958021 88.2143052 23.99742357 84.34795123 22.65600586 80.48852539 C22.03779536 78.71759461 21.4193044 76.94676171 20.80053711 75.17602539 C20.49970215 74.31493164 20.19886719 73.45383789 19.88891602 72.56665039 C15.69180332 60.53851823 15.69180332 60.53851823 11.02319336 48.68774414 C10.1805323 46.50146998 9.42630433 44.31888268 8.69506836 42.09399414 C7.48486291 38.42212938 6.20039994 34.78439058 4.87475586 31.15258789 C4.4919043 30.10329102 4.10905273 29.05399414 3.71459961 27.97290039 C2.92805786 25.82353877 2.13901047 23.67509234 1.34741211 21.52758789 C-1.1026923 14.79598789 -3.20665295 8.05749526 -4.96899414 1.11352539 C-3.96899414 0.11352539 -3.96899414 0.11352539 0 0 Z " fill="#1FB887" transform="translate(259.968994140625,161.886474609375)"/>
<path d="M0 0 C13.27877611 11.49239368 18.83189979 24.7231317 21.11328125 41.82421875 C21.11328125 43.47421875 21.11328125 45.12421875 21.11328125 46.82421875 C8.57328125 46.82421875 -3.96671875 46.82421875 -16.88671875 46.82421875 C-18.86671875 41.54421875 -20.84671875 36.26421875 -22.88671875 30.82421875 C-26.42830143 26.15440356 -26.42830143 26.15440356 -30.88671875 23.57421875 C-31.87671875 23.10242188 -31.87671875 23.10242188 -32.88671875 22.62109375 C-39.88683672 19.83198425 -47.09553453 19.87393372 -54.13671875 22.51171875 C-61.63395535 25.91422049 -65.62685317 29.90054136 -68.78515625 37.48046875 C-74.61732782 55.18379806 -75.99433705 77.31257842 -67.69921875 94.32421875 C-64.06690672 101.03233952 -60.74119801 105.12824788 -53.76171875 108.19921875 C-45.60514245 109.51479557 -36.16601804 110.44891119 -28.88671875 105.82421875 C-23.23743088 101.34514051 -21.20048843 95.1494284 -18.8671875 88.51953125 C-17.88671875 85.82421875 -17.88671875 85.82421875 -16.88671875 84.82421875 C-14.07508495 84.73559883 -11.2881362 84.7089952 -8.4765625 84.7265625 C-7.63452774 84.72797745 -6.79249298 84.7293924 -5.92494202 84.73085022 C-3.2246654 84.73646612 -0.52447047 84.74902127 2.17578125 84.76171875 C4.00195193 84.7667317 5.82812391 84.77129496 7.65429688 84.77539062 C12.14065667 84.78644071 16.62695509 84.80371596 21.11328125 84.82421875 C20.80880214 86.88323037 20.50082666 88.94172514 20.19140625 91 C20.0202832 92.14637939 19.84916016 93.29275879 19.67285156 94.47387695 C17.08728875 109.95453944 8.54205522 122.14670295 -3.515625 131.96484375 C-20.11057738 143.34141319 -41.71650626 145.14655181 -61.22607422 142.5078125 C-64.97185288 141.71741004 -68.40054289 140.37859631 -71.88671875 138.82421875 C-73.01851562 138.36917969 -74.1503125 137.91414062 -75.31640625 137.4453125 C-78.19337567 136.27924291 -81.04514538 135.07348704 -83.88671875 133.82421875 C-83.88671875 133.16421875 -83.88671875 132.50421875 -83.88671875 131.82421875 C-84.4796875 131.70949219 -85.07265625 131.59476563 -85.68359375 131.4765625 C-94.51190205 128.86250667 -101.69961179 117.44632498 -105.88671875 109.82421875 C-116.37299345 86.18340606 -118.15225438 54.91137211 -109.13671875 30.44921875 C-103.46850401 16.08595572 -93.82363821 1.34343958 -79.34375 -5.3515625 C-76.87561068 -6.35413017 -74.39381011 -7.27600947 -71.88671875 -8.17578125 C-71.11706787 -8.50070557 -70.34741699 -8.82562988 -69.55444336 -9.16040039 C-48.16859526 -17.3002139 -18.1572952 -13.68553914 0 0 Z " fill="#2AD282" transform="translate(223.88671875,172.17578125)"/>
<path d="M0 0 C1.09441406 -0.0299707 1.09441406 -0.0299707 2.2109375 -0.06054688 C8.81887347 -0.05464693 12.86133125 1.98468328 17.84765625 6.41015625 C22.10904639 11.25058879 25.3035986 16.11084083 28.23828125 21.8515625 C29.50911037 24.22139032 30.88526706 26.29356887 32.5 28.4375 C34.625 31.4375 34.625 31.4375 34.625 34.4375 C35.615 34.7675 36.605 35.0975 37.625 35.4375 C39.23046875 37.21484375 39.23046875 37.21484375 40.8125 39.375 C41.34230469 40.08527344 41.87210937 40.79554688 42.41796875 41.52734375 C43.625 43.4375 43.625 43.4375 43.625 45.4375 C44.285 45.4375 44.945 45.4375 45.625 45.4375 C46.625 47.10416667 47.625 48.77083333 48.625 50.4375 C50.26988294 52.12566933 51.93837542 53.79103315 53.625 55.4375 C54.7078125 56.8296875 54.7078125 56.8296875 55.8125 58.25 C58.86416727 62.03997386 62.74727038 64.79091827 66.61328125 67.703125 C67.27714844 68.27546875 67.94101563 68.8478125 68.625 69.4375 C68.625 70.0975 68.625 70.7575 68.625 71.4375 C70.275 72.0975 71.925 72.7575 73.625 73.4375 C73.625 74.0975 73.625 74.7575 73.625 75.4375 C74.140625 75.664375 74.65625 75.89125 75.1875 76.125 C78.52047005 77.91967618 81.77203671 79.93715015 84.625 82.4375 C84.625 83.0975 84.625 83.7575 84.625 84.4375 C85.346875 84.52 86.06875 84.6025 86.8125 84.6875 C90.27542455 85.61094655 91.87741059 87.12702708 94.625 89.4375 C100.66153576 93.96826292 107.15443147 97.32787195 113.95239258 100.54589844 C121.31269299 104.08459076 125.86504993 108.15168235 129.625 115.4375 C131.9104376 122.64541857 130.68598665 129.68604961 127.625 136.4375 C125.4375 139.6875 125.4375 139.6875 122.625 142.4375 C122.1403125 142.92476562 121.655625 143.41203125 121.15625 143.9140625 C114.86985114 149.02890521 106.40198634 148.47797326 98.72216797 147.76708984 C93.60943278 146.963575 89.81922967 144.29055158 85.625 141.4375 C83.38164516 140.1756129 81.13114882 138.92636743 78.875 137.6875 C68.01784084 131.50804869 57.79602886 124.41229759 47.75 117 C46.70513428 116.23768066 46.70513428 116.23768066 45.63916016 115.45996094 C44.99769043 114.97946289 44.3562207 114.49896484 43.6953125 114.00390625 C43.12570801 113.58052979 42.55610352 113.15715332 41.96923828 112.72094727 C40.625 111.4375 40.625 111.4375 39.625 108.4375 C38.8825 108.14875 38.14 107.86 37.375 107.5625 C33.90785434 106.14412223 32.20765624 104.14313987 29.625 101.4375 C28.50666047 100.51271923 27.38120224 99.5965018 26.25 98.6875 C22.68373004 95.68718158 20.02644491 92.24283457 17.23828125 88.52734375 C15.23537431 85.93277907 12.97000755 83.72531224 10.625 81.4375 C4.12146334 74.66118807 -1.16493946 67.22054298 -6.375 59.4375 C-7.05691406 58.44492187 -7.73882812 57.45234375 -8.44140625 56.4296875 C-10.46497301 53.45967759 -12.42930514 50.45904967 -14.375 47.4375 C-14.92365723 46.60798828 -14.92365723 46.60798828 -15.48339844 45.76171875 C-21.68377584 36.2982659 -24.73475308 27.69901972 -22.9375 16.1875 C-21.07601458 10.18229702 -15.98313013 5.45845947 -11.13671875 1.703125 C-7.43011531 0.00448354 -3.99854335 -0.03844753 0 0 Z " fill="#30DD80" transform="translate(50.375,341.5625)"/>
</svg>
