<?xml version="1.0" encoding="UTF-8"?>
<svg version="1.1" xmlns="http://www.w3.org/2000/svg" width="512" height="512">
<path d="M0 0 C0.81176193 -0.00979385 1.62352386 -0.01958771 2.45988464 -0.02967834 C20.42209711 -0.20170332 37.75572087 -0.02748286 55.3125 4.23828125 C56.18745117 4.44195312 57.06240234 4.645625 57.96386719 4.85546875 C92.90050579 13.18779919 122.3987788 31.87495363 148.3125 56.23828125 C148.94929688 56.8209375 149.58609375 57.40359375 150.2421875 58.00390625 C177.41282304 83.74450834 194.72470163 121.9140881 201.3125 158.23828125 C201.58175293 159.72038086 201.58175293 159.72038086 201.85644531 161.23242188 C203.50603984 171.36606698 203.71136254 181.3657683 203.6875 191.61328125 C203.68668427 192.93388046 203.68668427 192.93388046 203.68585205 194.28115845 C203.64528807 208.59781091 202.70416744 222.27905739 199.3125 236.23828125 C199.10882813 237.11323242 198.90515625 237.98818359 198.6953125 238.88964844 C190.36298206 273.82628704 171.67582762 303.32456005 147.3125 329.23828125 C146.72984375 329.87507813 146.1471875 330.511875 145.546875 331.16796875 C128.79063765 348.85510817 105.99333247 361.97319366 83.75 371.36328125 C82.84644775 371.75386719 81.94289551 372.14445312 81.01196289 372.546875 C75.45785593 374.80610313 70.33526588 376.23392725 64.3125 375.23828125 C60.81359996 373.12436248 59.60671314 372.12092066 58.3125 368.23828125 C58.21506045 366.18104408 58.1770321 364.12081288 58.1706543 362.0612793 C58.16010262 360.14734627 58.16010262 360.14734627 58.14933777 358.19474792 C58.14661393 357.17075425 58.14661393 357.17075425 58.14383507 356.12607384 C58.13663633 353.9753753 58.1209386 351.82490058 58.10249329 349.67427063 C58.05022762 343.5588413 58.00220706 337.44352803 57.98657227 331.32788086 C57.97637275 327.5829147 57.94674115 323.8385041 57.90525246 320.09375954 C57.89309327 318.67912859 57.88779301 317.26441856 57.89005089 315.84973717 C57.90753695 301.29900699 55.38418057 289.7624109 46.3125 278.23828125 C45.9825 277.57828125 45.6525 276.91828125 45.3125 276.23828125 C45.89515625 276.14329346 46.4778125 276.04830566 47.078125 275.95043945 C73.05113258 271.64968102 99.71640542 265.42763302 116.40625 243.12890625 C130.94330295 221.08501447 135.85892695 192.18127076 131.125 166.23828125 C128.38110049 154.44589453 123.43645412 142.7169448 115.01953125 133.8125 C113.3125 131.23828125 113.3125 131.23828125 113.578125 128.28515625 C114.06539063 126.65320313 114.06539063 126.65320313 114.5625 124.98828125 C117.99636617 111.09343881 117.85784821 94.32897767 111.3125 81.23828125 C96.16468441 79.82112595 83.43162946 86.82927094 70.52734375 93.8359375 C69.78983887 94.23417725 69.05233398 94.63241699 68.29248047 95.04272461 C66.07944583 96.29141851 66.07944583 96.29141851 63.62890625 98.68359375 C57.92962261 101.35534274 52.29199305 99.31042065 46.3125 98.05078125 C29.23826272 94.63060365 12.77936655 93.47180084 -4.5625 94.98828125 C-5.45461182 95.0658667 -6.34672363 95.14345215 -7.26586914 95.22338867 C-12.10015238 95.70146697 -16.74823818 96.41945387 -21.4765625 97.54296875 C-35.73287933 100.89882256 -35.73287933 100.89882256 -41.36328125 98.99609375 C-44.04762913 97.27784367 -46.52122697 95.44609246 -49.00488281 93.45361328 C-52.20825793 91.13985801 -55.79417677 89.56725115 -59.375 87.92578125 C-60.10654297 87.58893311 -60.83808594 87.25208496 -61.59179688 86.9050293 C-70.97678326 82.66537661 -79.36884732 80.75244092 -89.6875 80.23828125 C-90.37520331 83.23470281 -91.03646828 86.23385783 -91.6875 89.23828125 C-91.97367188 90.45064453 -91.97367188 90.45064453 -92.265625 91.6875 C-94.62450192 102.68997591 -94.8901857 113.77805178 -91.625 124.55078125 C-90.59029987 128.74706512 -90.27292842 130.43758907 -92.28125 134.31640625 C-93.86503036 136.33308658 -95.50429303 138.3072171 -97.19140625 140.23828125 C-110.20668397 155.88105635 -111.06771718 178.55216572 -109.46923828 197.87695312 C-107.04651362 219.69424866 -99.46324612 241.12920129 -82.0546875 255.5234375 C-64.4168804 268.3006608 -44.83185385 272.7826506 -23.6875 276.23828125 C-25.11679689 279.24732733 -26.80144715 281.95423109 -28.625 284.73828125 C-31.59081395 289.57119357 -32.85255074 294.1193966 -33.8515625 299.671875 C-34.88056685 302.83101452 -35.81326886 303.6315062 -38.6875 305.23828125 C-50.07620912 309.52226936 -62.5919193 309.9480554 -73.9609375 305.5234375 C-82.40367344 301.54398174 -86.84456093 295.82758998 -92.0625 288.30078125 C-98.73376551 278.69218196 -105.52466988 271.50589547 -117.3203125 268.56640625 C-121.06547527 268.04727478 -124.0041213 268.36766447 -127.6875 269.23828125 C-128.0175 269.89828125 -128.3475 270.55828125 -128.6875 271.23828125 C-125.62895699 274.50072712 -122.45752169 277.18053003 -118.875 279.86328125 C-110.32436198 286.63253635 -105.18998267 295.46234285 -100.6875 305.23828125 C-95.12015778 317.27675502 -88.72756625 324.93987789 -76.1875 330.30859375 C-69.34803224 332.68854368 -62.72813446 333.4026002 -55.5 333.36328125 C-54.80841797 333.36714844 -54.11683594 333.37101562 -53.40429688 333.375 C-47.4619522 333.36412654 -41.5961449 332.84242591 -35.6875 332.23828125 C-35.61317582 337.27364902 -35.55881599 342.30869533 -35.52270508 347.34448242 C-35.5076466 349.05645309 -35.48719545 350.76838536 -35.46118164 352.48022461 C-35.4246681 354.9452463 -35.40774438 357.4097566 -35.39453125 359.875 C-35.37904739 360.63664963 -35.36356354 361.39829926 -35.34761047 362.18302917 C-35.34617898 366.7339274 -35.89119836 369.6101003 -38.6875 373.23828125 C-42.19926248 375.96965207 -46.44098393 375.76077746 -50.6875 375.23828125 C-54.64848003 374.04673124 -58.39829486 372.45166104 -62.1875 370.80078125 C-63.7809021 370.11798096 -63.7809021 370.11798096 -65.40649414 369.42138672 C-96.54542051 355.83718049 -123.35028107 334.41769812 -143.6875 307.23828125 C-144.31398437 306.40683594 -144.94046875 305.57539063 -145.5859375 304.71875 C-162.43892395 281.49644238 -173.5754003 254.42567961 -178.6875 226.23828125 C-178.86700195 225.25021484 -179.04650391 224.26214844 -179.23144531 223.24414062 C-180.88103984 213.11049552 -181.08636254 203.1107942 -181.0625 192.86328125 C-181.06195618 191.98288177 -181.06141235 191.1024823 -181.06085205 190.19540405 C-181.02028807 175.87875159 -180.07916744 162.19750511 -176.6875 148.23828125 C-176.48382813 147.36333008 -176.28015625 146.48837891 -176.0703125 145.58691406 C-167.73798206 110.65027546 -149.05082762 81.15200245 -124.6875 55.23828125 C-124.10484375 54.60148437 -123.5221875 53.9646875 -122.921875 53.30859375 C-104.74959067 34.12673807 -79.98959203 20.75771677 -55.6875 11.23828125 C-55.02572754 10.9767627 -54.36395508 10.71524414 -53.68212891 10.44580078 C-36.9320364 3.96610057 -17.95798621 0.17965746 0 0 Z " fill="#FFFFFF" transform="translate(244.6875,63.76171875)"/>
</svg>
