<?xml version="1.0" encoding="UTF-8"?>
<svg version="1.1" xmlns="http://www.w3.org/2000/svg" width="260" height="250">
<path d="M0 0 C8.00938401 4.87418899 12.26760642 13.3750785 16.875 21.25 C18.19207583 23.47433298 19.50978973 25.69828825 20.828125 27.921875 C21.47587891 29.01822266 22.12363281 30.11457031 22.79101562 31.24414062 C25.52883796 35.85417102 28.32085911 40.43009811 31.125 45 C31.59123779 45.76094971 32.05747559 46.52189941 32.5378418 47.3059082 C33.5867632 49.01703052 34.63696069 50.72737052 35.6875 52.4375 C36.50181903 51.2303918 37.31375338 50.02167518 38.125 48.8125 C38.94677734 47.59433594 38.94677734 47.59433594 39.78515625 46.3515625 C41.17744748 44.21881249 42.50746779 42.08517423 43.80859375 39.8984375 C48.22006934 32.57592907 52.08635259 26.3881326 60.68359375 23.84765625 C67.09553366 22.53527089 73.02091177 23.18788236 78.6875 26.4375 C84.59631719 31.90770148 88.5547508 38.79078609 92.5625 45.6875 C93.88710653 47.93152953 95.21266248 50.17499885 96.5390625 52.41796875 C96.87909302 52.99534286 97.21912354 53.57271698 97.56945801 54.16758728 C100.95143169 59.9064423 104.41633055 65.59384032 107.88742065 71.2791748 C115.32477725 83.46719724 122.63967692 95.72597084 129.91259766 108.01269531 C133.42957929 113.95350835 136.95114602 119.89061371 140.51953125 125.80078125 C141.36584106 127.20263672 141.36584106 127.20263672 142.22924805 128.6328125 C143.25025434 130.32058235 144.27367588 132.0068946 145.30004883 133.69140625 C145.73986084 134.4184375 146.17967285 135.14546875 146.6328125 135.89453125 C147.00937988 136.51303955 147.38594727 137.13154785 147.77392578 137.76879883 C150.46093104 142.67678412 150.34098487 148.00911998 149.6875 153.4375 C147.51647628 159.0054272 143.66178576 163.18508238 138.6875 166.4375 C132.35517447 168.53385035 126.00277937 168.71665079 119.39428711 168.66455078 C118.40786224 168.66484283 117.42143738 168.66513489 116.40512085 168.66543579 C113.17493607 168.66405284 109.94498777 168.64854062 106.71484375 168.6328125 C104.4632632 168.62907869 102.21168102 168.62623346 99.96009827 168.62423706 C94.05660453 168.6166296 88.15321044 168.59700602 82.24975586 168.5748291 C76.21664782 168.55430833 70.18352356 168.54522205 64.15039062 168.53515625 C52.3293835 168.51375731 40.50845006 168.4796564 28.6875 168.4375 C30.24764965 164.41243611 32.10921419 160.83214899 34.3125 157.11328125 C34.83384521 156.23206856 34.83384521 156.23206856 35.36572266 155.33305359 C36.09690022 154.09918119 36.82984112 152.8663522 37.56445312 151.63452148 C38.68857883 149.74818968 39.80558354 147.85777302 40.921875 145.96679688 C41.63499657 144.76537555 42.34852418 143.56419512 43.0625 142.36328125 C43.70960938 141.27442627 44.35671875 140.18557129 45.0234375 139.0637207 C46.6875 136.4375 46.6875 136.4375 48.6875 134.4375 C51.01602173 134.1590271 51.01602173 134.1590271 53.96337891 134.11865234 C55.0643692 134.09878265 56.1653595 134.07891296 57.29971313 134.05844116 C58.49244843 134.04688995 59.68518372 134.03533875 60.9140625 134.0234375 C62.74099136 133.99438828 62.74099136 133.99438828 64.60482788 133.9647522 C68.5073133 133.90481785 72.40982799 133.85851529 76.3125 133.8125 C78.9531381 133.77433301 81.59376357 133.73528205 84.234375 133.6953125 C90.71863826 133.59910496 97.20297708 133.51409824 103.6875 133.4375 C90.46502622 110.94656486 90.46502622 110.94656486 76.77734375 88.73828125 C74.50920807 85.15589873 72.28067136 81.55093307 70.0625 77.9375 C69.41023437 76.8753125 68.75796875 75.813125 68.0859375 74.71875 C67.62445313 73.9659375 67.16296875 73.213125 66.6875 72.4375 C63.80536355 75.89266509 61.42325887 79.38988033 59.17578125 83.28515625 C58.68745064 84.1263224 58.68745064 84.1263224 58.18925476 84.98448181 C57.4884177 86.19193189 56.78923146 87.4003414 56.09155273 88.60961914 C54.21363398 91.86185017 52.3195561 95.10464039 50.42578125 98.34765625 C50.03593048 99.01560211 49.64607971 99.68354797 49.24441528 100.37173462 C45.46735573 106.83317142 41.63446583 113.26001295 37.76010132 119.6635437 C36.72418537 121.37682672 35.69269855 123.09278535 34.66137695 124.80883789 C22.81615947 144.33403436 11.63567037 159.70128816 -11.3125 166.4375 C-25.59285736 169.20215197 -40.25797412 168.74735328 -54.73535156 168.69824219 C-58.15202136 168.68675689 -61.56837987 168.69349298 -64.98503876 168.70538712 C-68.2921335 168.71439205 -71.59914646 168.70807373 -74.90625 168.703125 C-76.11889526 168.70717346 -77.33154053 168.71122192 -78.58093262 168.71539307 C-88.3312583 168.66174073 -96.38330461 168.34376963 -103.6484375 161.28125 C-108.00969865 156.44905455 -109.01959925 151.93677927 -108.76489258 145.55273438 C-107.32199649 135.61676348 -99.81355369 126.07833087 -94.625 117.6875 C-93.11681218 115.23098676 -91.61279443 112.77193382 -90.109375 110.3125 C-89.72100967 109.67789856 -89.33264435 109.04329712 -88.93251038 108.38946533 C-84.33776207 100.86705492 -79.85992626 93.27568384 -75.375 85.6875 C-70.42213885 77.31375146 -65.4609651 68.95530629 -60.23657227 60.74707031 C-56.04739346 54.11383098 -52.08292884 47.3461542 -48.08898926 40.59442139 C-44.84806235 35.11813202 -41.59617474 29.64833853 -38.34545898 24.17785645 C-37.42432617 22.62590767 -36.50591933 21.07234167 -35.58789062 19.51855469 C-34.25862895 17.27531586 -32.91468945 15.04196358 -31.5625 12.8125 C-30.88703125 11.68585937 -30.2115625 10.55921875 -29.515625 9.3984375 C-22.36253422 -0.21511359 -11.6752524 -5.23141117 0 0 Z M-18.3125 9.4375 C-19.18712493 11.32122632 -19.18712493 11.32122632 -19.3125 13.4375 C-17.92149624 16.00461342 -16.52317508 18.29898118 -14.875 20.6875 C-14.44123047 21.3371875 -14.00746094 21.986875 -13.56054688 22.65625 C-12.48908072 24.25756205 -11.40223717 25.84856548 -10.3125 27.4375 C-6.2094314 26.2125259 -2.94811861 24.75929479 0.5625 22.3125 C1.34367187 21.77367187 2.12484375 21.23484375 2.9296875 20.6796875 C3.50976562 20.26976562 4.08984375 19.85984375 4.6875 19.4375 C2.49306132 14.3866132 0.64846463 10.25622991 -4.3125 7.4375 C-9.68611896 5.83542727 -13.60237629 6.10594909 -18.3125 9.4375 Z M-24.3125 18.4375 C-26.15778609 20.96928413 -27.77308641 23.65941567 -29.4375 26.3125 C-29.91832031 27.05886719 -30.39914063 27.80523437 -30.89453125 28.57421875 C-31.34441406 29.28964844 -31.79429688 30.00507812 -32.2578125 30.7421875 C-32.67562988 31.40202637 -33.09344727 32.06186523 -33.52392578 32.74169922 C-33.78415527 33.30131348 -34.04438477 33.86092773 -34.3125 34.4375 C-33.9825 35.0975 -33.6525 35.7575 -33.3125 36.4375 C-25.3925 33.9625 -25.3925 33.9625 -17.3125 31.4375 C-17.3125 27.78649606 -18.3572585 26.33628202 -20.25 23.25 C-20.79527344 22.34894531 -21.34054688 21.44789062 -21.90234375 20.51953125 C-22.36769531 19.83246094 -22.83304688 19.14539063 -23.3125 18.4375 C-23.6425 18.4375 -23.9725 18.4375 -24.3125 18.4375 Z M0.625 29.4375 C-0.03822266 29.8190625 -0.70144531 30.200625 -1.38476562 30.59375 C-3.02844643 31.53975334 -4.67061445 32.48838423 -6.3125 33.4375 C-4.74567586 37.77929562 -2.54090384 41.63387323 -0.171875 45.57421875 C0.43512238 46.5934417 0.43512238 46.5934417 1.05438232 47.633255 C2.34539339 49.79919678 3.64136564 51.96212104 4.9375 54.125 C5.79329594 55.55904958 6.64876774 56.99329266 7.50390625 58.42773438 C11.88498908 65.77236027 16.28311022 73.1068301 20.6875 80.4375 C23.87384593 77.3411615 26.24773446 74.30831758 28.5625 70.5 C29.19929688 69.48035156 29.83609375 68.46070313 30.4921875 67.41015625 C31.99015706 64.57957587 31.99015706 64.57957587 30.99804688 62.15185547 C29.47154371 58.99021944 27.74264796 56.03291233 25.9140625 53.03515625 C25.36653824 52.13487953 25.36653824 52.13487953 24.80795288 51.21641541 C24.03813115 49.95219531 23.26650038 48.68907521 22.49316406 47.42700195 C21.3196358 45.51164658 20.15152238 43.59307702 18.984375 41.67382812 C14.00340682 33.44753621 14.00340682 33.44753621 8.6875 25.4375 C6.06158431 25.4375 2.92918062 28.10409342 0.625 29.4375 Z M56.4375 36.4375 C53.30450778 40.01806253 51.61652195 44.11181442 49.6875 48.4375 C54.3075 50.7475 58.9275 53.0575 63.6875 55.4375 C64.02425279 52.54202736 64.35701734 49.64618928 64.6875 46.75 C64.83058594 45.52506836 64.83058594 45.52506836 64.9765625 44.27539062 C65.42620522 40.30889948 65.81784543 36.43747537 65.6875 32.4375 C60.87605151 32.4375 59.8583225 33.37055569 56.4375 36.4375 Z M72.6875 34.4375 C71.69375115 37.41874655 71.38143767 39.87797308 71.125 43 C71.04121094 43.97066406 70.95742187 44.94132812 70.87109375 45.94140625 C70.63515253 50.43432956 70.6875 54.93838585 70.6875 59.4375 C77.2875 59.7675 83.8875 60.0975 90.6875 60.4375 C87.33928548 54.08447757 83.82784884 47.88598883 80 41.8125 C79.61980713 41.19681152 79.23961426 40.58112305 78.84790039 39.94677734 C76.54686171 36.26953856 76.54686171 36.26953856 72.6875 34.4375 Z M-29.625 41.375 C-30.56279297 41.63345703 -31.50058594 41.89191406 -32.46679688 42.15820312 C-39.98637015 44.51634978 -42.62908841 47.65739954 -46.3125 54.4375 C-47.01423154 55.62398323 -47.72195812 56.80693286 -48.43432617 57.98706055 C-50.90236062 62.07835774 -53.32787814 66.19390075 -55.75 70.3125 C-56.98758096 72.41529672 -58.22594705 74.51759734 -59.46769714 76.61793518 C-60.27527941 77.9873235 -61.07815071 79.35950151 -61.87617493 80.73448181 C-63.6369372 83.74388689 -65.40974904 86.56710407 -67.5065918 89.36157227 C-72.45335309 95.97707619 -72.87383649 100.55083337 -71.86132812 108.71289062 C-71.65958984 110.00388672 -71.45785156 111.29488281 -71.25 112.625 C-71.06978481 113.97150431 -70.89332538 115.31851685 -70.72070312 116.66601562 C-70.28783483 119.93007657 -69.81797074 123.18403101 -69.3125 126.4375 C-66.30122311 123.79343776 -64.45115606 120.55332484 -62.4609375 117.12890625 C-62.08971268 116.49902802 -61.71848785 115.86914978 -61.33601379 115.22018433 C-60.53487247 113.86006162 -59.73571185 112.49877069 -58.93832397 111.13644409 C-56.8058354 107.49409096 -54.6579247 103.86084384 -52.51171875 100.2265625 C-52.07513443 99.48645432 -51.63855011 98.74634613 -51.18873596 97.98381042 C-47.01402186 90.9139916 -42.76914284 83.88808666 -38.5 76.875 C-37.80523622 75.7320277 -37.11049325 74.58904275 -36.41577148 73.44604492 C-33.00445285 67.83962394 -29.57956927 62.24184136 -26.140625 56.65234375 C-25.48425049 55.58250244 -24.82787598 54.51266113 -24.15161133 53.41040039 C-22.91316726 51.39286069 -21.67100127 49.37759941 -20.42456055 47.36499023 C-19.880979 46.47884033 -19.33739746 45.59269043 -18.77734375 44.6796875 C-18.299021 43.9047998 -17.82069824 43.12991211 -17.32788086 42.33154297 C-16.1550067 40.50189379 -16.1550067 40.50189379 -16.3125 38.4375 C-20.99732275 38.4375 -25.17468058 40.00032564 -29.625 41.375 Z M-10.3125 45.4375 C-10.79904053 46.26024414 -11.28558105 47.08298828 -11.78686523 47.93066406 C-23.95123704 68.49297971 -36.25913994 88.96027149 -48.70263672 109.35498047 C-50.70986762 112.64499239 -52.7150579 115.93624128 -54.71917725 119.22814941 C-55.8554712 121.09295078 -56.99433543 122.95616538 -58.13330078 124.81933594 C-58.81247559 125.93469727 -59.49165039 127.05005859 -60.19140625 128.19921875 C-60.7954126 129.18881592 -61.39941895 130.17841309 -62.02172852 131.19799805 C-63.39572665 133.15109044 -63.39572665 133.15109044 -63.3125 134.4375 C-58.08385257 134.51226069 -52.85552372 134.56638763 -47.62646484 134.60229492 C-45.85167004 134.61728093 -44.07691163 134.63767682 -42.30224609 134.66381836 C-24.76543337 135.13217371 -24.76543337 135.13217371 -9.35546875 127.578125 C-5.12913069 123.14976313 -1.99290819 118.00263554 1.19726562 112.81103516 C2.87350669 110.14124229 4.63144147 107.53378642 6.390625 104.91796875 C7.63788397 102.98857192 8.88269179 101.05758826 10.125 99.125 C10.74785889 98.21878906 11.37071777 97.31257813 12.01245117 96.37890625 C15.10845051 91.5572952 15.10845051 91.5572952 15.21557617 86.04858398 C13.9117778 83.33398184 12.36624844 80.93840188 10.6875 78.4375 C9.68443082 76.73753283 8.681768 75.03730142 7.68855286 73.33155823 C6.24358457 70.86812865 4.75613426 68.43168657 3.2668457 65.99487305 C2.1182126 64.11388503 0.97770359 62.22813972 -0.16210938 60.34179688 C-0.90056571 59.12731464 -1.63948172 57.91311175 -2.37890625 56.69921875 C-3.03834229 55.61600342 -3.69777832 54.53278809 -4.37719727 53.41674805 C-6.20640705 50.60082185 -8.16649109 48.01719087 -10.3125 45.4375 Z M45.6875 54.4375 C42.57086456 58.8367508 39.88271118 63.48425832 37.12792969 68.11572266 C35.72244082 70.38118014 34.21804741 72.53377237 32.6640625 74.69921875 C27.29610456 82.56868824 24.95855699 88.19980631 26.33935547 97.84545898 C27.60164364 104.75224508 27.60164364 104.75224508 29.6875 111.4375 C30.3475 111.7675 31.0075 112.0975 31.6875 112.4375 C36.22531347 104.97582098 40.75824834 97.51122308 45.28465271 90.0426178 C47.67587922 86.09906701 50.07845715 82.16269583 52.48828125 78.23046875 C53.57568565 76.44541289 54.66293684 74.66026368 55.75 72.875 C56.25563477 72.05612305 56.76126953 71.23724609 57.28222656 70.39355469 C57.73694336 69.64364258 58.19166016 68.89373047 58.66015625 68.12109375 C59.05468994 67.47712646 59.44922363 66.83315918 59.85571289 66.16967773 C60.90393782 64.30702956 60.90393782 64.30702956 60.6875 61.4375 C58.56517021 60.26573482 56.43992209 59.09995215 54.3125 57.9375 C53.70921875 57.60363281 53.1059375 57.26976562 52.484375 56.92578125 C49.27335223 55.04976062 49.27335223 55.04976062 45.6875 54.4375 Z M74.6875 66.4375 C76.12155845 70.29890222 77.91896925 73.73535785 80.00390625 77.28515625 C80.33269775 77.84652283 80.66148926 78.4078894 81.00024414 78.98626709 C82.0797653 80.82640003 83.16465116 82.66329923 84.25 84.5 C85.00324345 85.78015109 85.75641627 87.06034375 86.50952148 88.34057617 C94.43457394 101.78726116 102.54288415 115.12297101 110.6875 128.4375 C113.08951037 124.83448445 113.85957679 121.27903931 114.8125 117.125 C114.99425781 116.37798828 115.17601562 115.63097656 115.36328125 114.86132812 C115.53472656 114.12720703 115.70617187 113.39308594 115.8828125 112.63671875 C116.03766113 111.97502686 116.19250977 111.31333496 116.35205078 110.6315918 C117.28870279 104.50517868 116.41393634 101.2516581 113.109375 95.97265625 C112.74152893 95.37625839 112.37368286 94.77986053 111.99468994 94.16539001 C110.82132597 92.2688981 109.6300905 90.38444744 108.4375 88.5 C107.2635289 86.616664 106.09329416 84.73104121 104.92315674 82.84532166 C103.85527854 81.12902269 102.77895258 79.41798835 101.70214844 77.70727539 C100.64833337 75.99693303 99.60315786 74.27823926 98.66296387 72.50289917 C97.74572917 70.77278104 96.72216395 69.10005789 95.6875 67.4375 C92.65573506 66.61065502 90.75863457 66.40875303 87.6875 66.4375 C86.56214844 66.42460938 85.43679687 66.41171875 84.27734375 66.3984375 C81.07938201 66.37755853 77.88513859 66.39362996 74.6875 66.4375 Z M19.6875 96.4375 C18.66585256 98.00384794 17.69553351 99.60370332 16.74609375 101.21484375 C16.16279297 102.20291016 15.57949219 103.19097656 14.97851562 104.20898438 C14.36685547 105.25376953 13.75519531 106.29855469 13.125 107.375 C12.20170898 108.93637695 12.20170898 108.93637695 11.25976562 110.52929688 C8.26138922 114.74587975 8.26138922 114.74587975 6.6875 119.4375 C12.6275 119.4375 18.5675 119.4375 24.6875 119.4375 C23.3675 111.8475 22.0475 104.2575 20.6875 96.4375 C20.3575 96.4375 20.0275 96.4375 19.6875 96.4375 Z M-79.3125 109.4375 C-80.8363887 111.69570968 -82.22830203 113.94445835 -83.59375 116.296875 C-84.00790161 116.99766174 -84.42205322 117.69844849 -84.84875488 118.42047119 C-86.17694689 120.67214139 -87.49461874 122.92978277 -88.8125 125.1875 C-89.70117617 126.69569377 -90.59049115 128.20351133 -91.48046875 129.7109375 C-93.77603819 133.60972917 -96.0665198 137.50986191 -98.3125 141.4375 C-98.73080078 142.16743164 -99.14910156 142.89736328 -99.58007812 143.64941406 C-100.56519738 145.73237242 -100.56519738 145.73237242 -100.3125 149.4375 C-94.65639362 147.80824514 -89.67516428 145.17982778 -84.5 142.4375 C-83.62923828 141.98632812 -82.75847656 141.53515625 -81.86132812 141.0703125 C-81.03439453 140.63460937 -80.20746094 140.19890625 -79.35546875 139.75 C-78.60289795 139.35425781 -77.85032715 138.95851562 -77.07495117 138.55078125 C-75.15279554 137.54922926 -75.15279554 137.54922926 -74.3125 135.4375 C-74.43424971 133.47150851 -74.63378663 131.51009817 -74.87109375 129.5546875 C-75.00966797 128.38808594 -75.14824219 127.22148437 -75.29101562 126.01953125 C-75.44248047 124.79621094 -75.59394531 123.57289063 -75.75 122.3125 C-75.97139648 120.46591797 -75.97139648 120.46591797 -76.19726562 118.58203125 C-76.56360305 115.5331585 -76.9355808 112.48507968 -77.3125 109.4375 C-77.9725 109.4375 -78.6325 109.4375 -79.3125 109.4375 Z M121.6875 113.4375 C119.2125 124.8225 119.2125 124.8225 116.6875 136.4375 C122.9575 136.4375 129.2275 136.4375 135.6875 136.4375 C133.71698145 131.51120363 131.37192117 127.23567644 128.6875 122.6875 C128.23632812 121.90761719 127.78515625 121.12773437 127.3203125 120.32421875 C126.88460937 119.58300781 126.44890625 118.84179688 126 118.078125 C125.60425781 117.40297852 125.20851562 116.72783203 124.80078125 116.03222656 C123.7640979 114.27688061 123.7640979 114.27688061 121.6875 113.4375 Z M5.6875 126.4375 C5.02147396 129.76763019 4.53816433 132.54573693 4.37109375 135.86328125 C4.32919922 136.65927734 4.28730469 137.45527344 4.24414062 138.27539062 C4.20482422 139.09201172 4.16550781 139.90863281 4.125 140.75 C4.08181641 141.58595703 4.03863281 142.42191406 3.99414062 143.28320312 C3.88864693 145.33446935 3.78762685 147.3859648 3.6875 149.4375 C12.66882595 143.57006299 17.9184399 135.97562019 22.6875 126.4375 C17.0775 126.4375 11.4675 126.4375 5.6875 126.4375 Z M-8.62109375 136.83203125 C-15.68599017 141.04635988 -23.40255622 141.88971798 -31.4765625 141.94921875 C-32.39464691 141.96716995 -33.31273132 141.98512115 -34.25863647 142.00361633 C-37.15154613 142.05720473 -40.04429585 142.09144791 -42.9375 142.125 C-44.91538661 142.15821864 -46.89325224 142.19271241 -48.87109375 142.22851562 C-53.68477935 142.31290074 -58.49842178 142.37995488 -63.3125 142.4375 C-60.87644239 149.08682122 -57.64060903 154.76326692 -52.3125 159.4375 C-46.97225944 160.97411686 -41.96682931 160.71671616 -36.5 160.375 C-35.10103168 160.34043554 -33.70192385 160.31110667 -32.30273438 160.28710938 C-22.17348361 160.01768829 -12.70075764 158.34266852 -3.3125 154.4375 C-2.48038724 149.39895894 -2.2046466 144.6249338 -2.25 139.5 C-2.25451172 138.81615234 -2.25902344 138.13230469 -2.26367188 137.42773438 C-2.2753044 135.76428396 -2.29323306 134.1008795 -2.3125 132.4375 C-4.58572634 132.4375 -6.94685521 135.41644334 -8.62109375 136.83203125 Z M64.6875 142.4375 C68.72142298 146.52112588 68.72142298 146.52112588 73.01953125 150.11328125 C73.58994141 150.54833984 74.16035156 150.98339844 74.74804688 151.43164062 C75.32619141 151.86669922 75.90433594 152.30175781 76.5 152.75 C77.09748047 153.20439453 77.69496094 153.65878906 78.31054688 154.12695312 C79.76697588 155.23383917 81.22687817 156.33615264 82.6875 157.4375 C89.50035541 152.99652758 96.28219181 148.4539937 102.6875 143.4375 C102.6875 143.1075 102.6875 142.7775 102.6875 142.4375 C90.1475 142.4375 77.6075 142.4375 64.6875 142.4375 Z M-78.3203125 146.0625 C-79.79951172 146.87460938 -79.79951172 146.87460938 -81.30859375 147.703125 C-82.85740234 148.56164062 -82.85740234 148.56164062 -84.4375 149.4375 C-85.47777344 150.00984375 -86.51804687 150.5821875 -87.58984375 151.171875 C-90.16614707 152.59002361 -92.74023468 154.0120442 -95.3125 155.4375 C-95.3125 156.0975 -95.3125 156.7575 -95.3125 157.4375 C-91.67033305 159.73572325 -88.60424993 159.66878602 -84.359375 159.6328125 C-83.36904266 159.62856766 -83.36904266 159.62856766 -82.35870361 159.62423706 C-80.25978103 159.61308415 -78.16129258 159.58798946 -76.0625 159.5625 C-74.63542285 159.55246384 -73.20833898 159.5433391 -71.78125 159.53515625 C-68.29152672 159.51316111 -64.80205577 159.47866536 -61.3125 159.4375 C-63.5988859 155.39425913 -65.89689775 151.39071287 -68.4375 147.5 C-68.93507813 146.72785156 -69.43265625 145.95570313 -69.9453125 145.16015625 C-70.39648438 144.59167969 -70.84765625 144.02320313 -71.3125 143.4375 C-74.15923755 143.4375 -75.83245813 144.68989069 -78.3203125 146.0625 Z M52.6875 143.4375 C51.05235767 145.8902135 49.5393754 148.32969755 48.0625 150.875 C47.64226562 151.58205078 47.22203125 152.28910156 46.7890625 153.01757812 C44.65083416 156.04321252 44.65083416 156.04321252 43.6875 159.4375 C53.5875 159.4375 63.4875 159.4375 73.6875 159.4375 C69.72459174 155.47459174 65.877207 152.05083913 61.5 148.625 C60.87158203 148.12291016 60.24316406 147.62082031 59.59570312 147.10351562 C56.51088009 144.36991775 56.51088009 144.36991775 52.6875 143.4375 Z M99.6875 153.4375 C98.41484579 154.37961582 97.12809181 155.30297525 95.828125 156.20703125 C94.79171875 156.94308594 93.7553125 157.67914063 92.6875 158.4375 C92.6875 158.7675 92.6875 159.0975 92.6875 159.4375 C98.27419908 159.53664961 103.86038186 159.60910105 109.44775391 159.65722656 C111.34693325 159.67729629 113.24605115 159.70455851 115.14501953 159.73925781 C117.88068839 159.78798109 120.61553771 159.81051507 123.3515625 159.828125 C124.19554596 159.84877014 125.03952942 159.86941528 125.90908813 159.89068604 C131.32348271 159.89272985 134.40998063 159.07055185 138.6875 155.4375 C141.00432468 151.99963112 141.81536945 150.37981721 141.25390625 146.2421875 C141.06699219 145.31664062 140.88007813 144.39109375 140.6875 143.4375 C118.06138413 141.84028753 118.06138413 141.84028753 99.6875 153.4375 Z " fill="#00DC82" transform="translate(109.3125,41.5625)"/>
</svg>
