<?xml version="1.0" encoding="UTF-8"?>
<svg version="1.1" xmlns="http://www.w3.org/2000/svg" width="600" height="600">
<path d="M0 0 C43.99268561 -0.09168916 87.98536104 -0.16210645 131.97812347 -0.20426132 C137.17975174 -0.20926374 142.38137982 -0.21444107 147.58300781 -0.21972656 C148.61849554 -0.2207758 149.65398328 -0.22182505 150.72084942 -0.22290608 C167.455671 -0.24027963 184.19043724 -0.2718004 200.92522606 -0.30861118 C218.11506782 -0.34610569 235.30488073 -0.36825379 252.49476171 -0.37635398 C263.08953738 -0.38182415 273.6841566 -0.39905906 284.27888408 -0.43166587 C291.55829311 -0.45291898 298.83762204 -0.45917579 306.1170598 -0.45400551 C310.30789602 -0.45146041 314.49846013 -0.45517543 318.68924713 -0.4768219 C338.9382359 -0.57626451 358.64267652 -0.30326752 377.8125 7.1875 C378.58400391 7.48156738 379.35550781 7.77563477 380.15039062 8.07861328 C392.48189438 12.97614167 403.12351723 20.17525583 413 29 C413.62003906 29.53753906 414.24007813 30.07507813 414.87890625 30.62890625 C431.26031389 45.79406089 441.88595966 69.99831554 443.12255859 92.20043945 C443.20788926 94.84284582 443.23500024 97.48129282 443.25 100.125 C443.2809375 101.40697266 443.2809375 101.40697266 443.3125 102.71484375 C443.40410633 118.72304951 439.61008653 134.85494891 436.63037109 150.51928711 C436.12348432 153.19550237 435.62997492 155.87397769 435.13671875 158.55273438 C432.19506658 174.26251791 428.49044007 189.16715533 421.375 203.5625 C420.85284912 204.62968262 420.33069824 205.69686523 419.79272461 206.79638672 C400.97711481 244.39351492 366.7156125 274.20092667 327 288 C316.19346427 291.52378219 305.29954268 294.6040899 294 296 C293.26765986 296.09302619 292.53531973 296.18605238 291.78078747 296.28189754 C282.12776093 297.32467904 272.44449251 297.13236705 262.74926758 297.11352539 C260.70826214 297.11324295 258.6672566 297.11340235 256.62625122 297.1139679 C251.11260665 297.11425367 245.59898404 297.10839257 240.08534455 297.10139394 C234.31313836 297.0951237 228.54093161 297.0945537 222.76872253 297.09336853 C211.85034132 297.09026601 200.93197017 297.08206721 190.01359338 297.07201904 C177.57826789 297.06082433 165.14294191 297.055339 152.70761263 297.05032361 C127.13840285 297.03988367 101.56920199 297.02230519 76 297 C75.95450516 297.62959562 75.90901031 298.25919125 75.86213684 298.90786552 C75.22969112 306.74650295 74.02903506 314.42890302 72.69921875 322.17626953 C72.46389359 323.56535518 72.22892879 324.95450192 71.99429321 326.34370422 C71.36187358 330.08128022 70.72417693 333.8179372 70.08523941 337.55440378 C69.4158228 341.47323967 68.75060557 345.39278877 68.0847168 349.31222534 C66.96803715 355.88086987 65.84783465 362.44890638 64.72558594 369.01660156 C63.42714436 376.6157331 62.13470084 384.21586698 60.8453207 391.81654084 C59.60332011 399.13691543 58.35679992 406.45651368 57.10830688 413.77578354 C56.57727569 416.8895484 56.04790511 420.00358892 55.51986694 423.1178627 C54.89970441 426.7743761 54.27562533 430.4301993 53.64844894 434.08551598 C53.30840257 436.07312826 52.97234682 438.06142196 52.63638306 440.04972839 C52.43451385 441.22160202 52.23264465 442.39347565 52.0246582 443.6008606 C51.84989456 444.62543428 51.67513092 445.65000797 51.49507141 446.70562935 C51 449 51 449 50 450 C48.29174312 450.09622036 46.57947886 450.12187628 44.86851501 450.12025452 C43.75647202 450.12162918 42.64442902 450.12300385 41.49868774 450.12442017 C39.65263443 450.11902725 39.65263443 450.11902725 37.76928711 450.11352539 C36.48166977 450.11367142 35.19405243 450.11381744 33.86741638 450.1139679 C30.3262524 450.11425586 26.78512201 450.10835936 23.24396586 450.10139394 C19.54705012 450.09516017 15.85013369 450.09455658 12.1532135 450.09336853 C5.14796101 450.09025528 -1.85727595 450.08204199 -8.86252159 450.07201904 C-16.83578876 450.0608577 -24.80905665 450.0553474 -32.78232968 450.05032361 C-49.18822889 450.03985937 -65.59411247 450.02226005 -82 450 C-80.58423951 439.53970016 -78.85819081 429.15925396 -77.01342773 418.76806641 C-76.71540118 417.07945646 -76.4175761 415.39081095 -76.11993408 413.70213318 C-75.31313922 409.12811579 -74.5035245 404.55460161 -73.6933887 399.98117495 C-72.82552718 395.07899841 -71.96029609 390.17635754 -71.09474182 385.27377319 C-69.43819648 375.89325627 -67.77928926 366.51315863 -66.1195479 357.13320673 C-64.29956318 346.84697006 -62.48226502 336.56025947 -60.6651963 326.27350736 C-50.46169767 268.51244481 -40.22776178 210.75677239 -30 153 C79.23 153 188.46 153 301 153 C301.66 149.7 302.32 146.4 303 143 C304.32 138.38 305.64 133.76 307 129 C198.43 128.67 89.86 128.34 -22 128 C-20.87499023 117.87491211 -20.87499023 117.87491211 -20.26127625 114.383255 C-20.1226416 113.5865036 -19.98400696 112.7897522 -19.84117126 111.96885681 C-19.61754662 110.70870506 -19.61754662 110.70870506 -19.3894043 109.4230957 C-19.22987274 108.51102356 -19.07034119 107.59895142 -18.90597534 106.65924072 C-18.38141601 103.66427465 -17.85286944 100.67002762 -17.32421875 97.67578125 C-16.95386043 95.56662392 -16.58373209 93.45742619 -16.21382141 91.34819031 C-15.43794009 86.92738421 -14.66025684 82.50690049 -13.88110352 78.08666992 C-12.89380991 72.48561523 -11.90944966 66.88405073 -10.92628765 61.28226948 C-9.97656814 55.87160283 -9.02549574 50.46117426 -8.07421875 45.05078125 C-7.89815283 44.04896631 -7.72208691 43.04715137 -7.54068565 42.01497841 C-7.027429 39.09620411 -6.5132408 36.17759535 -5.9987793 33.2590332 C-5.78426369 32.03835396 -5.78426369 32.03835396 -5.56541443 30.79301453 C-3.75245762 20.52112348 -1.87002346 10.26162093 0 0 Z " fill="#96C2ED" transform="translate(119,75)"/>
<path d="M0 0 C43.99268561 -0.09168916 87.98536104 -0.16210645 131.97812347 -0.20426132 C137.17975174 -0.20926374 142.38137982 -0.21444107 147.58300781 -0.21972656 C148.61849554 -0.2207758 149.65398328 -0.22182505 150.72084942 -0.22290608 C167.455671 -0.24027963 184.19043724 -0.2718004 200.92522606 -0.30861118 C218.11506782 -0.34610569 235.30488073 -0.36825379 252.49476171 -0.37635398 C263.08953738 -0.38182415 273.6841566 -0.39905906 284.27888408 -0.43166587 C291.55829311 -0.45291898 298.83762204 -0.45917579 306.1170598 -0.45400551 C310.30789602 -0.45146041 314.49846013 -0.45517543 318.68924713 -0.4768219 C338.9382359 -0.57626451 358.64267652 -0.30326752 377.8125 7.1875 C378.58400391 7.48156738 379.35550781 7.77563477 380.15039062 8.07861328 C392.48189438 12.97614167 403.12351723 20.17525583 413 29 C413.62003906 29.53753906 414.24007813 30.07507813 414.87890625 30.62890625 C431.30127571 45.83198146 440.17720891 68.16051104 443 90 C443.06522873 92.29083289 443.0858841 94.58335794 443.0625 96.875 C443.05347656 98.02742188 443.04445313 99.17984375 443.03515625 100.3671875 C443.01775391 101.67042969 443.01775391 101.67042969 443 103 C442.67 103 442.34 103 442 103 C441.86464844 102.030625 441.72929688 101.06125 441.58984375 100.0625 C438.09956264 77.46107935 426.41671674 57.38792386 408.1875 43.3125 C384.34897668 26.21618529 358.11832383 19.62975035 329.02272034 19.75949097 C327.57846801 19.75861619 326.13421601 19.75686023 324.68996567 19.75431263 C320.767468 19.74988847 316.84508174 19.75777387 312.92259824 19.76786876 C308.67537875 19.77657303 304.42816464 19.7735782 300.18093872 19.77206421 C292.8376322 19.77101974 285.49436145 19.77725035 278.15106392 19.78853989 C267.5341277 19.8048516 256.91720864 19.81000867 246.30026125 19.81251587 C229.07150228 19.81688411 211.84276233 19.83016948 194.61401367 19.84912109 C177.88615005 19.8675025 161.15829161 19.88164792 144.43041992 19.89013672 C143.39787331 19.89066217 142.3653267 19.89118761 141.30149079 19.89172898 C136.12107761 19.89433921 130.9406644 19.89686659 125.76025116 19.89935279 C82.84015427 19.92005814 39.92007812 19.95525984 -3 20 C-2.45136137 13.2142064 -1.45732062 6.64990964 0 0 Z " fill="#E8ACFF" transform="translate(119,75)"/>
<path d="M0 0 C7.53818677 0.00737493 15.07637186 0.00867008 22.61456173 0.00979666 C36.04316224 0.01195244 49.47175648 0.0185149 62.90035361 0.02809927 C75.89742361 0.03736564 88.89449187 0.04440049 101.89156454 0.04860708 C103.10571786 0.04900117 103.10571786 0.04900117 104.34439952 0.04940322 C108.40757701 0.05070883 112.47075451 0.0519724 116.53393203 0.05321512 C149.91608689 0.0634788 183.29823403 0.08099836 216.6803829 0.10353873 C216.20532612 1.91712027 215.72522248 3.72938051 215.2428829 5.54103873 C214.842629 7.05504263 214.842629 7.05504263 214.43428915 8.59963248 C213.6803829 11.10353873 213.6803829 11.10353873 212.6803829 12.10353873 C210.94213645 12.20179789 209.19985622 12.22909474 207.45883482 12.22937987 C205.75001787 12.23329149 205.75001787 12.23329149 204.00667935 12.23728213 C202.10560801 12.23393605 202.10560801 12.23393605 200.16613119 12.23052237 C198.81859607 12.23167324 197.47106126 12.23326054 196.12352711 12.23524961 C192.40325522 12.23944765 188.68300879 12.23735011 184.96273678 12.23426339 C180.95720446 12.23201139 176.95167667 12.23548794 172.94614523 12.23824332 C165.09189239 12.2427024 157.23764908 12.24172386 149.38339586 12.23883067 C143.00186477 12.23657686 136.62033636 12.23626403 130.23880499 12.23735449 C128.87899279 12.23758434 128.87899279 12.23758434 127.49170964 12.23781883 C125.65034936 12.23813854 123.80898909 12.23846276 121.96762882 12.23879142 C104.67872937 12.2416467 87.38983521 12.23835861 70.10093663 12.23299106 C55.25436919 12.22852448 40.40780958 12.22929765 25.56124228 12.23390982 C8.33941167 12.23925734 -8.88241429 12.24137042 -26.10424561 12.23829756 C-27.93963296 12.23797899 -29.7750203 12.23766462 -31.61040765 12.23735449 C-32.51355459 12.23720022 -33.41670152 12.23704594 -34.34721654 12.23688699 C-40.7227873 12.23602226 -47.09835512 12.23748381 -53.47392542 12.23983404 C-61.24133666 12.24263427 -69.0087378 12.24188911 -76.77614789 12.2365533 C-80.74200399 12.23391908 -84.70784322 12.23290651 -88.6736992 12.23620245 C-92.30065702 12.23917122 -95.92758224 12.23756283 -99.55453708 12.2322249 C-101.49583366 12.23056974 -103.43713248 12.23385318 -105.37842673 12.23728213 C-106.52285353 12.23467438 -107.66728033 12.23206664 -108.84638673 12.22937987 C-109.83805388 12.22921751 -110.82972103 12.22905516 -111.8514387 12.22888789 C-114.3196171 12.10353873 -114.3196171 12.10353873 -117.3196171 11.10353873 C-117.34650926 9.62446981 -117.36596331 8.1452639 -117.3821171 6.66603873 C-117.39371866 5.84232779 -117.40532022 5.01861685 -117.41727335 4.16994498 C-117.3196171 2.10353873 -117.3196171 2.10353873 -116.3196171 1.10353873 C-114.89006612 0.98115574 -113.45462998 0.92672433 -112.02010328 0.89976618 C-111.08908438 0.88013744 -110.15806548 0.8605087 -109.19883389 0.84028516 C-108.16680163 0.82387774 -107.13476937 0.80747032 -106.07146341 0.7905657 C-104.44753752 0.75972421 -104.44753752 0.75972421 -102.79080505 0.72825966 C-99.15343335 0.66178421 -95.51599145 0.60384945 -91.87845499 0.54714224 C-90.61251634 0.52613239 -89.3465777 0.50512253 -88.04227728 0.48347602 C-58.69573979 0.00246911 -29.349737 -0.02951679 0 0 Z " fill="#B9C3FF" transform="translate(207.3196170963347,231.89646127447486)"/>
<path d="M0 0 C18.88161203 4.63758892 35.94933553 21.35970439 46.08984375 37.28125 C50.58480422 44.72053948 54.72192649 52.57237288 57 61 C56.67 61.99 56.34 62.98 56 64 C55.50371094 62.82824219 55.00742187 61.65648437 54.49609375 60.44921875 C42.93076748 33.53229869 26.25472139 14.41674139 0 1 C0 0.67 0 0.34 0 0 Z " fill="#E59BFF" transform="translate(501,85)"/>
</svg>
