<?xml version="1.0" encoding="UTF-8"?>
<!DOCTYPE svg PUBLIC "-//W3C//DTD SVG 1.1//EN" "http://www.w3.org/Graphics/SVG/1.1/DTD/svg11.dtd">
<svg xmlns="http://www.w3.org/2000/svg" version="1.1" width="512px" height="512px" style="shape-rendering:geometricPrecision; text-rendering:geometricPrecision; image-rendering:optimizeQuality; fill-rule:evenodd; clip-rule:evenodd" xmlns:xlink="http://www.w3.org/1999/xlink">
<g><path style="opacity:0.976" fill="#33c481" d="M 199.5,53.5 C 236.5,53.5 273.5,53.5 310.5,53.5C 292.482,100.216 273.482,146.55 253.5,192.5C 235.104,146.31 217.104,99.9766 199.5,53.5 Z"/></g>
<g><path style="opacity:0.992" fill="#34495d" d="M 158.5,53.5 C 168.855,53.1681 179.188,53.5014 189.5,54.5C 192.127,60.2138 194.46,66.0471 196.5,72C 191.861,82.9168 187.027,93.7501 182,104.5C 159.933,103.179 137.766,101.346 115.5,99C 115.167,98.6667 114.833,98.3333 114.5,98C 129.369,83.2985 144.035,68.4652 158.5,53.5 Z"/></g>
<g><path style="opacity:0.992" fill="#35485d" d="M 321.5,53.5 C 330.839,53.3335 340.173,53.5002 349.5,54C 364.167,68.6667 378.833,83.3333 393.5,98C 370.989,101.063 348.322,103.563 325.5,105.5C 321.59,95.1766 317.256,85.01 312.5,75C 315.642,67.8845 318.642,60.7179 321.5,53.5 Z"/></g>
<g><path style="opacity:0.997" fill="#35495e" d="M 183.5,217.5 C 164.099,181.7 144.433,146.033 124.5,110.5C 126.948,109.527 129.615,109.194 132.5,109.5C 150.387,110.248 168.22,111.581 186,113.5C 191.302,103.782 196.135,93.7818 200.5,83.5C 216.625,123.705 232.458,164.038 248,204.5C 248.5,214.494 248.666,224.494 248.5,234.5C 241.159,234.666 233.826,234.5 226.5,234C 211.872,228.962 197.538,223.462 183.5,217.5 Z"/></g>
<g><path style="opacity:0.994" fill="#35495e" d="M 377.5,109.5 C 380.385,109.194 383.052,109.527 385.5,110.5C 364.648,146.203 344.315,182.203 324.5,218.5C 311.462,224.129 298.129,229.296 284.5,234C 276.173,234.5 267.84,234.666 259.5,234.5C 259.333,223.828 259.5,213.161 260,202.5C 275.833,164.167 291.667,125.833 307.5,87.5C 308.167,86.1667 308.833,86.1667 309.5,87.5C 313.038,96.0734 316.704,104.573 320.5,113C 339.455,111.742 358.455,110.575 377.5,109.5 Z"/></g>
<g><path style="opacity:0.987" fill="#33c381" d="M 123.5,108.5 C 123.328,109.492 123.662,110.158 124.5,110.5C 144.433,146.033 164.099,181.7 183.5,217.5C 153.231,206.3 122.898,195.3 92.5,184.5C 86.3251,158.134 79.9918,131.8 73.5,105.5C 90.1899,105.476 106.857,106.476 123.5,108.5 Z"/></g>
<g><path style="opacity:0.987" fill="#33c381" d="M 324.5,218.5 C 344.315,182.203 364.648,146.203 385.5,110.5C 386.338,110.158 386.672,109.492 386.5,108.5C 403.486,106.526 420.486,105.526 437.5,105.5C 431.008,131.8 424.675,158.134 418.5,184.5C 387.167,195.833 355.833,207.167 324.5,218.5 Z"/></g>
<g><path style="opacity:0.353" fill="#348d70" d="M 123.5,108.5 C 126.713,108.19 129.713,108.523 132.5,109.5C 129.615,109.194 126.948,109.527 124.5,110.5C 123.662,110.158 123.328,109.492 123.5,108.5 Z"/></g>
<g><path style="opacity:0.804" fill="#347d6d" d="M 377.5,109.5 C 380.287,108.523 383.287,108.19 386.5,108.5C 386.672,109.492 386.338,110.158 385.5,110.5C 383.052,109.527 380.385,109.194 377.5,109.5 Z"/></g>
<g><path style="opacity:0.977" fill="#33c481" d="M 95.5,195.5 C 108.001,199.501 120.335,204.001 132.5,209C 143.5,220 154.5,231 165.5,242C 174.92,240.883 184.254,239.049 193.5,236.5C 193.833,236.833 194.167,237.167 194.5,237.5C 187.333,247.833 180.167,258.167 173,268.5C 172.833,301.172 172.333,333.838 171.5,366.5C 146.5,345.833 121.5,325.167 96.5,304.5C 95.5001,268.173 95.1668,231.839 95.5,195.5 Z"/></g>
<g><path style="opacity:0.988" fill="#32c481" d="M 410.5,195.5 C 411.833,213.154 412.5,231.154 412.5,249.5C 412.333,267.5 412.167,285.5 412,303.5C 386.979,324.688 361.813,345.688 336.5,366.5C 335.667,333.838 335.167,301.172 335,268.5C 327.833,258.167 320.667,247.833 313.5,237.5C 313.833,237.167 314.167,236.833 314.5,236.5C 323.746,239.049 333.08,240.883 342.5,242C 353.5,231 364.5,220 375.5,209C 387.255,204.445 398.922,199.945 410.5,195.5 Z"/></g>
<g><path style="opacity:0.991" fill="#35495e" d="M 301.5,237.5 C 301.427,239.027 302.094,240.027 303.5,240.5C 305.543,241.579 306.876,243.246 307.5,245.5C 289.53,274.996 271.697,304.663 254,334.5C 236.303,304.663 218.47,274.996 200.5,245.5C 201.728,241.78 203.894,238.78 207,236.5C 212.441,239.137 217.941,241.637 223.5,244C 244.833,244.667 266.167,244.667 287.5,244C 291.336,241.916 295.003,239.583 298.5,237C 299.749,236.26 300.749,236.427 301.5,237.5 Z"/></g>
<g><path style="opacity:0.969" fill="#377f6d" d="M 301.5,237.5 C 302.906,237.973 303.573,238.973 303.5,240.5C 302.094,240.027 301.427,239.027 301.5,237.5 Z"/></g>
<g><path style="opacity:0.991" fill="#33c380" d="M 200.5,245.5 C 218.47,274.996 236.303,304.663 254,334.5C 271.697,304.663 289.53,274.996 307.5,245.5C 313.837,254.68 320.004,264.013 326,273.5C 326.667,321.833 326.667,370.167 326,418.5C 320.333,427.167 314.667,435.833 309,444.5C 301.5,452 294,459.5 286.5,467C 264.833,467.667 243.167,467.667 221.5,467C 214,459.5 206.5,452 199,444.5C 193.248,435.328 187.248,426.328 181,417.5C 180.333,369.833 180.333,322.167 181,274.5C 187.363,264.656 193.863,254.99 200.5,245.5 Z"/></g>
<g><path style="opacity:0.962" fill="#32c481" d="M 130.5,343.5 C 144.461,354.956 158.294,366.623 172,378.5C 172.833,394.51 172.666,410.51 171.5,426.5C 157.847,413.347 144.347,400.014 131,386.5C 130.5,372.171 130.333,357.837 130.5,343.5 Z"/></g>
<g><path style="opacity:0.962" fill="#33c481" d="M 376.5,343.5 C 377.661,357.661 377.827,371.994 377,386.5C 363.653,400.014 350.153,413.347 336.5,426.5C 335.334,410.51 335.167,394.51 336,378.5C 349.692,366.968 363.192,355.302 376.5,343.5 Z"/></g>
</svg>
