<?xml version="1.0" encoding="UTF-8"?>
<svg version="1.1" xmlns="http://www.w3.org/2000/svg" width="603" height="604">
<path d="M0 0 C0.66128906 -0.02900391 1.32257813 -0.05800781 2.00390625 -0.08789062 C11.95672808 -0.21206211 21.03993035 5.49795069 29.71148682 9.84703064 C30.8101897 10.39411653 31.90889259 10.94120241 33.0408895 11.50486666 C36.06378777 13.01111152 39.08488037 14.52087185 42.10522318 16.03222787 C45.37302935 17.66633619 48.64312463 19.29585243 51.91290283 20.92601013 C58.30683409 24.11469707 64.6985579 27.30778415 71.08940437 30.50264852 C76.2840072 33.09947375 81.47924155 35.69503109 86.67491913 38.28970528 C101.4177316 45.65231498 116.15887043 53.01826035 130.89786556 60.38850897 C131.69115001 60.78519115 132.48443445 61.18187332 133.30175781 61.59057617 C134.09601369 61.98774499 134.89026957 62.38491381 135.70859382 62.79411805 C148.59490206 69.23767907 161.48518758 75.67323888 174.37728766 82.10520273 C187.62666392 88.71552874 200.87304953 95.33181329 214.1163404 101.95432287 C221.54693346 105.66995128 228.97873698 109.38310975 236.41376495 113.0898571 C242.73977019 116.24375722 249.06297774 119.40318144 255.38262776 122.56979793 C258.6056649 124.18458206 261.82993163 125.79677026 265.05773926 127.40200043 C268.5583423 129.14299182 272.05265348 130.89636707 275.54644775 132.65098572 C276.56492365 133.1550801 277.58339955 133.65917449 278.63273835 134.17854446 C285.53676802 137.66436024 291.32157789 141.11752802 295.625 147.75 C296.10453125 148.47058594 296.5840625 149.19117188 297.078125 149.93359375 C301.69239482 158.39772122 301.66575384 169.00577868 299.7578125 178.328125 C295.98361843 188.94930832 287.85724102 195.32487083 278.02734375 200.046875 C277.03419662 200.54427185 276.0410495 201.0416687 275.01780701 201.55413818 C272.90007573 202.61247373 270.77802341 203.66220087 268.65203857 204.70385742 C265.36366849 206.31806245 262.09067768 207.96001629 258.82080078 209.61132812 C252.20384256 212.95020893 245.57178204 216.25820954 238.9375 219.5625 C236.63336821 220.71204852 234.32933132 221.86178729 232.02539062 223.01171875 C226.47634635 225.7808275 220.92615909 228.54763341 215.375 231.3125 C225.34486704 237.22103985 235.34671811 243.03615844 245.5 248.625 C247.82189331 249.91095904 250.14351244 251.19740282 252.46484375 252.484375 C253.6132373 253.12052734 254.76163086 253.75667969 255.94482422 254.41210938 C257.07678223 255.03923828 258.20874023 255.66636719 259.375 256.3125 C261.02459717 257.22612305 261.02459717 257.22612305 262.70751953 258.15820312 C265.82935307 259.89093151 268.94649458 261.63181754 272.0625 263.375 C272.98756348 263.88651611 273.91262695 264.39803223 274.86572266 264.92504883 C285.49276142 270.88964348 295.35518507 277.40712699 299.6796875 289.30859375 C301.93006862 299.03074591 301.56621931 309.64300053 296.375 318.3125 C290.63290421 325.94040473 284.60411773 330.47430047 276.0625 334.5625 C274.33386297 335.42531948 272.60523647 336.28816014 270.87683105 337.15144348 C268.90821479 338.12962792 266.93445602 339.09675126 264.95947266 340.06201172 C258.56456492 343.19259851 252.20301069 346.39003801 245.83665466 349.57815552 C240.80798934 352.09609827 235.77754101 354.61021227 230.7409668 357.11230469 C229.7984053 357.5812767 228.85584381 358.05024872 227.88471985 358.53343201 C226.09293406 359.42471367 224.30038953 360.31447198 222.50700378 361.20252991 C221.7124025 361.59822678 220.91780121 361.99392365 220.09912109 362.40161133 C219.40112396 362.74799149 218.70312683 363.09437164 217.98397827 363.45124817 C216.38227192 364.20865692 216.38227192 364.20865692 215.375 365.3125 C216.1939978 365.75565552 216.1939978 365.75565552 217.02954102 366.20776367 C228.58672226 372.46855405 240.10095042 378.79632449 251.5222168 385.30224609 C256.67896647 388.23709541 261.8542202 391.12940854 267.06640625 393.96484375 C268.18168701 394.57602051 269.29696777 395.18719727 270.44604492 395.81689453 C272.58036529 396.98491172 274.71955594 398.14409282 276.86450195 399.29248047 C284.9101882 403.71493064 293.57612166 408.86802677 297.375 417.625 C297.74625 418.44613281 298.1175 419.26726562 298.5 420.11328125 C301.61727954 427.94822939 302.10831308 439.44603674 298.75 447.375 C298.00518062 448.71464042 297.21310314 450.02915457 296.375 451.3125 C295.9625 452.00601562 295.55 452.69953125 295.125 453.4140625 C289.19450455 462.41089367 278.37920623 466.45802169 269.02505493 471.11445618 C267.92494091 471.66607318 266.8248269 472.21769018 265.69137609 472.78602284 C262.66749797 474.30123799 259.64189024 475.81289325 256.61545873 477.32299531 C253.34073801 478.95807965 250.06833596 480.59779298 246.79562378 482.2368927 C240.39779874 485.44023743 233.99783262 488.63928117 227.5970722 491.83675585 C222.39640718 494.43482563 217.19652933 497.03446449 211.99720383 499.63521385 C211.25591681 500.0060106 210.51462978 500.37680734 209.75087952 500.75884035 C208.24484 501.51217984 206.73880227 502.26552292 205.23276632 503.01886954 C191.13373914 510.0712301 177.03227031 517.1186969 162.92995314 524.16447576 C150.82785291 530.21105225 138.72786331 536.26183468 126.62939453 542.31567383 C112.569644 549.35089784 98.50860234 556.3835305 84.44548261 563.41201752 C82.94695393 564.16096332 81.44842691 564.90991246 79.94990158 565.65886497 C79.21263275 566.02734511 78.47536393 566.39582525 77.71575362 566.77547145 C72.51802138 569.37347379 67.32122032 571.97333271 62.12477493 574.57390785 C55.79819476 577.73999917 49.47020258 580.90324663 43.14036949 584.06282983 C39.91051926 585.6751233 36.6813272 587.28869995 33.45384979 588.90573883 C29.95907191 590.65664734 26.46122937 592.40137204 22.96304321 594.14546204 C21.42659084 594.9170343 21.42659084 594.9170343 19.85909903 595.70419389 C18.92375181 596.16925975 17.98840459 596.63432562 17.02471352 597.11348438 C15.81394235 597.71862644 15.81394235 597.71862644 14.57871115 598.33599359 C10.02991678 600.35165107 5.67689105 600.55541114 0.75 600.625 C0.08871094 600.65400391 -0.57257813 600.68300781 -1.25390625 600.71289062 C-11.20784127 600.83707599 -20.29437628 595.1252571 -28.96821594 590.77796936 C-30.06762439 590.23088347 -31.16703285 589.68379759 -32.29975671 589.12013334 C-35.32458372 587.61388665 -38.34760902 586.10412995 -41.36988223 584.59277213 C-44.63972354 582.95868065 -47.9118435 581.32916298 -51.18363953 579.69898987 C-58.32168298 576.14134905 -65.45676885 572.57780505 -72.59127831 569.0130837 C-77.04832494 566.78619262 -81.50602263 564.56060708 -85.96385765 562.33529472 C-98.31583421 556.16907999 -110.66718363 550.00161413 -123.01583576 543.82874393 C-124.19890196 543.23735151 -124.19890196 543.23735151 -125.40586848 542.63401177 C-127.00457985 541.8348392 -128.60329071 541.03566562 -130.20200107 540.23649103 C-130.99554824 539.83980885 -131.7890954 539.44312668 -132.60668945 539.03442383 C-133.79846674 538.4386706 -133.79846674 538.4386706 -135.01432034 537.83088195 C-147.90721829 531.38620631 -160.80479261 524.95095002 -173.70444045 518.51979727 C-186.96020131 511.91094973 -200.21221181 505.29463457 -213.46042889 498.67067713 C-220.89438137 494.9539932 -228.32988437 491.24049 -235.76949501 487.5351429 C-242.09883344 484.38271842 -248.42469504 481.22344906 -254.74612913 478.05520207 C-257.97057026 476.43939343 -261.19653997 474.82685693 -264.42694473 473.22299957 C-267.92898906 471.48415901 -271.42316005 469.72987963 -274.91670227 467.97401428 C-275.93809101 467.4699199 -276.95947975 466.96582551 -278.01181966 466.44645554 C-283.04660762 463.89901241 -286.93937482 461.60374722 -290.625 457.3125 C-291.470625 456.405 -292.31625 455.4975 -293.1875 454.5625 C-300.23137126 445.668498 -300.85222287 436.29450108 -299.625 425.3125 C-297.81880263 416.6314639 -292.21822208 409.51313716 -285.00146484 404.484375 C-282.06142149 402.75631625 -279.08438772 401.14297735 -276.0625 399.5625 C-273.82122284 398.34968199 -271.58034589 397.13612415 -269.33984375 395.921875 C-268.21433105 395.31923828 -267.08881836 394.71660156 -265.92919922 394.09570312 C-260.95166662 391.40943904 -256.03944319 388.61199125 -251.125 385.8125 C-238.98359063 378.93407298 -226.8054261 372.12151998 -214.625 365.3125 C-224.90786796 359.81873522 -235.24725118 354.46248727 -245.69921875 349.296875 C-246.72902863 348.78709106 -247.7588385 348.27730713 -248.81985474 347.7520752 C-253.0632309 345.65291689 -257.30754233 343.55579199 -261.55737305 341.46972656 C-264.71251422 339.91946444 -267.86243056 338.35898556 -271.01171875 336.796875 C-271.96076584 336.33424255 -272.90981293 335.87161011 -273.88761902 335.3949585 C-284.82574923 329.94736545 -294.60631566 323.21476153 -298.9296875 311.31640625 C-301.18129523 301.58895487 -300.8109773 290.98880709 -295.625 282.3125 C-289.61508871 274.24776276 -282.84585863 269.57778579 -274 265 C-272.80334778 264.3611679 -271.60789079 263.7200924 -270.41357422 263.0769043 C-267.98865976 261.77250834 -265.55953849 260.47655195 -263.12695312 259.18652344 C-257.95265556 256.41756721 -252.84988104 253.52809717 -247.75 250.625 C-245.89583783 249.57421082 -244.04167119 248.52342951 -242.1875 247.47265625 C-240.33324278 246.41943025 -238.47907812 245.36604126 -236.625 244.3125 C-235.62984375 243.74772949 -234.6346875 243.18295898 -233.609375 242.60107422 C-230.65505271 240.92364411 -227.70222971 239.24360977 -224.75 237.5625 C-223.84523926 237.04856689 -222.94047852 236.53463379 -222.00830078 236.00512695 C-220.77055908 235.29876099 -220.77055908 235.29876099 -219.5078125 234.578125 C-218.77965332 234.16336914 -218.05149414 233.74861328 -217.30126953 233.32128906 C-215.65361304 232.42152909 -215.65361304 232.42152909 -214.625 231.3125 C-215.91046974 230.68142334 -215.91046974 230.68142334 -217.22190857 230.03759766 C-225.33512429 226.05223675 -233.44072499 222.05174898 -241.53929043 218.03669739 C-245.7021358 215.97346545 -249.86739688 213.91547354 -254.03881836 211.86962891 C-258.0715975 209.89153598 -262.0971885 207.89945746 -266.11836433 205.89788818 C-267.64634254 205.14031828 -269.17675897 204.38764388 -270.70971489 203.64019775 C-292.2270811 193.13784982 -292.2270811 193.13784982 -296.625 183 C-296.99625 182.17886719 -297.3675 181.35773438 -297.75 180.51171875 C-300.86727954 172.67677061 -301.35831308 161.17896326 -298 153.25 C-297.25518062 151.91035958 -296.46310314 150.59584543 -295.625 149.3125 C-295.2125 148.61898437 -294.8 147.92546875 -294.375 147.2109375 C-288.44450455 138.21410633 -277.62920623 134.16697831 -268.27505493 129.51054382 C-267.17494091 128.95892682 -266.0748269 128.40730982 -264.94137609 127.83897716 C-261.91749797 126.32376201 -258.89189024 124.81210675 -255.86545873 123.30200469 C-252.59073801 121.66692035 -249.31833596 120.02720702 -246.04562378 118.3881073 C-239.64779874 115.18476257 -233.24783262 111.98571883 -226.8470722 108.78824415 C-221.64640718 106.19017437 -216.44652933 103.59053551 -211.24720383 100.98978615 C-210.50591681 100.6189894 -209.76462978 100.24819266 -209.00087952 99.86615965 C-207.49484 99.11282016 -205.98880227 98.35947708 -204.48276632 97.60613046 C-190.38373914 90.5537699 -176.28227031 83.5063031 -162.17995314 76.46052424 C-150.07785291 70.41394775 -137.97786331 64.36316532 -125.87939453 58.30932617 C-111.819644 51.27410216 -97.75860234 44.2414695 -83.69548261 37.21298248 C-82.19695393 36.46403668 -80.69842691 35.71508754 -79.19990158 34.96613503 C-78.09399834 34.41341482 -78.09399834 34.41341482 -76.96575362 33.84952855 C-71.76802138 31.25152621 -66.57122032 28.65166729 -61.37477493 26.05109215 C-55.04819476 22.88500083 -48.72020258 19.72175337 -42.39036949 16.56217017 C-39.16051926 14.9498767 -35.9313272 13.33630005 -32.70384979 11.71926117 C-29.20907191 9.96835266 -25.71122937 8.22362796 -22.21304321 6.47953796 C-21.18874163 5.96515645 -20.16444005 5.45077494 -19.10909903 4.92080611 C-17.7060782 4.22320732 -17.7060782 4.22320732 -16.27471352 3.51151562 C-15.06394235 2.90637356 -15.06394235 2.90637356 -13.82871115 2.28900641 C-9.27991678 0.27334893 -4.92689105 0.06958886 0 0 Z M-9.2432251 75.88110352 C-10.01435064 76.26495744 -10.78547618 76.64881136 -11.57996917 77.04429722 C-14.16948278 78.33575309 -16.75310314 79.63858304 -19.33691406 80.94140625 C-21.18935363 81.86819002 -23.04214555 82.7942698 -24.89526367 83.71969604 C-29.93153216 86.23725527 -34.96279858 88.76466692 -39.99324512 91.29383469 C-45.24880528 93.9340973 -50.50888243 96.56532924 -55.76849365 99.19750977 C-65.73054827 104.18475913 -75.68849545 109.18015336 -85.64500403 114.17846394 C-96.97909204 119.86784437 -108.31771182 125.54816458 -119.65672731 131.22771645 C-142.98455267 142.91254756 -166.30664449 154.60878355 -189.625 166.3125 C-186.84273887 169.67685229 -183.07105628 171.30866114 -179.24333191 173.21736145 C-178.10652598 173.79297861 -178.10652598 173.79297861 -176.94675428 174.38022441 C-174.40250301 175.66654613 -171.85401325 176.94422923 -169.30541992 178.22192383 C-167.48199274 179.14139837 -165.65880197 180.06134187 -163.83583069 180.98171997 C-158.88020167 183.48135557 -153.92055222 185.97290624 -148.9595964 188.46195054 C-145.86194453 190.01628185 -142.76495249 191.57192031 -139.66814613 193.12793541 C-129.98328789 197.99355947 -120.29587808 202.85405071 -110.60493678 207.70754796 C-99.40893502 213.31492571 -88.22168906 218.93929352 -77.04165572 224.57843953 C-68.40401852 228.93390563 -59.75879617 233.27405323 -51.10764962 237.60262316 C-45.93820629 240.18957192 -40.77225901 242.78299676 -35.61412621 245.39243507 C-30.76454047 247.84526637 -25.9058511 250.27900334 -21.03943443 252.69826126 C-19.25333391 253.59029014 -17.47064936 254.48919613 -15.69168472 255.39537239 C-13.26579617 256.62977051 -10.82890891 257.83897721 -8.38761902 259.04255676 C-7.68342604 259.40819428 -6.97923307 259.77383179 -6.25370091 260.15054923 C-3.07986349 261.6849879 -1.12795894 262.40679033 2.37890434 261.74935436 C3.36761591 261.27519242 4.35632748 260.80103048 5.375 260.3125 C7.16149948 259.48223297 7.16149948 259.48223297 8.98408985 258.63519287 C10.34979544 257.95844568 11.7133558 257.27735821 13.07514954 256.59277344 C13.83094415 256.2167889 14.58673877 255.84080437 15.36543626 255.45342636 C17.88917213 254.19670443 20.41002352 252.93430525 22.9309082 251.671875 C24.74279303 250.76810677 26.5548446 249.86467276 28.36705017 248.96154785 C33.28174587 246.51089131 38.19387017 244.05512277 43.10538507 241.59809875 C47.2031116 239.54870077 51.30202593 237.50168461 55.40092438 235.45463181 C65.06446607 230.62840646 74.7258719 225.79792494 84.38598633 220.96484375 C94.36460246 215.97251023 104.34687657 210.98754892 114.33095294 206.00614548 C122.89708531 201.73186958 131.46090293 197.45298212 140.02286977 193.17036819 C145.13944551 190.61117159 150.25690617 188.05378499 155.37661171 185.50085449 C160.18501296 183.10291252 164.99051042 180.69925125 169.793787 178.2910614 C171.56129704 177.40611735 173.32984323 176.52323949 175.09946823 175.64253235 C177.50570377 174.44459678 179.90816269 173.23940992 182.30976868 172.03222656 C183.0186976 171.68144924 183.72762653 171.33067192 184.45803815 170.96926498 C188.04873546 169.32879498 188.04873546 169.32879498 190.375 166.3125 C165.93678737 154.04671603 141.4940241 141.790044 117.04578018 129.54426575 C105.69467967 123.85839377 94.34509913 118.16952606 82.99902344 112.47363281 C73.1121882 107.51030873 63.222573 102.55257659 53.32954955 97.60159779 C48.08920855 94.97881525 42.85032258 92.35321427 37.61475372 89.72091675 C32.69023834 87.24511849 27.76205025 84.77679534 22.8309021 82.31423569 C21.01865961 81.4075627 19.20779408 80.49813159 17.39839935 79.58578873 C14.93362618 78.34349612 12.46415524 77.11109289 9.9932251 75.88110352 C9.27337818 75.51535438 8.55353127 75.14960524 7.81187081 74.77277279 C0.92888508 71.37263019 -2.72152111 72.56747172 -9.2432251 75.88110352 Z M-144.82421875 270.48046875 C-145.69288574 270.95540771 -146.56155273 271.43034668 -147.45654297 271.91967773 C-148.39900879 272.44118408 -149.34147461 272.96269043 -150.3125 273.5 C-151.2833252 274.03375244 -152.25415039 274.56750488 -153.25439453 275.11743164 C-160.52347295 279.12480385 -167.76809302 283.17597664 -175 287.25 C-175.94319092 287.78069092 -176.88638184 288.31138184 -177.8581543 288.8581543 C-183.20123621 291.88285609 -188.44370339 295.01806902 -193.625 298.3125 C-190.07736243 301.2270452 -186.13106602 303.20768994 -182.04714966 305.24859619 C-181.28025751 305.63571895 -180.51336536 306.02284172 -179.72323406 306.42169547 C-177.15349797 307.71757505 -174.58092903 309.00772429 -172.00830078 310.29785156 C-170.16510334 311.22571658 -168.32205897 312.15388571 -166.47915649 313.08233643 C-160.4291041 316.12837626 -154.37479915 319.16591129 -148.3203125 322.203125 C-146.23648232 323.2490879 -144.15267987 324.29510606 -142.06890488 325.34117889 C-132.28392968 330.25270799 -122.49703719 335.16039048 -112.70776951 340.06335855 C-101.40104582 345.72650551 -90.10107579 351.40284773 -78.80662549 357.09043145 C-70.07837488 361.4846766 -61.34404982 365.86668313 -52.6050452 370.23950171 C-47.3840382 372.85235936 -42.16582659 375.47047398 -36.95395279 378.10150909 C-32.05420528 380.57459776 -27.1471241 383.03246384 -22.23394394 385.47875214 C-20.43080796 386.37982314 -18.6304073 387.28639153 -16.83297729 388.1987915 C-14.38137481 389.44221356 -11.9207457 390.6655682 -9.45681763 391.88433838 C-8.74552487 392.250954 -8.03423212 392.61756962 -7.30138505 392.99529481 C-2.9292611 395.12488612 -0.28222106 395.77977516 4.375 394.3125 C7.08874052 393.19723062 9.69467422 391.91427752 12.30966187 390.5856781 C13.09066336 390.1968862 13.87166486 389.8080943 14.67633307 389.40752083 C17.28726894 388.10534204 19.89232844 386.79182369 22.49755859 385.47827148 C24.36999725 384.54148792 26.24278865 383.60540915 28.11590576 382.66998291 C33.19750837 380.12975563 38.27411602 377.57968938 43.34989119 375.02784228 C48.65614891 372.36221439 53.96693634 369.7056425 59.2772522 367.04811096 C69.33132358 362.01485808 79.38128838 356.97346159 89.42980731 351.92913443 C100.87034236 346.18651537 112.31541974 340.45297765 123.76088977 334.72020233 C147.3039986 322.9277405 170.84137343 311.12387242 194.375 299.3125 C191.91323098 296.75431142 189.54275933 295.13469567 186.421875 293.4140625 C185.42051514 292.85807373 184.41915527 292.30208496 183.38745117 291.72924805 C182.31084229 291.13797119 181.2342334 290.54669434 180.125 289.9375 C177.86552381 288.686851 175.60641805 287.43553253 173.34765625 286.18359375 C171.61733154 285.22622314 171.61733154 285.22622314 169.85205078 284.24951172 C166.47086434 282.36590456 163.1057349 280.45688907 159.74609375 278.53515625 C158.70549805 277.9407373 157.66490234 277.34631836 156.59277344 276.73388672 C154.60580863 275.59696889 152.62071062 274.45678092 150.63769531 273.31298828 C149.29143066 272.54510986 149.29143066 272.54510986 147.91796875 271.76171875 C147.13446045 271.31143311 146.35095215 270.86114746 145.54370117 270.3972168 C143.35238759 269.30118998 141.80237575 268.63511207 139.375 268.3125 C136.83283337 269.14488453 136.83283337 269.14488453 134.16436768 270.57051086 C133.11024689 271.09633759 132.0561261 271.62216431 130.97006226 272.16392517 C129.81881866 272.75347488 128.66757507 273.3430246 127.48144531 273.95043945 C126.25300145 274.5687818 125.02401382 275.18604487 123.79452515 275.80230713 C121.14676572 277.13228451 118.50295623 278.46971336 115.86191559 279.81298256 C111.68181905 281.93882002 107.49306514 284.04718164 103.30291748 286.15312195 C95.15946252 290.24899617 87.02514892 294.36282942 78.89161682 298.47836304 C68.55421971 303.70784934 58.21240431 308.92853614 47.86317897 314.1345765 C43.70338801 316.2278247 39.54794226 318.32939044 35.39576006 320.43768847 C32.80410768 321.75169547 30.20913001 323.05902895 27.61326981 324.36470032 C25.84674744 325.25580065 24.08431999 326.15500449 22.322052 327.05448914 C10.75504532 332.85521326 0.77412767 335.29036323 -11.81016541 331.33948326 C-17.11111986 329.40544724 -22.0860962 326.83243128 -27.11132812 324.28051758 C-28.3308652 323.66854294 -29.55076529 323.05729127 -30.77099609 322.44670105 C-33.3781962 321.14018822 -35.98280974 319.82870642 -38.58546448 318.51316261 C-42.69932358 316.433828 -46.81892599 314.36605386 -50.93933105 312.29972839 C-57.44914427 309.03348304 -63.95516694 305.75976863 -70.45954847 302.48272198 C-82.12972358 296.60312829 -93.80452258 290.73274111 -105.48343992 284.87053221 C-109.58115146 282.8132611 -113.67657341 280.75151972 -117.77021885 278.68617022 C-120.30825022 277.40654019 -122.8478863 276.13012066 -125.38793945 274.85450935 C-127.13268193 273.97699326 -128.87538824 273.09543243 -130.61804199 272.21377563 C-131.64969482 271.69643356 -132.68134766 271.17909149 -133.7442627 270.64607239 C-134.64384956 270.19275952 -135.54343643 269.73944666 -136.47028351 269.27239704 C-140.06850598 267.66943762 -141.51344338 268.66238469 -144.82421875 270.48046875 Z M-145.3828125 403.91796875 C-146.39053711 404.48338379 -147.39826172 405.04879883 -148.43652344 405.63134766 C-149.5299707 406.24800293 -150.62341797 406.8646582 -151.75 407.5 C-152.86407227 408.12696777 -153.97814453 408.75393555 -155.12597656 409.39990234 C-156.86762257 410.38034631 -158.60925968 411.36080675 -160.35021973 412.34246826 C-164.30306241 414.5710711 -168.26303973 416.78651628 -172.2265625 418.99609375 C-174.27612115 420.14308715 -176.3256036 421.29021673 -178.375 422.4375 C-179.33164551 422.96883545 -180.28829102 423.5001709 -181.27392578 424.04760742 C-182.16837402 424.5501001 -183.06282227 425.05259277 -183.984375 425.5703125 C-184.76264648 426.0048877 -185.54091797 426.43946289 -186.34277344 426.88720703 C-188.9415263 428.51017657 -191.24660193 430.38452765 -193.625 432.3125 C-168.70467632 444.86604277 -143.77524408 457.40132662 -118.83479881 469.91484928 C-107.25511079 475.72533131 -95.67849474 481.54178378 -84.10888672 487.37231445 C-74.02652916 492.45332284 -63.93862456 497.5231115 -53.84385836 502.5794248 C-48.49738781 505.25788134 -43.15389175 507.94192734 -37.81699753 510.63942146 C-32.79576074 513.17714749 -27.7672548 515.69982689 -22.73272324 518.21106911 C-20.88443034 519.13631786 -19.03888238 520.06707312 -17.19631195 521.00366592 C-14.68320218 522.28007535 -12.16103327 523.53643852 -9.6355896 524.78822327 C-8.54121206 525.35288908 -8.54121206 525.35288908 -7.42472589 525.92896229 C-3.01067001 528.08435017 -0.33122812 528.81018469 4.375 527.3125 C7.08839334 526.19636103 9.69464779 524.91429095 12.30966187 523.5856781 C13.09066336 523.1968862 13.87166486 522.8080943 14.67633307 522.40752083 C17.28726894 521.10534204 19.89232844 519.79182369 22.49755859 518.47827148 C24.36999725 517.54148792 26.24278865 516.60540915 28.11590576 515.66998291 C33.19750837 513.12975563 38.27411602 510.57968938 43.34989119 508.02784228 C48.65614891 505.36221439 53.96693634 502.7056425 59.2772522 500.04811096 C69.33132358 495.01485808 79.38128838 489.97346159 89.42980731 484.92913443 C100.87034236 479.18651537 112.31541974 473.45297765 123.76088977 467.72020233 C147.3039986 455.9277405 170.84137343 444.12387242 194.375 432.3125 C190.78918874 429.38636787 187.28346983 427.01815916 183.2109375 424.80859375 C182.62582397 424.4880603 182.04071045 424.16752686 181.43786621 423.83728027 C178.23403658 422.08440908 175.01685973 420.35693417 171.79736328 418.63305664 C165.15832556 415.05947653 158.80106202 411.47775101 152.79101562 406.8828125 C146.51718818 402.56640828 146.51718818 402.56640828 139.26974106 401.63843155 C137.0242626 402.54117682 134.97485645 403.60623474 132.86572266 404.79345703 C132.05612406 405.21258928 131.24652546 405.63172153 130.41239357 406.06355476 C128.64856451 406.97755579 126.89158185 407.90486331 125.14087677 408.84375763 C121.35873821 410.85215772 117.52178299 412.74226753 113.68324852 414.640028 C109.44928848 416.73674405 105.23056486 418.86335287 101.01044846 420.98775864 C97.56324827 422.7225589 94.11434299 424.45392589 90.66494751 426.18435669 C80.87348671 431.09659362 71.08389681 436.01253509 61.29833984 440.93652344 C55.27505598 443.96732648 49.24859647 446.99173334 43.22035599 450.01266861 C40.93797536 451.15787132 38.65670507 452.30528985 36.37659836 453.45501328 C33.19571338 455.05873288 30.01115416 456.65492443 26.82568359 458.24951172 C25.89671265 458.72017563 24.9677417 459.19083954 24.01062012 459.67576599 C16.47683094 463.43115201 9.16654088 466.73076277 0.625 466.8125 C-0.44234375 466.8434375 -1.5096875 466.874375 -2.609375 466.90625 C-12.8354063 466.03673629 -23.09569052 459.79132168 -32.10058594 455.23706055 C-33.27130646 454.65111618 -34.44202698 454.06517181 -35.64822388 453.46147156 C-38.81538913 451.87620528 -41.97884846 450.28367431 -45.14168072 448.68978477 C-48.46472181 447.01691739 -51.79140504 445.35132454 -55.11773682 443.68501282 C-61.3977125 440.53782314 -67.67476873 437.38485984 -73.95061707 434.22944909 C-85.22193305 428.56263347 -96.49829636 422.90587215 -107.77567124 417.25112563 C-111.73141809 415.26733071 -115.68588005 413.28100326 -119.63929129 411.29255807 C-121.49858805 410.3576754 -123.35831632 409.42365776 -125.2182312 408.49000549 C-127.48947759 407.34976663 -129.7599819 406.20804808 -132.02963257 405.06463623 C-133.02191864 404.56701279 -134.01420471 404.06938934 -135.03656006 403.5566864 C-135.90367489 403.12071986 -136.77078972 402.68475332 -137.66418076 402.23557568 C-141.03075369 400.6507271 -142.18293774 402.11829103 -145.3828125 403.91796875 Z " fill="#1A554D" transform="translate(300.625,1.6875)"/>
<path d="M0 0 C0.66128906 -0.02900391 1.32257813 -0.05800781 2.00390625 -0.08789062 C11.95672808 -0.21206211 21.03993035 5.49795069 29.71148682 9.84703064 C30.8101897 10.39411653 31.90889259 10.94120241 33.0408895 11.50486666 C36.06378777 13.01111152 39.08488037 14.52087185 42.10522318 16.03222787 C45.37302935 17.66633619 48.64312463 19.29585243 51.91290283 20.92601013 C58.30683409 24.11469707 64.6985579 27.30778415 71.08940437 30.50264852 C76.2840072 33.09947375 81.47924155 35.69503109 86.67491913 38.28970528 C101.4177316 45.65231498 116.15887043 53.01826035 130.89786556 60.38850897 C131.69115001 60.78519115 132.48443445 61.18187332 133.30175781 61.59057617 C134.09601369 61.98774499 134.89026957 62.38491381 135.70859382 62.79411805 C148.59490206 69.23767907 161.48518758 75.67323888 174.37728766 82.10520273 C187.62666392 88.71552874 200.87304953 95.33181329 214.1163404 101.95432287 C221.54693346 105.66995128 228.97873698 109.38310975 236.41376495 113.0898571 C242.73977019 116.24375722 249.06297774 119.40318144 255.38262776 122.56979793 C258.6056649 124.18458206 261.82993163 125.79677026 265.05773926 127.40200043 C268.5583423 129.14299182 272.05265348 130.89636707 275.54644775 132.65098572 C276.56492365 133.1550801 277.58339955 133.65917449 278.63273835 134.17854446 C285.53676802 137.66436024 291.32157789 141.11752802 295.625 147.75 C296.10453125 148.47058594 296.5840625 149.19117188 297.078125 149.93359375 C301.69239482 158.39772122 301.66575384 169.00577868 299.7578125 178.328125 C295.96796833 188.99335019 287.80382571 195.35046699 277.9375 200.08984375 C276.93960449 200.58951157 275.94170898 201.08917938 274.91357422 201.60398865 C272.80571998 202.65743376 270.69364276 203.70246718 268.57763672 204.73944092 C265.43711468 206.28199074 262.31236769 207.85237828 259.19140625 209.43408203 C253.983327 212.07193033 248.76477772 214.68803981 243.54101562 217.29467773 C240.37479684 218.87510141 237.21074859 220.45980948 234.046875 222.04492188 C224.05616699 227.04177494 214.04203479 231.9776813 203.953125 236.7734375 C192.3855506 242.27271486 180.91823135 247.96478466 169.46679688 253.70141602 C166.11477465 255.38012089 162.76061823 257.0545043 159.40625 258.72851562 C157.20299667 259.83047262 154.9998674 260.9326777 152.796875 262.03515625 C151.82965515 262.51775406 150.8624353 263.00035187 149.86590576 263.49757385 C143.7607584 266.56011453 137.70945901 269.71394959 131.67358398 272.90991211 C119.92648016 279.11968529 108.05284916 285.07491944 96.17578125 291.03125 C95.0116741 291.61534134 93.84756695 292.19943268 92.64818382 292.80122375 C87.13794882 295.56578387 81.62679623 298.32850387 76.11446792 301.08888769 C69.80027441 304.2509032 63.48947991 307.41957902 57.18135959 310.5936923 C51.66763781 313.36746966 46.14953498 316.13242675 40.62984276 318.89430237 C38.2989477 320.06218043 35.96940101 321.23275379 33.64126015 322.40611267 C30.39647875 324.04066823 27.14680017 325.66506225 23.89575195 327.28710938 C22.94448425 327.76914825 21.99321655 328.25118713 21.01312256 328.74783325 C9.98231763 334.22031369 0.08540462 336.07089999 -11.81603622 332.33459091 C-17.07866353 330.41969134 -22.02304926 327.88165119 -27.01611328 325.35986328 C-28.22593132 324.75602967 -29.43609587 324.15288991 -30.64657593 323.55038452 C-33.90629958 321.92533246 -37.1609831 320.2904224 -40.41469431 318.65337229 C-43.8355661 316.93409084 -47.26070336 315.22334597 -50.68527222 313.51144409 C-56.4324112 310.63694081 -62.17643155 307.75628518 -67.91845703 304.87158203 C-74.53937596 301.54539417 -81.16444139 298.22759215 -87.79195607 294.91456807 C-94.8748768 291.37378527 -101.9547316 287.82690599 -109.0337081 284.27824545 C-111.06222814 283.26186314 -113.09130772 282.2466057 -115.12051773 281.23160172 C-118.31867428 279.63151238 -121.51474124 278.02732055 -124.70929337 276.42004776 C-126.42873161 275.55605673 -128.15009082 274.6958919 -129.871521 273.83587646 C-135.09261347 271.20391676 -140.16674675 268.49647494 -145.0717392 265.30937767 C-146.96777017 264.09251123 -148.91517589 263.09727012 -150.9609375 262.15625 C-152.15396484 261.5984082 -152.15396484 261.5984082 -153.37109375 261.02929688 C-154.67240234 260.42698242 -154.67240234 260.42698242 -156 259.8125 C-169.39820258 253.51226266 -182.61112168 246.84859389 -195.83349609 240.18945312 C-204.78788635 235.68678448 -213.77088248 231.25805857 -222.8203125 226.94921875 C-234.33292467 221.46710096 -245.80170281 215.9008715 -257.22802734 210.2409668 C-259.43163228 209.15264706 -261.63808208 208.07007085 -263.84716797 206.99291992 C-267.11072764 205.40078233 -270.36465217 203.79029795 -273.6171875 202.17578125 C-275.07981522 201.46921135 -275.07981522 201.46921135 -276.57199097 200.74836731 C-284.57868928 196.73335128 -292.9295416 191.51857507 -296.625 183 C-296.99625 182.17886719 -297.3675 181.35773438 -297.75 180.51171875 C-300.86727954 172.67677061 -301.35831308 161.17896326 -298 153.25 C-297.25518062 151.91035958 -296.46310314 150.59584543 -295.625 149.3125 C-295.2125 148.61898437 -294.8 147.92546875 -294.375 147.2109375 C-288.44450455 138.21410633 -277.62920623 134.16697831 -268.27505493 129.51054382 C-267.17494091 128.95892682 -266.0748269 128.40730982 -264.94137609 127.83897716 C-261.91749797 126.32376201 -258.89189024 124.81210675 -255.86545873 123.30200469 C-252.59073801 121.66692035 -249.31833596 120.02720702 -246.04562378 118.3881073 C-239.64779874 115.18476257 -233.24783262 111.98571883 -226.8470722 108.78824415 C-221.64640718 106.19017437 -216.44652933 103.59053551 -211.24720383 100.98978615 C-210.50591681 100.6189894 -209.76462978 100.24819266 -209.00087952 99.86615965 C-207.49484 99.11282016 -205.98880227 98.35947708 -204.48276632 97.60613046 C-190.38373914 90.5537699 -176.28227031 83.5063031 -162.17995314 76.46052424 C-150.07785291 70.41394775 -137.97786331 64.36316532 -125.87939453 58.30932617 C-111.819644 51.27410216 -97.75860234 44.2414695 -83.69548261 37.21298248 C-82.19695393 36.46403668 -80.69842691 35.71508754 -79.19990158 34.96613503 C-78.09399834 34.41341482 -78.09399834 34.41341482 -76.96575362 33.84952855 C-71.76802138 31.25152621 -66.57122032 28.65166729 -61.37477493 26.05109215 C-55.04819476 22.88500083 -48.72020258 19.72175337 -42.39036949 16.56217017 C-39.16051926 14.9498767 -35.9313272 13.33630005 -32.70384979 11.71926117 C-29.20907191 9.96835266 -25.71122937 8.22362796 -22.21304321 6.47953796 C-21.18874163 5.96515645 -20.16444005 5.45077494 -19.10909903 4.92080611 C-17.7060782 4.22320732 -17.7060782 4.22320732 -16.27471352 3.51151562 C-15.06394235 2.90637356 -15.06394235 2.90637356 -13.82871115 2.28900641 C-9.27991678 0.27334893 -4.92689105 0.06958886 0 0 Z M-9.2432251 75.88110352 C-10.01435064 76.26495744 -10.78547618 76.64881136 -11.57996917 77.04429722 C-14.16948278 78.33575309 -16.75310314 79.63858304 -19.33691406 80.94140625 C-21.18935363 81.86819002 -23.04214555 82.7942698 -24.89526367 83.71969604 C-29.93153216 86.23725527 -34.96279858 88.76466692 -39.99324512 91.29383469 C-45.24880528 93.9340973 -50.50888243 96.56532924 -55.76849365 99.19750977 C-65.73054827 104.18475913 -75.68849545 109.18015336 -85.64500403 114.17846394 C-96.97909204 119.86784437 -108.31771182 125.54816458 -119.65672731 131.22771645 C-142.98455267 142.91254756 -166.30664449 154.60878355 -189.625 166.3125 C-186.84273887 169.67685229 -183.07105628 171.30866114 -179.24333191 173.21736145 C-178.10652598 173.79297861 -178.10652598 173.79297861 -176.94675428 174.38022441 C-174.40250301 175.66654613 -171.85401325 176.94422923 -169.30541992 178.22192383 C-167.48199274 179.14139837 -165.65880197 180.06134187 -163.83583069 180.98171997 C-158.88020167 183.48135557 -153.92055222 185.97290624 -148.9595964 188.46195054 C-145.86194453 190.01628185 -142.76495249 191.57192031 -139.66814613 193.12793541 C-129.98328789 197.99355947 -120.29587808 202.85405071 -110.60493678 207.70754796 C-99.40893502 213.31492571 -88.22168906 218.93929352 -77.04165572 224.57843953 C-68.40401852 228.93390563 -59.75879617 233.27405323 -51.10764962 237.60262316 C-45.93820629 240.18957192 -40.77225901 242.78299676 -35.61412621 245.39243507 C-30.76454047 247.84526637 -25.9058511 250.27900334 -21.03943443 252.69826126 C-19.25333391 253.59029014 -17.47064936 254.48919613 -15.69168472 255.39537239 C-13.26579617 256.62977051 -10.82890891 257.83897721 -8.38761902 259.04255676 C-7.68342604 259.40819428 -6.97923307 259.77383179 -6.25370091 260.15054923 C-3.07986349 261.6849879 -1.12795894 262.40679033 2.37890434 261.74935436 C3.36761591 261.27519242 4.35632748 260.80103048 5.375 260.3125 C7.16149948 259.48223297 7.16149948 259.48223297 8.98408985 258.63519287 C10.34979544 257.95844568 11.7133558 257.27735821 13.07514954 256.59277344 C13.83094415 256.2167889 14.58673877 255.84080437 15.36543626 255.45342636 C17.88917213 254.19670443 20.41002352 252.93430525 22.9309082 251.671875 C24.74279303 250.76810677 26.5548446 249.86467276 28.36705017 248.96154785 C33.28174587 246.51089131 38.19387017 244.05512277 43.10538507 241.59809875 C47.2031116 239.54870077 51.30202593 237.50168461 55.40092438 235.45463181 C65.06446607 230.62840646 74.7258719 225.79792494 84.38598633 220.96484375 C94.36460246 215.97251023 104.34687657 210.98754892 114.33095294 206.00614548 C122.89708531 201.73186958 131.46090293 197.45298212 140.02286977 193.17036819 C145.13944551 190.61117159 150.25690617 188.05378499 155.37661171 185.50085449 C160.18501296 183.10291252 164.99051042 180.69925125 169.793787 178.2910614 C171.56129704 177.40611735 173.32984323 176.52323949 175.09946823 175.64253235 C177.50570377 174.44459678 179.90816269 173.23940992 182.30976868 172.03222656 C183.0186976 171.68144924 183.72762653 171.33067192 184.45803815 170.96926498 C188.04873546 169.32879498 188.04873546 169.32879498 190.375 166.3125 C165.93678737 154.04671603 141.4940241 141.790044 117.04578018 129.54426575 C105.69467967 123.85839377 94.34509913 118.16952606 82.99902344 112.47363281 C73.1121882 107.51030873 63.222573 102.55257659 53.32954955 97.60159779 C48.08920855 94.97881525 42.85032258 92.35321427 37.61475372 89.72091675 C32.69023834 87.24511849 27.76205025 84.77679534 22.8309021 82.31423569 C21.01865961 81.4075627 19.20779408 80.49813159 17.39839935 79.58578873 C14.93362618 78.34349612 12.46415524 77.11109289 9.9932251 75.88110352 C9.27337818 75.51535438 8.55353127 75.14960524 7.81187081 74.77277279 C0.92888508 71.37263019 -2.72152111 72.56747172 -9.2432251 75.88110352 Z " fill="#28B07C" transform="translate(300.625,1.6875)"/>
</svg>
