<?xml version="1.0" encoding="UTF-8"?>
<svg version="1.1" xmlns="http://www.w3.org/2000/svg" width="512" height="512">
<path d="M0 0 C0 143.88 0 287.76 0 436 C-24.12217551 436 -24.12217551 436 -33.73762512 435.50646973 C-34.85404363 435.45338355 -35.97046214 435.40029737 -37.12071151 435.34560251 C-40.77318765 435.17072881 -44.42526999 434.98873628 -48.07739258 434.80664062 C-50.73068272 434.67812776 -53.38398958 434.55001929 -56.037323 434.42240906 C-61.70439159 434.14906302 -67.37127181 433.87206758 -73.03803444 433.592453 C-81.23079887 433.18820365 -89.42383413 432.78967624 -97.61694213 432.3924585 C-110.91596588 431.74754422 -124.21476562 431.09812657 -137.51342773 430.44580078 C-150.41695726 429.81286687 -163.32058983 429.18210121 -176.22436523 428.55419922 C-177.02234985 428.51536828 -177.82033447 428.47653733 -178.64250044 428.4365297 C-182.64653058 428.24170175 -186.65056277 428.04691588 -190.65459597 427.85215092 C-223.77005042 426.24128814 -256.8851423 424.62308483 -290 423 C-291.37143453 420.25713094 -291.2588518 417.92303175 -291.4041605 414.85396576 C-291.45147736 413.89368777 -291.45147736 413.89368777 -291.49975011 412.91401023 C-291.60534014 410.74831829 -291.7044328 408.58237652 -291.80360413 406.41638184 C-291.87832985 404.85591683 -291.95344994 403.29547067 -292.02893251 401.7350421 C-292.23598746 397.4304992 -292.43736237 393.1257061 -292.63783944 388.82085252 C-292.85476504 384.18367252 -293.07687116 379.54674035 -293.29832458 374.90977478 C-293.73182897 365.81488128 -294.16042915 356.71976289 -294.5873142 347.62455654 C-294.93464842 340.22622575 -295.28376096 332.82798088 -295.63415337 325.42979431 C-295.68397438 324.37784967 -295.73379539 323.32590503 -295.78512613 322.24208328 C-295.8863462 320.1050523 -295.98757068 317.96802153 -296.08879953 315.83099097 C-297.03926241 295.76155022 -297.98421764 275.69185302 -298.92727994 255.62206334 C-299.73552022 238.42411321 -300.54830999 221.22638312 -301.36450195 204.02880859 C-302.31234131 184.05729749 -303.25741801 164.08565884 -304.19807714 144.11380816 C-304.2986024 141.9796246 -304.39913081 139.84544119 -304.4996624 137.71125793 C-304.5491214 136.66125472 -304.59858039 135.6112515 -304.64953815 134.52943 C-304.99715999 127.15343204 -305.34672202 119.77752752 -305.69703865 112.4016571 C-306.12487704 103.39236221 -306.54963783 94.38292828 -306.97056944 85.37330794 C-307.1851643 80.78170656 -307.40106624 76.19017732 -307.62070084 71.59881401 C-307.82233725 67.38285504 -308.01995371 63.1667262 -308.21456688 58.95043737 C-308.28507621 57.43733191 -308.3569643 55.92428981 -308.43049193 54.41132802 C-308.95477315 43.59934488 -309.07677434 32.82304412 -309 22 C-255.98074187 17.98265383 -202.96042775 13.97907446 -149.93566895 10.03491211 C-145.14677598 9.67864516 -140.35796261 9.32133499 -135.56921387 8.96313477 C-129.92324409 8.54088497 -124.27711737 8.12080082 -118.63085938 7.7024231 C-116.55662452 7.54838042 -114.48244488 7.39359232 -112.4083252 7.23800659 C-109.57672772 7.02574444 -106.74493979 6.81623161 -103.91308594 6.60742188 C-103.09107571 6.5451667 -102.26906548 6.48291153 -101.42214584 6.41876984 C-100.27681067 6.33516834 -100.27681067 6.33516834 -99.1083374 6.24987793 C-98.45511379 6.20127373 -97.80189018 6.15266953 -97.12887192 6.10259247 C-94.42217331 5.97215395 -91.70983976 6 -89 6 C-88.67 24.81 -88.34 43.62 -88 63 C-75.13 57.555 -75.13 57.555 -62 52 C-52.16699262 53.96660148 -43.19613945 59.0016785 -34 63 C-33.67 42.87 -33.34 22.74 -33 2 C-14 0 -14 0 0 0 Z M-193 91 C-194.39992188 91.62841797 -194.39992188 91.62841797 -195.828125 92.26953125 C-212.48400896 100.52609087 -224.06279072 115.74493031 -230.07421875 133.1015625 C-236.21472001 154.84792306 -234.16709447 177.39523531 -223.3203125 197.1796875 C-210.40587592 219.24416341 -187.36328867 231.73960464 -165.98535156 244.21191406 C-148.28764887 254.62563464 -148.28764887 254.62563464 -142.26171875 260.7734375 C-141.05426745 262.2323489 -141.05426745 262.2323489 -139 262 C-138.72285156 262.57621094 -138.44570313 263.15242187 -138.16015625 263.74609375 C-136.66252211 266.65563886 -134.8969858 269.35213768 -133.12109375 272.09765625 C-130.74952321 276.12188919 -130.80438592 279.73048606 -130.75 284.3125 C-130.72421875 285.60800781 -130.6984375 286.90351563 -130.671875 288.23828125 C-131.13067885 293.49813962 -132.6331954 296.73570574 -136.5 300.3125 C-142.11300078 304.10127553 -148.46965436 303.53324716 -155 303 C-160.79952935 301.55242272 -163.92411335 298.49803869 -166.9921875 293.48828125 C-171.01350845 283.55967099 -170.43697409 273.6974922 -171 263 C-192.12 263 -213.24 263 -235 263 C-235.0605185 300.85568823 -235.0605185 300.85568823 -216.26171875 331.8984375 C-215.51535156 332.59195313 -214.76898438 333.28546875 -214 334 C-213.32582031 334.63164062 -212.65164062 335.26328125 -211.95703125 335.9140625 C-194.89894432 350.44384011 -171.65708872 353.23248724 -150.125 353.25 C-149.38389984 353.25067474 -148.64279968 353.25134949 -147.87924194 353.25204468 C-122.83960655 353.21576174 -98.08025003 348.15818848 -79.66015625 329.88671875 C-65.96288741 315.02286901 -62.31710538 297.15941622 -62.6953125 277.61328125 C-63.44456751 259.34941633 -70.62697425 242.45595351 -83 229 C-84.05380859 227.80890625 -84.05380859 227.80890625 -85.12890625 226.59375 C-97.47582764 213.390274 -113.34705833 204.9473332 -129.0078125 196.32421875 C-162.24653295 177.98687865 -162.24653295 177.98687865 -166.60546875 164.06640625 C-167.92103722 157.17595358 -167.54730566 150.15436163 -164 144 C-159.50661699 139.2569846 -154.42501376 138.19246141 -148.0625 137.6875 C-143.00144158 137.86404855 -138.35794652 138.91083495 -134.4921875 142.3359375 C-127.84585391 150.49461047 -127.72842685 161.98616558 -127 172 C-96.48480347 172.19590663 -96.48480347 172.19590663 -66 171 C-64.76693528 148.94184223 -69.51789347 124.70037584 -84.375 107.75 C-85.90064595 106.15122391 -87.44140415 104.56667148 -89 103 C-89.59167969 102.37351562 -90.18335938 101.74703125 -90.79296875 101.1015625 C-108.12211309 84.19321416 -133.78945452 82.53937456 -156.51953125 82.78515625 C-169.5662749 83.04599392 -181.04512743 85.5955304 -193 91 Z " fill="#EB3F79" transform="translate(440,38)"/>
<path d="M0 0 C11.55 0 23.1 0 35 0 C37.51284044 49.833033 39.96383124 99.6684054 42.31730126 149.50921531 C42.59854243 155.4648699 42.88025059 161.42050227 43.16223907 167.37612152 C43.22387176 168.67781467 43.22387176 168.67781467 43.28674956 170.00580464 C43.37033732 171.77114804 43.45392619 173.53649138 43.53751615 175.30183467 C44.30585856 191.52950015 45.07294671 207.7572247 45.83953169 223.98497328 C46.49572682 237.87528222 47.15300661 251.76553952 47.81103516 265.65576172 C48.58382202 281.96841505 49.35600631 298.28109671 50.12718701 314.59382606 C50.20913208 316.32717628 50.29107773 318.06052648 50.37302399 319.79387665 C50.41330569 320.64593774 50.45358739 321.49799883 50.49508975 322.37587996 C50.77782796 328.35566712 51.06099254 334.33543401 51.3443222 340.31519318 C51.68715442 347.55105197 52.02931431 354.78694217 52.37059966 362.02287409 C52.5443264 365.70588292 52.71835628 369.38887676 52.89320183 373.07183266 C53.08230969 377.05542915 53.26996124 381.03909347 53.4574585 385.02276611 C53.51309424 386.18997578 53.56872999 387.35718544 53.62605166 388.5597651 C53.6758358 389.62262978 53.72561994 390.68549447 53.77691269 391.78056717 C53.82031084 392.69865323 53.86370899 393.6167393 53.90842223 394.56264615 C53.98899628 396.70713473 54 398.85399826 54 401 C40.8 401 27.6 401 14 401 C12.27894527 362.08141305 10.85192022 323.15597802 9.47040432 284.22426108 C9.24213365 277.79157837 9.01328243 271.35891654 8.78406143 264.92626762 C8.05988969 244.60231321 7.33761451 224.27829231 6.61684562 203.95421695 C6.05035857 187.98267314 5.4808795 172.01123757 4.91006409 156.03984792 C4.32023747 139.53565802 3.73252962 123.03139387 3.14705479 106.52704901 C2.81975707 97.30176376 2.4916244 88.07651009 2.16122055 78.85133553 C1.88095265 71.02547068 1.60267834 63.199538 1.32693611 55.37351234 C1.18657929 51.39150194 1.04533974 47.40952843 0.90158844 43.42763901 C0.76967304 39.7729423 0.64045175 36.11815992 0.51323904 32.46329658 C0.44562674 30.53969568 0.37526539 28.61619199 0.30475318 26.6926952 C-0.00164704 17.77833853 0 8.93460602 0 0 Z " fill="#B967C8" transform="translate(72,60)"/>
</svg>
