<?xml version="1.0" encoding="UTF-8"?>
<svg version="1.1" xmlns="http://www.w3.org/2000/svg" width="800" height="811">
<path d="M0 0 C1.68240909 -0.00307895 1.68240909 -0.00307895 3.39880624 -0.0062201 C7.16018905 -0.01187817 10.9215351 -0.01043432 14.68292141 -0.00901413 C17.40578014 -0.01104952 20.12863651 -0.01457312 22.85149378 -0.01801753 C29.55193567 -0.02558154 36.25236959 -0.02778978 42.95281531 -0.02834659 C50.98046391 -0.0292618 59.00810518 -0.03593399 67.03575062 -0.04269341 C86.43577553 -0.05873904 105.83579963 -0.06465492 125.23582998 -0.06944216 C134.41582551 -0.0717794 143.59582041 -0.07538218 152.77581544 -0.07913754 C184.20903034 -0.09197136 215.64224489 -0.10269101 247.07546234 -0.10614014 C249.04793704 -0.10636177 251.02041175 -0.10658355 252.99288645 -0.10680549 C254.97007874 -0.10702613 256.94727104 -0.10724661 258.92446333 -0.10746694 C262.89094134 -0.10790948 266.85741935 -0.1083566 270.82389736 -0.10880661 C271.80735026 -0.108916 272.79080316 -0.10902539 273.80405766 -0.1091381 C305.69178026 -0.11276864 337.57948012 -0.12868948 369.46719402 -0.15199697 C403.19280203 -0.1766027 436.91839705 -0.1903133 470.6440143 -0.19150805 C474.34743782 -0.1916795 478.05086134 -0.19189493 481.75428486 -0.19214249 C482.66615005 -0.19219826 483.57801525 -0.19225402 484.51751273 -0.19231148 C499.18012659 -0.19346123 513.84271708 -0.20447663 528.50532305 -0.21902954 C543.24756007 -0.23340831 557.98976719 -0.23662371 572.7320093 -0.22858956 C581.48478209 -0.22413995 590.23745823 -0.22796715 598.99021828 -0.24382807 C604.84467215 -0.25360389 610.69905857 -0.25237507 616.55351187 -0.24239184 C619.88412336 -0.23701848 623.2143997 -0.23790633 626.5450194 -0.24890056 C653.53100341 -0.33231924 677.70781993 2.57579525 698.42668056 21.38142776 C716.99415633 41.3771709 718.06435086 66.68819527 718.00186062 92.29497147 C718.00437735 95.07577422 718.01139376 97.85656171 718.01818043 100.63735688 C718.03051224 106.6702611 718.0317749 112.70308751 718.02563 118.73600006 C718.01651656 127.70744722 718.02458888 136.67882276 718.03592124 145.65026444 C718.05556612 161.67644556 718.05793975 177.7025943 718.05272604 193.72878459 C718.04816533 207.7549826 718.04877245 221.78116781 718.05456638 235.80736542 C718.05532326 237.69027153 718.05607924 239.57317764 718.05683433 241.45608375 C718.05797955 244.29360044 718.05912943 247.13111713 718.06029357 249.96863382 C718.07099528 276.34186854 718.07572718 302.71509901 718.06782341 329.08833504 C718.06737765 330.57891518 718.06737765 330.57891518 718.06692288 332.09960806 C718.06447406 340.16883972 718.06186242 348.23807133 718.05923875 356.30730293 C718.04913652 387.78141298 718.05749263 419.25546968 718.0807333 450.7295723 C718.10681539 486.10878383 718.11965135 521.48796325 718.11254555 556.86718476 C718.11182951 560.64074269 718.11115512 564.41430063 718.1105051 568.18785858 C718.11033529 569.11697223 718.11016549 570.04608588 718.10999053 571.00335449 C718.10768931 585.01745135 718.11565608 599.03151836 718.12879658 613.04560852 C718.14371695 628.98610607 718.1445387 644.92653371 718.12672567 660.86702977 C718.11717302 669.78204002 718.11857635 678.69688717 718.13596036 687.61188648 C718.14647171 693.57431434 718.14231881 699.53661833 718.12648032 705.49903406 C718.1178724 708.89129026 718.11759302 712.28296787 718.13074964 715.67524777 C718.23544933 744.74417741 712.28393249 765.9226868 692.01652431 787.78377151 C668.79593029 810.47576665 636.62946556 809.44461685 606.38883877 809.38539505 C603.79530564 809.3877041 601.20177316 809.39088359 598.60824203 809.39484954 C593.00605908 809.40201465 587.4039148 809.4018901 581.80173016 809.39675522 C573.47060154 809.38914006 565.13950509 809.39308357 556.80837664 809.39917183 C541.92258001 809.40966646 527.03680062 809.40880528 512.15100238 809.40301401 C499.12372212 809.39797103 486.09644817 809.39667501 473.06916714 809.3990593 C472.20303251 809.39921207 471.33689789 809.39936484 470.44451676 809.39952224 C466.9280675 809.40014497 463.41161825 809.40078178 459.89516901 809.40144176 C426.94829565 809.40755157 394.00143324 809.40202585 361.05456157 809.39124797 C331.82149902 809.38175767 302.5884539 809.38260697 273.3553915 809.39216995 C240.46647754 809.40289307 207.57757323 809.40711816 174.68865776 809.40094543 C171.17883651 809.40030405 167.66901525 809.39967836 164.15919399 809.3990593 C163.29506788 809.39890114 162.43094177 809.39874299 161.54063002 809.39858004 C148.52564429 809.39631081 135.51066557 809.39895496 122.49568081 809.4040184 C107.68821426 809.40975069 92.88076755 809.40827798 78.07330346 809.39745691 C69.79922607 809.39160882 61.5251917 809.39116537 53.25111547 809.39874926 C47.05542589 809.40379898 40.85978636 809.39827437 34.66410291 809.38880011 C32.17110364 809.38658057 29.67809854 809.38766953 27.18510306 809.39255169 C-29.84285549 809.49559652 -29.84285549 809.49559652 -50.38581944 792.13142776 C-51.16570225 791.49591995 -51.94558506 790.86041214 -52.74910069 790.20564651 C-70.244998 775.32188939 -80.38376121 755.01740915 -82.38581944 732.13142776 C-82.52450534 728.3488187 -82.52366533 724.56982069 -82.5172472 720.78498268 C-82.51929983 719.6554894 -82.52135247 718.52599613 -82.5234673 717.36227578 C-82.52913296 713.56806085 -82.52768058 709.77388227 -82.52626133 705.97966385 C-82.52829593 703.23561879 -82.5318197 700.49157609 -82.53526473 697.74753249 C-82.54283361 690.99087135 -82.54503722 684.23421812 -82.54559379 677.47755319 C-82.54650852 669.3835187 -82.55317927 661.2894915 -82.55994061 653.19546015 C-82.57599111 633.63445873 -82.58190264 614.0734581 -82.58668936 594.51245128 C-82.58902608 585.25761117 -82.5926288 576.00277169 -82.59638474 566.74793207 C-82.60921889 535.06292074 -82.6199386 503.37790976 -82.62338734 471.69289589 C-82.62360897 469.70438452 -82.62383075 467.71587315 -82.62405269 465.72736178 C-82.62427333 463.73407478 -82.62449381 461.74078778 -82.62471414 459.74750078 C-82.62515669 455.74868607 -82.6256038 451.74987137 -82.62605381 447.75105667 C-82.6262179 446.2638494 -82.6262179 446.2638494 -82.6263853 444.74659753 C-82.6300162 412.59570336 -82.6459382 380.44483174 -82.66924417 348.2939462 C-82.6938442 314.29571361 -82.70756024 280.2974939 -82.70875525 246.29925215 C-82.70892671 242.56664061 -82.70914213 238.83402908 -82.70938969 235.10141754 C-82.70944546 234.18235525 -82.70950122 233.26329295 -82.70955868 232.31638028 C-82.71070892 217.53150843 -82.72172848 202.74665973 -82.73627674 187.9617957 C-82.75064816 173.0996091 -82.75387505 158.23745216 -82.74583676 143.37526052 C-82.74138371 134.54875373 -82.74522816 125.72234275 -82.76107527 116.89584857 C-82.7708391 110.99476294 -82.76963365 105.09374429 -82.75963904 99.19265925 C-82.75425709 95.83375649 -82.75517403 92.47518663 -82.76614776 89.11627547 C-82.84467395 63.45309975 -82.84467395 63.45309975 -79.38581944 52.13142776 C-79.05199564 51.01779785 -79.05199564 51.01779785 -78.71142793 49.88167036 C-72.91323868 32.24330546 -61.75954525 18.01811749 -45.38581944 9.13142776 C-30.89038968 1.97126917 -15.96303744 -0.02736351 0 0 Z " fill="#FB7A24" transform="translate(82.38581943511963,-0.13142776489257813)"/>
<path d="M0 0 C1.28197266 -0.01224609 2.56394531 -0.02449219 3.88476562 -0.03710938 C43.93235446 -0.09775691 79.45472773 17.36143728 107.6875 45 C124.80678068 62.29303148 137.13511256 83.48917232 144.1875 106.75 C144.48575684 107.72151001 144.48575684 107.72151001 144.79003906 108.71264648 C148.58450032 121.90051462 148.84314809 135.14062072 148.8125 148.75 C148.81118576 150.17371414 148.81118576 150.17371414 148.80984497 151.62619019 C148.69933572 188.02350274 140.97361899 223.24860759 125.18530273 256.18823242 C123.73015748 260.07859627 124.08852385 263.31678915 125.4375 267.1875 C126.91308725 269.82858732 128.48877635 272.37158696 130.14282227 274.90405273 C144.01776437 296.35049457 149.07419793 322.14230352 148.9375 347.3125 C148.93606995 348.16612122 148.93463989 349.01974243 148.9331665 349.89923096 C148.87663267 363.56285116 147.66836849 376.12241889 143.4375 389.1875 C143.00977227 390.6391332 142.58267495 392.09095232 142.15625 393.54296875 C133.43323588 421.72077067 114.97062949 447.4939435 91.4375 465.1875 C90.66277344 465.77789063 89.88804687 466.36828125 89.08984375 466.9765625 C56.86944732 490.53671882 16.21052141 498.46956969 -23.0847168 493.52001953 C-51.73570778 488.85056282 -77.74929621 475.17200043 -98.5625 455.1875 C-99.05572754 454.73068848 -99.54895508 454.27387695 -100.05712891 453.80322266 C-119.58394204 435.70593321 -132.6953919 412.82123595 -140.3125 387.4375 C-140.51125732 386.77709717 -140.71001465 386.11669434 -140.91479492 385.4362793 C-142.54476355 379.76108206 -143.57721518 374.00524443 -144.5625 368.1875 C-144.78800537 369.20565796 -144.78800537 369.20565796 -145.01806641 370.24438477 C-150.80398835 396.07986013 -150.80398835 396.07986013 -156.5625 408.1875 C-157.03163818 409.17508301 -157.03163818 409.17508301 -157.51025391 410.18261719 C-165.46030306 426.65194978 -175.80431436 441.11908492 -188.5625 454.1875 C-189.28695312 454.97382812 -190.01140625 455.76015625 -190.7578125 456.5703125 C-215.34333865 482.60738263 -253.73202896 495.13525223 -288.7734375 496.40625 C-329.31777282 497.3487264 -366.33695009 482.30408959 -395.89208984 454.78344727 C-420.67703266 431.08609152 -437.90316173 396.18617117 -438.72363281 361.58349609 C-438.74316369 359.95936701 -438.75692999 358.33516074 -438.765625 356.7109375 C-438.77263931 355.8311322 -438.77965363 354.9513269 -438.78688049 354.04486084 C-438.80430367 351.21735467 -438.81073371 348.3900579 -438.8125 345.5625 C-438.81317474 344.59697205 -438.81384949 343.63144409 -438.81454468 342.63665771 C-438.79860311 328.29371459 -438.41868654 314.29009521 -435.5625 300.1875 C-435.39089355 299.31657715 -435.21928711 298.4456543 -435.04248047 297.54833984 C-431.38623129 279.52848799 -425.51362579 262.3966956 -417.40722656 245.89624023 C-415.14678991 241.15552028 -413.68789681 237.53765879 -414.5625 232.1875 C-415.97161397 229.14185059 -417.7486739 226.38087935 -419.5625 223.5625 C-438.96797453 191.67961556 -443.59263623 151.70188008 -435.75 115.4296875 C-426.38865618 77.43823385 -401.72262603 44.70013177 -368.5625 24.1875 C-335.20931432 4.11294666 -295.70369742 -2.19935104 -257.73388672 6.70874023 C-219.2873871 16.2951683 -185.44663022 41.76031654 -164.875 75.5625 C-155.1353231 92.1142352 -148.10924672 110.04299016 -145.5625 129.1875 C-144.39815828 125.2922477 -143.36271619 121.40747534 -142.484375 117.4375 C-140.0722156 106.55175149 -137.33961653 96.31043741 -132.5625 86.1875 C-132.09118652 85.18323975 -132.09118652 85.18323975 -131.61035156 84.15869141 C-123.84082316 67.92391207 -113.1668789 53.97508208 -100.5625 41.1875 C-99.7375 40.34960938 -98.9125 39.51171875 -98.0625 38.6484375 C-71.91438027 13.53667617 -35.91900074 0.01768538 0 0 Z " fill="#FEFEFE" transform="translate(548.5625,151.8125)"/>
<path d="M0 0 C10.55217425 7.19122348 17.60965255 18.04140734 20.3671875 30.54296875 C21.30846466 35.77063926 21.53353556 40.88409103 21.5 46.1875 C21.49436035 47.14124512 21.4887207 48.09499023 21.48291016 49.07763672 C20.99855396 77.97116248 11.23766682 106.43326067 -5.8125 129.75 C-6.72049204 131.02610602 -7.62663074 132.30353209 -8.53125 133.58203125 C-10.94210029 136.98323257 -13.37233769 140.36977517 -15.8125 143.75 C-15.08675781 143.88019531 -14.36101562 144.01039063 -13.61328125 144.14453125 C-5.58762208 145.87950639 1.01046255 149.40943637 7.1875 154.75 C7.80625 155.27464844 8.425 155.79929687 9.0625 156.33984375 C17.46631587 164.03730441 20.7338179 173.93978407 21.38279724 185.11207581 C21.4673022 188.98944139 21.49271132 192.86416186 21.48828125 196.7421875 C21.49217973 198.1788851 21.49651671 199.61558157 21.50126648 201.05227661 C21.50868395 204.04937492 21.50847026 207.04635533 21.50317383 210.04345703 C21.49738584 213.85134427 21.51431555 217.65874403 21.5375185 221.46655083 C21.55237402 224.43001036 21.55311164 227.39335567 21.55000877 230.35684586 C21.5505161 231.75922739 21.55564078 233.16161635 21.56582069 234.56396103 C21.6697517 250.87969563 18.81893412 263.44479434 7.53515625 275.42578125 C-3.07687416 285.93186793 -15.41042906 290.05049688 -30.15673828 290.06469727 C-42.55037273 289.84163824 -53.16013698 284.80427991 -62.2890625 276.49609375 C-74.37267255 263.90731605 -77.05948849 250.22946376 -77.19140625 233.3359375 C-77.20840073 232.19967926 -77.2253952 231.06342102 -77.24290466 229.89273071 C-77.29556917 226.30354189 -77.3361687 222.71436297 -77.375 219.125 C-77.41892649 215.49998437 -77.4654996 211.87505724 -77.51780701 208.25015259 C-77.54978966 206.00329316 -77.57667172 203.75635436 -77.59803772 201.5093689 C-77.61152756 200.50386993 -77.6250174 199.49837097 -77.63891602 198.46240234 C-77.64842789 197.57402679 -77.65793976 196.68565125 -77.66773987 195.77035522 C-77.59063353 193.753612 -77.59063353 193.753612 -78.8125 192.75 C-80.75965303 192.64676828 -82.71059605 192.61477524 -84.66047668 192.60955811 C-85.931875 192.60384796 -87.20327332 192.59813782 -88.51319885 192.59225464 C-89.93563833 192.59100908 -91.35807792 192.58988403 -92.78051758 192.58886719 C-94.26856612 192.58424105 -95.75661347 192.57921667 -97.24465942 192.57382202 C-101.30106123 192.56066611 -105.35744646 192.55424551 -109.41386628 192.54981136 C-111.95056714 192.54688246 -114.48726345 192.54277775 -117.02396202 192.53830719 C-124.96681473 192.5246166 -132.90965707 192.51496069 -140.85252076 192.5111053 C-150.00784805 192.50663694 -159.16302511 192.48915274 -168.31830674 192.4601047 C-175.39956298 192.43842198 -182.4807772 192.42839732 -189.56206626 192.42706418 C-193.78787897 192.42601977 -198.01355077 192.42019149 -202.23932838 192.40224457 C-206.2243199 192.38565233 -210.2090664 192.38366189 -214.19408035 192.39238358 C-215.64841179 192.39314834 -217.10275699 192.38888615 -218.55705452 192.37892532 C-232.92355027 192.28638772 -247.07111376 194.27869665 -258.0625 204.3125 C-265.12402742 211.84574889 -269.58730117 222.36456717 -270.5234375 232.6015625 C-270.63429688 233.70113281 -270.74515625 234.80070313 -270.859375 235.93359375 C-271.07584071 238.20390678 -271.28689739 240.47474291 -271.4921875 242.74609375 C-273.13783197 258.80982789 -278.5729056 272.13126914 -291.06640625 282.7421875 C-303.3686615 291.73700855 -315.97823065 294.47794853 -330.99609375 292.28515625 C-343.98271075 289.43114029 -354.28184306 282.82002471 -361.8203125 271.8203125 C-373.51862791 252.58417042 -372.43562573 232.20658753 -367.4140625 210.9375 C-361.10023563 185.90345303 -351.31294425 163.72674562 -334.8125 143.75 C-334.06871094 142.84636719 -333.32492187 141.94273437 -332.55859375 141.01171875 C-328.35401402 136.11597523 -323.84834755 131.78031305 -318.8125 127.75 C-317.31203125 126.53376953 -317.31203125 126.53376953 -315.78125 125.29296875 C-296.90550252 110.4824351 -274.66201334 100.76447271 -251.375 95.375 C-250.70235107 95.21902344 -250.02970215 95.06304687 -249.33666992 94.90234375 C-235.70955026 92.03035623 -221.56832574 92.59118469 -207.72302246 92.55076981 C-203.996612 92.53885177 -200.27031087 92.51937024 -196.54394531 92.49765015 C-185.95771432 92.43644543 -175.37151094 92.38175898 -164.78515625 92.34863281 C-158.2861458 92.32760743 -151.78734323 92.29225322 -145.28845215 92.24787521 C-142.82631891 92.23379163 -140.36414899 92.22501021 -137.90197754 92.22182083 C-112.4599705 92.54434652 -112.4599705 92.54434652 -90.59375 80.78125 C-80.7141361 70.60672226 -77.71724943 57.24464351 -77.4375 43.5 C-76.83798733 28.02592855 -71.97594781 14.80809004 -60.65234375 3.9296875 C-42.59996748 -9.92619415 -19.62342803 -11.5884298 0 0 Z " fill="#FB7A24" transform="translate(577.8125,258.25)"/>
<path d="M0 0 C12.2592192 7.69764926 19.3142595 17.88237242 22.85546875 31.79296875 C23.94833347 37.88777203 24.03291244 43.87203433 24.05859375 50.0546875 C24.06429382 51.12290237 24.0699939 52.19111725 24.0758667 53.29170227 C24.08527728 55.53991719 24.09183492 57.78814566 24.09570312 60.03637695 C24.1054662 63.4795699 24.13654999 66.9221798 24.16796875 70.36523438 C24.17449405 72.55338189 24.17974637 74.74153364 24.18359375 76.9296875 C24.19594055 77.95889816 24.20828735 78.98810883 24.2210083 80.04850769 C24.2180072 81.00662857 24.2150061 81.96474945 24.21191406 82.9519043 C24.21738251 84.21263008 24.21738251 84.21263008 24.22296143 85.49882507 C23.75680669 88.40888564 22.96889684 89.7431881 20.85546875 91.79296875 C18.621521 92.29417419 18.621521 92.29417419 15.97949219 92.29467773 C14.49083649 92.30874916 14.49083649 92.30874916 12.97210693 92.32310486 C11.89721008 92.31187088 10.82231323 92.3006369 9.71484375 92.2890625 C8.04328217 92.29124535 8.04328217 92.29124535 6.33795166 92.29347229 C3.97071735 92.29180982 1.60347262 92.28020994 -0.76367188 92.25952148 C-4.33902629 92.23091288 -7.912865 92.23883733 -11.48828125 92.25195312 C-29.81396387 92.23510856 -48.172706 92.08807069 -62.33203125 78.78515625 C-72.1114064 68.03627408 -75.57845973 52.5515321 -75.41796875 38.33203125 C-74.46271319 25.96829506 -68.86373421 14.90580296 -59.83203125 6.48046875 C-41.5015822 -8.66072987 -21.21067371 -11.34785053 0 0 Z " fill="#FB7A25" transform="translate(282.14453125,260.20703125)"/>
</svg>
